#N canvas 208 236 1004 891 12;
#X obj 137 298 bendin;
#X obj 129 389 pack;
#X obj 137 329 swap;
#X obj 125 417 route 2 3 4 5;
#X floatatom 98 459 5 0 0 0 - - - 0;
#X obj 98 486 vsl 19 162 0 16383 0 0 empty empty empty 0 -9 0 12 #fcfcfc #000000 #000000 0 1;
#X floatatom 137 459 5 0 0 0 - - - 0;
#X obj 137 486 vsl 19 162 0 16383 0 0 empty empty empty 0 -9 0 12 #fcfcfc #000000 #000000 0 1;
#X floatatom 176 459 5 0 0 0 - - - 0;
#X obj 176 486 vsl 19 162 0 16383 0 0 empty empty empty 0 -9 0 12 #fcfcfc #000000 #000000 0 1;
#X floatatom 215 459 5 0 0 0 - - - 0;
#X obj 215 486 vsl 19 162 0 16383 0 0 empty empty empty 0 -9 0 12 #fcfcfc #000000 #000000 0 1;
#X floatatom 282 459 5 0 0 0 - - - 0;
#X obj 282 486 vsl 19 162 0 16383 0 0 empty empty empty 0 -9 0 12 #fcfcfc #000000 #000000 0 1;
#X floatatom 321 459 5 0 0 0 - - - 0;
#X obj 321 486 vsl 19 162 0 16383 0 0 empty empty empty 0 -9 0 12 #fcfcfc #000000 #000000 0 1;
#X floatatom 360 459 5 0 0 0 - - - 0;
#X obj 360 486 vsl 19 162 0 16383 0 0 empty empty empty 0 -9 0 12 #fcfcfc #000000 #000000 0 1;
#X floatatom 399 459 5 0 0 0 - - - 0;
#X obj 399 486 vsl 19 162 0 16383 0 0 empty empty empty 0 -9 0 12 #fcfcfc #000000 #000000 0 1;
#X obj 309 417 route 18 19 20 21;
#X floatatom 448 459 5 0 0 0 - - - 0;
#X obj 448 486 vsl 19 162 0 16383 0 0 empty empty empty 0 -9 0 12 #fcfcfc #000000 #000000 0 1;
#X floatatom 487 459 5 0 0 0 - - - 0;
#X obj 487 486 vsl 19 162 0 16383 0 0 empty empty empty 0 -9 0 12 #fcfcfc #000000 #000000 0 1;
#X floatatom 526 459 5 0 0 0 - - - 0;
#X obj 526 486 vsl 19 162 0 16383 0 0 empty empty empty 0 -9 0 12 #fcfcfc #000000 #000000 0 1;
#X floatatom 565 459 5 0 0 0 - - - 0;
#X obj 565 486 vsl 19 162 0 16383 0 0 empty empty empty 0 -9 0 12 #fcfcfc #000000 #000000 0 1;
#X obj 475 417 route 34 35 36 37;
#X text 278 290 Three EAVIs in MIDI setup;
#X text 277 316 Each sending 4 channels of EMG;
#X text 275 344 14 bit (0-16383);
#X connect 0 0 2 0;
#X connect 0 1 2 1;
#X connect 1 0 3 0;
#X connect 2 0 1 0;
#X connect 2 1 1 1;
#X connect 3 0 4 0;
#X connect 3 1 6 0;
#X connect 3 2 8 0;
#X connect 3 3 10 0;
#X connect 3 4 20 0;
#X connect 4 0 5 0;
#X connect 6 0 7 0;
#X connect 8 0 9 0;
#X connect 10 0 11 0;
#X connect 12 0 13 0;
#X connect 14 0 15 0;
#X connect 16 0 17 0;
#X connect 18 0 19 0;
#X connect 20 0 12 0;
#X connect 20 1 14 0;
#X connect 20 2 16 0;
#X connect 20 3 18 0;
#X connect 20 4 29 0;
#X connect 21 0 22 0;
#X connect 23 0 24 0;
#X connect 25 0 26 0;
#X connect 27 0 28 0;
#X connect 29 0 21 0;
#X connect 29 1 23 0;
#X connect 29 2 25 0;
#X connect 29 3 27 0;
