#N canvas 30 116 1440 812 12;
#N canvas 0 22 450 300 (subpatch) 0;
#X array playobject 391688 float 0;
#X coords 0 1 391687 -1 200 140 1;
#X restore 331 445 graph;
#N canvas 822 445 533 413 sampleloader 0;
#X obj 144 49 inlet;
#X obj 143 114 select 0 1 2 3 4 5;
#X floatatom 143 91 5 0 0 0 - - - 0;
#X text 21 93 load in sample #;
#X msg 56 72 1;
#X msg 142 145 read -resize 01.wav playobject;
#X msg 162 177 read -resize 02.wav playobject;
#X msg 185 211 read -resize 03.wav playobject;
#X msg 204 243 read -resize 04.wav playobject;
#X msg 225 276 read -resize 05.wav playobject;
#X obj 137 313 soundfiler;
#X obj 56 48 loadbang;
#X connect 0 0 2 0;
#X connect 1 0 5 0;
#X connect 1 1 6 0;
#X connect 1 2 7 0;
#X connect 1 3 8 0;
#X connect 1 4 9 0;
#X connect 2 0 1 0;
#X connect 4 0 2 0;
#X connect 5 0 10 0;
#X connect 6 0 10 0;
#X connect 7 0 10 0;
#X connect 8 0 10 0;
#X connect 9 0 10 0;
#X connect 11 0 4 0;
#X restore 198 308 pd sampleloader;
#X floatatom 166 255 5 0 0 0 - - - 0;
#X text 44 257 load in sample #;
#X msg 166 233 0;
#X msg 197 233 1;
#X msg 231 233 2;
#X msg 262 233 3;
#X text 43 233 CLICK to select;
#X msg 293 233 4;
#X obj 168 636 tabread~ playobject;
#X obj 20 360 samplerate~;
#X obj 20 336 loadbang;
#X floatatom 116 549 5 0 0 0 - - - 0;
#X obj 249 570 snapshot~;
#X obj 249 541 metro 10;
#X obj 249 512 tgl 19 0 empty empty empty 0 -10 0 12 #fcfcfc #000000 #000000 0 1;
#X obj 168 550 phasor~ 20;
#X obj 168 607 *~ 361392;
#X obj 166 333 array size playobject;
#X floatatom 166 357 12 0 0 0 - - - 0;
#X obj 166 380 / 44100;
#X floatatom 166 404 5 0 0 0 - - - 0;
#X floatatom 166 451 5 0 0 0 - - - 0;
#X obj 166 427 expr 1/$f1;
#X obj 334 589 hsl 195 19 0 1 0 0 empty empty empty -2 -10 0 12 #fcfcfc #000000 #000000 0 1;
#X obj 249 488 loadbang;
#X obj 166 284 t b f;
#X obj 149 488 f;
#X obj 561 123 tgl 19 0 empty empty empty 0 -10 0 12 #fcfcfc #000000 #000000 0 1;
#X obj 561 147 select 0 1;
#X msg 561 171 0;
#X text 588 120 pause (0)/play (1);
#X obj 561 96 inlet;
#X obj 561 57 loadbang;
#N canvas 0 22 450 300 (subpatch) 0;
#X array playobject2 361392 float 0;
#X coords 0 1 361391 -1 200 140 1 0 0;
#X restore 775 448 graph;
#X floatatom 610 258 5 0 0 0 - - - 0;
#X msg 610 236 0;
#X msg 641 236 1;
#X msg 675 236 2;
#X msg 706 236 3;
#X msg 737 236 4;
#X floatatom 560 552 5 0 0 0 - - - 0;
#X obj 693 573 snapshot~;
#X obj 693 544 metro 10;
#X obj 693 515 tgl 19 0 empty empty empty 0 -10 0 12 #fcfcfc #000000 #000000 0 1;
#X obj 612 553 phasor~ 20;
#X obj 612 610 *~ 361392;
#X floatatom 610 360 12 0 0 0 - - - 0;
#X obj 610 383 / 44100;
#X floatatom 610 407 5 0 0 0 - - - 0;
#X floatatom 610 454 5 0 0 0 - - - 0;
#X obj 610 430 expr 1/$f1;
#X obj 778 592 hsl 195 19 0 1 0 0 empty empty empty -2 -10 0 12 #fcfcfc #000000 #000000 0 1;
#X obj 693 491 loadbang;
#X obj 610 287 t b f;
#X obj 593 491 f;
#N canvas 822 445 533 413 sampleloader2 0;
#X obj 144 49 inlet;
#X obj 143 114 select 0 1 2 3 4 5;
#X floatatom 143 91 5 0 0 0 - - - 0;
#X text 21 93 load in sample #;
#X obj 137 313 soundfiler;
#X obj 56 48 loadbang;
#X msg 142 145 read -resize 01.wav playobject2;
#X msg 162 177 read -resize 02.wav playobject2;
#X msg 185 211 read -resize 03.wav playobject2;
#X msg 204 243 read -resize 04.wav playobject2;
#X msg 225 276 read -resize 05.wav playobject2;
#X msg 56 72 2;
#X connect 0 0 2 0;
#X connect 1 0 6 0;
#X connect 1 1 7 0;
#X connect 1 2 8 0;
#X connect 1 3 9 0;
#X connect 1 4 10 0;
#X connect 2 0 1 0;
#X connect 5 0 11 0;
#X connect 6 0 4 0;
#X connect 7 0 4 0;
#X connect 8 0 4 0;
#X connect 9 0 4 0;
#X connect 10 0 4 0;
#X connect 11 0 2 0;
#X restore 642 311 pd sampleloader2;
#X obj 610 336 array size playobject2;
#X obj 612 639 tabread~ playobject2;
#N canvas 0 22 450 300 (subpatch) 0;
#X array playobject3 523766 float 0;
#X coords 0 1 523765 -1 200 140 1 0 0;
#X restore 1211 450 graph;
#X floatatom 1046 260 5 0 0 0 - - - 0;
#X msg 1046 238 0;
#X msg 1077 238 1;
#X msg 1111 238 2;
#X msg 1142 238 3;
#X msg 1173 238 4;
#X floatatom 996 554 5 0 0 0 - - - 0;
#X obj 1129 575 snapshot~;
#X obj 1129 546 metro 10;
#X obj 1129 517 tgl 19 0 empty empty empty 0 -10 0 12 #fcfcfc #000000 #000000 0 1;
#X obj 1048 555 phasor~ 20;
#X obj 1048 612 *~ 361392;
#X floatatom 1046 362 12 0 0 0 - - - 0;
#X obj 1046 385 / 44100;
#X floatatom 1046 409 5 0 0 0 - - - 0;
#X floatatom 1046 456 5 0 0 0 - - - 0;
#X obj 1046 432 expr 1/$f1;
#X obj 1214 594 hsl 195 19 0 1 0 0 empty empty empty -2 -10 0 12 #fcfcfc #000000 #000000 0 1;
#X obj 1129 493 loadbang;
#X obj 1046 289 t b f;
#X obj 1029 493 f;
#N canvas 822 445 533 413 sampleloader3 0;
#X obj 144 49 inlet;
#X obj 143 114 select 0 1 2 3 4 5;
#X floatatom 143 91 5 0 0 0 - - - 0;
#X text 21 93 load in sample #;
#X obj 137 313 soundfiler;
#X obj 56 48 loadbang;
#X msg 56 72 3;
#X msg 142 145 read -resize 01.wav playobject3;
#X msg 162 177 read -resize 02.wav playobject3;
#X msg 185 211 read -resize 03.wav playobject3;
#X msg 204 243 read -resize 04.wav playobject3;
#X msg 225 276 read -resize 05.wav playobject3;
#X connect 0 0 2 0;
#X connect 1 0 7 0;
#X connect 1 1 8 0;
#X connect 1 2 9 0;
#X connect 1 3 10 0;
#X connect 1 4 11 0;
#X connect 2 0 1 0;
#X connect 5 0 6 0;
#X connect 6 0 2 0;
#X connect 7 0 4 0;
#X connect 8 0 4 0;
#X connect 9 0 4 0;
#X connect 10 0 4 0;
#X connect 11 0 4 0;
#X restore 1078 313 pd sampleloader3;
#X obj 1046 338 array size playobject3;
#X obj 1048 641 tabread~ playobject3;
#X obj 168 670 dac~ 1;
#X obj 612 673 dac~ 2;
#X obj 1048 675 dac~ 3 4;
#X connect 2 0 27 0;
#X connect 4 0 2 0;
#X connect 5 0 2 0;
#X connect 6 0 2 0;
#X connect 7 0 2 0;
#X connect 9 0 2 0;
#X connect 10 0 85 0;
#X connect 11 0 21 1;
#X connect 11 0 49 1;
#X connect 11 0 74 1;
#X connect 12 0 11 0;
#X connect 13 0 17 0;
#X connect 14 0 25 0;
#X connect 15 0 14 0;
#X connect 16 0 15 0;
#X connect 17 0 14 0;
#X connect 17 0 18 0;
#X connect 18 0 10 0;
#X connect 19 0 20 0;
#X connect 20 0 21 0;
#X connect 20 0 18 1;
#X connect 21 0 22 0;
#X connect 22 0 24 0;
#X connect 23 0 17 0;
#X connect 23 0 28 1;
#X connect 24 0 23 0;
#X connect 26 0 16 0;
#X connect 27 0 19 0;
#X connect 27 1 1 0;
#X connect 28 0 13 0;
#X connect 29 0 30 0;
#X connect 30 0 31 0;
#X connect 30 1 28 0;
#X connect 30 1 56 0;
#X connect 30 1 6 0;
#X connect 30 1 81 0;
#X connect 30 1 37 0;
#X connect 30 1 66 0;
#X connect 31 0 13 0;
#X connect 31 0 42 0;
#X connect 31 0 67 0;
#X connect 33 0 29 0;
#X connect 34 0 29 0;
#X connect 36 0 55 0;
#X connect 37 0 36 0;
#X connect 38 0 36 0;
#X connect 39 0 36 0;
#X connect 40 0 36 0;
#X connect 41 0 36 0;
#X connect 42 0 46 0;
#X connect 43 0 53 0;
#X connect 44 0 43 0;
#X connect 45 0 44 0;
#X connect 46 0 43 0;
#X connect 46 0 47 0;
#X connect 47 0 59 0;
#X connect 48 0 49 0;
#X connect 48 0 47 1;
#X connect 49 0 50 0;
#X connect 50 0 52 0;
#X connect 51 0 46 0;
#X connect 51 0 56 1;
#X connect 52 0 51 0;
#X connect 54 0 45 0;
#X connect 55 0 58 0;
#X connect 55 1 57 0;
#X connect 56 0 42 0;
#X connect 58 0 48 0;
#X connect 59 0 86 0;
#X connect 61 0 80 0;
#X connect 62 0 61 0;
#X connect 63 0 61 0;
#X connect 64 0 61 0;
#X connect 65 0 61 0;
#X connect 66 0 61 0;
#X connect 67 0 71 0;
#X connect 68 0 78 0;
#X connect 69 0 68 0;
#X connect 70 0 69 0;
#X connect 71 0 68 0;
#X connect 71 0 72 0;
#X connect 72 0 84 0;
#X connect 73 0 74 0;
#X connect 73 0 72 1;
#X connect 74 0 75 0;
#X connect 75 0 77 0;
#X connect 76 0 71 0;
#X connect 76 0 81 1;
#X connect 77 0 76 0;
#X connect 79 0 70 0;
#X connect 80 0 83 0;
#X connect 80 1 82 0;
#X connect 81 0 67 0;
#X connect 83 0 73 0;
#X connect 84 0 87 0;
#X connect 84 0 87 1;
