#N canvas 64 37 1069 559 12;
#X declare -path .;
#N canvas 0 37 588 274 LICENSE 0;
#X text 79 84 (c) 2008 Reality Jockey;
#X text 57 36 Released under the GNU General Public License ver. 3 or later. See the file LICENSE.txt for the full text.;
#X restore 58 27 pd LICENSE;
#X obj 35 75 declare -path .;
#N canvas 0 37 536 303 LOADBANGS 0;
#X obj 172 140 s gain;
#X msg 172 119 1;
#X msg 290 121 0;
#X obj 290 142 s mode;
#X text 322 116 start in Play mode;
#X text 322 127 not Freeze mode;
#X obj 154 14 loadbang;
#X obj 154 57 s loadbang;
#X obj 154 36 bng 15 250 50 0 empty empty empty 17 7 0 10 #fcfcfc #000000 #000000;
#X obj 290 100 r loadbang;
#X obj 172 98 r loadbang;
#X obj 108 13 inlet;
#X msg 168 221 verbose 0;
#X obj 168 245 s bela_setMidi;
#X obj 168 190 r loadbang;
#X connect 1 0 0 0;
#X connect 2 0 3 0;
#X connect 6 0 8 0;
#X connect 8 0 7 0;
#X connect 9 0 2 0;
#X connect 10 0 1 0;
#X connect 11 0 8 0;
#X connect 12 0 13 0;
#X connect 14 0 12 0;
#X restore 36 51 pd LOADBANGS;
#X obj 36 31 bng 15 250 50 0 empty empty empty 17 7 0 10 #fcfcfc #000000 #000000;
#X obj 576 465 dac~, f 6;
#X floatatom 739 303 5 10 2000 0 - - - 0;
#X floatatom 784 303 5 0 100 0 - - - 0;
#X text 784 267 var %, f 4;
#X floatatom 585 218 5 0 0 0 - - - 0;
#X floatatom 829 303 5 0 0 0 - - - 0;
#X floatatom 874 303 5 0 1000 0 - - - 0;
#X text 876 267 var %, f 4;
#X floatatom 635 218 5 0 0 0 - - - 0;
#X text 825 267 transp (cts), f 6;
#X floatatom 648 303 5 10 2000 0 - - - 0;
#X floatatom 693 303 5 0 2500 0 - - - 0;
#X obj 702 29 tgl 19 0 empty empty empty 0 -10 0 12 #fcfcfc #000000 #000000 0 1;
#X floatatom 603 303 5 0 0 0 - - - 0;
#X floatatom 919 303 5 0 0 0 - - - 0;
#N canvas 45 436 455 198 triangle-window 0;
#X text 256 9 window shape;
#X obj 20 26 loadbang;
#X obj 20 85 soundfiler;
#N canvas 179 217 450 300 (subpatch) 0;
#X array wndw 512 float 0;
#X coords 0 1 511 -1 200 140 1 0 0;
#X restore 210 32 graph;
#X obj 21 122 s trisize;
#X msg 20 55 read -resize tri wndw;
#X connect 1 0 5 0;
#X connect 2 0 4 0;
#X connect 5 0 2 0;
#X restore 35 97 pd triangle-window;
#X floatatom 558 303 5 0 0 0 - - - 0;
#X obj 513 303 tgl 19 0 empty empty empty 17 7 0 10 #fcfcfc #000000 #000000 0 1;
#X text 551 267 time stretch, f 7;
#X floatatom 534 218 5 0 0 0 - - - 0;
#X text 494 267 play/ freeze, f 6;
#X text 620 7 Play patch manually;
#X floatatom 546 177 5 10 2000 0 - - - 0;
#X floatatom 507 177 3 0 0 0 - - - 0;
#X text 914 267 pitchquant (cents), f 10;
#X text 686 267 posvar (ms), f 6;
#X text 608 267 var %, f 3;
#X text 740 253 gran dur (ms), f 4;
#X text 206 29 Bela IDE monitor, f 17;
#X text 492 141 density (Hz), f 7;
#X text 543 141 metro (ms), f 5;
#X text 645 267 pos (ms), f 5;
#X obj 495 92 bela-knobs-buttons-leds, f 30;
#X floatatom 514 382 5 0 0 0 - - - 0;
#X obj 555 383 bng 19 250 50 0 empty empty empty 0 -10 0 12 #fcfcfc #000000 #000000;
#X obj 513 325 cloud-params doublebuf1, f 59;
#X obj 507 199 cloud-player doublebuf1;
#X text 624 233 transp (cts), f 6;
#X text 530 233 time stretch, f 7;
#X text 584 233 gran dur, f 4;
#X obj 738 117 vsl 16 100 0 1 0 0 empty empty empty 0 -9 0 12 #01e4e9 #000000 #000000 0 1;
#X obj 759 117 vsl 16 100 0 1 0 0 empty empty empty 0 -9 0 12 #01e4e9 #000000 #000000 0 1;
#N canvas 0 248 527 390 mapper 0;
#X obj 20 24 inlet;
#X floatatom 20 48 5 0 0 0 - - - 0;
#X obj 37 116 m_scale 0 1 0 100;
#X floatatom 37 140 5 0 0 0 - - - 0;
#X floatatom 76 93 5 0 0 0 - - - 0;
#X floatatom 115 93 5 0 0 0 - - - 0;
#X floatatom 154 93 5 0 0 0 - - - 0;
#X obj 37 258 send;
#X msg 72 204 symbol doublebuf1-stretch;
#X symbolatom 62 232 25 0 0 0 - - - 0;
#X obj 63 48 route send min max curve;
#X obj 63 24 r map1;
#X obj 249 24 inlet;
#X floatatom 249 48 5 0 0 0 - - - 0;
#X obj 266 116 m_scale 0 1 0 100;
#X floatatom 266 140 5 0 0 0 - - - 0;
#X floatatom 305 93 5 0 0 0 - - - 0;
#X floatatom 344 93 5 0 0 0 - - - 0;
#X floatatom 383 93 5 0 0 0 - - - 0;
#X obj 266 258 send;
#X symbolatom 291 232 25 0 0 0 - - - 0;
#X obj 292 48 route send min max curve;
#X obj 292 24 r map2;
#X msg 301 204 symbol doublebuf1-dur;
#X msg 79 281 \; map1 send symbol doublebuf1-dur \; map1 min 0 \; map1 max 100 \; map1 curve 2 \;, f 33;
#X connect 0 0 1 0;
#X connect 1 0 2 0;
#X connect 2 0 3 0;
#X connect 3 0 7 0;
#X connect 4 0 2 3;
#X connect 5 0 2 4;
#X connect 6 0 2 5;
#X connect 8 0 9 0;
#X connect 9 0 7 1;
#X connect 10 0 9 0;
#X connect 10 1 4 0;
#X connect 10 2 5 0;
#X connect 10 3 6 0;
#X connect 11 0 10 0;
#X connect 12 0 13 0;
#X connect 13 0 14 0;
#X connect 14 0 15 0;
#X connect 15 0 19 0;
#X connect 16 0 14 3;
#X connect 17 0 14 4;
#X connect 18 0 14 5;
#X connect 20 0 19 1;
#X connect 21 0 20 0;
#X connect 21 1 16 0;
#X connect 21 2 17 0;
#X connect 21 3 18 0;
#X connect 22 0 21 0;
#X connect 23 0 20 0;
#X restore 738 230 pd mapper;
#X f 10;
#N canvas 0 22 450 300 (subpatch) 0;
#X array doublebuf1 220500 float 0;
#X coords 0 1 220499 -1 200 140 1 0 0;
#X restore 37 356 graph;
#X text 203 499 220500 samples = 5 sec @ 44.1Khz, f 17;
#X text 342 499 Each half = 2.5 sec, f 13;
#X obj 76 213 bng 19 250 50 0 empty empty empty 0 -10 0 12 #fcfcfc #000000 #000000;
#X obj 139 213 bng 19 250 50 0 empty empty empty 0 -10 0 12 #fcfcfc #000000 #000000;
#X text 33 146 start first recording, f 12;
#X obj 36 248 adc~ 1;
#X text 131 353 | | | | | | | | | |, f 2;
#X text 39 499 Buffer contains two copies of 2500ms, f 20;
#X text 124 145 start second recording half buffer in, f 22;
#X text 671 495 for ERAMAA TRIO 2024;
#X text 671 519 Atau Tanaka;
#X obj 36 282 tabwrite~ doublebuf1;
#X obj 180 282 tabwrite~ doublebuf1;
#X obj 183 28 tgl 19 1 empty empty empty 0 -10 0 12 #fcfcfc #000000 #000000 0 1;
#X obj 738 37 r cv0;
#X obj 784 37 r cv1;
#X text 440 53 COMPOSITION HERE, f 11;
#X obj 252 248 adc~ 2;
#X obj 106 307 tabwrite~ doublebuf2;
#X obj 252 307 tabwrite~ doublebuf2;
#N canvas 0 22 450 300 (subpatch) 0;
#X array doublebuf2 220500 float 0;
#X coords 0 1 220499 -1 200 140 1 0 0;
#X restore 242 356 graph;
#X text 336 353 | | | | | | | | | |, f 2;
#X text 671 471 DEPLACEMENT for EMG and CHAMBER TRIO -- STEREO VERSION;
#N canvas 92 129 465 429 alternator4 0;
#X obj 35 43 tgl 19 0 empty empty empty 0 -10 0 12 #fcfcfc #000000 #000000 0 1;
#X floatatom 98 48 10 0 0 0 - - - 0;
#X obj 31 302 bng 19 250 50 0 empty empty empty 0 -10 0 12 #fcfcfc #000000 #000000;
#X obj 64 302 bng 19 250 50 0 empty empty empty 0 -10 0 12 #fcfcfc #000000 #000000;
#X obj 35 19 loadbang;
#X text 131 77 5 sec buffer \, with two recordings starting half a buffer apart, f 33;
#X text 152 242 trigger rec - first half \, second half;
#X obj 31 339 outlet;
#X obj 62 367 outlet;
#X floatatom 38 204 5 0 0 0 - - - 0;
#X obj 37 131 i;
#X msg 59 107 0;
#X obj 37 155 + 1;
#X obj 37 180 t f f;
#X obj 37 107 bng 19 250 50 0 empty empty empty 0 -10 0 12 #fcfcfc #000000 #000000;
#X obj 35 67 metro 1250;
#X obj 38 227 select 4;
#X obj 37 261 select 1 2 3 4;
#X obj 134 302 bng 19 250 50 0 empty empty empty 0 -10 0 12 #fcfcfc #000000 #000000;
#X obj 167 302 bng 19 250 50 0 empty empty empty 0 -10 0 12 #fcfcfc #000000 #000000;
#X obj 134 339 outlet;
#X obj 165 367 outlet;
#X connect 0 0 15 0;
#X connect 1 0 15 1;
#X connect 2 0 7 0;
#X connect 3 0 8 0;
#X connect 4 0 0 0;
#X connect 9 0 16 0;
#X connect 9 0 17 0;
#X connect 10 0 12 0;
#X connect 11 0 10 1;
#X connect 12 0 13 0;
#X connect 13 0 9 0;
#X connect 13 1 10 1;
#X connect 14 0 10 0;
#X connect 15 0 14 0;
#X connect 16 0 11 0;
#X connect 17 0 2 0;
#X connect 17 1 3 0;
#X connect 17 2 18 0;
#X connect 17 3 19 0;
#X connect 18 0 20 0;
#X connect 19 0 21 0;
#X restore 76 188 pd alternator4;
#X obj 106 225 bng 19 250 50 0 empty empty empty 0 -10 0 12 #fcfcfc #000000 #000000;
#X obj 171 225 bng 19 250 50 0 empty empty empty 0 -10 0 12 #fcfcfc #000000 #000000;
#X obj 514 408 cloud-chan-stereo doublebuf1 doublebuf2, f 23;
#N canvas 40 158 1243 494 parameter-monitor 0;
#X text 90 10 monitor parameters in Bela IDE console;
#X obj 106 67 tgl 19 0 empty empty empty 0 -10 0 12 #fcfcfc #000000 #000000 0 1;
#X obj 106 134 t b b b b b, f 30;
#X obj 530 443 print;
#X obj 106 42 inlet;
#X obj 106 261 pack 0 0 0 0 0 0 0 0, f 55;
#X obj 106 236 f;
#X obj 156 236 f;
#X obj 209 236 f;
#X obj 261 236 f;
#X obj 314 236 f;
#X obj 384 232 f;
#X obj 434 232 f;
#X obj 487 232 f;
#X obj 452 161 r cv6;
#X obj 528 190 r cv7;
#X msg 646 290 cv0 \$1 cv1 \$2 dry \$3 wet \$4 cv4 \$5 cv5 \$6 cv6 \$7 cv7 \$8;
#X obj 19 159 r doublebuf1-density;
#X obj 81 189 r doublebuf1-pos;
#X obj 171 160 r doublebuf1-dur;
#X obj 210 189 r doublebuf1-transp;
#X obj 297 163 r doublebuf1-stretch;
#X obj 106 90 metro 2000;
#X obj 391 191 r doublebuf1-metro;
#X msg 111 293 dens-metro \$1 pos \$2 dur \$3 transp \$4 stretch \$5 metro \$6;
#X obj 647 153 t b b b b b, f 30;
#X obj 647 254 pack 0 0 0 0 0 0 0 0, f 55;
#X obj 647 229 f;
#X obj 697 229 f;
#X obj 750 229 f;
#X obj 802 229 f;
#X obj 855 229 f;
#X obj 925 225 f;
#X obj 975 225 f;
#X obj 1028 225 f;
#X obj 945 184 r cv6;
#X obj 990 184 r cv7;
#X obj 666 184 r cv0;
#X obj 708 184 r cv1;
#X obj 751 184 r cv2;
#X obj 793 184 r cv3;
#X obj 835 184 r cv4;
#X obj 887 184 r cv5;
#X connect 1 0 22 0;
#X connect 2 0 6 0;
#X connect 2 1 7 0;
#X connect 2 2 8 0;
#X connect 2 3 9 0;
#X connect 2 4 10 0;
#X connect 2 4 11 0;
#X connect 2 4 13 0;
#X connect 2 4 12 0;
#X connect 4 0 1 0;
#X connect 5 0 24 0;
#X connect 6 0 5 0;
#X connect 7 0 5 1;
#X connect 8 0 5 2;
#X connect 9 0 5 3;
#X connect 10 0 5 4;
#X connect 11 0 5 5;
#X connect 12 0 5 6;
#X connect 13 0 5 7;
#X connect 14 0 12 1;
#X connect 15 0 13 1;
#X connect 16 0 3 0;
#X connect 17 0 6 1;
#X connect 18 0 7 1;
#X connect 19 0 8 1;
#X connect 20 0 9 1;
#X connect 21 0 10 1;
#X connect 22 0 2 0;
#X connect 22 0 25 0;
#X connect 23 0 11 1;
#X connect 24 0 3 0;
#X connect 25 0 27 0;
#X connect 25 1 28 0;
#X connect 25 2 29 0;
#X connect 25 3 30 0;
#X connect 25 4 31 0;
#X connect 25 4 32 0;
#X connect 25 4 34 0;
#X connect 25 4 33 0;
#X connect 26 0 16 0;
#X connect 27 0 26 0;
#X connect 28 0 26 1;
#X connect 29 0 26 2;
#X connect 30 0 26 3;
#X connect 31 0 26 4;
#X connect 32 0 26 5;
#X connect 33 0 26 6;
#X connect 34 0 26 7;
#X connect 35 0 33 1;
#X connect 36 0 34 1;
#X connect 37 0 27 1;
#X connect 38 0 28 1;
#X connect 39 0 29 1;
#X connect 40 0 30 1;
#X connect 41 0 31 1;
#X connect 42 0 32 1;
#X restore 183 54 pd parameter-monitor;
#X f 21;
#N canvas 81 402 607 469 emg 0;
#X obj 28 239 vsl 19 162 0 1 0 0 empty empty empty 0 -9 0 12 #fcfcfc #000000 #000000 0 1;
#X obj 109 239 vsl 19 162 0 1 0 0 empty empty empty 0 -9 0 12 #fcfcfc #000000 #000000 0 1;
#X obj 109 206 eavi-rms;
#N canvas 333 268 250 226 range 0;
#X floatatom 37 78 5 0 0 0 - - - 0;
#X obj 37 101 - 8192;
#X obj 37 125 / 8192;
#X floatatom 37 149 5 0 0 0 - - - 0;
#X obj 37 45 inlet;
#X obj 37 180 outlet;
#X text 98 94 14 bit value converted to -1 to 1, f 14;
#X connect 0 0 1 0;
#X connect 1 0 2 0;
#X connect 2 0 3 0;
#X connect 3 0 5 0;
#X connect 4 0 0 0;
#X restore 28 164 pd range;
#N canvas 333 268 250 226 range 0;
#X floatatom 37 78 5 0 0 0 - - - 0;
#X obj 37 101 - 8192;
#X obj 37 125 / 8192;
#X floatatom 37 149 5 0 0 0 - - - 0;
#X obj 37 45 inlet;
#X obj 37 180 outlet;
#X text 98 94 14 bit value converted to -1 to 1, f 14;
#X connect 0 0 1 0;
#X connect 1 0 2 0;
#X connect 2 0 3 0;
#X connect 3 0 5 0;
#X connect 4 0 0 0;
#X restore 109 164 pd range;
#X floatatom 189 166 5 0 0 0 - - - 0;
#X text 189 131 smoothing (ms), f 10;
#X obj 474 123 loadbang;
#X obj 28 206 eavi-rms;
#X msg 474 147 200;
#X floatatom 368 166 5 0 0 0 - - - 0;
#X text 368 132 amplification;
#X msg 543 148 10;
#X obj 28 409 outlet;
#X obj 109 409 outlet;
#X obj 28 136 bendin 2;
#X obj 109 136 bendin 3;
#X obj 314 61 inlet;
#X obj 369 61 inlet;
#X obj 369 109 + 1;
#X obj 369 85 * 20;
#X text 26 22 strangely \, EMG-1 comes out of Bendin 2...;
#X text 438 50 gain 1 and 2;
#X floatatom 314 167 5 0 0 0 - - - 0;
#X text 314 133 amplification;
#X obj 315 110 + 1;
#X obj 315 86 * 20;
#X connect 0 0 13 0;
#X connect 1 0 14 0;
#X connect 2 0 1 0;
#X connect 3 0 8 0;
#X connect 4 0 2 0;
#X connect 5 0 8 1;
#X connect 5 0 2 1;
#X connect 7 0 9 0;
#X connect 8 0 0 0;
#X connect 9 0 5 0;
#X connect 10 0 2 3;
#X connect 12 0 10 0;
#X connect 12 0 23 0;
#X connect 15 0 3 0;
#X connect 16 0 4 0;
#X connect 17 0 26 0;
#X connect 18 0 20 0;
#X connect 19 0 10 0;
#X connect 20 0 19 0;
#X connect 23 0 8 3;
#X connect 25 0 23 0;
#X connect 26 0 25 0;
#X coords 0 469 1 468 85 60 0;
#X restore 738 63 pd emg;
#X f 7;
#N canvas 9 113 1382 781 ble-midi 0;
#X msg 316 421 disconnect;
#X obj 288 450 netsend -u -b;
#X obj 303 371 loadbang;
#X text 389 451 send as UDP \, binary;
#X text 289 27 Spaces are delimiters instead of forward slash /;
#X msg 303 395 connect localhost 36892;
#X text 291 51 Set sets message \, then send data;
#X obj 29 403 select 1;
#X obj 29 427 t b b;
#X msg 61 454 set connect;
#X obj 289 126 select 1;
#X obj 289 150 t b b;
#X msg 321 177 set connect_alias;
#X obj 288 337 oscformat;
#X obj 29 508 list append 123456;
#X obj 491 130 select 1;
#X obj 491 181 bng 19 250 50 0 empty empty empty 0 -10 0 12 #fcfcfc #000000 #000000;
#X msg 523 181 set link_alsa;
#X obj 491 154 t b b;
#X msg 289 231 symbol EAVI;
#X msg 874 141 hw 1 0 0;
#X obj 874 111 select 1;
#X obj 874 169 s bela_setMidi;
#X msg 33 227 symbol E2:16:01:30:32:30;
#X msg 33 149 symbol E2:16:01:39:31:30;
#X msg 36 74 symbol E2:16:01:37:31:30;
#X text 38 44 EAVI 17 Viola;
#X text 35 120 EAVI 19 Bass clarinet;
#X text 36 198 EAVI 20 Piano;
#X obj 29 375 change;
#X obj 289 98 change;
#X obj 491 102 change;
#X obj 874 83 change;
#X msg 29 481 symbol E2:16:01:37:31:30;
#X obj 289 74 r button1;
#X obj 584 255 oscparse;
#X obj 584 221 netreceive -u -b 36893;
#X obj 584 356 print connect;
#X obj 661 383 print connect_alias;
#X obj 739 409 print link_alsa;
#X obj 584 291 route list;
#X obj 584 324 route connect connect_alias link_alsa wd_status wd_PANIC;
#X text 697 463 strip timestamp;
#X obj 895 360 bng 19 250 50 0 empty empty empty 0 -10 0 12 #fcfcfc #000000 #000000;
#X obj 817 443 unpack 0 0 0;
#X floatatom 817 467 5 0 0 0 - - - 0;
#X floatatom 858 467 5 0 0 0 - - - 0;
#X floatatom 898 468 5 0 0 0 - - - 0;
#X obj 858 515 bng 19 250 50 0 empty empty empty 0 -10 0 12 #fcfcfc #000000 #000000;
#X obj 895 515 bng 19 250 50 0 empty empty empty 0 -10 0 12 #fcfcfc #000000 #000000;
#X obj 895 544 f;
#X obj 895 592 bng 19 250 50 0 empty empty empty 0 -10 0 12 #fcfcfc #000000 #000000;
#X obj 928 593 bng 19 250 50 0 empty empty empty 0 -10 0 12 #fcfcfc #000000 #000000;
#X obj 858 490 select 16 0;
#X text 867 291 need data on PANIC;
#X obj 895 568 select 4 0;
#X msg 928 617 Connected...;
#X msg 895 641 Reconnecting;
#X msg 858 666 DISCONNECTED;
#X obj 518 722 tgl 19 0 empty empty empty 0 -10 0 12 #fcfcfc #000000 #000000 0 1;
#X obj 543 745 tgl 19 0 empty empty empty 0 -10 0 12 #fcfcfc #000000 #000000 0 1;
#X obj 543 721 metro 150;
#X obj 564 695 unpack;
#X msg 564 662 1 150;
#X msg 618 662 1 350;
#X msg 671 662 1 1000;
#X obj 543 768 outlet;
#X obj 789 359 print status;
#X text 575 104 watchdog takes care of this;
#X obj 800 62 loadbang;
#X obj 874 59 r button2;
#X text 30 270 EAVI 8 Piano;
#X msg 27 299 symbol E2:16:01:38:30:30;
#X obj 1021 717 print EAVI-BLE;
#X obj 1021 692 spigot;
#X obj 895 415 print PANIC;
#X obj 895 391 spigot;
#X obj 979 415 print other;
#X obj 979 387 spigot;
#X obj 1109 317 r verbose;
#X obj 1109 341 tgl 19 0 empty empty empty 0 -10 0 12 #fcfcfc #000000 #000000 0 1;
#X obj 248 521 print sendosc;
#X obj 248 493 spigot;
#X msg 484 534 16;
#X msg 564 534 4;
#X msg 648 534 0;
#X text 425 513 disconnected / reconnecting / connected;
#X floatatom 564 583 5 0 0 0 - - - 0;
#X obj 564 606 change;
#X obj 564 630 select 16 4 0;
#X text 357 608 avoid hiccup in LED flashing;
#X obj 407 541 loadbang;
#X msg 407 565 1;
#X connect 0 0 1 0;
#X connect 2 0 5 0;
#X connect 5 0 1 0;
#X connect 5 0 82 0;
#X connect 7 0 8 0;
#X connect 8 0 33 0;
#X connect 8 1 9 0;
#X connect 10 0 11 0;
#X connect 11 0 19 0;
#X connect 11 1 12 0;
#X connect 12 0 13 0;
#X connect 13 0 1 0;
#X connect 13 0 82 0;
#X connect 15 0 18 0;
#X connect 16 0 13 0;
#X connect 17 0 13 0;
#X connect 18 0 16 0;
#X connect 18 1 17 0;
#X connect 19 0 13 0;
#X connect 20 0 22 0;
#X connect 21 0 20 0;
#X connect 29 0 7 0;
#X connect 30 0 10 0;
#X connect 31 0 15 0;
#X connect 32 0 21 0;
#X connect 33 0 14 0;
#X connect 34 0 30 0;
#X connect 35 0 40 0;
#X connect 36 0 35 0;
#X connect 40 0 41 0;
#X connect 41 0 37 0;
#X connect 41 1 38 0;
#X connect 41 2 39 0;
#X connect 41 3 44 0;
#X connect 41 4 43 0;
#X connect 41 5 78 0;
#X connect 43 0 76 0;
#X connect 44 0 45 0;
#X connect 44 1 46 0;
#X connect 44 2 47 0;
#X connect 46 0 53 0;
#X connect 47 0 50 1;
#X connect 48 0 58 0;
#X connect 48 0 83 0;
#X connect 49 0 50 0;
#X connect 50 0 55 0;
#X connect 51 0 57 0;
#X connect 51 0 84 0;
#X connect 52 0 56 0;
#X connect 52 0 85 0;
#X connect 53 0 48 0;
#X connect 53 1 49 0;
#X connect 55 0 51 0;
#X connect 55 1 52 0;
#X connect 56 0 74 0;
#X connect 57 0 74 0;
#X connect 58 0 74 0;
#X connect 59 0 61 0;
#X connect 60 0 66 0;
#X connect 61 0 60 0;
#X connect 62 0 59 0;
#X connect 62 1 61 1;
#X connect 63 0 62 0;
#X connect 64 0 62 0;
#X connect 65 0 62 0;
#X connect 69 0 20 0;
#X connect 70 0 32 0;
#X connect 74 0 73 0;
#X connect 76 0 75 0;
#X connect 78 0 77 0;
#X connect 79 0 80 0;
#X connect 80 0 78 1;
#X connect 80 0 76 1;
#X connect 80 0 74 1;
#X connect 80 0 82 1;
#X connect 82 0 81 0;
#X connect 83 0 87 0;
#X connect 84 0 87 0;
#X connect 85 0 87 0;
#X connect 87 0 88 0;
#X connect 88 0 89 0;
#X connect 89 0 63 0;
#X connect 89 1 64 0;
#X connect 89 2 65 0;
#X connect 91 0 92 0;
#X connect 92 0 87 0;
#X restore 495 26 pd ble-midi;
#X text 204 77 Verbose to console;
#X obj 182 77 tgl 19 0 empty empty empty 0 -10 0 12 #fcfcfc #000000 #000000 0 1;
#X obj 182 101 s verbose;
#N canvas 776 727 602 250 credits 0;
#X text 20 139 msp Granular Synthesis;
#X text 19 157 Adam Parkinson / RJDJ iOS / 2010;
#X text 183 138 nobuyasu sakodna / MaxMSP / 1999;
#X text 19 65 Based on our port of Sakonda-san's MSP granular synth;
#X text 19 82 Combined with Cipriani & Giri's Gen~ cloud generator from their Vol. 3 book, f 77;
#X text 20 175 Atau Tanaka 2024;
#X text 19 46 Granular cloud CLONE generator;
#X text 20 102 granular engine plays one grain at a time at density \, overflowing to next available grain when busy \, uses clone object to instantiate grains, f 77;
#X text 20 23 BTMIDID BLE MIDI by Nathan Adams;
#X restore 831 496 pd credits;
#X text 829 57 Knob 2 (1) : EMG gain 2 (1-20x);
#X text 829 34 Knob 1 (0) : EMG gain 1 (1-20x);
#N canvas 50 66 1187 420 cuelist 0;
#X obj 308 164 text define -k mycuelist;
#A set mycue 1 \; 180 mycue 2 \; 30 mycue 3 \; 30 mycue 4 \; 60 mycue 5 \; 240 mycue 6 \; 120 mycue 7 \; 60 mycue 8 \; 60 mycue 9 \;;
#X msg 276 134 line 0;
#X msg 195 134 auto;
#X msg 233 134 stop;
#X text 275 115 rewind;
#X obj 232 189 text sequence mycuelist -g -t 1 sec;
#X obj 195 33 r button4;
#X obj 195 60 change;
#X obj 195 84 select 1;
#X obj 195 108 t b b;
#X msg 243 60 1;
#X text 346 106 mycuelist keeps list of time (sec) and cue numbers, f 20;
#N canvas 40 283 855 621 drone 0;
#X obj 450 40 inlet;
#X text 58 144 viola;
#X text 352 311 bassclar;
#X text 567 311 piano;
#X msg 559 342 \; doublebuf1-density 3 \; doublebuf1-metro 450 \; doublebuf1-freeze 0 \; doublebuf1-stretch 3 \; doublebuf1-stretchvar 0 \; doublebuf1-pos 0 \; doublebuf1-posvar 0 \; doublebuf1-dur 2200 \; doublebuf1-durvar 0 \; doublebuf1-transp 60 \; doublebuf1-transpvar 0 \; doublebuf1-pitchquant 0 \;;
#X msg 50 175 \; doublebuf1-density 3 \; doublebuf1-metro 500 \; doublebuf1-freeze 1 \; doublebuf1-stretch 2 \; doublebuf1-stretchvar 0 \; doublebuf1-pos 0 \; doublebuf1-posvar 0 \; doublebuf1-dur 1000 \; doublebuf1-durvar 0 \; doublebuf1-transp 50 \; doublebuf1-transpvar 0 \; doublebuf1-pitchquant 0 \;;
#X msg 344 342 \; doublebuf1-density 3 \; doublebuf1-metro 300 \; doublebuf1-freeze 1 \; doublebuf1-stretch 0.6 \; doublebuf1-stretchvar 0 \; doublebuf1-pos 0 \; doublebuf1-posvar 0 \; doublebuf1-dur 900 \; doublebuf1-durvar 0 \; doublebuf1-transp -50 \; doublebuf1-transpvar 0 \; doublebuf1-pitchquant 0 \;;
#X obj 339 152 print drone;
#X obj 447 83 t b b b b;
#X msg 506 128 \; map1 send symbol nil \; map2 send symbol nil \;;
#X msg 350 192 \; map2 send symbol doublebuf1-stretch \; map2 min 1 \; map2 max 4 \; map2 curve 1 \;, f 20;
#X connect 0 0 8 0;
#X connect 8 0 7 0;
#X connect 8 1 10 0;
#X connect 8 2 4 0;
#X connect 8 3 9 0;
#X restore 584 312 pd drone;
#X obj 584 288 bng 19 250 50 0 empty empty empty 0 -10 0 12 #fcfcfc #000000 #000000;
#X obj 649 288 bng 19 250 50 0 empty empty empty 0 -10 0 12 #fcfcfc #000000 #000000;
#N canvas 20 470 920 450 slap 0;
#X obj 474 20 inlet;
#X msg 719 284 \; map1 send symbol doublebuf1-pos \; map1 min 0 \; map1 max 500 \; map1 curve 1 \;, f 17;
#X msg 50 240 \; doublebuf1-density 3 \; doublebuf1-metro 0 \; doublebuf1-freeze 0 \; doublebuf1-stretch 1 \; doublebuf1-stretchvar 0 \; doublebuf1-pos 0 \; doublebuf1-posvar 0 \; doublebuf1-dur 750 \; doublebuf1-durvar 0 \; doublebuf1-transp 0 \; doublebuf1-transpvar 0 \; doublebuf1-pitchquant 0 \;;
#X msg 712 80 \; map1 send symbol doublebuf1-density \; map1 min 3 \; map1 max 30 \; map1 curve 1 \;, f 20;
#X msg 712 179 \; map2 send symbol doublebuf1-dur \; map2 min 1000 \; map2 max 500 \; map2 curve 1 \;, f 20;
#X text 53 216 viola;
#X text 272 216 bassclar;
#X text 493 216 piano;
#X msg 269 240 \; doublebuf1-density 4 \; doublebuf1-metro 0 \; doublebuf1-freeze 0 \; doublebuf1-stretch 1 \; doublebuf1-stretchvar 0 \; doublebuf1-pos 0 \; doublebuf1-posvar 0 \; doublebuf1-dur 900 \; doublebuf1-durvar 0 \; doublebuf1-transp 0 \; doublebuf1-transpvar 0 \; doublebuf1-pitchquant 0 \;;
#X msg 490 240 \; doublebuf1-density 2 \; doublebuf1-metro 0 \; doublebuf1-freeze 0 \; doublebuf1-stretch 1 \; doublebuf1-stretchvar 0 \; doublebuf1-pos 0 \; doublebuf1-posvar 0 \; doublebuf1-dur 1100 \; doublebuf1-durvar 0 \; doublebuf1-transp 0 \; doublebuf1-transpvar 0 \; doublebuf1-pitchquant 0 \;;
#X obj 299 67 print slap;
#X obj 472 58 t b b b;
#X msg 525 87 \; map1 send symbol nil \; map2 send symbol nil \;;
#X msg 298 106 \; map1 send symbol doublebuf1-metro \; map1 min 300 \; map1 max 100 \; map1 curve 1 \;, f 20;
#X connect 0 0 11 0;
#X connect 11 0 13 0;
#X connect 11 0 10 0;
#X connect 11 1 9 0;
#X connect 11 2 12 0;
#X restore 649 312 pd slap;
#X obj 714 288 bng 19 250 50 0 empty empty empty 0 -10 0 12 #fcfcfc #000000 #000000;
#N canvas 20 396 879 508 figure 0;
#X obj 409 6 inlet;
#X obj 152 198 bng 19 250 50 0 empty empty empty 0 -10 0 12 #fcfcfc #000000 #000000;
#X msg 825 281 \; map1 send symbol doublebuf1-pos \; map1 min 0 \; map1 max 500 \; map1 curve 1 \;, f 17;
#X msg 656 280 \; map1 send symbol doublebuf1-metro \; map1 min 200 \; map1 max 30 \; map1 curve 1 \;, f 20;
#X msg 656 379 \; map2 send symbol doublebuf1-dur \; map2 min 900 \; map2 max 300 \; map2 curve 1 \;, f 20;
#X obj 152 224 print figure;
#X text 45 249 viola;
#X text 242 249 bassclar;
#X text 435 249 piano;
#X msg 41 274 \; doublebuf1-density 0 \; doublebuf1-metro 160 \; doublebuf1-freeze 0 \; doublebuf1-stretch 2 \; doublebuf1-stretchvar 0 \; doublebuf1-pos 0 \; doublebuf1-posvar 0 \; doublebuf1-dur 750 \; doublebuf1-durvar 0 \; doublebuf1-transp 0 \; doublebuf1-transpvar 0 \; doublebuf1-pitchquant 0 \;;
#X msg 238 275 \; doublebuf1-density 0 \; doublebuf1-metro 100 \; doublebuf1-freeze 0 \; doublebuf1-stretch 1.5 \; doublebuf1-stretchvar 0 \; doublebuf1-pos 0 \; doublebuf1-posvar 0 \; doublebuf1-dur 800 \; doublebuf1-durvar 0 \; doublebuf1-transp 0 \; doublebuf1-transpvar 0 \; doublebuf1-pitchquant 0 \;;
#X msg 431 275 \; doublebuf1-density 0 \; doublebuf1-metro 120 \; doublebuf1-freeze 0 \; doublebuf1-stretch 0.8 \; doublebuf1-stretchvar 0 \; doublebuf1-pos 0 \; doublebuf1-posvar 0 \; doublebuf1-dur 900 \; doublebuf1-durvar 0 \; doublebuf1-transp 0 \; doublebuf1-transpvar 0 \; doublebuf1-pitchquant 0 \;;
#X obj 304 69 print figure;
#X obj 408 36 t b b b;
#X msg 454 65 \; map1 send symbol nil \; map2 send symbol nil \;;
#X msg 291 119 \; map1 send symbol doublebuf1-metro \; map1 min 200 \; map1 max 100 \; map1 curve 1 \;, f 20;
#X connect 0 0 13 0;
#X connect 1 0 9 0;
#X connect 1 0 5 0;
#X connect 13 0 12 0;
#X connect 13 0 15 0;
#X connect 13 1 11 0;
#X connect 13 2 14 0;
#X restore 714 312 pd figure;
#X obj 607 38 r mycue;
#X floatatom 606 65 5 0 0 0 - - - 0;
#X text 750 167 cue numbers trigger presets for composition sections, f 28;
#X obj 633 162 print mycue;
#X obj 557 48 f;
#X obj 557 72 + 1;
#X obj 557 23 bng 19 250 50 0 empty empty empty 0 -10 0 12 #fcfcfc #000000 #000000;
#X msg 608 116 1;
#X obj 890 313 bng 19 250 50 0 empty empty empty 0 -10 0 12 #fcfcfc #000000 #000000;
#N canvas 529 48 860 507 drone2 0;
#X obj 458 31 inlet;
#X msg 77 61 \; doublebuf1-density 3 \; doublebuf1-metro 500 \; doublebuf1-freeze 1 \; doublebuf1-stretch 2 \; doublebuf1-stretchvar 0 \; doublebuf1-pos 0 \; doublebuf1-posvar 0 \; doublebuf1-dur 1000 \; doublebuf1-durvar 0 \; doublebuf1-transp 50 \; doublebuf1-transpvar 0 \; doublebuf1-pitchquant 0 \;;
#X text 85 30 viola;
#X text 82 254 bassclar;
#X msg 74 285 \; doublebuf1-density 3 \; doublebuf1-metro 300 \; doublebuf1-freeze 1 \; doublebuf1-stretch 0.6 \; doublebuf1-stretchvar 0 \; doublebuf1-pos 0 \; doublebuf1-posvar 0 \; doublebuf1-dur 900 \; doublebuf1-durvar 0 \; doublebuf1-transp -50 \; doublebuf1-transpvar 0 \; doublebuf1-pitchquant 0 \;;
#X text 572 197 piano;
#X msg 564 228 \; doublebuf1-density 3 \; doublebuf1-metro 450 \; doublebuf1-freeze 0 \; doublebuf1-stretch 3 \; doublebuf1-stretchvar 0 \; doublebuf1-pos 0 \; doublebuf1-posvar 0 \; doublebuf1-dur 2200 \; doublebuf1-durvar 0 \; doublebuf1-transp 60 \; doublebuf1-transpvar 0 \; doublebuf1-pitchquant 0 \;;
#X obj 418 92 print drone2;
#X obj 456 65 t b b b b;
#X msg 602 97 \; map1 send symbol nil \; map2 send symbol nil \;;
#X msg 373 165 \; map2 send symbol doublebuf1-stretch \; map2 min 1 \; map2 max 4 \; map2 curve 1 \;, f 20;
#X msg 380 269 \; map1 send symbol doublebuf1-metro \; map1 min 450 \; map1 max 90 \; map1 curve 1 \;, f 20;
#X connect 0 0 8 0;
#X connect 8 0 7 0;
#X connect 8 1 10 0;
#X connect 8 1 11 0;
#X connect 8 2 6 0;
#X connect 8 3 9 0;
#X restore 890 337 pd drone2;
#X obj 616 346 bng 19 250 50 0 empty empty empty 0 -10 0 12 #fcfcfc #000000 #000000;
#N canvas 12 253 1458 675 drone-line 0;
#X obj 586 44 inlet;
#X obj 206 154 bng 19 250 50 0 empty empty empty 0 -10 0 12 #fcfcfc #000000 #000000;
#X text 47 184 viola;
#X text 607 218 bassclar;
#X text 1087 210 piano;
#X obj 206 178 print drone-line;
#X obj 19 308 line;
#X obj 19 343 s doublebuf1-density;
#X msg 19 273 3 \, 10 60000 2000;
#X obj 90 413 line;
#X obj 90 448 s doublebuf1-stretchvar;
#X msg 90 378 0 \, 100 60000 1000;
#X obj 289 298 line;
#X obj 288 409 line;
#X obj 289 333 s doublebuf1-pos;
#X obj 288 444 s doublebuf1-posvar;
#X obj 142 541 line;
#X obj 142 576 s doublebuf1-durvar;
#X msg 142 506 0 \, 50 60000 1000;
#X obj 320 542 line;
#X obj 320 578 s doublebuf1-transpvar;
#X msg 320 507 0 \, 100 60000 1000;
#X obj 676 220 bng 19 250 50 0 empty empty empty 0 -10 0 12 #fcfcfc #000000 #000000;
#X obj 489 405 s doublebuf1-density;
#X obj 560 479 line;
#X obj 560 514 s doublebuf1-stretchvar;
#X msg 560 444 0 \, 100 60000 1000;
#X obj 759 364 line;
#X obj 758 475 line;
#X obj 759 399 s doublebuf1-pos;
#X obj 758 510 s doublebuf1-posvar;
#X obj 612 607 line;
#X obj 612 642 s doublebuf1-durvar;
#X msg 612 572 0 \, 50 60000 1000;
#X obj 790 608 line;
#X obj 790 644 s doublebuf1-transpvar;
#X msg 790 573 0 \, 100 60000 1000;
#X obj 1136 210 bng 19 250 50 0 empty empty empty 0 -10 0 12 #fcfcfc #000000 #000000;
#X obj 949 399 s doublebuf1-density;
#X obj 1020 469 line;
#X obj 1020 504 s doublebuf1-stretchvar;
#X msg 1020 434 0 \, 100 60000 1000;
#X obj 1219 354 line;
#X obj 1218 465 line;
#X obj 1219 389 s doublebuf1-pos;
#X obj 1218 500 s doublebuf1-posvar;
#X obj 1072 597 line;
#X obj 1072 632 s doublebuf1-durvar;
#X obj 1250 598 line;
#X obj 1250 634 s doublebuf1-transpvar;
#X msg 1250 563 0 \, 100 60000 1000;
#X msg 489 339 3 \, 12 60000 2000;
#X obj 489 372 line;
#X obj 949 353 line;
#X msg 289 263 0 \, 1000 60000 1000;
#X msg 759 329 0 \, 1250 60000 1000;
#X msg 949 329 3 \, 20 60000 2000;
#X msg 1072 562 0 \, 70 60000 1000;
#X msg 1219 319 0 \, 1800 60000 1000;
#X msg 288 374 0 \, 1000 60000 1000;
#X msg 758 440 0 \, 1250 60000 1000;
#X msg 1218 430 0 \, 1800 60000 1000;
#X obj 411 93 print drone-line;
#X obj 586 74 t b b b;
#X msg 467 120 \; map1 send symbol doublebuf1-metro \; map1 min 450 \; map1 max 90 \; map1 curve 1 \;, f 20;
#X connect 0 0 63 0;
#X connect 1 0 5 0;
#X connect 1 0 8 0;
#X connect 1 0 11 0;
#X connect 1 0 54 0;
#X connect 1 0 59 0;
#X connect 1 0 18 0;
#X connect 1 0 21 0;
#X connect 6 0 7 0;
#X connect 8 0 6 0;
#X connect 9 0 10 0;
#X connect 11 0 9 0;
#X connect 12 0 14 0;
#X connect 13 0 15 0;
#X connect 16 0 17 0;
#X connect 18 0 16 0;
#X connect 19 0 20 0;
#X connect 21 0 19 0;
#X connect 22 0 51 0;
#X connect 22 0 26 0;
#X connect 22 0 55 0;
#X connect 22 0 60 0;
#X connect 22 0 33 0;
#X connect 22 0 36 0;
#X connect 24 0 25 0;
#X connect 26 0 24 0;
#X connect 27 0 29 0;
#X connect 28 0 30 0;
#X connect 31 0 32 0;
#X connect 33 0 31 0;
#X connect 34 0 35 0;
#X connect 36 0 34 0;
#X connect 37 0 56 0;
#X connect 37 0 41 0;
#X connect 37 0 58 0;
#X connect 37 0 61 0;
#X connect 37 0 57 0;
#X connect 37 0 50 0;
#X connect 39 0 40 0;
#X connect 41 0 39 0;
#X connect 42 0 44 0;
#X connect 43 0 45 0;
#X connect 46 0 47 0;
#X connect 48 0 49 0;
#X connect 50 0 48 0;
#X connect 51 0 52 0;
#X connect 52 0 23 0;
#X connect 53 0 38 0;
#X connect 54 0 12 0;
#X connect 55 0 27 0;
#X connect 56 0 53 0;
#X connect 57 0 46 0;
#X connect 58 0 42 0;
#X connect 59 0 13 0;
#X connect 60 0 28 0;
#X connect 61 0 43 0;
#X connect 63 0 62 0;
#X connect 63 1 64 0;
#X connect 63 2 37 0;
#X restore 616 370 pd drone-line;
#X obj 715 346 bng 19 250 50 0 empty empty empty 0 -10 0 12 #fcfcfc #000000 #000000;
#N canvas 12 348 1458 580 slap-line 0;
#X obj 635 13 inlet;
#X obj 226 164 bng 19 250 50 0 empty empty empty 0 -10 0 12 #fcfcfc #000000 #000000;
#X text 67 194 viola;
#X obj 82 481 line;
#X obj 82 516 s doublebuf1-density;
#X obj 47 270 line;
#X obj 47 305 s doublebuf1-posvar;
#X obj 245 417 line;
#X obj 245 452 s doublebuf1-durvar;
#X obj 273 183 print slap-line;
#X msg 47 235 0 \, 1000 40000 1000;
#X obj 60 398 s doublebuf1-metro;
#X msg 60 371 100;
#X msg 82 446 3 \, 20 60000 2000;
#X msg 245 382 0 \, 50 80000 1000;
#X obj 258 236 delay 100000;
#X msg 258 262 \; doublebuf1-transp 400 \; doublebuf1-transpvar 100 \; doublebuf1-pitchquant 200 \;;
#X obj 701 99 bng 19 250 50 0 empty empty empty 0 -10 0 12 #fcfcfc #000000 #000000;
#X obj 557 416 line;
#X obj 557 451 s doublebuf1-density;
#X obj 522 205 line;
#X obj 522 240 s doublebuf1-posvar;
#X obj 730 444 line;
#X obj 730 479 s doublebuf1-durvar;
#X obj 533 334 s doublebuf1-metro;
#X obj 1207 204 bng 19 250 50 0 empty empty empty 0 -10 0 12 #fcfcfc #000000 #000000;
#X obj 1063 521 line;
#X obj 1028 310 line;
#X obj 1028 345 s doublebuf1-posvar;
#X obj 1254 223 print slap-line;
#X text 544 129 bassclar;
#X text 1048 234 piano;
#X msg 522 170 0 \, 600 20000 1000;
#X msg 533 307 90;
#X obj 60 344 delay 30000;
#X msg 557 381 4 \, 25 30000 2000;
#X msg 730 410 0 \, 50 40000 1000;
#X obj 732 130 delay 50000;
#X msg 764 185 \; doublebuf1-transp 300 \; doublebuf1-transpvar 100 \; doublebuf1-pitchquant 100 \;;
#X msg 1028 275 0 \, 1200 80000 1000;
#X obj 1053 438 s doublebuf1-metro;
#X obj 1053 383 delay 60000;
#X msg 1053 411 300;
#X obj 1063 556 s doublebuf1-stretch;
#X msg 1063 486 1 \, 0.5 60000 2000;
#X obj 498 81 print slap-line;
#X msg 732 257 \; map2 send symbol doublebuf1-transpvar \; map2 min 0 \; map2 max 100 \; map2 curve 1 \;, f 22;
#X obj 732 158 t b b;
#X obj 636 42 t b b;
#X connect 0 0 48 0;
#X connect 1 0 13 0;
#X connect 1 0 10 0;
#X connect 1 0 14 0;
#X connect 1 0 9 0;
#X connect 1 0 15 0;
#X connect 1 0 34 0;
#X connect 3 0 4 0;
#X connect 5 0 6 0;
#X connect 7 0 8 0;
#X connect 10 0 5 0;
#X connect 12 0 11 0;
#X connect 13 0 3 0;
#X connect 14 0 7 0;
#X connect 15 0 16 0;
#X connect 17 0 35 0;
#X connect 17 0 32 0;
#X connect 17 0 36 0;
#X connect 17 0 33 0;
#X connect 17 0 37 0;
#X connect 18 0 19 0;
#X connect 20 0 21 0;
#X connect 22 0 23 0;
#X connect 25 0 44 0;
#X connect 25 0 39 0;
#X connect 25 0 29 0;
#X connect 25 0 41 0;
#X connect 26 0 43 0;
#X connect 27 0 28 0;
#X connect 32 0 20 0;
#X connect 33 0 24 0;
#X connect 34 0 12 0;
#X connect 35 0 18 0;
#X connect 36 0 22 0;
#X connect 37 0 47 0;
#X connect 39 0 27 0;
#X connect 41 0 42 0;
#X connect 42 0 40 0;
#X connect 44 0 26 0;
#X connect 47 0 46 0;
#X connect 47 1 38 0;
#X connect 48 0 45 0;
#X connect 48 1 25 0;
#X restore 715 370 pd slap-line;
#X obj 786 288 bng 19 250 50 0 empty empty empty 0 -10 0 12 #fcfcfc #000000 #000000;
#N canvas 12 175 1452 753 fig-line 0;
#X obj 1063 46 inlet;
#X obj 206 196 bng 19 250 50 0 empty empty empty 0 -10 0 12 #fcfcfc #000000 #000000;
#X text 47 226 viola;
#X obj 64 401 line;
#X obj 64 436 s doublebuf1-density;
#X obj 107 531 line;
#X obj 107 566 s doublebuf1-stretchvar;
#X obj 289 340 line;
#X obj 288 451 line;
#X obj 289 375 s doublebuf1-pos;
#X obj 288 486 s doublebuf1-posvar;
#X obj 159 659 line;
#X obj 159 694 s doublebuf1-durvar;
#X obj 315 559 line;
#X obj 258 196 print fig-line;
#X msg 64 366 0 \, 30 90000 2000;
#X msg 54 298 \; doublebuf1-freeze 1 \;;
#X obj 54 272 delay 90000;
#X msg 107 496 0 \, 100 90000 1000;
#X msg 289 305 0 \, 1000 90000 1000;
#X msg 288 416 0 \, 500 90000 1000;
#X msg 159 624 0 \, 90 90000 1000;
#X obj 335 658 line;
#X obj 335 694 s doublebuf1-transpvar;
#X msg 335 623 0 \, 100 90000 1000;
#X obj 315 595 s doublebuf1-transp;
#X msg 315 524 0 \, 700 90000 1000;
#X obj 657 205 bng 19 250 50 0 empty empty empty 0 -10 0 12 #fcfcfc #000000 #000000;
#X obj 515 410 line;
#X obj 515 445 s doublebuf1-density;
#X obj 558 540 line;
#X obj 558 575 s doublebuf1-stretchvar;
#X obj 740 349 line;
#X obj 739 460 line;
#X obj 740 384 s doublebuf1-pos;
#X obj 739 495 s doublebuf1-posvar;
#X obj 610 668 line;
#X obj 610 703 s doublebuf1-durvar;
#X obj 766 568 line;
#X obj 709 205 print fig-line;
#X msg 505 307 \; doublebuf1-freeze 1 \;;
#X obj 786 667 line;
#X obj 786 703 s doublebuf1-transpvar;
#X obj 766 604 s doublebuf1-transp;
#X obj 1111 209 bng 19 250 50 0 empty empty empty 0 -10 0 12 #fcfcfc #000000 #000000;
#X obj 969 414 line;
#X obj 969 449 s doublebuf1-density;
#X obj 981 515 line;
#X obj 981 550 s doublebuf1-stretchvar;
#X obj 1194 353 line;
#X obj 1193 464 line;
#X obj 1194 388 s doublebuf1-pos;
#X obj 1193 499 s doublebuf1-posvar;
#X obj 1064 703 line;
#X obj 1064 728 s doublebuf1-durvar;
#X obj 1220 572 line;
#X obj 1163 209 print fig-line;
#X msg 959 311 \; doublebuf1-freeze 1 \;;
#X obj 1240 671 line;
#X obj 1240 707 s doublebuf1-transpvar;
#X obj 1220 608 s doublebuf1-transp;
#X text 952 239 piano;
#X text 500 235 bassclar;
#X msg 515 375 0 \, 25 120000 2000;
#X obj 505 281 delay 120000;
#X msg 558 505 0 \, 100 120000 1000;
#X msg 610 633 0 \, 90 120000 1000;
#X msg 740 314 0 \, 1200 120000 1000;
#X msg 739 425 0 \, 1000 120000 1000;
#X msg 766 533 0 \, -400 120000 1000;
#X msg 786 632 0 \, 100 120000 1000;
#X obj 959 285 delay 60000;
#X msg 969 379 0 \, 20 60000 2000;
#X msg 981 480 0 \, 100 60000 1000;
#X msg 1064 677 0 \, 90 60000 1000;
#X obj 1017 611 line;
#X obj 1017 636 s doublebuf1-dur;
#X msg 1017 585 900 \, 500 60000 1000;
#X msg 1194 318 0 \, 1550 60000 1000;
#X msg 1193 429 0 \, 1250 60000 1000;
#X msg 1220 537 0 \, 300 60000 1000;
#X msg 1240 636 0 \, 100 60000 1000;
#X obj 910 95 print fig-line;
#X obj 1063 75 t b b b;
#X msg 913 126 \; map2 send symbol doublebuf1-transp \; map2 min 0 \; map2 max 300 \; map2 curve 1 \;, f 22;
#X obj 1086 99 delay 61000;
#X connect 0 0 83 0;
#X connect 1 0 15 0;
#X connect 1 0 18 0;
#X connect 1 0 19 0;
#X connect 1 0 20 0;
#X connect 1 0 21 0;
#X connect 1 0 26 0;
#X connect 1 0 14 0;
#X connect 1 0 17 0;
#X connect 1 0 24 0;
#X connect 3 0 4 0;
#X connect 5 0 6 0;
#X connect 7 0 9 0;
#X connect 8 0 10 0;
#X connect 11 0 12 0;
#X connect 13 0 25 0;
#X connect 15 0 3 0;
#X connect 17 0 16 0;
#X connect 18 0 5 0;
#X connect 19 0 7 0;
#X connect 20 0 8 0;
#X connect 21 0 11 0;
#X connect 22 0 23 0;
#X connect 24 0 22 0;
#X connect 26 0 13 0;
#X connect 27 0 63 0;
#X connect 27 0 65 0;
#X connect 27 0 67 0;
#X connect 27 0 68 0;
#X connect 27 0 66 0;
#X connect 27 0 69 0;
#X connect 27 0 39 0;
#X connect 27 0 70 0;
#X connect 27 0 64 0;
#X connect 28 0 29 0;
#X connect 30 0 31 0;
#X connect 32 0 34 0;
#X connect 33 0 35 0;
#X connect 36 0 37 0;
#X connect 38 0 43 0;
#X connect 41 0 42 0;
#X connect 44 0 72 0;
#X connect 44 0 73 0;
#X connect 44 0 78 0;
#X connect 44 0 79 0;
#X connect 44 0 74 0;
#X connect 44 0 80 0;
#X connect 44 0 56 0;
#X connect 44 0 81 0;
#X connect 44 0 71 0;
#X connect 44 0 77 0;
#X connect 45 0 46 0;
#X connect 47 0 48 0;
#X connect 49 0 51 0;
#X connect 50 0 52 0;
#X connect 53 0 54 0;
#X connect 55 0 60 0;
#X connect 58 0 59 0;
#X connect 63 0 28 0;
#X connect 64 0 40 0;
#X connect 65 0 30 0;
#X connect 66 0 36 0;
#X connect 67 0 32 0;
#X connect 68 0 33 0;
#X connect 69 0 38 0;
#X connect 70 0 41 0;
#X connect 71 0 57 0;
#X connect 72 0 45 0;
#X connect 73 0 47 0;
#X connect 74 0 53 0;
#X connect 75 0 76 0;
#X connect 77 0 75 0;
#X connect 78 0 49 0;
#X connect 79 0 50 0;
#X connect 80 0 55 0;
#X connect 81 0 58 0;
#X connect 83 0 82 0;
#X connect 83 1 85 0;
#X connect 83 2 44 0;
#X connect 85 0 84 0;
#X restore 786 312 pd fig-line;
#X obj 876 294 outlet;
#X obj 876 266 tgl 19 0 empty empty empty 0 -10 0 12 #fcfcfc #000000 #000000 0 1;
#X obj 925 294 outlet;
#X obj 925 266 tgl 19 0 empty empty empty 0 -10 0 12 #fcfcfc #000000 #000000 0 1;
#X obj 974 294 outlet;
#X obj 974 266 tgl 19 0 empty empty empty 0 -10 0 12 #fcfcfc #000000 #000000 0 1;
#X obj 811 346 bng 19 250 50 0 empty empty empty 0 -10 0 12 #fcfcfc #000000 #000000;
#N canvas 12 348 1458 580 drone2-line 0;
#X obj 1109 8 inlet;
#X obj 206 33 bng 19 250 50 0 empty empty empty 0 -10 0 12 #fcfcfc #000000 #000000;
#X text 47 63 viola;
#X obj 64 238 line;
#X obj 64 273 s doublebuf1-density;
#X obj 107 368 line;
#X obj 107 403 s doublebuf1-stretchvar;
#X obj 289 177 line;
#X obj 288 288 line;
#X obj 289 212 s doublebuf1-pos;
#X obj 288 323 s doublebuf1-posvar;
#X obj 159 496 line;
#X obj 159 531 s doublebuf1-durvar;
#X obj 315 396 line;
#X obj 335 495 line;
#X obj 335 531 s doublebuf1-transpvar;
#X obj 315 432 s doublebuf1-transp;
#X obj 657 42 bng 19 250 50 0 empty empty empty 0 -10 0 12 #fcfcfc #000000 #000000;
#X obj 515 247 line;
#X obj 515 282 s doublebuf1-density;
#X obj 558 377 line;
#X obj 558 412 s doublebuf1-stretchvar;
#X obj 740 186 line;
#X obj 739 297 line;
#X obj 740 221 s doublebuf1-pos;
#X obj 739 332 s doublebuf1-posvar;
#X obj 610 505 line;
#X obj 610 540 s doublebuf1-durvar;
#X obj 766 405 line;
#X obj 786 504 line;
#X obj 786 540 s doublebuf1-transpvar;
#X obj 766 441 s doublebuf1-transp;
#X obj 1112 116 bng 19 250 50 0 empty empty empty 0 -10 0 12 #fcfcfc #000000 #000000;
#X obj 969 251 line;
#X obj 969 286 s doublebuf1-density;
#X obj 981 352 line;
#X obj 981 387 s doublebuf1-stretchvar;
#X obj 1194 190 line;
#X obj 1193 301 line;
#X obj 1194 225 s doublebuf1-pos;
#X obj 1193 336 s doublebuf1-posvar;
#X obj 1064 540 line;
#X obj 1064 565 s doublebuf1-durvar;
#X obj 1220 409 line;
#X obj 1240 508 line;
#X obj 1240 544 s doublebuf1-transpvar;
#X obj 1220 445 s doublebuf1-transp;
#X text 963 148 piano;
#X text 500 72 bassclar;
#X obj 1017 448 line;
#X obj 1017 473 s doublebuf1-dur;
#X msg 64 203 30 \, 3 120000 2000;
#X msg 107 333 100 \, 0 120000 1000;
#X msg 159 461 90 \, 0 120000 1000;
#X msg 289 142 1000 \, 0 120000 1000;
#X msg 288 253 500 \, 0 120000 1000;
#X msg 315 361 700 \, 50 120000 1000;
#X msg 335 460 100 \, 0 120000 1000;
#X msg 515 212 25 \, 3 180000 2000;
#X msg 558 342 100 \, 0 180000 1000;
#X msg 610 470 90 \, 0 180000 1000;
#X msg 740 151 1200 \, 0 180000 1000;
#X msg 739 262 1000 \, 0 180000 1000;
#X msg 766 370 -400 \, -50 180000 1000;
#X msg 786 469 100 \, 0 180000 1000;
#X obj 258 33 print drone2-line;
#X obj 709 42 print drone2-line;
#X msg 969 216 20 \, 3 60000 2000;
#X msg 981 317 100 \, 0 60000 1000;
#X msg 1017 422 500 \, 2200 60000 1000;
#X msg 1064 514 90 \, 0 60000 1000;
#X msg 1194 155 1550 \, 0 60000 1000;
#X msg 1193 266 1250 \, 0 60000 1000;
#X msg 1220 374 300 \, 60 60000 1000;
#X msg 1240 473 100 \, 0 60000 1000;
#X obj 932 58 print drone2-line;
#X obj 1088 38 t b b b;
#X msg 1179 56 \; map2 send symbol doublebuf1-transpvar \; map2 min 100 \; map2 max 0 \; map2 curve 1 \;, f 22;
#X connect 0 0 76 0;
#X connect 1 0 51 0;
#X connect 1 0 52 0;
#X connect 1 0 54 0;
#X connect 1 0 55 0;
#X connect 1 0 53 0;
#X connect 1 0 56 0;
#X connect 1 0 57 0;
#X connect 1 0 65 0;
#X connect 3 0 4 0;
#X connect 5 0 6 0;
#X connect 7 0 9 0;
#X connect 8 0 10 0;
#X connect 11 0 12 0;
#X connect 13 0 16 0;
#X connect 14 0 15 0;
#X connect 17 0 58 0;
#X connect 17 0 59 0;
#X connect 17 0 61 0;
#X connect 17 0 62 0;
#X connect 17 0 60 0;
#X connect 17 0 63 0;
#X connect 17 0 64 0;
#X connect 17 0 66 0;
#X connect 18 0 19 0;
#X connect 20 0 21 0;
#X connect 22 0 24 0;
#X connect 23 0 25 0;
#X connect 26 0 27 0;
#X connect 28 0 31 0;
#X connect 29 0 30 0;
#X connect 32 0 67 0;
#X connect 32 0 68 0;
#X connect 32 0 71 0;
#X connect 32 0 72 0;
#X connect 32 0 70 0;
#X connect 32 0 73 0;
#X connect 32 0 74 0;
#X connect 32 0 69 0;
#X connect 33 0 34 0;
#X connect 35 0 36 0;
#X connect 37 0 39 0;
#X connect 38 0 40 0;
#X connect 41 0 42 0;
#X connect 43 0 46 0;
#X connect 44 0 45 0;
#X connect 49 0 50 0;
#X connect 51 0 3 0;
#X connect 52 0 5 0;
#X connect 53 0 11 0;
#X connect 54 0 7 0;
#X connect 55 0 8 0;
#X connect 56 0 13 0;
#X connect 57 0 14 0;
#X connect 58 0 18 0;
#X connect 59 0 20 0;
#X connect 60 0 26 0;
#X connect 61 0 22 0;
#X connect 62 0 23 0;
#X connect 63 0 28 0;
#X connect 64 0 29 0;
#X connect 67 0 33 0;
#X connect 68 0 35 0;
#X connect 69 0 49 0;
#X connect 70 0 41 0;
#X connect 71 0 37 0;
#X connect 72 0 38 0;
#X connect 73 0 43 0;
#X connect 74 0 44 0;
#X connect 76 0 75 0;
#X connect 76 1 32 0;
#X connect 76 2 77 0;
#X restore 811 370 pd drone2-line;
#X text 112 258 viola;
#X text 235 260 bassclar;
#X text 342 260 piano;
#N canvas 524 492 914 318 indicator 0;
#X obj 189 278 outlet;
#X obj 189 250 tgl 19 0 empty empty empty 0 -10 0 12 #fcfcfc #000000 #000000 0 1;
#X obj 238 278 outlet;
#X obj 238 250 tgl 19 0 empty empty empty 0 -10 0 12 #fcfcfc #000000 #000000 0 1;
#X obj 287 278 outlet;
#X obj 287 250 tgl 19 0 empty empty empty 0 -10 0 12 #fcfcfc #000000 #000000 0 1;
#X msg 140 106 1 0 0;
#X obj 18 125 unpack 0 0 0;
#X msg 188 106 1 1 0;
#X msg 239 106 0 1 0;
#X msg 290 106 0 1 1;
#X msg 338 106 0 0 1;
#X text 144 86 drone;
#X text 243 86 slap;
#X text 338 86 figure;
#X msg 443 106 0 1 1;
#X msg 496 106 1 1 1;
#X text 494 86 drone2;
#X obj 140 31 inlet;
#X obj 188 31 inlet;
#X obj 231 31 inlet;
#X obj 274 31 inlet;
#X obj 317 31 inlet;
#X obj 360 31 inlet;
#X obj 403 31 inlet;
#X obj 446 31 inlet;
#X obj 661 103 metro 250;
#X msg 661 78 0;
#X msg 693 78 1;
#X obj 403 59 t b b;
#X obj 739 102 metro 250;
#X msg 739 78 0;
#X msg 771 78 1;
#X obj 812 100 metro 250;
#X msg 812 78 0;
#X msg 844 78 1;
#X obj 188 59 t b b;
#X obj 231 59 t b b;
#X obj 274 59 t b b;
#X obj 317 59 t b b;
#X obj 360 59 t b b;
#X obj 446 59 t b b;
#X msg 389 106 0 1 1;
#X obj 533 31 inlet;
#X obj 533 59 t b b;
#X text 576 58 pre-drone;
#X msg 565 106 0 0 0;
#X obj 140 59 t b b;
#X connect 1 0 0 0;
#X connect 3 0 2 0;
#X connect 5 0 4 0;
#X connect 6 0 7 0;
#X connect 7 0 1 0;
#X connect 7 1 3 0;
#X connect 7 2 5 0;
#X connect 8 0 7 0;
#X connect 9 0 7 0;
#X connect 10 0 7 0;
#X connect 11 0 7 0;
#X connect 15 0 7 0;
#X connect 16 0 7 0;
#X connect 18 0 47 0;
#X connect 19 0 36 0;
#X connect 20 0 37 0;
#X connect 21 0 38 0;
#X connect 22 0 39 0;
#X connect 23 0 40 0;
#X connect 24 0 29 0;
#X connect 25 0 41 0;
#X connect 26 0 1 0;
#X connect 27 0 26 0;
#X connect 28 0 26 0;
#X connect 29 0 15 0;
#X connect 29 1 31 0;
#X connect 29 1 28 0;
#X connect 30 0 3 0;
#X connect 31 0 30 0;
#X connect 32 0 30 0;
#X connect 33 0 5 0;
#X connect 34 0 33 0;
#X connect 35 0 33 0;
#X connect 36 0 32 0;
#X connect 36 1 8 0;
#X connect 37 0 9 0;
#X connect 37 1 31 0;
#X connect 38 0 35 0;
#X connect 38 1 10 0;
#X connect 39 0 11 0;
#X connect 39 1 34 0;
#X connect 40 0 32 0;
#X connect 40 1 42 0;
#X connect 41 0 16 0;
#X connect 41 1 27 0;
#X connect 41 1 31 0;
#X connect 41 1 34 0;
#X connect 42 0 7 0;
#X connect 43 0 44 0;
#X connect 44 0 28 0;
#X connect 44 0 31 0;
#X connect 44 0 34 0;
#X connect 44 1 46 0;
#X connect 46 0 7 0;
#X connect 47 0 6 0;
#X connect 47 1 27 0;
#X connect 47 1 31 0;
#X connect 47 1 34 0;
#X restore 609 247 pd indicator;
#X f 38;
#X obj 610 216 select 2 3 4 5 6 7 8 9 1, f 42;
#X obj 491 288 bng 19 250 50 0 empty empty empty 0 -10 0 12 #fcfcfc #000000 #000000;
#N canvas 307 372 1125 507 pre-drone 0;
#X obj 206 9 inlet;
#X obj 206 33 bng 19 250 50 0 empty empty empty 0 -10 0 12 #fcfcfc #000000 #000000;
#X obj 129 90 print drone;
#X msg 470 382 \; map1 send symbol doublebuf1-transp \; map1 min -400 \; map1 max 400 \; map1 curve 1 \;, f 20;
#X msg 630 383 \; map2 send symbol doublebuf1-stretch \; map2 min 0.25 \; map2 max 5 \; map2 curve 1 \;, f 20;
#X text 680 292 viola;
#X text 662 54 bassclar;
#X text 877 54 piano;
#X msg 869 85 \; doublebuf1-density 3 \; doublebuf1-metro 450 \; doublebuf1-freeze 0 \; doublebuf1-stretch 3 \; doublebuf1-stretchvar 0 \; doublebuf1-pos 0 \; doublebuf1-posvar 0 \; doublebuf1-dur 2200 \; doublebuf1-durvar 0 \; doublebuf1-transp 60 \; doublebuf1-transpvar 0 \; doublebuf1-pitchquant 0 \;;
#X msg 654 85 \; doublebuf1-density 3 \; doublebuf1-metro 300 \; doublebuf1-freeze 1 \; doublebuf1-stretch 0.6 \; doublebuf1-stretchvar 0 \; doublebuf1-pos 0 \; doublebuf1-posvar 0 \; doublebuf1-dur 900 \; doublebuf1-durvar 0 \; doublebuf1-transp -50 \; doublebuf1-transpvar 0 \; doublebuf1-pitchquant 0 \;;
#X obj 206 57 t b b b b;
#X msg 450 76 \; map1 send symbol nil \; map2 send symbol nil \;;
#X msg 927 298 \; doublebuf1-density 3 \; doublebuf1-metro 500 \; doublebuf1-freeze 1 \; doublebuf1-stretch 2 \; doublebuf1-stretchvar 0 \; doublebuf1-pos 0 \; doublebuf1-posvar 0 \; doublebuf1-dur 1000 \; doublebuf1-durvar 0 \; doublebuf1-transp 50 \; doublebuf1-transpvar 0 \; doublebuf1-pitchquant 0 \;;
#X msg 727 250 \; doublebuf1-density 0 \; doublebuf1-metro 1500 \; doublebuf1-freeze 0 \; doublebuf1-stretch 2 \; doublebuf1-stretchvar 0 \; doublebuf1-pos 0 \; doublebuf1-posvar 0 \; doublebuf1-dur 1500 \; doublebuf1-durvar 0 \; doublebuf1-transp 0 \; doublebuf1-transpvar 0 \; doublebuf1-pitchquant 0 \;;
#X obj 146 203 line;
#X obj 146 229 s doublebuf1-transp;
#X obj 145 292 line;
#X obj 145 318 s doublebuf1-metro;
#X msg 346 137 \; doublebuf1-density 0 \; doublebuf1-metro 2200 \; doublebuf1-freeze 0 \; doublebuf1-stretch 3 \; doublebuf1-stretchvar 0 \; doublebuf1-pos 0 \; doublebuf1-posvar 0 \; doublebuf1-dur 2200 \; doublebuf1-durvar 0 \; doublebuf1-transp 0 \; doublebuf1-transpvar 0 \; doublebuf1-pitchquant 0 \;;
#X obj 227 124 delay 225000;
#X msg 146 177 0 \, 60 15000 250;
#X msg 145 266 2200 \, 450 15000 600;
#X connect 0 0 1 0;
#X connect 1 0 10 0;
#X connect 10 0 2 0;
#X connect 10 1 19 0;
#X connect 10 2 18 0;
#X connect 10 3 11 0;
#X connect 14 0 15 0;
#X connect 16 0 17 0;
#X connect 19 0 20 0;
#X connect 19 0 21 0;
#X connect 20 0 14 0;
#X connect 21 0 16 0;
#X restore 491 312 pd pre-drone;
#X text 104 290 mycue 1 \; 60 mycue 2 \; 60 mycue 3 \; 120 mycue 4 \; 60 mycue 5 \; 180 mycue 6 \; 120 mycue 7 \; 120 mycue 8 \; 120 mycue 9 \;;
#X text 223 289 mycue 1 \; 60 mycue 2 \; 60 mycue 3 \; 120 mycue 4 \; 60 mycue 5 \; 120 mycue 6 \; 120 mycue 7 \; 120 mycue 8 \; 180 mycue 9 \;;
#X text 332 282 mycue 1 \; 180 mycue 2 \; 30 mycue 3 \; 30 mycue 4 \; 60 mycue 5 \; 240 mycue 6 \; 120 mycue 7 \; 60 mycue 8 \; 60 mycue 9 \;;
#X obj 103 60 change;
#X obj 103 84 select 1;
#X msg 154 60 1;
#X obj 103 33 r button3;
#X msg 103 108 step;
#X obj 608 92 select 10;
#X connect 1 0 5 0;
#X connect 2 0 5 0;
#X connect 3 0 5 0;
#X connect 6 0 7 0;
#X connect 7 0 8 0;
#X connect 8 0 9 0;
#X connect 9 0 2 0;
#X connect 9 1 1 0;
#X connect 10 0 8 0;
#X connect 13 0 12 0;
#X connect 14 0 15 0;
#X connect 16 0 17 0;
#X connect 18 0 19 0;
#X connect 19 0 57 0;
#X connect 22 0 23 0;
#X connect 23 0 19 0;
#X connect 24 0 22 0;
#X connect 25 0 21 0;
#X connect 25 0 22 1;
#X connect 25 0 46 0;
#X connect 26 0 27 0;
#X connect 28 0 29 0;
#X connect 30 0 31 0;
#X connect 32 0 33 0;
#X connect 35 0 34 0;
#X connect 37 0 36 0;
#X connect 39 0 38 0;
#X connect 40 0 41 0;
#X connect 45 0 35 0;
#X connect 45 1 37 0;
#X connect 45 2 39 0;
#X connect 46 0 13 0;
#X connect 46 0 45 0;
#X connect 46 1 28 0;
#X connect 46 1 45 1;
#X connect 46 2 14 0;
#X connect 46 2 45 2;
#X connect 46 3 30 0;
#X connect 46 3 45 3;
#X connect 46 4 16 0;
#X connect 46 4 45 4;
#X connect 46 5 32 0;
#X connect 46 5 45 5;
#X connect 46 6 40 0;
#X connect 46 6 45 6;
#X connect 46 7 26 0;
#X connect 46 7 45 7;
#X connect 46 8 45 8;
#X connect 46 8 47 0;
#X connect 47 0 48 0;
#X connect 52 0 53 0;
#X connect 53 0 56 0;
#X connect 54 0 53 0;
#X connect 55 0 52 0;
#X connect 56 0 5 0;
#X connect 57 0 25 0;
#X connect 57 1 21 0;
#X connect 57 1 22 1;
#X connect 57 1 46 0;
#X restore 524 56 pd cuelist;
#X obj 301 100 loadbang;
#X connect 3 0 2 0;
#X connect 5 0 39 5;
#X connect 6 0 39 6;
#X connect 9 0 39 7;
#X connect 10 0 39 8;
#X connect 14 0 39 3;
#X connect 15 0 39 4;
#X connect 16 0 36 7;
#X connect 17 0 39 2;
#X connect 18 0 39 9;
#X connect 20 0 39 1;
#X connect 21 0 39 0;
#X connect 26 0 40 1;
#X connect 27 0 40 0;
#X connect 37 0 74 0;
#X connect 38 0 74 0;
#X connect 39 0 21 0;
#X connect 39 1 20 0;
#X connect 39 2 17 0;
#X connect 39 3 14 0;
#X connect 39 4 15 0;
#X connect 39 5 5 0;
#X connect 39 6 6 0;
#X connect 39 7 9 0;
#X connect 39 8 10 0;
#X connect 39 9 18 0;
#X connect 40 0 27 0;
#X connect 40 1 26 0;
#X connect 40 2 23 0;
#X connect 40 3 8 0;
#X connect 40 4 12 0;
#X connect 44 0 46 0;
#X connect 45 0 46 1;
#X connect 50 0 59 0;
#X connect 51 0 60 0;
#X connect 53 0 59 0;
#X connect 53 0 60 0;
#X connect 61 0 75 0;
#X connect 62 0 76 0;
#X connect 63 0 76 1;
#X connect 65 0 66 0;
#X connect 65 0 67 0;
#X connect 71 0 50 0;
#X connect 71 1 72 0;
#X connect 71 2 51 0;
#X connect 71 3 73 0;
#X connect 72 0 66 0;
#X connect 73 0 67 0;
#X connect 74 0 4 0;
#X connect 74 1 4 1;
#X connect 76 0 44 0;
#X connect 76 0 36 4;
#X connect 76 1 45 0;
#X connect 76 1 36 5;
#X connect 77 0 36 0;
#X connect 79 0 80 0;
#X connect 84 0 36 1;
#X connect 84 1 36 2;
#X connect 84 2 36 3;
#X connect 85 0 79 0;
#X coords 0 0 1 1 85 60 0;
