#N canvas 92 129 857 559 12;
#X obj 205 524 dac~;
#X obj 50 53 adc~ 1;
#X obj 105 100 vu 19 200 empty empty -1 -10 0 12 #404040 #000000 1 0;
#N canvas 110 415 625 417 vu 0;
#X obj 59 129 env~ 1024;
#X obj 161 111 abs~;
#X obj 161 213 snapshot~;
#X obj 161 256 rmstodb;
#X obj 161 21 inlet~;
#X obj 161 288 - 100;
#X obj 59 287 - 100;
#X obj 59 361 outlet;
#X obj 161 361 outlet;
#X text 344 307 Check the help file of env~ and slop~ for more details., f 31;
#X obj 239 89 expr 1000 / $f1;
#X floatatom 239 117 5 0 0 0 - - - 0;
#X obj 161 146 slop~ 0 0 0 0 1e+09;
#X obj 239 18 inlet;
#X floatatom 239 57 5 0 0 0 - - - 0;
#X text 359 89 convert to hz;
#X text 282 118 hz;
#X text 284 57 peak decay time in ms;
#X obj 59 171 t f b;
#X text 345 132 The env~ object is dedicated to RMS analysis. Its output is in dB (0-100 range \, pd style) but needs to be converted to dBFS (and we do that by simply subtracting 100)., f 31;
#X text 345 225 The slop~ object is used here for peak detection. We need to convert the output to dB with rmstodb and also subtract by 100 to convert it to dBFS., f 31;
#X connect 0 0 18 0;
#X connect 1 0 12 0;
#X connect 2 0 3 0;
#X connect 3 0 5 0;
#X connect 4 0 0 0;
#X connect 4 0 1 0;
#X connect 5 0 8 0;
#X connect 6 0 7 0;
#X connect 10 0 11 0;
#X connect 11 0 12 3;
#X connect 12 0 2 0;
#X connect 13 0 14 0;
#X connect 14 0 10 0;
#X connect 18 0 6 0;
#X connect 18 1 2 0;
#X restore 103 72 pd vu;
#X obj 69 357 pan1~, f 9;
#X obj 132 307 hsl 128 15 -1 1 0 1 empty empty empty -2 -6 0 8 #fce014 #000000 #000000 2300 1;
#X floatatom 129 329 5 0 0 0 - - - 0;
#X obj 67 171 vsl 20 128 -99 18 0 1 \$0-gain empty gain -7 -18 0 14 #fca85c #000000 #000000 9400 1;
#X floatatom 68 307 5 0 0 1 _db - - 0;
#X obj 49 330 gain2~;
#X obj 332 100 vu 19 200 empty empty -1 -10 0 12 #404040 #000000 1 0;
#N canvas 110 415 625 417 vu 0;
#X obj 59 129 env~ 1024;
#X obj 161 111 abs~;
#X obj 161 213 snapshot~;
#X obj 161 256 rmstodb;
#X obj 161 21 inlet~;
#X obj 161 288 - 100;
#X obj 59 287 - 100;
#X obj 59 361 outlet;
#X obj 161 361 outlet;
#X text 344 307 Check the help file of env~ and slop~ for more details., f 31;
#X obj 239 89 expr 1000 / $f1;
#X floatatom 239 117 5 0 0 0 - - - 0;
#X obj 161 146 slop~ 0 0 0 0 1e+09;
#X obj 239 18 inlet;
#X floatatom 239 57 5 0 0 0 - - - 0;
#X text 359 89 convert to hz;
#X text 282 118 hz;
#X text 284 57 peak decay time in ms;
#X obj 59 171 t f b;
#X text 345 132 The env~ object is dedicated to RMS analysis. Its output is in dB (0-100 range \, pd style) but needs to be converted to dBFS (and we do that by simply subtracting 100)., f 31;
#X text 345 225 The slop~ object is used here for peak detection. We need to convert the output to dB with rmstodb and also subtract by 100 to convert it to dBFS., f 31;
#X connect 0 0 18 0;
#X connect 1 0 12 0;
#X connect 2 0 3 0;
#X connect 3 0 5 0;
#X connect 4 0 0 0;
#X connect 4 0 1 0;
#X connect 5 0 8 0;
#X connect 6 0 7 0;
#X connect 10 0 11 0;
#X connect 11 0 12 3;
#X connect 12 0 2 0;
#X connect 13 0 14 0;
#X connect 14 0 10 0;
#X connect 18 0 6 0;
#X connect 18 1 2 0;
#X restore 331 72 pd vu;
#X obj 296 357 pan1~, f 9;
#X obj 359 309 hsl 128 15 -1 1 0 1 empty empty empty -2 -6 0 8 #fce014 #000000 #000000 9300 1;
#X floatatom 356 331 5 0 0 0 - - - 0;
#X obj 294 173 vsl 20 128 -99 18 0 1 \$0-gain empty gain -7 -18 0 14 #fca85c #000000 #000000 10800 1;
#X floatatom 295 309 5 0 0 1 _db - - 0;
#X obj 276 332 gain2~;
#X obj 277 53 adc~ 2;
#X obj 571 100 vu 19 200 empty empty -1 -10 0 12 #404040 #000000 1 0;
#N canvas 110 415 625 417 vu 0;
#X obj 59 129 env~ 1024;
#X obj 161 111 abs~;
#X obj 161 213 snapshot~;
#X obj 161 256 rmstodb;
#X obj 161 21 inlet~;
#X obj 161 288 - 100;
#X obj 59 287 - 100;
#X obj 59 361 outlet;
#X obj 161 361 outlet;
#X text 344 307 Check the help file of env~ and slop~ for more details., f 31;
#X obj 239 89 expr 1000 / $f1;
#X floatatom 239 117 5 0 0 0 - - - 0;
#X obj 161 146 slop~ 0 0 0 0 1e+09;
#X obj 239 18 inlet;
#X floatatom 239 57 5 0 0 0 - - - 0;
#X text 359 89 convert to hz;
#X text 282 118 hz;
#X text 284 57 peak decay time in ms;
#X obj 59 171 t f b;
#X text 345 132 The env~ object is dedicated to RMS analysis. Its output is in dB (0-100 range \, pd style) but needs to be converted to dBFS (and we do that by simply subtracting 100)., f 31;
#X text 345 225 The slop~ object is used here for peak detection. We need to convert the output to dB with rmstodb and also subtract by 100 to convert it to dBFS., f 31;
#X connect 0 0 18 0;
#X connect 1 0 12 0;
#X connect 2 0 3 0;
#X connect 3 0 5 0;
#X connect 4 0 0 0;
#X connect 4 0 1 0;
#X connect 5 0 8 0;
#X connect 6 0 7 0;
#X connect 10 0 11 0;
#X connect 11 0 12 3;
#X connect 12 0 2 0;
#X connect 13 0 14 0;
#X connect 14 0 10 0;
#X connect 18 0 6 0;
#X connect 18 1 2 0;
#X restore 570 72 pd vu;
#X obj 533 177 vsl 20 128 -99 18 0 1 \$0-gain empty gain -7 -18 0 14 #fca85c #000000 #000000 10200 1;
#X floatatom 534 313 5 0 0 1 _db - - 0;
#X obj 508 53 adc~ 3 4;
#X obj 638 100 vu 19 200 empty empty -1 -10 0 12 #404040 #000000 1 0;
#N canvas 110 415 625 417 vu 0;
#X obj 59 129 env~ 1024;
#X obj 161 111 abs~;
#X obj 161 213 snapshot~;
#X obj 161 256 rmstodb;
#X obj 161 21 inlet~;
#X obj 161 288 - 100;
#X obj 59 287 - 100;
#X obj 59 361 outlet;
#X obj 161 361 outlet;
#X text 344 307 Check the help file of env~ and slop~ for more details., f 31;
#X obj 239 89 expr 1000 / $f1;
#X floatatom 239 117 5 0 0 0 - - - 0;
#X obj 161 146 slop~ 0 0 0 0 1e+09;
#X obj 239 18 inlet;
#X floatatom 239 57 5 0 0 0 - - - 0;
#X text 359 89 convert to hz;
#X text 282 118 hz;
#X text 284 57 peak decay time in ms;
#X obj 59 171 t f b;
#X text 345 132 The env~ object is dedicated to RMS analysis. Its output is in dB (0-100 range \, pd style) but needs to be converted to dBFS (and we do that by simply subtracting 100)., f 31;
#X text 345 225 The slop~ object is used here for peak detection. We need to convert the output to dB with rmstodb and also subtract by 100 to convert it to dBFS., f 31;
#X connect 0 0 18 0;
#X connect 1 0 12 0;
#X connect 2 0 3 0;
#X connect 3 0 5 0;
#X connect 4 0 0 0;
#X connect 4 0 1 0;
#X connect 5 0 8 0;
#X connect 6 0 7 0;
#X connect 10 0 11 0;
#X connect 11 0 12 3;
#X connect 12 0 2 0;
#X connect 13 0 14 0;
#X connect 14 0 10 0;
#X connect 18 0 6 0;
#X connect 18 1 2 0;
#X restore 637 72 pd vu;
#X obj 509 357 stgain2~;
#X connect 1 0 3 0;
#X connect 1 0 9 0;
#X connect 3 0 2 0;
#X connect 4 0 0 0;
#X connect 4 1 0 1;
#X connect 5 0 6 0;
#X connect 6 0 4 1;
#X connect 7 0 8 0;
#X connect 8 0 9 1;
#X connect 9 0 4 0;
#X connect 11 0 10 0;
#X connect 12 0 0 0;
#X connect 12 1 0 1;
#X connect 13 0 14 0;
#X connect 14 0 12 1;
#X connect 15 0 16 0;
#X connect 16 0 17 1;
#X connect 17 0 12 0;
#X connect 18 0 11 0;
#X connect 18 0 17 0;
#X connect 20 0 19 0;
#X connect 21 0 22 0;
#X connect 22 0 26 2;
#X connect 23 0 20 0;
#X connect 23 0 26 0;
#X connect 23 1 25 0;
#X connect 23 1 26 1;
#X connect 25 0 24 0;
#X connect 26 0 0 0;
#X connect 26 1 0 1;
