#N canvas 170 458 1230 470 12;
#X msg 37 29 \; doublebuf1-density 3 \; doublebuf1-metro 500 \; doublebuf1-freeze 0 \; doublebuf1-stretch 1 \; doublebuf1-stretchvar 25 \; doublebuf1-pos 0 \; doublebuf1-posvar 50 \; doublebuf1-dur 1000 \; doublebuf1-durvar 20 \; doublebuf1-transp 0 \; doublebuf1-transpvar 0 \; doublebuf1-pitchquant 0 \;;
#X msg 37 309 \; map2 send symbol doublebuf1-stretch \; map2 min 1 \; map2 max 2 \; map2 curve 2 \;;
#X msg 37 225 \; map1 send symbol doublebuf1-dur \; map1 min 50 \; map1 max 600 \; map1 curve 2 \;, f 33;
#X msg 322 26 \; doublebuf2-density 3 \; doublebuf2-metro 500 \; doublebuf2-freeze 0 \; doublebuf2-stretch 1 \; doublebuf2-stretchvar 25 \; doublebuf2-pos 0 \; doublebuf2-posvar 50 \; doublebuf2-dur 1000 \; doublebuf2-durvar 20 \; doublebuf2-transp 0 \; doublebuf2-transpvar 0 \; doublebuf2-pitchquant 0 \;;
#X msg 322 306 \; map4 send symbol doublebuf2-stretch \; map4 min 1 \; map4 max 2 \; map4 curve 2 \;;
#X msg 322 222 \; map3 send symbol doublebuf2-dur \; map3 min 50 \; map3 max 600 \; map3 curve 2 \;;
#X msg 613 26 \; doublebuf3-density 3 \; doublebuf3-metro 500 \; doublebuf3-freeze 0 \; doublebuf3-stretch 1 \; doublebuf3-stretchvar 25 \; doublebuf3-pos 0 \; doublebuf3-posvar 50 \; doublebuf3-dur 1000 \; doublebuf3-durvar 20 \; doublebuf3-transp 0 \; doublebuf3-transpvar 0 \; doublebuf3-pitchquant 0 \;;
#X msg 613 222 \; map5 send symbol doublebuf3-dur \; map5 min 50 \; map5 max 600 \; map5 curve 2 \;;
#X msg 613 306 \; map6 send symbol doublebuf3-stretch \; map6 min 1 \; map6 max 2 \; map6 curve 2 \;;
#N canvas 63 388 932 401 sendall 0;
#X obj 26 17 r sendall;
#X obj 26 41 route density metro freeze stretch stretchvar pos posvar dur durvar transp transpvar pitchquant, f 96;
#X msg 27 289 \; doublebuf1-density \$1 \; doublebuf2-density \$1 \; doublebuf3-density \$1 \;;
#X msg 41 219 \; doublebuf1-metro \$1 \; doublebuf2-metro \$1 \; doublebuf3-metro \$1 \;;
#X msg 75 150 \; doublebuf1-freeze \$1 \; doublebuf2-freeze \$1 \; doublebuf3-freeze \$1 \;;
#X msg 255 289 \; doublebuf1-stretch \$1 \; doublebuf2-stretch \$1 \; doublebuf3-stretch \$1 \;;
#X msg 308 219 \; doublebuf1-stretchvar \$1 \; doublebuf2-stretchvar \$1 \; doublebuf3-stretchvar \$1 \;;
#X msg 329 150 \; doublebuf1-pos \$1 \; doublebuf2-pos \$1 \; doublebuf3-pos \$1 \;;
#X msg 360 76 \; doublebuf1-posvar \$1 \; doublebuf2-posvar \$1 \; doublebuf3-posvar \$1 \;;
#X msg 523 289 \; doublebuf1-dur \$1 \; doublebuf2-dur \$1 \; doublebuf3-dur \$1 \;;
#X msg 551 219 \; doublebuf1-durvar \$1 \; doublebuf2-durvar \$1 \; doublebuf3-durvar \$1 \;;
#X msg 573 150 \; doublebuf1-transp \$1 \; doublebuf2-transp \$1 \; doublebuf3-transp \$1 \;;
#X msg 583 76 \; doublebuf1-transpvar \$1 \; doublebuf2-transpvar \$1 \; doublebuf3-transpvar \$1 \;;
#X msg 699 289 \; doublebuf1-pitchquant \$1 \; doublebuf2-pitchquant \$1 \; doublebuf3-pitchquant \$1 \;;
#X connect 0 0 1 0;
#X connect 1 0 2 0;
#X connect 1 1 3 0;
#X connect 1 2 4 0;
#X connect 1 3 5 0;
#X connect 1 4 6 0;
#X connect 1 5 7 0;
#X connect 1 6 8 0;
#X connect 1 7 9 0;
#X connect 1 8 10 0;
#X connect 1 9 11 0;
#X connect 1 10 12 0;
#X connect 1 11 13 0;
#X restore 983 308 pd sendall;
#X msg 1059 245 \; sendall density 3 \;;
#X msg 973 37 \; sendall density 3 \; sendall metro 500 \; sendall freeze 0 \; sendall stretch 1 \; sendall stretchvar 25 \; sendall pos 0 \; sendall posvar 50 \; sendall dur 1000 \; sendall durvar 20 \; sendall transp 0 \; sendall transpvar 0 \; sendall pitchquant 0 \;;
#X text 969 9 send same params to all voices;
