#N canvas 757 397 713 278 12;
#N canvas 63 388 932 401 sendall 0;
#X obj 26 17 r sendall;
#X obj 26 41 route density metro freeze stretch stretchvar pos posvar dur durvar transp transpvar pitchquant, f 96;
#X msg 27 289 \; doublebuf1-density \$1 \; doublebuf2-density \$1 \; doublebuf3-density \$1 \;;
#X msg 41 219 \; doublebuf1-metro \$1 \; doublebuf2-metro \$1 \; doublebuf3-metro \$1 \;;
#X msg 75 150 \; doublebuf1-freeze \$1 \; doublebuf2-freeze \$1 \; doublebuf3-freeze \$1 \;;
#X msg 255 289 \; doublebuf1-stretch \$1 \; doublebuf2-stretch \$1 \; doublebuf3-stretch \$1 \;;
#X msg 308 219 \; doublebuf1-stretchvar \$1 \; doublebuf2-stretchvar \$1 \; doublebuf3-stretchvar \$1 \;;
#X msg 329 150 \; doublebuf1-pos \$1 \; doublebuf2-pos \$1 \; doublebuf3-pos \$1 \;;
#X msg 360 76 \; doublebuf1-posvar \$1 \; doublebuf2-posvar \$1 \; doublebuf3-posvar \$1 \;;
#X msg 523 289 \; doublebuf1-dur \$1 \; doublebuf2-dur \$1 \; doublebuf3-dur \$1 \;;
#X msg 551 219 \; doublebuf1-durvar \$1 \; doublebuf2-durvar \$1 \; doublebuf3-durvar \$1 \;;
#X msg 573 150 \; doublebuf1-transp \$1 \; doublebuf2-transp \$1 \; doublebuf3-transp \$1 \;;
#X msg 583 76 \; doublebuf1-transpvar \$1 \; doublebuf2-transpvar \$1 \; doublebuf3-transpvar \$1 \;;
#X msg 699 289 \; doublebuf1-pitchquant \$1 \; doublebuf2-pitchquant \$1 \; doublebuf3-pitchquant \$1 \;;
#X connect 0 0 1 0;
#X connect 1 0 2 0;
#X connect 1 1 3 0;
#X connect 1 2 4 0;
#X connect 1 3 5 0;
#X connect 1 4 6 0;
#X connect 1 5 7 0;
#X connect 1 6 8 0;
#X connect 1 7 9 0;
#X connect 1 8 10 0;
#X connect 1 9 11 0;
#X connect 1 10 12 0;
#X connect 1 11 13 0;
#X restore 49 14 pd sendall;
#N canvas 121 158 1230 436 template 0;
#X msg 37 29 \; doublebuf1-density 3 \; doublebuf1-metro 500 \; doublebuf1-freeze 0 \; doublebuf1-stretch 1 \; doublebuf1-stretchvar 25 \; doublebuf1-pos 0 \; doublebuf1-posvar 50 \; doublebuf1-dur 1000 \; doublebuf1-durvar 20 \; doublebuf1-transp 0 \; doublebuf1-transpvar 0 \; doublebuf1-pitchquant 0 \;;
#X msg 37 309 \; map2 send symbol doublebuf1-stretch \; map2 min 1 \; map2 max 2 \; map2 curve 2 \;;
#X msg 37 225 \; map1 send symbol doublebuf1-dur \; map1 min 50 \; map1 max 600 \; map1 curve 2 \;, f 33;
#X msg 322 26 \; doublebuf2-density 3 \; doublebuf2-metro 500 \; doublebuf2-freeze 0 \; doublebuf2-stretch 1 \; doublebuf2-stretchvar 25 \; doublebuf2-pos 0 \; doublebuf2-posvar 50 \; doublebuf2-dur 1000 \; doublebuf2-durvar 20 \; doublebuf2-transp 0 \; doublebuf2-transpvar 0 \; doublebuf2-pitchquant 0 \;;
#X msg 322 306 \; map4 send symbol doublebuf2-stretch \; map4 min 1 \; map4 max 2 \; map4 curve 2 \;;
#X msg 322 222 \; map3 send symbol doublebuf2-dur \; map3 min 50 \; map3 max 600 \; map3 curve 2 \;;
#X msg 613 26 \; doublebuf3-density 3 \; doublebuf3-metro 500 \; doublebuf3-freeze 0 \; doublebuf3-stretch 1 \; doublebuf3-stretchvar 25 \; doublebuf3-pos 0 \; doublebuf3-posvar 50 \; doublebuf3-dur 1000 \; doublebuf3-durvar 20 \; doublebuf3-transp 0 \; doublebuf3-transpvar 0 \; doublebuf3-pitchquant 0 \;;
#X msg 613 222 \; map5 send symbol doublebuf3-dur \; map5 min 50 \; map5 max 600 \; map5 curve 2 \;;
#X msg 613 306 \; map6 send symbol doublebuf3-stretch \; map6 min 1 \; map6 max 2 \; map6 curve 2 \;;
#X msg 1059 245 \; sendall density 3 \;;
#X msg 973 37 \; sendall density 3 \; sendall metro 500 \; sendall freeze 0 \; sendall stretch 1 \; sendall stretchvar 25 \; sendall pos 0 \; sendall posvar 50 \; sendall dur 1000 \; sendall durvar 20 \; sendall transp 0 \; sendall transpvar 0 \; sendall pitchquant 0 \;;
#N canvas 63 100 1222 629 more-examples 0;
#X msg 27 53 \; doublebuf1-density 3 \; doublebuf1-metro 500 \; doublebuf1-freeze 0 \; doublebuf1-stretch 1 \; doublebuf1-stretchvar 25 \; doublebuf1-pos 0 \; doublebuf1-posvar 50 \; doublebuf1-dur 1000 \; doublebuf1-durvar 20 \; doublebuf1-transp 0 \; doublebuf1-transpvar 0 \; doublebuf1-pitchquant 0 \;;
#X msg 27 333 \; map2 send symbol doublebuf1-stretch \; map2 min 1 \; map2 max 2 \; map2 curve 2 \;;
#X msg 27 249 \; map1 send symbol doublebuf1-dur \; map1 min 50 \; map1 max 600 \; map1 curve 2 \;, f 33;
#X msg 312 50 \; doublebuf2-density 3 \; doublebuf2-metro 500 \; doublebuf2-freeze 0 \; doublebuf2-stretch 1 \; doublebuf2-stretchvar 25 \; doublebuf2-pos 0 \; doublebuf2-posvar 50 \; doublebuf2-dur 1000 \; doublebuf2-durvar 20 \; doublebuf2-transp 0 \; doublebuf2-transpvar 0 \; doublebuf2-pitchquant 0 \;;
#X msg 312 330 \; map4 send symbol doublebuf2-stretch \; map4 min 1 \; map4 max 2 \; map4 curve 2 \;;
#X msg 312 246 \; map3 send symbol doublebuf2-dur \; map3 min 50 \; map3 max 600 \; map3 curve 2 \;;
#X msg 652 242 \; doublebuf3-density 3 \; doublebuf3-metro 500 \; doublebuf3-freeze 0 \; doublebuf3-stretch 1 \; doublebuf3-stretchvar 25 \; doublebuf3-pos 0 \; doublebuf3-posvar 50 \; doublebuf3-dur 1000 \; doublebuf3-durvar 20 \; doublebuf3-transp 0 \; doublebuf3-transpvar 0 \; doublebuf3-pitchquant 0 \;;
#X msg 652 438 \; map5 send symbol doublebuf3-dur \; map5 min 50 \; map5 max 600 \; map5 curve 2 \;;
#X msg 652 522 \; map6 send symbol doublebuf3-stretch \; map6 min 1 \; map6 max 2 \; map6 curve 2 \;;
#X msg 1004 260 \; sendall density 3 \;;
#X msg 918 52 \; sendall density 3 \; sendall metro 500 \; sendall freeze 0 \; sendall stretch 1 \; sendall stretchvar 25 \; sendall pos 0 \; sendall posvar 50 \; sendall dur 1000 \; sendall durvar 20 \; sendall transp 0 \; sendall transpvar 0 \; sendall pitchquant 0 \;;
#X text 914 24 send same params to all voices;
#X text 588 26 fade up to -6dB on drone 1 min \, 2min;
#X text 592 45 then -3dB;
#X text 592 67 C# -9dB return to drone;
#X restore 991 349 pd more-examples;
#X restore 133 14 pd template;
#N canvas 36 444 918 484 drone 0;
#X obj 206 9 inlet;
#X obj 206 33 bng 19 250 50 0 empty empty empty 0 -10 0 12 #fcfcfc #000000 #000000;
#X text 268 12 then increase density add posvar;
#X msg 39 94 \; doublebuf1-density 3 \; doublebuf1-metro 500 \; doublebuf1-freeze 1 \; doublebuf1-stretch 2 \; doublebuf1-stretchvar 0 \; doublebuf1-pos 0 \; doublebuf1-posvar 0 \; doublebuf1-dur 1000 \; doublebuf1-durvar 0 \; doublebuf1-transp 50 \; doublebuf1-transpvar 0 \; doublebuf1-pitchquant 0 \;;
#X msg 208 291 \; map1 send symbol doublebuf1-pos \; map1 min 0 \; map1 max 500 \; map1 curve 1 \;, f 17;
#X text 221 405 try also stretch;
#X msg 379 85 \; doublebuf2-density 3 \; doublebuf2-metro 500 \; doublebuf2-freeze 1 \; doublebuf2-stretch 2 \; doublebuf2-stretchvar 0 \; doublebuf2-pos 0 \; doublebuf2-posvar 0 \; doublebuf2-dur 1000 \; doublebuf2-durvar 0 \; doublebuf2-transp 50 \; doublebuf2-transpvar 0 \; doublebuf2-pitchquant 0 \;;
#X msg 379 281 \; map3 send symbol doublebuf2-dur \; map3 min 500 \; map3 max 1500 \; map3 curve 1 \;, f 20;
#X msg 635 85 \; doublebuf3-density 3 \; doublebuf3-metro 500 \; doublebuf3-freeze 1 \; doublebuf3-stretch 2 \; doublebuf3-stretchvar 0 \; doublebuf3-pos 0 \; doublebuf3-posvar 0 \; doublebuf3-dur 1000 \; doublebuf3-durvar 0 \; doublebuf3-transp 50 \; doublebuf3-transpvar 0 \; doublebuf3-pitchquant 0 \;;
#X msg 635 281 \; map5 send symbol doublebuf3-dur \; map5 min 500 \; map5 max 1500 \; map5 curve 1 \;, f 22;
#X msg 635 378 \; map6 send symbol doublebuf3-stretch \; map6 min 2 \; map6 max 0.5 \; map6 curve 1 \;, f 22;
#X msg 527 374 \; map4 send symbol doublebuf2-stretch \; map4 min 2 \; map4 max 0.5 \; map4 curve 1 \;, f 20;
#X msg 379 376 \; map4 send symbol doublebuf2-transp \; map4 min -25 \; map4 max 50 \; map4 curve 1 \;, f 20;
#X msg 39 290 \; map2 send symbol doublebuf1-dur \; map2 min 500 \; map2 max 1500 \; map2 curve 1 \;, f 20;
#X msg 39 389 \; map1 send symbol doublebuf1-transp \; map1 min -25 \; map1 max 100 \; map1 curve 1 \;, f 20;
#X connect 0 0 1 0;
#X connect 1 0 3 0;
#X connect 1 0 13 0;
#X connect 1 0 14 0;
#X connect 1 0 6 0;
#X connect 1 0 7 0;
#X connect 1 0 12 0;
#X connect 1 0 8 0;
#X connect 1 0 9 0;
#X connect 1 0 10 0;
#X restore 260 44 pd drone;
#X obj 260 20 bng 19 250 50 0 empty empty empty 0 -10 0 12 #fcfcfc #000000 #000000;
#X obj 331 20 bng 19 250 50 0 empty empty empty 0 -10 0 12 #fcfcfc #000000 #000000;
#N canvas 20 386 918 484 slap 0;
#X obj 206 9 inlet;
#X obj 206 33 bng 19 250 50 0 empty empty empty 0 -10 0 12 #fcfcfc #000000 #000000;
#X msg 208 291 \; map1 send symbol doublebuf1-pos \; map1 min 0 \; map1 max 500 \; map1 curve 1 \;, f 17;
#X msg 39 94 \; doublebuf1-density 3 \; doublebuf1-metro 0 \; doublebuf1-freeze 0 \; doublebuf1-stretch 1 \; doublebuf1-stretchvar 0 \; doublebuf1-pos 0 \; doublebuf1-posvar 0 \; doublebuf1-dur 750 \; doublebuf1-durvar 0 \; doublebuf1-transp 0 \; doublebuf1-transpvar 0 \; doublebuf1-pitchquant 0 \;;
#X msg 39 290 \; map1 send symbol doublebuf1-density \; map1 min 3 \; map1 max 30 \; map1 curve 1 \;, f 20;
#X msg 39 389 \; map2 send symbol doublebuf1-dur \; map2 min 1000 \; map2 max 500 \; map2 curve 1 \;, f 20;
#X msg 379 85 \; doublebuf2-density 3 \; doublebuf2-metro 0 \; doublebuf2-freeze 0 \; doublebuf2-stretch 1 \; doublebuf2-stretchvar 0 \; doublebuf2-pos 0 \; doublebuf2-posvar 0 \; doublebuf2-dur 750 \; doublebuf2-durvar 0 \; doublebuf2-transp 0 \; doublebuf2-transpvar 0 \; doublebuf2-pitchquant 0 \;;
#X msg 635 85 \; doublebuf3-density 3 \; doublebuf3-metro 0 \; doublebuf3-freeze 0 \; doublebuf3-stretch 1 \; doublebuf3-stretchvar 0 \; doublebuf3-pos 0 \; doublebuf3-posvar 0 \; doublebuf3-dur 750 \; doublebuf3-durvar 0 \; doublebuf3-transp 0 \; doublebuf3-transpvar 0 \; doublebuf3-pitchquant 0 \;;
#X msg 635 281 \; map5 send symbol doublebuf3-density \; map5 min 3 \; map5 max 30 \; map5 curve 1 \;, f 22;
#X msg 635 378 \; map6 send symbol doublebuf3-dur \; map6 min 1000 \; map6 max 500 \; map6 curve 1 \;, f 22;
#X msg 379 281 \; map4 send symbol doublebuf2-density \; map4 min 3 \; map4 max 30 \; map4 curve 1 \;, f 20;
#X msg 379 375 \; map3 send symbol doublebuf2-dur \; map3 min 1000 \; map3 max 500 \; map3 curve 1 \;, f 20;
#X connect 0 0 1 0;
#X connect 1 0 3 0;
#X connect 1 0 4 0;
#X connect 1 0 5 0;
#X connect 1 0 6 0;
#X connect 1 0 10 0;
#X connect 1 0 11 0;
#X connect 1 0 7 0;
#X connect 1 0 8 0;
#X connect 1 0 9 0;
#X restore 331 44 pd slap;
#X obj 409 20 bng 19 250 50 0 empty empty empty 0 -10 0 12 #fcfcfc #000000 #000000;
#N canvas 20 396 918 484 figure 0;
#X obj 206 9 inlet;
#X obj 206 33 bng 19 250 50 0 empty empty empty 0 -10 0 12 #fcfcfc #000000 #000000;
#X msg 208 291 \; map1 send symbol doublebuf1-pos \; map1 min 0 \; map1 max 500 \; map1 curve 1 \;, f 17;
#X msg 379 376 \; map4 send symbol doublebuf2-dur \; map4 min 900 \; map4 max 300 \; map4 curve 1 \;, f 20;
#X msg 39 290 \; map1 send symbol doublebuf1-metro \; map1 min 200 \; map1 max 30 \; map1 curve 1 \;, f 20;
#X msg 39 389 \; map2 send symbol doublebuf1-dur \; map2 min 900 \; map2 max 300 \; map2 curve 1 \;, f 20;
#X msg 635 281 \; map5 send symbol doublebuf3-metro \; map5 min 200 \; map5 max 30 \; map5 curve 1 \;, f 22;
#X msg 379 281 \; map3 send symbol doublebuf2-metro \; map3 min 300 \; map3 max 30 \; map3 curve 1 \;, f 20;
#X msg 379 85 \; doublebuf2-density 0 \; doublebuf2-metro 100 \; doublebuf2-freeze 1 \; doublebuf2-stretch 1.5 \; doublebuf2-stretchvar 0 \; doublebuf2-pos 0 \; doublebuf2-posvar 0 \; doublebuf2-dur 750 \; doublebuf2-durvar 0 \; doublebuf2-transp 0 \; doublebuf2-transpvar 0 \; doublebuf2-pitchquant 0 \;;
#X msg 39 94 \; doublebuf1-density 0 \; doublebuf1-metro 160 \; doublebuf1-freeze 0 \; doublebuf1-stretch 1.5 \; doublebuf1-stretchvar 0 \; doublebuf1-pos 0 \; doublebuf1-posvar 0 \; doublebuf1-dur 750 \; doublebuf1-durvar 0 \; doublebuf1-transp 0 \; doublebuf1-transpvar 0 \; doublebuf1-pitchquant 0 \;;
#X msg 635 85 \; doublebuf3-density 0 \; doublebuf3-metro 100 \; doublebuf3-freeze 1 \; doublebuf3-stretch 0.8 \; doublebuf3-stretchvar 0 \; doublebuf3-pos 0 \; doublebuf3-posvar 0 \; doublebuf3-dur 750 \; doublebuf3-durvar 0 \; doublebuf3-transp 0 \; doublebuf3-transpvar 0 \; doublebuf3-pitchquant 0 \;;
#X msg 635 378 \; map6 send symbol doublebuf3-dur \; map6 min 600 \; map6 max 150 \; map6 curve 1 \;, f 22;
#X connect 0 0 1 0;
#X connect 1 0 9 0;
#X connect 1 0 5 0;
#X connect 1 0 8 0;
#X connect 1 0 7 0;
#X connect 1 0 3 0;
#X connect 1 0 10 0;
#X connect 1 0 6 0;
#X connect 1 0 11 0;
#X connect 1 0 2 0;
#X restore 409 44 pd figure;
#X obj 49 39 nanokontrol;
#N canvas 0 369 1470 559 mappings 1;
#N canvas 23 131 1378 322 viola 0;
#X obj 23 16 inlet;
#X obj 23 41 bng 19 250 50 0 empty empty empty 0 -10 0 12 #fcfcfc #000000 #000000;
#X msg 24 118 \; map11 send symbol doublebuf1-density \; map11 min 0 \; map11 max 40 \; map11 curve 1 \;;
#X obj 365 62 s doublebuf1-metro;
#X obj 495 37 tgl 19 0 empty empty empty 0 -10 0 12 #fcfcfc #000000 #000000 0 1;
#X obj 495 13 r nano-buttonB01;
#X obj 495 61 s doublebuf1-freeze;
#X msg 49 208 \; map01 send symbol doublebuf1-metro \; map01 min 1000 \; map01 max 1 \; map01 curve 0.5 \;;
#X obj 365 15 r nano-buttonA01;
#X msg 365 39 0;
#X msg 304 118 \; map12 send symbol doublebuf1-stretch \; map12 min 0.25 \; map12 max 4 \; map12 curve 2 \;;
#X msg 304 208 \; map02 send symbol doublebuf1-stretchvar \; map02 min 0 \; map02 max 100 \; map02 curve 1 \;;
#X msg 606 118 \; map13 send symbol doublebuf1-pos \; map13 min 0 \; map13 max 2000 \; map13 curve 2 \;;
#X msg 606 208 \; map03 send symbol doublebuf1-posvar \; map03 min 0 \; map03 max 100 \; map03 curve 1 \;;
#X msg 885 118 \; map14 send symbol doublebuf1-dur \; map14 min 1 \; map14 max 2000 \; map14 curve 2 \;;
#X msg 885 208 \; map04 send symbol doublebuf1-durvar \; map04 min 0 \; map04 max 100 \; map04 curve 1 \;;
#X msg 1187 118 \; map15 send symbol doublebuf1-transp \; map15 min -1200 \; map15 max 1200 \; map15 curve 1 \;;
#X msg 1187 208 \; map05 send symbol doublebuf1-transpvar \; map05 min 0 \; map05 max 100 \; map05 curve 1 \;;
#X msg 1490 118 \; map06 send symbol doublebuf1-pitchquant \; map06 min 0 \; map06 max 1200 \; map06 curve 1 \;;
#X msg 1490 208 \; map16 send symbol doublebuf1-gain \; map16 min -99 \; map16 max 18 \; map16 curve 1 \;;
#X connect 0 0 1 0;
#X connect 1 0 10 0;
#X connect 1 0 11 0;
#X connect 1 0 12 0;
#X connect 1 0 13 0;
#X connect 1 0 2 0;
#X connect 1 0 7 0;
#X connect 1 0 14 0;
#X connect 1 0 15 0;
#X connect 1 0 16 0;
#X connect 1 0 17 0;
#X connect 1 0 19 0;
#X connect 1 0 18 0;
#X connect 4 0 6 0;
#X connect 5 0 4 0;
#X connect 8 0 9 0;
#X connect 9 0 3 0;
#X restore 31 63 pd viola;
#X obj 31 32 bng 19 250 50 0 empty empty empty 0 -10 0 12 #fcfcfc #000000 #000000;
#N canvas 25 388 1378 322 bassclar 0;
#X obj 23 16 inlet;
#X obj 23 43 bng 19 250 50 0 empty empty empty 0 -10 0 12 #fcfcfc #000000 #000000;
#X obj 495 37 tgl 19 0 empty empty empty 0 -10 0 12 #fcfcfc #000000 #000000 0 1;
#X msg 365 39 0;
#X msg 24 118 \; map17 send symbol doublebuf2-density \; map17 min 0 \; map17 max 40 \; map17 curve 1 \;;
#X msg 34 208 \; map07 send symbol doublebuf2-metro \; map07 min 1000 \; map07 max 1 \; map07 curve 0.5 \;;
#X obj 365 15 r nano-buttonA07;
#X obj 365 62 s doublebuf2-metro;
#X obj 495 61 s doublebuf2-freeze;
#X obj 495 13 r nano-buttonB07;
#X msg 304 208 \; map08 send symbol doublebuf2-stretchvar \; map08 min 0 \; map08 max 100 \; map08 curve 1 \;;
#X msg 304 118 \; map18 send symbol doublebuf2-stretch \; map18 min 0.25 \; map18 max 4 \; map18 curve 2 \;;
#X msg 606 118 \; map19 send symbol doublebuf2-pos \; map19 min 0 \; map19 max 2000 \; map19 curve 2 \;;
#X msg 606 208 \; map09 send symbol doublebuf2-posvar \; map09 min 0 \; map09 max 100 \; map09 curve 1 \;;
#X msg 885 118 \; map31 send symbol doublebuf2-dur \; map31 min 1 \; map31 max 2000 \; map31 curve 2 \;;
#X msg 885 208 \; map21 send symbol doublebuf2-durvar \; map21 min 0 \; map21 max 100 \; map21 curve 1 \;;
#X msg 1187 208 \; map22 send symbol doublebuf2-transpvar \; map22 min 0 \; map22 max 100 \; map22 curve 1 \;;
#X msg 1187 118 \; map32 send symbol doublebuf2-transp \; map32 min -1200 \; map32 max 1200 \; map32 curve 1 \;;
#X msg 1503 208 \; map23 send symbol doublebuf2-pitchquant \; map23 min 0 \; map23 max 1200 \; map23 curve 1 \;;
#X msg 1503 118 \; map33 send symbol doublebuf2-gain \; map33 min -99 \; map33 max 18 \; map33 curve 1 \;;
#X connect 0 0 1 0;
#X connect 1 0 11 0;
#X connect 1 0 10 0;
#X connect 1 0 12 0;
#X connect 1 0 13 0;
#X connect 1 0 4 0;
#X connect 1 0 5 0;
#X connect 1 0 14 0;
#X connect 1 0 15 0;
#X connect 1 0 17 0;
#X connect 1 0 16 0;
#X connect 1 0 18 0;
#X connect 1 0 19 0;
#X connect 2 0 8 0;
#X connect 3 0 7 0;
#X connect 6 0 3 0;
#X connect 9 0 2 0;
#X restore 105 63 pd bassclar;
#X symbolatom 841 23 25 0 0 0 - - - 0;
#X obj 841 -3 mapper map21 nano-knob21;
#X msg 1035 33 \; map21 send symbol doublebuf2-durvar \; map21 min 0 \; map21 max 100 \; map21 curve 1 \;;
#X msg 1022 -52 \; map31 send symbol doublebuf2-dur \; map31 min 1 \; map31 max 2000 \; map31 curve 2 \;;
#X symbolatom 841 79 25 0 0 0 - - - 0;
#X obj 841 53 mapper map31 nano-fader21;
#X obj 1427 -74 vsl 19 162 0 1 0 0 empty empty empty 0 -9 0 12 #fcfcfc #000000 #000000 0 1;
#X obj 1319 -74 vsl 19 162 0 1 0 0 empty empty empty 0 -9 0 12 #fcfcfc #000000 #000000 0 1;
#X symbolatom 30 182 25 0 0 0 - - - 0;
#X symbolatom 30 238 25 0 0 0 - - - 0;
#X obj 30 156 mapper map01 nano-knob01;
#X obj 30 212 mapper map11 nano-fader01;
#X symbolatom 211 182 25 0 0 0 - - - 0;
#X symbolatom 211 238 25 0 0 0 - - - 0;
#X obj 211 156 mapper map02 nano-knob02;
#X obj 211 212 mapper map12 nano-fader02;
#X symbolatom 392 182 25 0 0 0 - - - 0;
#X symbolatom 392 238 25 0 0 0 - - - 0;
#X symbolatom 573 182 25 0 0 0 - - - 0;
#X symbolatom 573 238 25 0 0 0 - - - 0;
#X obj 392 156 mapper map03 nano-knob03;
#X obj 392 212 mapper map13 nano-fader03;
#X obj 573 156 mapper map04 nano-knob04;
#X obj 573 212 mapper map14 nano-fader04;
#X symbolatom 754 182 25 0 0 0 - - - 0;
#X symbolatom 754 238 25 0 0 0 - - - 0;
#X symbolatom 935 182 25 0 0 0 - - - 0;
#X symbolatom 935 238 25 0 0 0 - - - 0;
#X symbolatom 1116 182 25 0 0 0 - - - 0;
#X symbolatom 1116 238 25 0 0 0 - - - 0;
#X symbolatom 1297 182 25 0 0 0 - - - 0;
#X symbolatom 1297 238 25 0 0 0 - - - 0;
#X obj 754 156 mapper map05 nano-knob05;
#X obj 754 212 mapper map15 nano-fader05;
#X obj 935 156 mapper map06 nano-knob06;
#X obj 935 212 mapper map16 nano-fader06;
#X obj 1116 156 mapper map07 nano-knob07;
#X obj 1116 212 mapper map17 nano-fader07;
#X obj 1297 156 mapper map08 nano-knob08;
#X obj 1297 212 mapper map18 nano-fader08;
#X symbolatom 1478 182 25 0 0 0 - - - 0;
#X symbolatom 1478 238 25 0 0 0 - - - 0;
#X obj 1478 156 mapper map09 nano-knob09;
#X obj 1478 212 mapper map19 nano-fader09;
#X obj 31 1 inlet;
#X symbolatom 2 352 25 0 0 0 - - - 0;
#X symbolatom 2 408 25 0 0 0 - - - 0;
#X symbolatom 188 352 25 0 0 0 - - - 0;
#X symbolatom 188 408 25 0 0 0 - - - 0;
#X symbolatom 374 352 25 0 0 0 - - - 0;
#X symbolatom 374 408 25 0 0 0 - - - 0;
#X symbolatom 560 352 25 0 0 0 - - - 0;
#X symbolatom 560 408 25 0 0 0 - - - 0;
#X symbolatom 746 352 25 0 0 0 - - - 0;
#X symbolatom 746 408 25 0 0 0 - - - 0;
#X symbolatom 932 352 25 0 0 0 - - - 0;
#X symbolatom 932 408 25 0 0 0 - - - 0;
#X symbolatom 1118 352 25 0 0 0 - - - 0;
#X symbolatom 1118 408 25 0 0 0 - - - 0;
#X symbolatom 1304 352 25 0 0 0 - - - 0;
#X symbolatom 1304 408 25 0 0 0 - - - 0;
#X symbolatom 1490 352 25 0 0 0 - - - 0;
#X symbolatom 1490 408 25 0 0 0 - - - 0;
#X obj 2 326 mapper map21 nano2-knob01;
#X obj 2 382 mapper map31 nano2-fader01;
#X obj 188 382 mapper map32 nano2-fader02;
#X obj 188 326 mapper map22 nano2-knob02;
#X obj 374 326 mapper map23 nano2-knob03;
#X obj 374 382 mapper map33 nano2-fader03;
#X obj 560 326 mapper map24 nano2-knob04;
#X obj 560 382 mapper map34 nano2-fader04;
#X obj 746 326 mapper map25 nano2-knob05;
#X obj 746 382 mapper map35 nano2-fader05;
#X obj 932 326 mapper map26 nano2-knob06;
#X obj 932 382 mapper map36 nano2-fader06;
#X obj 1118 326 mapper map27 nano2-knob07;
#X obj 1118 382 mapper map37 nano2-fader07;
#X obj 1304 326 mapper map28 nano2-knob08;
#X obj 1304 382 mapper map38 nano2-fader08;
#X obj 1490 326 mapper map29 nano2-knob09;
#X obj 1490 382 mapper map39 nano2-fader09;
#N canvas 25 388 1378 322 piano 0;
#X obj 23 16 inlet;
#X obj 23 43 bng 19 250 50 0 empty empty empty 0 -10 0 12 #fcfcfc #000000 #000000;
#X obj 495 37 tgl 19 0 empty empty empty 0 -10 0 12 #fcfcfc #000000 #000000 0 1;
#X msg 365 39 0;
#X msg 34 208 \; map24 send symbol doublebuf3-metro \; map24 min 1000 \; map24 max 1 \; map24 curve 0.5 \;;
#X msg 24 118 \; map34 send symbol doublebuf3-density \; map34 min 0 \; map34 max 40 \; map34 curve 1 \;;
#X obj 365 15 r nano2-buttonA04;
#X obj 495 13 r nano2-buttonB04;
#X obj 365 62 s doublebuf3-metro;
#X obj 495 61 s doublebuf3-freeze;
#X msg 304 208 \; map25 send symbol doublebuf3-stretchvar \; map25 min 0 \; map25 max 100 \; map25 curve 1 \;;
#X msg 304 118 \; map35 send symbol doublebuf3-stretch \; map35 min 0.25 \; map35 max 4 \; map35 curve 2 \;;
#X msg 606 208 \; map26 send symbol doublebuf3-posvar \; map26 min 0 \; map26 max 100 \; map26 curve 1 \;;
#X msg 606 118 \; map36 send symbol doublebuf3-pos \; map36 min 0 \; map36 max 2000 \; map36 curve 2 \;;
#X msg 885 208 \; map27 send symbol doublebuf3-durvar \; map27 min 0 \; map27 max 100 \; map27 curve 1 \;;
#X msg 885 118 \; map37 send symbol doublebuf3-dur \; map37 min 1 \; map37 max 2000 \; map37 curve 2 \;;
#X msg 1187 208 \; map28 send symbol doublebuf3-transpvar \; map28 min 0 \; map28 max 100 \; map28 curve 1 \;;
#X msg 1187 118 \; map38 send symbol doublebuf3-transp \; map38 min -1200 \; map38 max 1200 \; map38 curve 1 \;;
#X msg 1503 208 \; map29 send symbol doublebuf3-pitchquant \; map29 min 0 \; map29 max 1200 \; map29 curve 1 \;;
#X msg 1503 118 \; map39 send symbol doublebuf3-gain \; map39 min -99 \; map39 max 18 \; map39 curve 1 \;;
#X connect 0 0 1 0;
#X connect 1 0 11 0;
#X connect 1 0 10 0;
#X connect 1 0 13 0;
#X connect 1 0 12 0;
#X connect 1 0 5 0;
#X connect 1 0 4 0;
#X connect 1 0 14 0;
#X connect 1 0 17 0;
#X connect 1 0 16 0;
#X connect 1 0 18 0;
#X connect 1 0 19 0;
#X connect 1 0 15 0;
#X connect 2 0 9 0;
#X connect 3 0 8 0;
#X connect 6 0 3 0;
#X connect 7 0 2 0;
#X restore 197 63 pd piano;
#X obj 1319 96 s nano2-fader08;
#X obj 1427 96 s nano2-knob08;
#X connect 1 0 0 0;
#X connect 1 0 2 0;
#X connect 1 0 84 0;
#X connect 4 0 3 0;
#X connect 8 0 7 0;
#X connect 9 0 86 0;
#X connect 10 0 85 0;
#X connect 13 0 11 0;
#X connect 14 0 12 0;
#X connect 17 0 15 0;
#X connect 18 0 16 0;
#X connect 23 0 19 0;
#X connect 24 0 20 0;
#X connect 25 0 21 0;
#X connect 26 0 22 0;
#X connect 35 0 27 0;
#X connect 36 0 28 0;
#X connect 37 0 29 0;
#X connect 38 0 30 0;
#X connect 39 0 31 0;
#X connect 40 0 32 0;
#X connect 41 0 33 0;
#X connect 42 0 34 0;
#X connect 45 0 43 0;
#X connect 46 0 44 0;
#X connect 47 0 1 0;
#X connect 66 0 48 0;
#X connect 67 0 49 0;
#X connect 68 0 51 0;
#X connect 69 0 50 0;
#X connect 70 0 52 0;
#X connect 71 0 53 0;
#X connect 72 0 54 0;
#X connect 73 0 55 0;
#X connect 74 0 56 0;
#X connect 75 0 57 0;
#X connect 76 0 58 0;
#X connect 77 0 59 0;
#X connect 78 0 60 0;
#X connect 79 0 61 0;
#X connect 80 0 62 0;
#X connect 81 0 63 0;
#X connect 82 0 64 0;
#X connect 83 0 65 0;
#X restore 49 102 pd mappings;
#X f 12;
#N canvas 0 157 1470 771 mappings-bu 0;
#X floatatom 270 601 5 0 0 0 - - - 0;
#X obj 287 648 m_scale 0 1 0 100;
#X floatatom 287 672 5 0 0 0 - - - 0;
#X floatatom 326 625 5 0 0 0 - - - 0;
#X floatatom 365 625 5 0 0 0 - - - 0;
#X floatatom 404 625 5 0 0 0 - - - 0;
#X obj 287 726 send;
#X symbolatom 312 700 25 0 0 0 - - - 0;
#X obj 313 601 route send min max curve;
#X msg 322 672 symbol doublebuf1-dur;
#X floatatom 526 597 5 0 0 0 - - - 0;
#X obj 543 644 m_scale 0 1 0 100;
#X floatatom 543 668 5 0 0 0 - - - 0;
#X floatatom 582 621 5 0 0 0 - - - 0;
#X floatatom 621 621 5 0 0 0 - - - 0;
#X floatatom 660 621 5 0 0 0 - - - 0;
#X obj 543 722 send;
#X symbolatom 568 696 25 0 0 0 - - - 0;
#X obj 569 597 route send min max curve;
#X floatatom 755 597 5 0 0 0 - - - 0;
#X obj 772 644 m_scale 0 1 0 100;
#X floatatom 772 668 5 0 0 0 - - - 0;
#X floatatom 811 621 5 0 0 0 - - - 0;
#X floatatom 850 621 5 0 0 0 - - - 0;
#X floatatom 889 621 5 0 0 0 - - - 0;
#X obj 772 722 send;
#X symbolatom 797 696 25 0 0 0 - - - 0;
#X obj 798 597 route send min max curve;
#X floatatom 1002 597 5 0 0 0 - - - 0;
#X obj 1019 644 m_scale 0 1 0 100;
#X floatatom 1019 668 5 0 0 0 - - - 0;
#X floatatom 1058 621 5 0 0 0 - - - 0;
#X floatatom 1097 621 5 0 0 0 - - - 0;
#X floatatom 1136 621 5 0 0 0 - - - 0;
#X obj 1019 722 send;
#X symbolatom 1044 696 25 0 0 0 - - - 0;
#X obj 1045 597 route send min max curve;
#X floatatom 1231 597 5 0 0 0 - - - 0;
#X obj 1248 644 m_scale 0 1 0 100;
#X floatatom 1248 668 5 0 0 0 - - - 0;
#X floatatom 1287 621 5 0 0 0 - - - 0;
#X floatatom 1326 621 5 0 0 0 - - - 0;
#X floatatom 1365 621 5 0 0 0 - - - 0;
#X obj 1248 722 send;
#X symbolatom 1273 696 25 0 0 0 - - - 0;
#X obj 1274 597 route send min max curve;
#X msg 578 668 symbol doublebuf2-stretch;
#X msg 807 668 symbol doublebuf2-dur;
#X msg 1054 668 symbol doublebuf3-stretch;
#X msg 1283 668 symbol doublebuf3-dur;
#X obj 270 553 r nano-fader02;
#X obj 526 549 r nano-fader03;
#X obj 755 549 r nano-fader04;
#X obj 1002 549 r nano-fader05;
#X obj 1231 549 r nano-fader06;
#X floatatom 1464 596 5 0 0 0 - - - 0;
#X obj 1481 643 m_scale 0 1 0 100;
#X floatatom 1481 667 5 0 0 0 - - - 0;
#X floatatom 1520 620 5 0 0 0 - - - 0;
#X floatatom 1559 620 5 0 0 0 - - - 0;
#X floatatom 1598 620 5 0 0 0 - - - 0;
#X obj 1481 721 send;
#X symbolatom 1506 695 25 0 0 0 - - - 0;
#X obj 1507 596 route send min max curve;
#X floatatom 1711 596 5 0 0 0 - - - 0;
#X obj 1728 643 m_scale 0 1 0 100;
#X floatatom 1728 667 5 0 0 0 - - - 0;
#X floatatom 1767 620 5 0 0 0 - - - 0;
#X floatatom 1806 620 5 0 0 0 - - - 0;
#X floatatom 1845 620 5 0 0 0 - - - 0;
#X obj 1728 721 send;
#X symbolatom 1753 695 25 0 0 0 - - - 0;
#X obj 1754 596 route send min max curve;
#X floatatom 1940 596 5 0 0 0 - - - 0;
#X obj 1957 643 m_scale 0 1 0 100;
#X floatatom 1957 667 5 0 0 0 - - - 0;
#X floatatom 1996 620 5 0 0 0 - - - 0;
#X floatatom 2035 620 5 0 0 0 - - - 0;
#X floatatom 2074 620 5 0 0 0 - - - 0;
#X obj 1957 721 send;
#X symbolatom 1982 695 25 0 0 0 - - - 0;
#X obj 1983 596 route send min max curve;
#X msg 1516 667 symbol doublebuf2-dur;
#X msg 1763 667 symbol doublebuf3-stretch;
#X msg 1992 667 symbol doublebuf3-dur;
#X obj 1464 548 r nano-fader07;
#X obj 1711 548 r nano-fader08;
#X obj 1940 548 r nano-fader09;
#X floatatom 267 376 5 0 0 0 - - - 0;
#X obj 284 423 m_scale 0 1 0 100;
#X floatatom 284 447 5 0 0 0 - - - 0;
#X floatatom 323 400 5 0 0 0 - - - 0;
#X floatatom 362 400 5 0 0 0 - - - 0;
#X floatatom 401 400 5 0 0 0 - - - 0;
#X obj 284 501 send;
#X symbolatom 309 475 25 0 0 0 - - - 0;
#X obj 310 376 route send min max curve;
#X msg 319 447 symbol doublebuf1-dur;
#X floatatom 523 372 5 0 0 0 - - - 0;
#X obj 540 419 m_scale 0 1 0 100;
#X floatatom 540 443 5 0 0 0 - - - 0;
#X floatatom 579 396 5 0 0 0 - - - 0;
#X floatatom 618 396 5 0 0 0 - - - 0;
#X floatatom 657 396 5 0 0 0 - - - 0;
#X obj 540 497 send;
#X symbolatom 565 471 25 0 0 0 - - - 0;
#X obj 566 372 route send min max curve;
#X floatatom 752 372 5 0 0 0 - - - 0;
#X obj 769 419 m_scale 0 1 0 100;
#X floatatom 769 443 5 0 0 0 - - - 0;
#X floatatom 808 396 5 0 0 0 - - - 0;
#X floatatom 847 396 5 0 0 0 - - - 0;
#X floatatom 886 396 5 0 0 0 - - - 0;
#X obj 769 497 send;
#X symbolatom 794 471 25 0 0 0 - - - 0;
#X obj 795 372 route send min max curve;
#X floatatom 999 372 5 0 0 0 - - - 0;
#X obj 1016 419 m_scale 0 1 0 100;
#X floatatom 1016 443 5 0 0 0 - - - 0;
#X floatatom 1055 396 5 0 0 0 - - - 0;
#X floatatom 1094 396 5 0 0 0 - - - 0;
#X floatatom 1133 396 5 0 0 0 - - - 0;
#X obj 1016 497 send;
#X symbolatom 1041 471 25 0 0 0 - - - 0;
#X obj 1042 372 route send min max curve;
#X floatatom 1228 372 5 0 0 0 - - - 0;
#X obj 1245 419 m_scale 0 1 0 100;
#X floatatom 1245 443 5 0 0 0 - - - 0;
#X floatatom 1284 396 5 0 0 0 - - - 0;
#X floatatom 1323 396 5 0 0 0 - - - 0;
#X floatatom 1362 396 5 0 0 0 - - - 0;
#X obj 1245 497 send;
#X symbolatom 1270 471 25 0 0 0 - - - 0;
#X obj 1271 372 route send min max curve;
#X msg 575 443 symbol doublebuf2-stretch;
#X msg 804 443 symbol doublebuf2-dur;
#X msg 1051 443 symbol doublebuf3-stretch;
#X msg 1280 443 symbol doublebuf3-dur;
#X obj 310 352 r map02;
#X obj 566 348 r map03;
#X obj 795 348 r map04;
#X obj 1042 348 r map05;
#X obj 1271 348 r map06;
#X floatatom 1461 371 5 0 0 0 - - - 0;
#X obj 1478 418 m_scale 0 1 0 100;
#X floatatom 1478 442 5 0 0 0 - - - 0;
#X floatatom 1517 395 5 0 0 0 - - - 0;
#X floatatom 1556 395 5 0 0 0 - - - 0;
#X floatatom 1595 395 5 0 0 0 - - - 0;
#X obj 1478 496 send;
#X symbolatom 1503 470 25 0 0 0 - - - 0;
#X obj 1504 371 route send min max curve;
#X floatatom 1708 371 5 0 0 0 - - - 0;
#X obj 1725 418 m_scale 0 1 0 100;
#X floatatom 1725 442 5 0 0 0 - - - 0;
#X floatatom 1764 395 5 0 0 0 - - - 0;
#X floatatom 1803 395 5 0 0 0 - - - 0;
#X floatatom 1842 395 5 0 0 0 - - - 0;
#X obj 1725 496 send;
#X symbolatom 1750 470 25 0 0 0 - - - 0;
#X obj 1751 371 route send min max curve;
#X floatatom 1937 371 5 0 0 0 - - - 0;
#X obj 1954 418 m_scale 0 1 0 100;
#X floatatom 1954 442 5 0 0 0 - - - 0;
#X floatatom 1993 395 5 0 0 0 - - - 0;
#X floatatom 2032 395 5 0 0 0 - - - 0;
#X floatatom 2071 395 5 0 0 0 - - - 0;
#X obj 1954 496 send;
#X symbolatom 1979 470 25 0 0 0 - - - 0;
#X obj 1980 371 route send min max curve;
#X msg 1513 442 symbol doublebuf2-dur;
#X msg 1760 442 symbol doublebuf3-stretch;
#X msg 1989 442 symbol doublebuf3-dur;
#X obj 1504 347 r map07;
#X obj 1751 347 r map08;
#X obj 1980 347 r map09;
#X obj 267 328 r nano-knob02;
#X obj 523 324 r nano-knob03;
#X obj 752 324 r nano-knob04;
#X obj 999 324 r nano-knob05;
#X obj 1227 325 r nano-knob06;
#X obj 1461 323 r nano-knob07;
#X obj 1708 323 r nano-knob08;
#X obj 1937 323 r nano-knob09;
#X obj 313 577 r map12;
#X obj 569 573 r map13;
#X obj 798 573 r map14;
#X obj 1045 573 r map15;
#X obj 1274 573 r map16;
#X obj 1507 572 r map17;
#X obj 1754 572 r map18;
#X obj 1983 572 r map19;
#N canvas 23 131 1378 322 viola 0;
#X obj 23 16 inlet;
#X obj 23 43 bng 19 250 50 0 empty empty empty 0 -10 0 12 #fcfcfc #000000 #000000;
#X msg 24 118 \; map11 send symbol doublebuf1-density \; map11 min 0 \; map11 max 40 \; map11 curve 1 \;;
#X obj 365 62 s doublebuf1-metro;
#X obj 495 37 tgl 19 0 empty empty empty 0 -10 0 12 #fcfcfc #000000 #000000 0 1;
#X obj 495 13 r nano-buttonB01;
#X obj 495 61 s doublebuf1-freeze;
#X msg 49 208 \; map01 send symbol doublebuf1-metro \; map01 min 1000 \; map01 max 1 \; map01 curve 0.5 \;;
#X obj 365 15 r nano-buttonA01;
#X msg 365 39 0;
#X msg 304 117 \; map12 send symbol doublebuf1-stretch \; map12 min 0.25 \; map12 max 4 \; map12 curve 2 \;;
#X msg 317 202 \; map02 send symbol doublebuf1-stretchvar \; map02 min 0 \; map02 max 100 \; map02 curve 1 \;;
#X msg 606 116 \; map13 send symbol doublebuf1-pos \; map13 min 0 \; map13 max 2000 \; map13 curve 2 \;;
#X msg 620 201 \; map03 send symbol doublebuf1-posvar \; map03 min 0 \; map03 max 100 \; map03 curve 1 \;;
#X msg 885 114 \; map14 send symbol doublebuf1-dur \; map14 min 1 \; map14 max 2000 \; map14 curve 2 \;;
#X msg 898 199 \; map04 send symbol doublebuf1-durvar \; map04 min 0 \; map04 max 100 \; map04 curve 1 \;;
#X msg 1187 113 \; map15 send symbol doublebuf1-transp \; map15 min -1200 \; map15 max 1200 \; map15 curve 1 \;;
#X msg 1201 198 \; map05 send symbol doublebuf1-transpvar \; map05 min 0 \; map05 max 100 \; map05 curve 1 \;;
#X msg 1201 281 \; map06 send symbol doublebuf1-pitchquant \; map06 min 0 \; map06 max 1200 \; map06 curve 1 \;;
#X connect 0 0 1 0;
#X connect 1 0 10 0;
#X connect 1 0 11 0;
#X connect 1 0 12 0;
#X connect 1 0 13 0;
#X connect 1 0 2 0;
#X connect 1 0 7 0;
#X connect 1 0 14 0;
#X connect 1 0 15 0;
#X connect 1 0 16 0;
#X connect 1 0 17 0;
#X connect 1 0 18 0;
#X connect 4 0 6 0;
#X connect 5 0 4 0;
#X connect 8 0 9 0;
#X connect 9 0 3 0;
#X restore 33 69 pd viola;
#X obj 32 32 bng 19 250 50 0 empty empty empty 0 -10 0 12 #fcfcfc #000000 #000000;
#N canvas 25 388 1378 322 bassclar 1;
#X obj 23 16 inlet;
#X obj 23 43 bng 19 250 50 0 empty empty empty 0 -10 0 12 #fcfcfc #000000 #000000;
#X obj 495 37 tgl 19 0 empty empty empty 0 -10 0 12 #fcfcfc #000000 #000000 0 1;
#X msg 365 39 0;
#X msg 885 114 \; map14 send symbol doublebuf1-dur \; map14 min 1 \; map14 max 2000 \; map14 curve 2 \;;
#X msg 898 199 \; map04 send symbol doublebuf1-durvar \; map04 min 0 \; map04 max 100 \; map04 curve 1 \;;
#X msg 1187 113 \; map15 send symbol doublebuf1-transp \; map15 min -1200 \; map15 max 1200 \; map15 curve 1 \;;
#X msg 1201 198 \; map05 send symbol doublebuf1-transpvar \; map05 min 0 \; map05 max 100 \; map05 curve 1 \;;
#X msg 1201 281 \; map06 send symbol doublebuf1-pitchquant \; map06 min 0 \; map06 max 1200 \; map06 curve 1 \;;
#X msg 24 118 \; map17 send symbol doublebuf2-density \; map17 min 0 \; map17 max 40 \; map17 curve 1 \;;
#X msg 49 208 \; map07 send symbol doublebuf2-metro \; map07 min 1000 \; map07 max 1 \; map07 curve 0.5 \;;
#X obj 365 15 r nano-buttonA07;
#X obj 365 62 s doublebuf2-metro;
#X obj 495 61 s doublebuf2-freeze;
#X obj 495 13 r nano-buttonB07;
#X msg 317 202 \; map08 send symbol doublebuf2-stretchvar \; map08 min 0 \; map08 max 100 \; map08 curve 1 \;;
#X msg 304 117 \; map18 send symbol doublebuf2-stretch \; map18 min 0.25 \; map18 max 4 \; map18 curve 2 \;;
#X msg 606 116 \; map19 send symbol doublebuf2-pos \; map19 min 0 \; map19 max 2000 \; map19 curve 2 \;;
#X msg 620 201 \; map09 send symbol doublebuf2-posvar \; map09 min 0 \; map09 max 100 \; map09 curve 1 \;;
#X connect 0 0 1 0;
#X connect 1 0 16 0;
#X connect 1 0 15 0;
#X connect 1 0 17 0;
#X connect 1 0 18 0;
#X connect 1 0 9 0;
#X connect 1 0 10 0;
#X connect 1 0 4 0;
#X connect 1 0 5 0;
#X connect 1 0 6 0;
#X connect 1 0 7 0;
#X connect 1 0 8 0;
#X connect 2 0 13 0;
#X connect 3 0 12 0;
#X connect 11 0 3 0;
#X connect 14 0 2 0;
#X restore 105 71 pd bassclar;
#X symbolatom 588 134 25 0 0 0 - - - 0;
#X obj 588 108 mapper map21 nano-knob21;
#X msg 782 144 \; map21 send symbol doublebuf2-durvar \; map21 min 0 \; map21 max 100 \; map21 curve 1 \;;
#X msg 769 59 \; map31 send symbol doublebuf2-dur \; map31 min 1 \; map31 max 2000 \; map31 curve 2 \;;
#X symbolatom 588 190 25 0 0 0 - - - 0;
#X obj 588 164 mapper map31 nano-fader21;
#X obj 1174 37 vsl 19 162 0 1 0 0 empty empty empty 0 -9 0 12 #fcfcfc #000000 #000000 0 1;
#X obj 1174 207 s nano-knob21;
#X obj 1066 37 vsl 19 162 0 1 0 0 empty empty empty 0 -9 0 12 #fcfcfc #000000 #000000 0 1;
#X obj 1066 207 s nano-fader21;
#X symbolatom 30 182 25 0 0 0 - - - 0;
#X symbolatom 30 238 25 0 0 0 - - - 0;
#X obj 30 156 mapper map01 nano-knob01;
#X obj 30 212 mapper map11 nano-fader01;
#X symbolatom 211 182 25 0 0 0 - - - 0;
#X symbolatom 211 238 25 0 0 0 - - - 0;
#X obj 211 156 mapper map02 nano-knob02;
#X obj 211 212 mapper map12 nano-fader02;
#X connect 0 0 1 0;
#X connect 1 0 2 0;
#X connect 2 0 6 0;
#X connect 3 0 1 3;
#X connect 4 0 1 4;
#X connect 5 0 1 5;
#X connect 7 0 6 1;
#X connect 8 0 7 0;
#X connect 8 1 3 0;
#X connect 8 2 4 0;
#X connect 8 3 5 0;
#X connect 9 0 7 0;
#X connect 10 0 11 0;
#X connect 11 0 12 0;
#X connect 12 0 16 0;
#X connect 13 0 11 3;
#X connect 14 0 11 4;
#X connect 15 0 11 5;
#X connect 17 0 16 1;
#X connect 18 0 17 0;
#X connect 18 1 13 0;
#X connect 18 2 14 0;
#X connect 18 3 15 0;
#X connect 19 0 20 0;
#X connect 20 0 21 0;
#X connect 21 0 25 0;
#X connect 22 0 20 3;
#X connect 23 0 20 4;
#X connect 24 0 20 5;
#X connect 26 0 25 1;
#X connect 27 0 26 0;
#X connect 27 1 22 0;
#X connect 27 2 23 0;
#X connect 27 3 24 0;
#X connect 28 0 29 0;
#X connect 29 0 30 0;
#X connect 30 0 34 0;
#X connect 31 0 29 3;
#X connect 32 0 29 4;
#X connect 33 0 29 5;
#X connect 35 0 34 1;
#X connect 36 0 35 0;
#X connect 36 1 31 0;
#X connect 36 2 32 0;
#X connect 36 3 33 0;
#X connect 37 0 38 0;
#X connect 38 0 39 0;
#X connect 39 0 43 0;
#X connect 40 0 38 3;
#X connect 41 0 38 4;
#X connect 42 0 38 5;
#X connect 44 0 43 1;
#X connect 45 0 44 0;
#X connect 45 1 40 0;
#X connect 45 2 41 0;
#X connect 45 3 42 0;
#X connect 46 0 17 0;
#X connect 47 0 26 0;
#X connect 48 0 35 0;
#X connect 49 0 44 0;
#X connect 50 0 0 0;
#X connect 51 0 10 0;
#X connect 52 0 19 0;
#X connect 53 0 28 0;
#X connect 54 0 37 0;
#X connect 55 0 56 0;
#X connect 56 0 57 0;
#X connect 57 0 61 0;
#X connect 58 0 56 3;
#X connect 59 0 56 4;
#X connect 60 0 56 5;
#X connect 62 0 61 1;
#X connect 63 0 62 0;
#X connect 63 1 58 0;
#X connect 63 2 59 0;
#X connect 63 3 60 0;
#X connect 64 0 65 0;
#X connect 65 0 66 0;
#X connect 66 0 70 0;
#X connect 67 0 65 3;
#X connect 68 0 65 4;
#X connect 69 0 65 5;
#X connect 71 0 70 1;
#X connect 72 0 71 0;
#X connect 72 1 67 0;
#X connect 72 2 68 0;
#X connect 72 3 69 0;
#X connect 73 0 74 0;
#X connect 74 0 75 0;
#X connect 75 0 79 0;
#X connect 76 0 74 3;
#X connect 77 0 74 4;
#X connect 78 0 74 5;
#X connect 80 0 79 1;
#X connect 81 0 80 0;
#X connect 81 1 76 0;
#X connect 81 2 77 0;
#X connect 81 3 78 0;
#X connect 82 0 62 0;
#X connect 83 0 71 0;
#X connect 84 0 80 0;
#X connect 85 0 55 0;
#X connect 86 0 64 0;
#X connect 87 0 73 0;
#X connect 88 0 89 0;
#X connect 89 0 90 0;
#X connect 90 0 94 0;
#X connect 91 0 89 3;
#X connect 92 0 89 4;
#X connect 93 0 89 5;
#X connect 95 0 94 1;
#X connect 96 0 95 0;
#X connect 96 1 91 0;
#X connect 96 2 92 0;
#X connect 96 3 93 0;
#X connect 97 0 95 0;
#X connect 98 0 99 0;
#X connect 99 0 100 0;
#X connect 100 0 104 0;
#X connect 101 0 99 3;
#X connect 102 0 99 4;
#X connect 103 0 99 5;
#X connect 105 0 104 1;
#X connect 106 0 105 0;
#X connect 106 1 101 0;
#X connect 106 2 102 0;
#X connect 106 3 103 0;
#X connect 107 0 108 0;
#X connect 108 0 109 0;
#X connect 109 0 113 0;
#X connect 110 0 108 3;
#X connect 111 0 108 4;
#X connect 112 0 108 5;
#X connect 114 0 113 1;
#X connect 115 0 114 0;
#X connect 115 1 110 0;
#X connect 115 2 111 0;
#X connect 115 3 112 0;
#X connect 116 0 117 0;
#X connect 117 0 118 0;
#X connect 118 0 122 0;
#X connect 119 0 117 3;
#X connect 120 0 117 4;
#X connect 121 0 117 5;
#X connect 123 0 122 1;
#X connect 124 0 123 0;
#X connect 124 1 119 0;
#X connect 124 2 120 0;
#X connect 124 3 121 0;
#X connect 125 0 126 0;
#X connect 126 0 127 0;
#X connect 127 0 131 0;
#X connect 128 0 126 3;
#X connect 129 0 126 4;
#X connect 130 0 126 5;
#X connect 132 0 131 1;
#X connect 133 0 132 0;
#X connect 133 1 128 0;
#X connect 133 2 129 0;
#X connect 133 3 130 0;
#X connect 134 0 105 0;
#X connect 135 0 114 0;
#X connect 136 0 123 0;
#X connect 137 0 132 0;
#X connect 138 0 96 0;
#X connect 139 0 106 0;
#X connect 140 0 115 0;
#X connect 141 0 124 0;
#X connect 142 0 133 0;
#X connect 143 0 144 0;
#X connect 144 0 145 0;
#X connect 145 0 149 0;
#X connect 146 0 144 3;
#X connect 147 0 144 4;
#X connect 148 0 144 5;
#X connect 150 0 149 1;
#X connect 151 0 150 0;
#X connect 151 1 146 0;
#X connect 151 2 147 0;
#X connect 151 3 148 0;
#X connect 152 0 153 0;
#X connect 153 0 154 0;
#X connect 154 0 158 0;
#X connect 155 0 153 3;
#X connect 156 0 153 4;
#X connect 157 0 153 5;
#X connect 159 0 158 1;
#X connect 160 0 159 0;
#X connect 160 1 155 0;
#X connect 160 2 156 0;
#X connect 160 3 157 0;
#X connect 161 0 162 0;
#X connect 162 0 163 0;
#X connect 163 0 167 0;
#X connect 164 0 162 3;
#X connect 165 0 162 4;
#X connect 166 0 162 5;
#X connect 168 0 167 1;
#X connect 169 0 168 0;
#X connect 169 1 164 0;
#X connect 169 2 165 0;
#X connect 169 3 166 0;
#X connect 170 0 150 0;
#X connect 171 0 159 0;
#X connect 172 0 168 0;
#X connect 173 0 151 0;
#X connect 174 0 160 0;
#X connect 175 0 169 0;
#X connect 176 0 88 0;
#X connect 177 0 98 0;
#X connect 178 0 107 0;
#X connect 179 0 116 0;
#X connect 180 0 125 0;
#X connect 181 0 143 0;
#X connect 182 0 152 0;
#X connect 183 0 161 0;
#X connect 184 0 8 0;
#X connect 185 0 18 0;
#X connect 186 0 27 0;
#X connect 187 0 36 0;
#X connect 188 0 45 0;
#X connect 189 0 63 0;
#X connect 190 0 72 0;
#X connect 191 0 81 0;
#X connect 193 0 192 0;
#X connect 193 0 194 0;
#X connect 196 0 195 0;
#X connect 200 0 199 0;
#X connect 201 0 202 0;
#X connect 203 0 204 0;
#X connect 207 0 205 0;
#X connect 208 0 206 0;
#X connect 211 0 209 0;
#X connect 212 0 210 0;
#X restore 56 141 pd mappings-bu;
#X obj 49 77 bng 19 250 50 0 empty empty empty 0 -10 0 12 #fcfcfc #000000 #000000;
#X obj 134 39 nanokontrol2;
#X connect 3 0 2 0;
#X connect 4 0 5 0;
#X connect 6 0 7 0;
#X connect 11 0 9 0;
