#N canvas 192 443 1230 470 12;
#X msg 46 96 \; doublebuf1-density 3 \; doublebuf1-metro 500 \; doublebuf1-freeze 0 \; doublebuf1-stretch 1 \; doublebuf1-stretchvar 25 \; doublebuf1-pos 0 \; doublebuf1-posvar 50 \; doublebuf1-dur 1000 \; doublebuf1-durvar 20 \; doublebuf1-transp 0 \; doublebuf1-transpvar 0 \; doublebuf1-pitchquant 0 \;;
#X msg 46 376 \; map2 send symbol doublebuf1-stretch \; map2 min 1 \; map2 max 2 \; map2 curve 2 \;;
#X msg 46 292 \; map1 send symbol doublebuf1-dur \; map1 min 50 \; map1 max 600 \; map1 curve 2 \;, f 33;
#X msg 331 93 \; doublebuf2-density 3 \; doublebuf2-metro 500 \; doublebuf2-freeze 0 \; doublebuf2-stretch 1 \; doublebuf2-stretchvar 25 \; doublebuf2-pos 0 \; doublebuf2-posvar 50 \; doublebuf2-dur 1000 \; doublebuf2-durvar 20 \; doublebuf2-transp 0 \; doublebuf2-transpvar 0 \; doublebuf2-pitchquant 0 \;;
#X msg 331 373 \; map4 send symbol doublebuf2-stretch \; map4 min 1 \; map4 max 2 \; map4 curve 2 \;;
#X msg 331 289 \; map3 send symbol doublebuf2-dur \; map3 min 50 \; map3 max 600 \; map3 curve 2 \;;
#X msg 671 285 \; doublebuf3-density 3 \; doublebuf3-metro 500 \; doublebuf3-freeze 0 \; doublebuf3-stretch 1 \; doublebuf3-stretchvar 25 \; doublebuf3-pos 0 \; doublebuf3-posvar 50 \; doublebuf3-dur 1000 \; doublebuf3-durvar 20 \; doublebuf3-transp 0 \; doublebuf3-transpvar 0 \; doublebuf3-pitchquant 0 \;;
#X msg 671 481 \; map5 send symbol doublebuf3-dur \; map5 min 50 \; map5 max 600 \; map5 curve 2 \;;
#X msg 671 565 \; map6 send symbol doublebuf3-stretch \; map6 min 1 \; map6 max 2 \; map6 curve 2 \;;
#N canvas 63 388 932 401 sendall 0;
#X obj 26 17 r sendall;
#X obj 26 41 route density metro freeze stretch stretchvar pos posvar dur durvar transp transpvar pitchquant, f 96;
#X msg 27 289 \; doublebuf1-density \$1 \; doublebuf2-density \$1 \; doublebuf3-density \$1 \;;
#X msg 41 219 \; doublebuf1-metro \$1 \; doublebuf2-metro \$1 \; doublebuf3-metro \$1 \;;
#X msg 75 150 \; doublebuf1-freeze \$1 \; doublebuf2-freeze \$1 \; doublebuf3-freeze \$1 \;;
#X msg 255 289 \; doublebuf1-stretch \$1 \; doublebuf2-stretch \$1 \; doublebuf3-stretch \$1 \;;
#X msg 308 219 \; doublebuf1-stretchvar \$1 \; doublebuf2-stretchvar \$1 \; doublebuf3-stretchvar \$1 \;;
#X msg 329 150 \; doublebuf1-pos \$1 \; doublebuf2-pos \$1 \; doublebuf3-pos \$1 \;;
#X msg 360 76 \; doublebuf1-posvar \$1 \; doublebuf2-posvar \$1 \; doublebuf3-posvar \$1 \;;
#X msg 523 289 \; doublebuf1-dur \$1 \; doublebuf2-dur \$1 \; doublebuf3-dur \$1 \;;
#X msg 551 219 \; doublebuf1-durvar \$1 \; doublebuf2-durvar \$1 \; doublebuf3-durvar \$1 \;;
#X msg 573 150 \; doublebuf1-transp \$1 \; doublebuf2-transp \$1 \; doublebuf3-transp \$1 \;;
#X msg 583 76 \; doublebuf1-transpvar \$1 \; doublebuf2-transpvar \$1 \; doublebuf3-transpvar \$1 \;;
#X msg 699 289 \; doublebuf1-pitchquant \$1 \; doublebuf2-pitchquant \$1 \; doublebuf3-pitchquant \$1 \;;
#X connect 0 0 1 0;
#X connect 1 0 2 0;
#X connect 1 1 3 0;
#X connect 1 2 4 0;
#X connect 1 3 5 0;
#X connect 1 4 6 0;
#X connect 1 5 7 0;
#X connect 1 6 8 0;
#X connect 1 7 9 0;
#X connect 1 8 10 0;
#X connect 1 9 11 0;
#X connect 1 10 12 0;
#X connect 1 11 13 0;
#X restore 57 32 pd sendall;
#X msg 1023 303 \; sendall density 3 \;;
#X msg 937 95 \; sendall density 3 \; sendall metro 500 \; sendall freeze 0 \; sendall stretch 1 \; sendall stretchvar 25 \; sendall pos 0 \; sendall posvar 50 \; sendall dur 1000 \; sendall durvar 20 \; sendall transp 0 \; sendall transpvar 0 \; sendall pitchquant 0 \;;
#X text 933 67 send same params to all voices;
#N canvas 121 158 1239 423 template 0;
#X msg 37 29 \; doublebuf1-density 3 \; doublebuf1-metro 500 \; doublebuf1-freeze 0 \; doublebuf1-stretch 1 \; doublebuf1-stretchvar 25 \; doublebuf1-pos 0 \; doublebuf1-posvar 50 \; doublebuf1-dur 1000 \; doublebuf1-durvar 20 \; doublebuf1-transp 0 \; doublebuf1-transpvar 0 \; doublebuf1-pitchquant 0 \;;
#X msg 37 309 \; map2 send symbol doublebuf1-stretch \; map2 min 1 \; map2 max 2 \; map2 curve 2 \;;
#X msg 37 225 \; map1 send symbol doublebuf1-dur \; map1 min 50 \; map1 max 600 \; map1 curve 2 \;, f 33;
#X msg 322 26 \; doublebuf2-density 3 \; doublebuf2-metro 500 \; doublebuf2-freeze 0 \; doublebuf2-stretch 1 \; doublebuf2-stretchvar 25 \; doublebuf2-pos 0 \; doublebuf2-posvar 50 \; doublebuf2-dur 1000 \; doublebuf2-durvar 20 \; doublebuf2-transp 0 \; doublebuf2-transpvar 0 \; doublebuf2-pitchquant 0 \;;
#X msg 322 306 \; map4 send symbol doublebuf2-stretch \; map4 min 1 \; map4 max 2 \; map4 curve 2 \;;
#X msg 322 222 \; map3 send symbol doublebuf2-dur \; map3 min 50 \; map3 max 600 \; map3 curve 2 \;;
#X msg 613 26 \; doublebuf3-density 3 \; doublebuf3-metro 500 \; doublebuf3-freeze 0 \; doublebuf3-stretch 1 \; doublebuf3-stretchvar 25 \; doublebuf3-pos 0 \; doublebuf3-posvar 50 \; doublebuf3-dur 1000 \; doublebuf3-durvar 20 \; doublebuf3-transp 0 \; doublebuf3-transpvar 0 \; doublebuf3-pitchquant 0 \;;
#X msg 613 222 \; map5 send symbol doublebuf3-dur \; map5 min 50 \; map5 max 600 \; map5 curve 2 \;;
#X msg 613 306 \; map6 send symbol doublebuf3-stretch \; map6 min 1 \; map6 max 2 \; map6 curve 2 \;;
#X msg 1059 245 \; sendall density 3 \;;
#X msg 973 37 \; sendall density 3 \; sendall metro 500 \; sendall freeze 0 \; sendall stretch 1 \; sendall stretchvar 25 \; sendall pos 0 \; sendall posvar 50 \; sendall dur 1000 \; sendall durvar 20 \; sendall transp 0 \; sendall transpvar 0 \; sendall pitchquant 0 \;;
#X restore 137 32 pd template;
#N canvas 20 396 918 484 drone 0;
#X obj 206 9 inlet;
#X obj 206 33 bng 19 250 50 0 empty empty empty 0 -10 0 12 #fcfcfc #000000 #000000;
#X msg 39 290 \; map1 send symbol doublebuf1-dur \; map1 min 500 \; map1 max 1500 \; map1 curve 1 \;, f 20;
#X msg 39 389 \; map2 send symbol doublebuf1-transp \; map2 min -25 \; map2 max 50 \; map2 curve 1 \;, f 20;
#X text 268 12 then increase density add posvar;
#X msg 39 94 \; doublebuf1-density 3 \; doublebuf1-metro 500 \; doublebuf1-freeze 1 \; doublebuf1-stretch 2 \; doublebuf1-stretchvar 0 \; doublebuf1-pos 0 \; doublebuf1-posvar 0 \; doublebuf1-dur 1000 \; doublebuf1-durvar 0 \; doublebuf1-transp 50 \; doublebuf1-transpvar 0 \; doublebuf1-pitchquant 0 \;;
#X msg 208 291 \; map1 send symbol doublebuf1-pos \; map1 min 0 \; map1 max 500 \; map1 curve 1 \;, f 17;
#X text 221 405 try also stretch;
#X msg 379 85 \; doublebuf2-density 3 \; doublebuf2-metro 500 \; doublebuf2-freeze 1 \; doublebuf2-stretch 2 \; doublebuf2-stretchvar 0 \; doublebuf2-pos 0 \; doublebuf2-posvar 0 \; doublebuf2-dur 1000 \; doublebuf2-durvar 0 \; doublebuf2-transp 50 \; doublebuf2-transpvar 0 \; doublebuf2-pitchquant 0 \;;
#X msg 379 281 \; map3 send symbol doublebuf2-dur \; map3 min 500 \; map3 max 1500 \; map3 curve 1 \;, f 20;
#X msg 379 376 \; map4 send symbol doublebuf2-stretch \; map4 min 2 \; map4 max 0.5 \; map4 curve 1 \;, f 20;
#X msg 635 85 \; doublebuf3-density 3 \; doublebuf3-metro 500 \; doublebuf3-freeze 1 \; doublebuf3-stretch 2 \; doublebuf3-stretchvar 0 \; doublebuf3-pos 0 \; doublebuf3-posvar 0 \; doublebuf3-dur 1000 \; doublebuf3-durvar 0 \; doublebuf3-transp 50 \; doublebuf3-transpvar 0 \; doublebuf3-pitchquant 0 \;;
#X msg 635 281 \; map5 send symbol doublebuf3-dur \; map5 min 500 \; map5 max 1500 \; map5 curve 1 \;, f 22;
#X msg 635 378 \; map6 send symbol doublebuf3-stretch \; map6 min 2 \; map6 max 0.5 \; map6 curve 1 \;, f 22;
#X connect 0 0 1 0;
#X connect 1 0 5 0;
#X connect 1 0 2 0;
#X connect 1 0 3 0;
#X connect 1 0 8 0;
#X connect 1 0 9 0;
#X connect 1 0 10 0;
#X connect 1 0 11 0;
#X connect 1 0 12 0;
#X connect 1 0 13 0;
#X restore 260 44 pd drone;
#X obj 260 20 bng 19 250 50 0 empty empty empty 0 -10 0 12 #fcfcfc #000000 #000000;
#X obj 331 20 bng 19 250 50 0 empty empty empty 0 -10 0 12 #fcfcfc #000000 #000000;
#N canvas 20 396 918 484 slap 0;
#X obj 206 9 inlet;
#X obj 206 33 bng 19 250 50 0 empty empty empty 0 -10 0 12 #fcfcfc #000000 #000000;
#X msg 208 291 \; map1 send symbol doublebuf1-pos \; map1 min 0 \; map1 max 500 \; map1 curve 1 \;, f 17;
#X msg 39 94 \; doublebuf1-density 3 \; doublebuf1-metro 0 \; doublebuf1-freeze 0 \; doublebuf1-stretch 1 \; doublebuf1-stretchvar 0 \; doublebuf1-pos 0 \; doublebuf1-posvar 0 \; doublebuf1-dur 750 \; doublebuf1-durvar 0 \; doublebuf1-transp 0 \; doublebuf1-transpvar 0 \; doublebuf1-pitchquant 0 \;;
#X msg 39 290 \; map1 send symbol doublebuf1-density \; map1 min 3 \; map1 max 30 \; map1 curve 1 \;, f 20;
#X msg 39 389 \; map2 send symbol doublebuf1-dur \; map2 min 1000 \; map2 max 500 \; map2 curve 1 \;, f 20;
#X msg 379 85 \; doublebuf2-density 3 \; doublebuf2-metro 0 \; doublebuf2-freeze 0 \; doublebuf2-stretch 1 \; doublebuf2-stretchvar 0 \; doublebuf2-pos 0 \; doublebuf2-posvar 0 \; doublebuf2-dur 750 \; doublebuf2-durvar 0 \; doublebuf2-transp 0 \; doublebuf2-transpvar 0 \; doublebuf2-pitchquant 0 \;;
#X msg 379 281 \; map3 send symbol doublebuf2-density \; map3 min 3 \; map3 max 30 \; map3 curve 1 \;, f 20;
#X msg 379 376 \; map4 send symbol doublebuf2-dur \; map4 min 1000 \; map4 max 500 \; map4 curve 1 \;, f 20;
#X msg 635 85 \; doublebuf3-density 3 \; doublebuf3-metro 0 \; doublebuf3-freeze 0 \; doublebuf3-stretch 1 \; doublebuf3-stretchvar 0 \; doublebuf3-pos 0 \; doublebuf3-posvar 0 \; doublebuf3-dur 750 \; doublebuf3-durvar 0 \; doublebuf3-transp 0 \; doublebuf3-transpvar 0 \; doublebuf3-pitchquant 0 \;;
#X msg 635 281 \; map5 send symbol doublebuf3-density \; map5 min 3 \; map5 max 30 \; map5 curve 1 \;, f 22;
#X msg 635 378 \; map6 send symbol doublebuf3-dur \; map6 min 1000 \; map6 max 500 \; map6 curve 1 \;, f 22;
#X connect 0 0 1 0;
#X connect 1 0 3 0;
#X connect 1 0 4 0;
#X connect 1 0 5 0;
#X connect 1 0 6 0;
#X connect 1 0 7 0;
#X connect 1 0 8 0;
#X connect 1 0 9 0;
#X connect 1 0 10 0;
#X connect 1 0 11 0;
#X restore 331 44 pd slap;
#X obj 409 20 bng 19 250 50 0 empty empty empty 0 -10 0 12 #fcfcfc #000000 #000000;
#N canvas 20 396 918 484 figure 0;
#X obj 206 9 inlet;
#X obj 206 33 bng 19 250 50 0 empty empty empty 0 -10 0 12 #fcfcfc #000000 #000000;
#X msg 208 291 \; map1 send symbol doublebuf1-pos \; map1 min 0 \; map1 max 500 \; map1 curve 1 \;, f 17;
#X msg 379 85 \; doublebuf2-density 0 \; doublebuf2-metro 100 \; doublebuf2-freeze 0 \; doublebuf2-stretch 1.5 \; doublebuf2-stretchvar 0 \; doublebuf2-pos 0 \; doublebuf2-posvar 0 \; doublebuf2-dur 750 \; doublebuf2-durvar 0 \; doublebuf2-transp 0 \; doublebuf2-transpvar 0 \; doublebuf2-pitchquant 0 \;;
#X msg 379 281 \; map3 send symbol doublebuf2-metro \; map3 min 200 \; map3 max 30 \; map3 curve 1 \;, f 20;
#X msg 379 376 \; map4 send symbol doublebuf2-dur \; map4 min 900 \; map4 max 300 \; map4 curve 1 \;, f 20;
#X msg 39 94 \; doublebuf1-density 0 \; doublebuf1-metro 100 \; doublebuf1-freeze 0 \; doublebuf1-stretch 1.5 \; doublebuf1-stretchvar 0 \; doublebuf1-pos 0 \; doublebuf1-posvar 0 \; doublebuf1-dur 750 \; doublebuf1-durvar 0 \; doublebuf1-transp 0 \; doublebuf1-transpvar 0 \; doublebuf1-pitchquant 0 \;;
#X msg 39 290 \; map1 send symbol doublebuf1-metro \; map1 min 200 \; map1 max 30 \; map1 curve 1 \;, f 20;
#X msg 39 389 \; map2 send symbol doublebuf1-dur \; map2 min 900 \; map2 max 300 \; map2 curve 1 \;, f 20;
#X msg 635 85 \; doublebuf3-density 0 \; doublebuf3-metro 100 \; doublebuf3-freeze 0 \; doublebuf3-stretch 1.5 \; doublebuf3-stretchvar 0 \; doublebuf3-pos 0 \; doublebuf3-posvar 0 \; doublebuf3-dur 750 \; doublebuf3-durvar 0 \; doublebuf3-transp 0 \; doublebuf3-transpvar 0 \; doublebuf3-pitchquant 0 \;;
#X msg 635 281 \; map5 send symbol doublebuf3-metro \; map5 min 200 \; map5 max 30 \; map5 curve 1 \;, f 22;
#X msg 635 378 \; map6 send symbol doublebuf3-dur \; map6 min 900 \; map6 max 300 \; map6 curve 1 \;, f 22;
#X connect 0 0 1 0;
#X connect 1 0 6 0;
#X connect 1 0 7 0;
#X connect 1 0 8 0;
#X connect 1 0 3 0;
#X connect 1 0 4 0;
#X connect 1 0 5 0;
#X connect 1 0 9 0;
#X connect 1 0 10 0;
#X connect 1 0 11 0;
#X restore 409 44 pd figure;
#X connect 15 0 14 0;
#X connect 16 0 17 0;
#X connect 18 0 19 0;
