#N canvas 1423 194 1260 706 12;
#X msg 46 96 \; doublebuf1-density 3 \; doublebuf1-metro 500 \; doublebuf1-freeze 0 \; doublebuf1-stretch 1 \; doublebuf1-stretchvar 25 \; doublebuf1-pos 0 \; doublebuf1-posvar 50 \; doublebuf1-dur 1000 \; doublebuf1-durvar 20 \; doublebuf1-transp 0 \; doublebuf1-transpvar 0 \; doublebuf1-pitchquant 0 \;;
#X msg 46 376 \; map2 send symbol doublebuf1-stretch \; map2 min 1 \; map2 max 2 \; map2 curve 2 \;;
#X msg 46 292 \; map1 send symbol doublebuf1-dur \; map1 min 50 \; map1 max 600 \; map1 curve 2 \;, f 33;
#X msg 331 93 \; doublebuf2-density 3 \; doublebuf2-metro 500 \; doublebuf2-freeze 0 \; doublebuf2-stretch 1 \; doublebuf2-stretchvar 25 \; doublebuf2-pos 0 \; doublebuf2-posvar 50 \; doublebuf2-dur 1000 \; doublebuf2-durvar 20 \; doublebuf2-transp 0 \; doublebuf2-transpvar 0 \; doublebuf2-pitchquant 0 \;;
#X msg 331 373 \; map4 send symbol doublebuf2-stretch \; map4 min 1 \; map4 max 2 \; map4 curve 2 \;;
#X msg 331 289 \; map3 send symbol doublebuf2-dur \; map3 min 50 \; map3 max 600 \; map3 curve 2 \;;
#X msg 671 285 \; doublebuf3-density 3 \; doublebuf3-metro 500 \; doublebuf3-freeze 0 \; doublebuf3-stretch 1 \; doublebuf3-stretchvar 25 \; doublebuf3-pos 0 \; doublebuf3-posvar 50 \; doublebuf3-dur 1000 \; doublebuf3-durvar 20 \; doublebuf3-transp 0 \; doublebuf3-transpvar 0 \; doublebuf3-pitchquant 0 \;;
#X msg 671 481 \; map5 send symbol doublebuf3-dur \; map5 min 50 \; map5 max 600 \; map5 curve 2 \;;
#X msg 671 565 \; map6 send symbol doublebuf3-stretch \; map6 min 1 \; map6 max 2 \; map6 curve 2 \;;
#N canvas 63 388 932 401 sendall 0;
#X obj 26 17 r sendall;
#X obj 26 41 route density metro freeze stretch stretchvar pos posvar dur durvar transp transpvar pitchquant, f 96;
#X msg 27 289 \; doublebuf1-density \$1 \; doublebuf2-density \$1 \; doublebuf3-density \$1 \;;
#X msg 41 219 \; doublebuf1-metro \$1 \; doublebuf2-metro \$1 \; doublebuf3-metro \$1 \;;
#X msg 75 150 \; doublebuf1-freeze \$1 \; doublebuf2-freeze \$1 \; doublebuf3-freeze \$1 \;;
#X msg 255 289 \; doublebuf1-stretch \$1 \; doublebuf2-stretch \$1 \; doublebuf3-stretch \$1 \;;
#X msg 308 219 \; doublebuf1-stretchvar \$1 \; doublebuf2-stretchvar \$1 \; doublebuf3-stretchvar \$1 \;;
#X msg 329 150 \; doublebuf1-pos \$1 \; doublebuf2-pos \$1 \; doublebuf3-pos \$1 \;;
#X msg 360 76 \; doublebuf1-posvar \$1 \; doublebuf2-posvar \$1 \; doublebuf3-posvar \$1 \;;
#X msg 523 289 \; doublebuf1-dur \$1 \; doublebuf2-dur \$1 \; doublebuf3-dur \$1 \;;
#X msg 551 219 \; doublebuf1-durvar \$1 \; doublebuf2-durvar \$1 \; doublebuf3-durvar \$1 \;;
#X msg 573 150 \; doublebuf1-transp \$1 \; doublebuf2-transp \$1 \; doublebuf3-transp \$1 \;;
#X msg 583 76 \; doublebuf1-transpvar \$1 \; doublebuf2-transpvar \$1 \; doublebuf3-transpvar \$1 \;;
#X msg 699 289 \; doublebuf1-pitchquant \$1 \; doublebuf2-pitchquant \$1 \; doublebuf3-pitchquant \$1 \;;
#X connect 0 0 1 0;
#X connect 1 0 2 0;
#X connect 1 1 3 0;
#X connect 1 2 4 0;
#X connect 1 3 5 0;
#X connect 1 4 6 0;
#X connect 1 5 7 0;
#X connect 1 6 8 0;
#X connect 1 7 9 0;
#X connect 1 8 10 0;
#X connect 1 9 11 0;
#X connect 1 10 12 0;
#X connect 1 11 13 0;
#X restore 49 14 pd sendall;
#X msg 1023 303 \; sendall density 3 \;;
#X msg 937 95 \; sendall density 3 \; sendall metro 500 \; sendall freeze 0 \; sendall stretch 1 \; sendall stretchvar 25 \; sendall pos 0 \; sendall posvar 50 \; sendall dur 1000 \; sendall durvar 20 \; sendall transp 0 \; sendall transpvar 0 \; sendall pitchquant 0 \;;
#X text 933 67 send same params to all voices;
#N canvas 121 158 1239 423 template 0;
#X msg 37 29 \; doublebuf1-density 3 \; doublebuf1-metro 500 \; doublebuf1-freeze 0 \; doublebuf1-stretch 1 \; doublebuf1-stretchvar 25 \; doublebuf1-pos 0 \; doublebuf1-posvar 50 \; doublebuf1-dur 1000 \; doublebuf1-durvar 20 \; doublebuf1-transp 0 \; doublebuf1-transpvar 0 \; doublebuf1-pitchquant 0 \;;
#X msg 37 309 \; map2 send symbol doublebuf1-stretch \; map2 min 1 \; map2 max 2 \; map2 curve 2 \;;
#X msg 37 225 \; map1 send symbol doublebuf1-dur \; map1 min 50 \; map1 max 600 \; map1 curve 2 \;, f 33;
#X msg 322 26 \; doublebuf2-density 3 \; doublebuf2-metro 500 \; doublebuf2-freeze 0 \; doublebuf2-stretch 1 \; doublebuf2-stretchvar 25 \; doublebuf2-pos 0 \; doublebuf2-posvar 50 \; doublebuf2-dur 1000 \; doublebuf2-durvar 20 \; doublebuf2-transp 0 \; doublebuf2-transpvar 0 \; doublebuf2-pitchquant 0 \;;
#X msg 322 306 \; map4 send symbol doublebuf2-stretch \; map4 min 1 \; map4 max 2 \; map4 curve 2 \;;
#X msg 322 222 \; map3 send symbol doublebuf2-dur \; map3 min 50 \; map3 max 600 \; map3 curve 2 \;;
#X msg 613 26 \; doublebuf3-density 3 \; doublebuf3-metro 500 \; doublebuf3-freeze 0 \; doublebuf3-stretch 1 \; doublebuf3-stretchvar 25 \; doublebuf3-pos 0 \; doublebuf3-posvar 50 \; doublebuf3-dur 1000 \; doublebuf3-durvar 20 \; doublebuf3-transp 0 \; doublebuf3-transpvar 0 \; doublebuf3-pitchquant 0 \;;
#X msg 613 222 \; map5 send symbol doublebuf3-dur \; map5 min 50 \; map5 max 600 \; map5 curve 2 \;;
#X msg 613 306 \; map6 send symbol doublebuf3-stretch \; map6 min 1 \; map6 max 2 \; map6 curve 2 \;;
#X msg 1059 245 \; sendall density 3 \;;
#X msg 973 37 \; sendall density 3 \; sendall metro 500 \; sendall freeze 0 \; sendall stretch 1 \; sendall stretchvar 25 \; sendall pos 0 \; sendall posvar 50 \; sendall dur 1000 \; sendall durvar 20 \; sendall transp 0 \; sendall transpvar 0 \; sendall pitchquant 0 \;;
#X restore 129 14 pd template;
#N canvas 36 574 918 484 drone 0;
#X obj 206 9 inlet;
#X obj 206 33 bng 19 250 50 0 empty empty empty 0 -10 0 12 #fcfcfc #000000 #000000;
#X text 268 12 then increase density add posvar;
#X msg 39 94 \; doublebuf1-density 3 \; doublebuf1-metro 500 \; doublebuf1-freeze 1 \; doublebuf1-stretch 2 \; doublebuf1-stretchvar 0 \; doublebuf1-pos 0 \; doublebuf1-posvar 0 \; doublebuf1-dur 1000 \; doublebuf1-durvar 0 \; doublebuf1-transp 50 \; doublebuf1-transpvar 0 \; doublebuf1-pitchquant 0 \;;
#X msg 208 291 \; map1 send symbol doublebuf1-pos \; map1 min 0 \; map1 max 500 \; map1 curve 1 \;, f 17;
#X text 221 405 try also stretch;
#X msg 379 85 \; doublebuf2-density 3 \; doublebuf2-metro 500 \; doublebuf2-freeze 1 \; doublebuf2-stretch 2 \; doublebuf2-stretchvar 0 \; doublebuf2-pos 0 \; doublebuf2-posvar 0 \; doublebuf2-dur 1000 \; doublebuf2-durvar 0 \; doublebuf2-transp 50 \; doublebuf2-transpvar 0 \; doublebuf2-pitchquant 0 \;;
#X msg 379 281 \; map3 send symbol doublebuf2-dur \; map3 min 500 \; map3 max 1500 \; map3 curve 1 \;, f 20;
#X msg 635 85 \; doublebuf3-density 3 \; doublebuf3-metro 500 \; doublebuf3-freeze 1 \; doublebuf3-stretch 2 \; doublebuf3-stretchvar 0 \; doublebuf3-pos 0 \; doublebuf3-posvar 0 \; doublebuf3-dur 1000 \; doublebuf3-durvar 0 \; doublebuf3-transp 50 \; doublebuf3-transpvar 0 \; doublebuf3-pitchquant 0 \;;
#X msg 635 281 \; map5 send symbol doublebuf3-dur \; map5 min 500 \; map5 max 1500 \; map5 curve 1 \;, f 22;
#X msg 635 378 \; map6 send symbol doublebuf3-stretch \; map6 min 2 \; map6 max 0.5 \; map6 curve 1 \;, f 22;
#X msg 527 374 \; map4 send symbol doublebuf2-stretch \; map4 min 2 \; map4 max 0.5 \; map4 curve 1 \;, f 20;
#X msg 379 376 \; map4 send symbol doublebuf2-transp \; map4 min -25 \; map4 max 50 \; map4 curve 1 \;, f 20;
#X msg 39 290 \; map2 send symbol doublebuf1-dur \; map2 min 500 \; map2 max 1500 \; map2 curve 1 \;, f 20;
#X msg 39 389 \; map1 send symbol doublebuf1-transp \; map1 min -25 \; map1 max 100 \; map1 curve 1 \;, f 20;
#X connect 0 0 1 0;
#X connect 1 0 3 0;
#X connect 1 0 13 0;
#X connect 1 0 14 0;
#X connect 1 0 6 0;
#X connect 1 0 7 0;
#X connect 1 0 12 0;
#X connect 1 0 8 0;
#X connect 1 0 9 0;
#X connect 1 0 10 0;
#X restore 260 44 pd drone;
#X obj 260 20 bng 19 250 50 0 empty empty empty 0 -10 0 12 #fcfcfc #000000 #000000;
#X obj 331 20 bng 19 250 50 0 empty empty empty 0 -10 0 12 #fcfcfc #000000 #000000;
#N canvas 20 386 918 484 slap 0;
#X obj 206 9 inlet;
#X obj 206 33 bng 19 250 50 0 empty empty empty 0 -10 0 12 #fcfcfc #000000 #000000;
#X msg 208 291 \; map1 send symbol doublebuf1-pos \; map1 min 0 \; map1 max 500 \; map1 curve 1 \;, f 17;
#X msg 39 94 \; doublebuf1-density 3 \; doublebuf1-metro 0 \; doublebuf1-freeze 0 \; doublebuf1-stretch 1 \; doublebuf1-stretchvar 0 \; doublebuf1-pos 0 \; doublebuf1-posvar 0 \; doublebuf1-dur 750 \; doublebuf1-durvar 0 \; doublebuf1-transp 0 \; doublebuf1-transpvar 0 \; doublebuf1-pitchquant 0 \;;
#X msg 39 290 \; map1 send symbol doublebuf1-density \; map1 min 3 \; map1 max 30 \; map1 curve 1 \;, f 20;
#X msg 39 389 \; map2 send symbol doublebuf1-dur \; map2 min 1000 \; map2 max 500 \; map2 curve 1 \;, f 20;
#X msg 379 85 \; doublebuf2-density 3 \; doublebuf2-metro 0 \; doublebuf2-freeze 0 \; doublebuf2-stretch 1 \; doublebuf2-stretchvar 0 \; doublebuf2-pos 0 \; doublebuf2-posvar 0 \; doublebuf2-dur 750 \; doublebuf2-durvar 0 \; doublebuf2-transp 0 \; doublebuf2-transpvar 0 \; doublebuf2-pitchquant 0 \;;
#X msg 635 85 \; doublebuf3-density 3 \; doublebuf3-metro 0 \; doublebuf3-freeze 0 \; doublebuf3-stretch 1 \; doublebuf3-stretchvar 0 \; doublebuf3-pos 0 \; doublebuf3-posvar 0 \; doublebuf3-dur 750 \; doublebuf3-durvar 0 \; doublebuf3-transp 0 \; doublebuf3-transpvar 0 \; doublebuf3-pitchquant 0 \;;
#X msg 635 281 \; map5 send symbol doublebuf3-density \; map5 min 3 \; map5 max 30 \; map5 curve 1 \;, f 22;
#X msg 635 378 \; map6 send symbol doublebuf3-dur \; map6 min 1000 \; map6 max 500 \; map6 curve 1 \;, f 22;
#X msg 379 281 \; map4 send symbol doublebuf2-density \; map4 min 3 \; map4 max 30 \; map4 curve 1 \;, f 20;
#X msg 379 375 \; map3 send symbol doublebuf2-dur \; map3 min 1000 \; map3 max 500 \; map3 curve 1 \;, f 20;
#X connect 0 0 1 0;
#X connect 1 0 3 0;
#X connect 1 0 4 0;
#X connect 1 0 5 0;
#X connect 1 0 6 0;
#X connect 1 0 10 0;
#X connect 1 0 11 0;
#X connect 1 0 7 0;
#X connect 1 0 8 0;
#X connect 1 0 9 0;
#X restore 331 44 pd slap;
#X obj 409 20 bng 19 250 50 0 empty empty empty 0 -10 0 12 #fcfcfc #000000 #000000;
#N canvas 20 396 918 484 figure 0;
#X obj 206 9 inlet;
#X obj 206 33 bng 19 250 50 0 empty empty empty 0 -10 0 12 #fcfcfc #000000 #000000;
#X msg 208 291 \; map1 send symbol doublebuf1-pos \; map1 min 0 \; map1 max 500 \; map1 curve 1 \;, f 17;
#X msg 379 376 \; map4 send symbol doublebuf2-dur \; map4 min 900 \; map4 max 300 \; map4 curve 1 \;, f 20;
#X msg 39 290 \; map1 send symbol doublebuf1-metro \; map1 min 200 \; map1 max 30 \; map1 curve 1 \;, f 20;
#X msg 39 389 \; map2 send symbol doublebuf1-dur \; map2 min 900 \; map2 max 300 \; map2 curve 1 \;, f 20;
#X msg 635 281 \; map5 send symbol doublebuf3-metro \; map5 min 200 \; map5 max 30 \; map5 curve 1 \;, f 22;
#X msg 379 281 \; map3 send symbol doublebuf2-metro \; map3 min 300 \; map3 max 30 \; map3 curve 1 \;, f 20;
#X msg 379 85 \; doublebuf2-density 0 \; doublebuf2-metro 100 \; doublebuf2-freeze 1 \; doublebuf2-stretch 1.5 \; doublebuf2-stretchvar 0 \; doublebuf2-pos 0 \; doublebuf2-posvar 0 \; doublebuf2-dur 750 \; doublebuf2-durvar 0 \; doublebuf2-transp 0 \; doublebuf2-transpvar 0 \; doublebuf2-pitchquant 0 \;;
#X msg 39 94 \; doublebuf1-density 0 \; doublebuf1-metro 160 \; doublebuf1-freeze 0 \; doublebuf1-stretch 1.5 \; doublebuf1-stretchvar 0 \; doublebuf1-pos 0 \; doublebuf1-posvar 0 \; doublebuf1-dur 750 \; doublebuf1-durvar 0 \; doublebuf1-transp 0 \; doublebuf1-transpvar 0 \; doublebuf1-pitchquant 0 \;;
#X msg 635 85 \; doublebuf3-density 0 \; doublebuf3-metro 100 \; doublebuf3-freeze 1 \; doublebuf3-stretch 0.8 \; doublebuf3-stretchvar 0 \; doublebuf3-pos 0 \; doublebuf3-posvar 0 \; doublebuf3-dur 750 \; doublebuf3-durvar 0 \; doublebuf3-transp 0 \; doublebuf3-transpvar 0 \; doublebuf3-pitchquant 0 \;;
#X msg 635 378 \; map6 send symbol doublebuf3-dur \; map6 min 600 \; map6 max 150 \; map6 curve 1 \;, f 22;
#X connect 0 0 1 0;
#X connect 1 0 9 0;
#X connect 1 0 5 0;
#X connect 1 0 8 0;
#X connect 1 0 7 0;
#X connect 1 0 3 0;
#X connect 1 0 10 0;
#X connect 1 0 6 0;
#X connect 1 0 11 0;
#X connect 1 0 2 0;
#X restore 409 44 pd figure;
#X text 607 69 fade up to -6dB on drone 1 min \, 2min;
#X text 611 88 then -3dB;
#X text 611 110 C# -9dB return to drone;
#X obj 51 40 nanokontrol;
#N canvas 60 332 2204 771 mapper 1;
#X floatatom 41 601 5 0 0 0 - - - 0;
#X obj 58 648 m_scale 0 1 0 100;
#X floatatom 58 672 5 0 0 0 - - - 0;
#X floatatom 97 625 5 0 0 0 - - - 0;
#X floatatom 136 625 5 0 0 0 - - - 0;
#X floatatom 175 625 5 0 0 0 - - - 0;
#X obj 58 726 send;
#X msg 93 672 symbol doublebuf1-stretch;
#X symbolatom 83 700 25 0 0 0 - - - 0;
#X obj 84 601 route send min max curve;
#X floatatom 270 601 5 0 0 0 - - - 0;
#X obj 287 648 m_scale 0 1 0 100;
#X floatatom 287 672 5 0 0 0 - - - 0;
#X floatatom 326 625 5 0 0 0 - - - 0;
#X floatatom 365 625 5 0 0 0 - - - 0;
#X floatatom 404 625 5 0 0 0 - - - 0;
#X obj 287 726 send;
#X symbolatom 312 700 25 0 0 0 - - - 0;
#X obj 313 601 route send min max curve;
#X msg 322 672 symbol doublebuf1-dur;
#X floatatom 526 597 5 0 0 0 - - - 0;
#X obj 543 644 m_scale 0 1 0 100;
#X floatatom 543 668 5 0 0 0 - - - 0;
#X floatatom 582 621 5 0 0 0 - - - 0;
#X floatatom 621 621 5 0 0 0 - - - 0;
#X floatatom 660 621 5 0 0 0 - - - 0;
#X obj 543 722 send;
#X symbolatom 568 696 25 0 0 0 - - - 0;
#X obj 569 597 route send min max curve;
#X floatatom 755 597 5 0 0 0 - - - 0;
#X obj 772 644 m_scale 0 1 0 100;
#X floatatom 772 668 5 0 0 0 - - - 0;
#X floatatom 811 621 5 0 0 0 - - - 0;
#X floatatom 850 621 5 0 0 0 - - - 0;
#X floatatom 889 621 5 0 0 0 - - - 0;
#X obj 772 722 send;
#X symbolatom 797 696 25 0 0 0 - - - 0;
#X obj 798 597 route send min max curve;
#X floatatom 1002 597 5 0 0 0 - - - 0;
#X obj 1019 644 m_scale 0 1 0 100;
#X floatatom 1019 668 5 0 0 0 - - - 0;
#X floatatom 1058 621 5 0 0 0 - - - 0;
#X floatatom 1097 621 5 0 0 0 - - - 0;
#X floatatom 1136 621 5 0 0 0 - - - 0;
#X obj 1019 722 send;
#X symbolatom 1044 696 25 0 0 0 - - - 0;
#X obj 1045 597 route send min max curve;
#X floatatom 1231 597 5 0 0 0 - - - 0;
#X obj 1248 644 m_scale 0 1 0 100;
#X floatatom 1248 668 5 0 0 0 - - - 0;
#X floatatom 1287 621 5 0 0 0 - - - 0;
#X floatatom 1326 621 5 0 0 0 - - - 0;
#X floatatom 1365 621 5 0 0 0 - - - 0;
#X obj 1248 722 send;
#X symbolatom 1273 696 25 0 0 0 - - - 0;
#X obj 1274 597 route send min max curve;
#X msg 578 668 symbol doublebuf2-stretch;
#X msg 807 668 symbol doublebuf2-dur;
#X msg 1054 668 symbol doublebuf3-stretch;
#X msg 1283 668 symbol doublebuf3-dur;
#X obj 41 553 r nano-fader01;
#X obj 270 553 r nano-fader02;
#X obj 526 549 r nano-fader03;
#X obj 755 549 r nano-fader04;
#X obj 1002 549 r nano-fader05;
#X obj 1231 549 r nano-fader06;
#X floatatom 1464 596 5 0 0 0 - - - 0;
#X obj 1481 643 m_scale 0 1 0 100;
#X floatatom 1481 667 5 0 0 0 - - - 0;
#X floatatom 1520 620 5 0 0 0 - - - 0;
#X floatatom 1559 620 5 0 0 0 - - - 0;
#X floatatom 1598 620 5 0 0 0 - - - 0;
#X obj 1481 721 send;
#X symbolatom 1506 695 25 0 0 0 - - - 0;
#X obj 1507 596 route send min max curve;
#X floatatom 1711 596 5 0 0 0 - - - 0;
#X obj 1728 643 m_scale 0 1 0 100;
#X floatatom 1728 667 5 0 0 0 - - - 0;
#X floatatom 1767 620 5 0 0 0 - - - 0;
#X floatatom 1806 620 5 0 0 0 - - - 0;
#X floatatom 1845 620 5 0 0 0 - - - 0;
#X obj 1728 721 send;
#X symbolatom 1753 695 25 0 0 0 - - - 0;
#X obj 1754 596 route send min max curve;
#X floatatom 1940 596 5 0 0 0 - - - 0;
#X obj 1957 643 m_scale 0 1 0 100;
#X floatatom 1957 667 5 0 0 0 - - - 0;
#X floatatom 1996 620 5 0 0 0 - - - 0;
#X floatatom 2035 620 5 0 0 0 - - - 0;
#X floatatom 2074 620 5 0 0 0 - - - 0;
#X obj 1957 721 send;
#X symbolatom 1982 695 25 0 0 0 - - - 0;
#X obj 1983 596 route send min max curve;
#X msg 1516 667 symbol doublebuf2-dur;
#X msg 1763 667 symbol doublebuf3-stretch;
#X msg 1992 667 symbol doublebuf3-dur;
#X obj 1464 548 r nano-fader07;
#X obj 1711 548 r nano-fader08;
#X obj 1940 548 r nano-fader09;
#X floatatom 38 376 5 0 0 0 - - - 0;
#X obj 55 423 m_scale 0 1 0 100;
#X floatatom 55 447 5 0 0 0 - - - 0;
#X floatatom 94 400 5 0 0 0 - - - 0;
#X floatatom 133 400 5 0 0 0 - - - 0;
#X floatatom 172 400 5 0 0 0 - - - 0;
#X obj 55 501 send;
#X msg 90 447 symbol doublebuf1-stretch;
#X symbolatom 80 475 25 0 0 0 - - - 0;
#X obj 81 376 route send min max curve;
#X floatatom 267 376 5 0 0 0 - - - 0;
#X obj 284 423 m_scale 0 1 0 100;
#X floatatom 284 447 5 0 0 0 - - - 0;
#X floatatom 323 400 5 0 0 0 - - - 0;
#X floatatom 362 400 5 0 0 0 - - - 0;
#X floatatom 401 400 5 0 0 0 - - - 0;
#X obj 284 501 send;
#X symbolatom 309 475 25 0 0 0 - - - 0;
#X obj 310 376 route send min max curve;
#X msg 319 447 symbol doublebuf1-dur;
#X floatatom 523 372 5 0 0 0 - - - 0;
#X obj 540 419 m_scale 0 1 0 100;
#X floatatom 540 443 5 0 0 0 - - - 0;
#X floatatom 579 396 5 0 0 0 - - - 0;
#X floatatom 618 396 5 0 0 0 - - - 0;
#X floatatom 657 396 5 0 0 0 - - - 0;
#X obj 540 497 send;
#X symbolatom 565 471 25 0 0 0 - - - 0;
#X obj 566 372 route send min max curve;
#X floatatom 752 372 5 0 0 0 - - - 0;
#X obj 769 419 m_scale 0 1 0 100;
#X floatatom 769 443 5 0 0 0 - - - 0;
#X floatatom 808 396 5 0 0 0 - - - 0;
#X floatatom 847 396 5 0 0 0 - - - 0;
#X floatatom 886 396 5 0 0 0 - - - 0;
#X obj 769 497 send;
#X symbolatom 794 471 25 0 0 0 - - - 0;
#X obj 795 372 route send min max curve;
#X floatatom 999 372 5 0 0 0 - - - 0;
#X obj 1016 419 m_scale 0 1 0 100;
#X floatatom 1016 443 5 0 0 0 - - - 0;
#X floatatom 1055 396 5 0 0 0 - - - 0;
#X floatatom 1094 396 5 0 0 0 - - - 0;
#X floatatom 1133 396 5 0 0 0 - - - 0;
#X obj 1016 497 send;
#X symbolatom 1041 471 25 0 0 0 - - - 0;
#X obj 1042 372 route send min max curve;
#X floatatom 1228 372 5 0 0 0 - - - 0;
#X obj 1245 419 m_scale 0 1 0 100;
#X floatatom 1245 443 5 0 0 0 - - - 0;
#X floatatom 1284 396 5 0 0 0 - - - 0;
#X floatatom 1323 396 5 0 0 0 - - - 0;
#X floatatom 1362 396 5 0 0 0 - - - 0;
#X obj 1245 497 send;
#X symbolatom 1270 471 25 0 0 0 - - - 0;
#X obj 1271 372 route send min max curve;
#X msg 575 443 symbol doublebuf2-stretch;
#X msg 804 443 symbol doublebuf2-dur;
#X msg 1051 443 symbol doublebuf3-stretch;
#X msg 1280 443 symbol doublebuf3-dur;
#X obj 81 352 r map01;
#X obj 310 352 r map02;
#X obj 566 348 r map03;
#X obj 795 348 r map04;
#X obj 1042 348 r map05;
#X obj 1271 348 r map06;
#X floatatom 1461 371 5 0 0 0 - - - 0;
#X obj 1478 418 m_scale 0 1 0 100;
#X floatatom 1478 442 5 0 0 0 - - - 0;
#X floatatom 1517 395 5 0 0 0 - - - 0;
#X floatatom 1556 395 5 0 0 0 - - - 0;
#X floatatom 1595 395 5 0 0 0 - - - 0;
#X obj 1478 496 send;
#X symbolatom 1503 470 25 0 0 0 - - - 0;
#X obj 1504 371 route send min max curve;
#X floatatom 1708 371 5 0 0 0 - - - 0;
#X obj 1725 418 m_scale 0 1 0 100;
#X floatatom 1725 442 5 0 0 0 - - - 0;
#X floatatom 1764 395 5 0 0 0 - - - 0;
#X floatatom 1803 395 5 0 0 0 - - - 0;
#X floatatom 1842 395 5 0 0 0 - - - 0;
#X obj 1725 496 send;
#X symbolatom 1750 470 25 0 0 0 - - - 0;
#X obj 1751 371 route send min max curve;
#X floatatom 1937 371 5 0 0 0 - - - 0;
#X obj 1954 418 m_scale 0 1 0 100;
#X floatatom 1954 442 5 0 0 0 - - - 0;
#X floatatom 1993 395 5 0 0 0 - - - 0;
#X floatatom 2032 395 5 0 0 0 - - - 0;
#X floatatom 2071 395 5 0 0 0 - - - 0;
#X obj 1954 496 send;
#X symbolatom 1979 470 25 0 0 0 - - - 0;
#X obj 1980 371 route send min max curve;
#X msg 1513 442 symbol doublebuf2-dur;
#X msg 1760 442 symbol doublebuf3-stretch;
#X msg 1989 442 symbol doublebuf3-dur;
#X obj 1504 347 r map07;
#X obj 1751 347 r map08;
#X obj 1980 347 r map09;
#X obj 38 328 r nano-knob01;
#X obj 267 328 r nano-knob02;
#X obj 523 324 r nano-knob03;
#X obj 752 324 r nano-knob04;
#X obj 999 324 r nano-knob05;
#X obj 1227 325 r nano-knob06;
#X obj 1461 323 r nano-knob07;
#X obj 1708 323 r nano-knob08;
#X obj 1937 323 r nano-knob09;
#X obj 23 16 inlet;
#X obj 84 577 r map11;
#X obj 313 577 r map12;
#X obj 569 573 r map13;
#X obj 798 573 r map14;
#X obj 1045 573 r map15;
#X obj 1274 573 r map16;
#X obj 1507 572 r map17;
#X obj 1754 572 r map18;
#X obj 1983 572 r map19;
#X msg 304 117 \; map13 send symbol doublebuf1-stretch \; map13 min 0.25 \; map13 max 4 \; map13 curve 2 \;;
#X obj 23 43 bng 19 250 50 0 empty empty empty 0 -10 0 12 #fcfcfc #000000 #000000;
#X msg 24 118 \; map11 send symbol doublebuf1-density \; map11 min 0 \; map11 max 40 \; map11 curve 1 \;;
#X msg 49 208 \; map12 send symbol doublebuf1-metro \; map12 min 1000 \; map12 max 1 \; map12 curve 0.5 \;;
#X obj 134 16 r nano-buttonB02;
#X obj 134 40 tgl 19 0 empty empty empty 0 -10 0 12 #fcfcfc #000000 #000000 0 1;
#X obj 134 64 sel 1;
#X obj 166 88 s doublebuf1-metro;
#X msg 317 202 \; map03 send symbol doublebuf1-stretchvar \; map03 min 0 \; map03 max 100 \; map03 curve 1 \;;
#X msg 620 201 \; map04 send symbol doublebuf1-posvar \; map04 min 0 \; map04 max 100 \; map04 curve 1 \;;
#X msg 606 116 \; map14 send symbol doublebuf1-pos \; map14 min 0 \; map14 max 2000 \; map14 curve 2 \;;
#X msg 898 199 \; map05 send symbol doublebuf1-durvar \; map05 min 0 \; map05 max 100 \; map05 curve 1 \;;
#X msg 885 114 \; map15 send symbol doublebuf1-dur \; map15 min 1 \; map15 max 2000 \; map15 curve 2 \;;
#X msg 1201 198 \; map06 send symbol doublebuf1-transpvar \; map06 min 0 \; map06 max 100 \; map06 curve 1 \;;
#X msg 1187 113 \; map16 send symbol doublebuf1-transp \; map16 min -1200 \; map16 max 1200 \; map16 curve 1 \;;
#X msg 1504 110 \; map17 send symbol doublebuf1-pitchquant \; map17 min 0 \; map17 max 1200 \; map17 curve 1 \;;
#X connect 0 0 1 0;
#X connect 1 0 2 0;
#X connect 2 0 6 0;
#X connect 3 0 1 3;
#X connect 4 0 1 4;
#X connect 5 0 1 5;
#X connect 7 0 8 0;
#X connect 8 0 6 1;
#X connect 9 0 8 0;
#X connect 9 1 3 0;
#X connect 9 2 4 0;
#X connect 9 3 5 0;
#X connect 10 0 11 0;
#X connect 11 0 12 0;
#X connect 12 0 16 0;
#X connect 13 0 11 3;
#X connect 14 0 11 4;
#X connect 15 0 11 5;
#X connect 17 0 16 1;
#X connect 18 0 17 0;
#X connect 18 1 13 0;
#X connect 18 2 14 0;
#X connect 18 3 15 0;
#X connect 19 0 17 0;
#X connect 20 0 21 0;
#X connect 21 0 22 0;
#X connect 22 0 26 0;
#X connect 23 0 21 3;
#X connect 24 0 21 4;
#X connect 25 0 21 5;
#X connect 27 0 26 1;
#X connect 28 0 27 0;
#X connect 28 1 23 0;
#X connect 28 2 24 0;
#X connect 28 3 25 0;
#X connect 29 0 30 0;
#X connect 30 0 31 0;
#X connect 31 0 35 0;
#X connect 32 0 30 3;
#X connect 33 0 30 4;
#X connect 34 0 30 5;
#X connect 36 0 35 1;
#X connect 37 0 36 0;
#X connect 37 1 32 0;
#X connect 37 2 33 0;
#X connect 37 3 34 0;
#X connect 38 0 39 0;
#X connect 39 0 40 0;
#X connect 40 0 44 0;
#X connect 41 0 39 3;
#X connect 42 0 39 4;
#X connect 43 0 39 5;
#X connect 45 0 44 1;
#X connect 46 0 45 0;
#X connect 46 1 41 0;
#X connect 46 2 42 0;
#X connect 46 3 43 0;
#X connect 47 0 48 0;
#X connect 48 0 49 0;
#X connect 49 0 53 0;
#X connect 50 0 48 3;
#X connect 51 0 48 4;
#X connect 52 0 48 5;
#X connect 54 0 53 1;
#X connect 55 0 54 0;
#X connect 55 1 50 0;
#X connect 55 2 51 0;
#X connect 55 3 52 0;
#X connect 56 0 27 0;
#X connect 57 0 36 0;
#X connect 58 0 45 0;
#X connect 59 0 54 0;
#X connect 60 0 0 0;
#X connect 61 0 10 0;
#X connect 62 0 20 0;
#X connect 63 0 29 0;
#X connect 64 0 38 0;
#X connect 65 0 47 0;
#X connect 66 0 67 0;
#X connect 67 0 68 0;
#X connect 68 0 72 0;
#X connect 69 0 67 3;
#X connect 70 0 67 4;
#X connect 71 0 67 5;
#X connect 73 0 72 1;
#X connect 74 0 73 0;
#X connect 74 1 69 0;
#X connect 74 2 70 0;
#X connect 74 3 71 0;
#X connect 75 0 76 0;
#X connect 76 0 77 0;
#X connect 77 0 81 0;
#X connect 78 0 76 3;
#X connect 79 0 76 4;
#X connect 80 0 76 5;
#X connect 82 0 81 1;
#X connect 83 0 82 0;
#X connect 83 1 78 0;
#X connect 83 2 79 0;
#X connect 83 3 80 0;
#X connect 84 0 85 0;
#X connect 85 0 86 0;
#X connect 86 0 90 0;
#X connect 87 0 85 3;
#X connect 88 0 85 4;
#X connect 89 0 85 5;
#X connect 91 0 90 1;
#X connect 92 0 91 0;
#X connect 92 1 87 0;
#X connect 92 2 88 0;
#X connect 92 3 89 0;
#X connect 93 0 73 0;
#X connect 94 0 82 0;
#X connect 95 0 91 0;
#X connect 96 0 66 0;
#X connect 97 0 75 0;
#X connect 98 0 84 0;
#X connect 99 0 100 0;
#X connect 100 0 101 0;
#X connect 101 0 105 0;
#X connect 102 0 100 3;
#X connect 103 0 100 4;
#X connect 104 0 100 5;
#X connect 106 0 107 0;
#X connect 107 0 105 1;
#X connect 108 0 107 0;
#X connect 108 1 102 0;
#X connect 108 2 103 0;
#X connect 108 3 104 0;
#X connect 109 0 110 0;
#X connect 110 0 111 0;
#X connect 111 0 115 0;
#X connect 112 0 110 3;
#X connect 113 0 110 4;
#X connect 114 0 110 5;
#X connect 116 0 115 1;
#X connect 117 0 116 0;
#X connect 117 1 112 0;
#X connect 117 2 113 0;
#X connect 117 3 114 0;
#X connect 118 0 116 0;
#X connect 119 0 120 0;
#X connect 120 0 121 0;
#X connect 121 0 125 0;
#X connect 122 0 120 3;
#X connect 123 0 120 4;
#X connect 124 0 120 5;
#X connect 126 0 125 1;
#X connect 127 0 126 0;
#X connect 127 1 122 0;
#X connect 127 2 123 0;
#X connect 127 3 124 0;
#X connect 128 0 129 0;
#X connect 129 0 130 0;
#X connect 130 0 134 0;
#X connect 131 0 129 3;
#X connect 132 0 129 4;
#X connect 133 0 129 5;
#X connect 135 0 134 1;
#X connect 136 0 135 0;
#X connect 136 1 131 0;
#X connect 136 2 132 0;
#X connect 136 3 133 0;
#X connect 137 0 138 0;
#X connect 138 0 139 0;
#X connect 139 0 143 0;
#X connect 140 0 138 3;
#X connect 141 0 138 4;
#X connect 142 0 138 5;
#X connect 144 0 143 1;
#X connect 145 0 144 0;
#X connect 145 1 140 0;
#X connect 145 2 141 0;
#X connect 145 3 142 0;
#X connect 146 0 147 0;
#X connect 147 0 148 0;
#X connect 148 0 152 0;
#X connect 149 0 147 3;
#X connect 150 0 147 4;
#X connect 151 0 147 5;
#X connect 153 0 152 1;
#X connect 154 0 153 0;
#X connect 154 1 149 0;
#X connect 154 2 150 0;
#X connect 154 3 151 0;
#X connect 155 0 126 0;
#X connect 156 0 135 0;
#X connect 157 0 144 0;
#X connect 158 0 153 0;
#X connect 159 0 108 0;
#X connect 160 0 117 0;
#X connect 161 0 127 0;
#X connect 162 0 136 0;
#X connect 163 0 145 0;
#X connect 164 0 154 0;
#X connect 165 0 166 0;
#X connect 166 0 167 0;
#X connect 167 0 171 0;
#X connect 168 0 166 3;
#X connect 169 0 166 4;
#X connect 170 0 166 5;
#X connect 172 0 171 1;
#X connect 173 0 172 0;
#X connect 173 1 168 0;
#X connect 173 2 169 0;
#X connect 173 3 170 0;
#X connect 174 0 175 0;
#X connect 175 0 176 0;
#X connect 176 0 180 0;
#X connect 177 0 175 3;
#X connect 178 0 175 4;
#X connect 179 0 175 5;
#X connect 181 0 180 1;
#X connect 182 0 181 0;
#X connect 182 1 177 0;
#X connect 182 2 178 0;
#X connect 182 3 179 0;
#X connect 183 0 184 0;
#X connect 184 0 185 0;
#X connect 185 0 189 0;
#X connect 186 0 184 3;
#X connect 187 0 184 4;
#X connect 188 0 184 5;
#X connect 190 0 189 1;
#X connect 191 0 190 0;
#X connect 191 1 186 0;
#X connect 191 2 187 0;
#X connect 191 3 188 0;
#X connect 192 0 172 0;
#X connect 193 0 181 0;
#X connect 194 0 190 0;
#X connect 195 0 173 0;
#X connect 196 0 182 0;
#X connect 197 0 191 0;
#X connect 198 0 99 0;
#X connect 199 0 109 0;
#X connect 200 0 119 0;
#X connect 201 0 128 0;
#X connect 202 0 137 0;
#X connect 203 0 146 0;
#X connect 204 0 165 0;
#X connect 205 0 174 0;
#X connect 206 0 183 0;
#X connect 207 0 218 0;
#X connect 208 0 9 0;
#X connect 209 0 18 0;
#X connect 210 0 28 0;
#X connect 211 0 37 0;
#X connect 212 0 46 0;
#X connect 213 0 55 0;
#X connect 214 0 74 0;
#X connect 215 0 83 0;
#X connect 216 0 92 0;
#X connect 218 0 217 0;
#X connect 218 0 225 0;
#X connect 218 0 227 0;
#X connect 218 0 226 0;
#X connect 218 0 219 0;
#X connect 218 0 220 0;
#X connect 218 0 229 0;
#X connect 218 0 228 0;
#X connect 218 0 231 0;
#X connect 218 0 230 0;
#X connect 218 0 232 0;
#X connect 221 0 222 0;
#X connect 222 0 223 0;
#X connect 223 1 224 0;
#X restore 51 67 pd mapper;
#X f 20;
#X connect 15 0 14 0;
#X connect 16 0 17 0;
#X connect 18 0 19 0;
