#N canvas 741 453 1130 644 12;
#N canvas 63 100 929 708 presets 0;
#X msg 35 157 \; play-cloud 0 1000 1000 -400;
#X msg 35 205 \; play-cloud 0 1000 500 -400;
#X text 33 134 instance \, position (ms) \, grandur \, transp;
#X msg 128 34 \; density 0 \; metro 20 \; dur 80 \; transp 0 \; posvar 10 \;;
#X msg 35 35 \; density 0 \; metro 100 \; dur 200 \; transp 0 \; posvar 0 \;;
#X text 352 23 piano hits;
#X msg 378 156 \; density 0 \; metro 50 \; freeze 0 \; stretch 0.5 \; stretchvar 0 \; pos 0 \; posvar 0 \; dur 80 \; durvar 0 \; transp 0 \; transpvar 0 \; pitchquant 0 \;;
#X msg 501 153 \; density 40 \; metro 0 \; freeze 0 \; stretch 0.8 \; stretchvar 50 \; pos 0 \; posvar 4 \; dur 80 \; durvar 50 \; transp 10 \; transpvar 100 \; pitchquant 0 \;;
#X obj 378 98 select 1;
#X obj 378 74 r button1;
#X obj 503 71 r button2;
#X obj 503 95 select 1;
#X obj 643 96 select 1;
#X obj 768 93 select 1;
#X obj 643 72 r button3;
#X obj 768 69 r button4;
#X msg 643 154 \; density 10 \; metro 250 \; freeze 1 \; stretch 0 \; stretchvar 0 \; pos 1000 \; posvar 50 \; dur 250 \; durvar 30 \; transp 100 \; transpvar 50 \; pitchquant 0 \;;
#X msg 766 151 \; density 0 \; metro 100 \; freeze 0 \; stretch 0.8 \; stretchvar 50 \; pos 0 \; posvar 4 \; dur 280 \; durvar 50 \; transp 700 \; transpvar 50 \; pitchquant 200 \;;
#X msg 66 445 \; doublebuf1-density 3 \; doublebuf1-metro 500 \; doublebuf1-freeze 0 \; doublebuf1-stretch 1 \; doublebuf1-stretchvar 25 \; doublebuf1-pos 0 \; doublebuf1-posvar 50 \; doublebuf1-dur 1000 \; doublebuf1-durvar 20 \; doublebuf1-transp 0 \; doublebuf1-transpvar 0 \; doublebuf1-pitchquant 0 \;;
#X msg 269 554 \; map1 send symbol doublebuf1-dur \; map1 min 0 \; map1 max 100 \; map1 curve 2 \;, f 33;
#X text 269 477 Examples of messages in Composition patch, f 29;
#X connect 9 0 8 0;
#X connect 10 0 11 0;
#X connect 14 0 12 0;
#X connect 15 0 13 0;
#X restore 1013 190 pd presets;
#N canvas 40 397 860 507 drone 0;
#X obj 206 9 inlet;
#X obj 206 33 bng 19 250 50 0 empty empty empty 0 -10 0 12 #fcfcfc #000000 #000000;
#X obj 254 94 print drone;
#X msg 39 389 \; map1 send symbol doublebuf1-transp \; map1 min -400 \; map1 max 400 \; map1 curve 1 \;, f 20;
#X msg 39 290 \; map2 send symbol doublebuf1-stretch \; map2 min 0.25 \; map2 max 5 \; map2 curve 1 \;, f 20;
#X text 47 63 viola;
#X text 416 63 bassclar;
#X text 631 63 piano;
#X msg 623 94 \; doublebuf1-density 3 \; doublebuf1-metro 450 \; doublebuf1-freeze 0 \; doublebuf1-stretch 3 \; doublebuf1-stretchvar 0 \; doublebuf1-pos 0 \; doublebuf1-posvar 0 \; doublebuf1-dur 2200 \; doublebuf1-durvar 0 \; doublebuf1-transp 60 \; doublebuf1-transpvar 0 \; doublebuf1-pitchquant 0 \;;
#X msg 39 94 \; doublebuf1-density 3 \; doublebuf1-metro 500 \; doublebuf1-freeze 1 \; doublebuf1-stretch 2 \; doublebuf1-stretchvar 0 \; doublebuf1-pos 0 \; doublebuf1-posvar 0 \; doublebuf1-dur 1000 \; doublebuf1-durvar 0 \; doublebuf1-transp 50 \; doublebuf1-transpvar 0 \; doublebuf1-pitchquant 0 \;;
#X msg 408 94 \; doublebuf1-density 3 \; doublebuf1-metro 300 \; doublebuf1-freeze 1 \; doublebuf1-stretch 0.6 \; doublebuf1-stretchvar 0 \; doublebuf1-pos 0 \; doublebuf1-posvar 0 \; doublebuf1-dur 900 \; doublebuf1-durvar 0 \; doublebuf1-transp -50 \; doublebuf1-transpvar 0 \; doublebuf1-pitchquant 0 \;;
#X connect 0 0 1 0;
#X connect 1 0 9 0;
#X connect 1 0 4 0;
#X connect 1 0 3 0;
#X connect 1 0 2 0;
#X restore 589 361 pd drone;
#X obj 589 337 bng 19 250 50 0 empty empty empty 0 -10 0 12 #fcfcfc #000000 #000000;
#X obj 654 337 bng 19 250 50 0 empty empty empty 0 -10 0 12 #fcfcfc #000000 #000000;
#N canvas 20 386 920 527 slap 0;
#X obj 206 9 inlet;
#X obj 206 33 bng 19 250 50 0 empty empty empty 0 -10 0 12 #fcfcfc #000000 #000000;
#X msg 763 325 \; map1 send symbol doublebuf1-pos \; map1 min 0 \; map1 max 500 \; map1 curve 1 \;, f 17;
#X msg 44 127 \; doublebuf1-density 3 \; doublebuf1-metro 0 \; doublebuf1-freeze 0 \; doublebuf1-stretch 1 \; doublebuf1-stretchvar 0 \; doublebuf1-pos 0 \; doublebuf1-posvar 0 \; doublebuf1-dur 750 \; doublebuf1-durvar 0 \; doublebuf1-transp 0 \; doublebuf1-transpvar 0 \; doublebuf1-pitchquant 0 \;;
#X msg 594 324 \; map1 send symbol doublebuf1-density \; map1 min 3 \; map1 max 30 \; map1 curve 1 \;, f 20;
#X msg 594 423 \; map2 send symbol doublebuf1-dur \; map2 min 1000 \; map2 max 500 \; map2 curve 1 \;, f 20;
#X obj 206 60 print slap;
#X text 47 103 viola;
#X text 266 103 bassclar;
#X text 487 103 piano;
#X msg 263 127 \; doublebuf1-density 4 \; doublebuf1-metro 0 \; doublebuf1-freeze 0 \; doublebuf1-stretch 1 \; doublebuf1-stretchvar 0 \; doublebuf1-pos 0 \; doublebuf1-posvar 0 \; doublebuf1-dur 900 \; doublebuf1-durvar 0 \; doublebuf1-transp 0 \; doublebuf1-transpvar 0 \; doublebuf1-pitchquant 0 \;;
#X msg 484 127 \; doublebuf1-density 2 \; doublebuf1-metro 0 \; doublebuf1-freeze 0 \; doublebuf1-stretch 1 \; doublebuf1-stretchvar 0 \; doublebuf1-pos 0 \; doublebuf1-posvar 0 \; doublebuf1-dur 1100 \; doublebuf1-durvar 0 \; doublebuf1-transp 0 \; doublebuf1-transpvar 0 \; doublebuf1-pitchquant 0 \;;
#X connect 0 0 1 0;
#X connect 1 0 3 0;
#X connect 1 0 6 0;
#X restore 654 361 pd slap;
#X obj 719 337 bng 19 250 50 0 empty empty empty 0 -10 0 12 #fcfcfc #000000 #000000;
#N canvas 20 396 879 508 figure 0;
#X obj 148 6 inlet;
#X obj 148 30 bng 19 250 50 0 empty empty empty 0 -10 0 12 #fcfcfc #000000 #000000;
#X msg 695 309 \; map1 send symbol doublebuf1-pos \; map1 min 0 \; map1 max 500 \; map1 curve 1 \;, f 17;
#X msg 526 308 \; map1 send symbol doublebuf1-metro \; map1 min 200 \; map1 max 30 \; map1 curve 1 \;, f 20;
#X msg 526 407 \; map2 send symbol doublebuf1-dur \; map2 min 900 \; map2 max 300 \; map2 curve 1 \;, f 20;
#X obj 148 56 print figure;
#X text 41 81 viola;
#X text 238 81 bassclar;
#X text 431 81 piano;
#X msg 37 106 \; doublebuf1-density 0 \; doublebuf1-metro 160 \; doublebuf1-freeze 0 \; doublebuf1-stretch 2 \; doublebuf1-stretchvar 0 \; doublebuf1-pos 0 \; doublebuf1-posvar 0 \; doublebuf1-dur 750 \; doublebuf1-durvar 0 \; doublebuf1-transp 0 \; doublebuf1-transpvar 0 \; doublebuf1-pitchquant 0 \;;
#X msg 234 107 \; doublebuf1-density 0 \; doublebuf1-metro 100 \; doublebuf1-freeze 0 \; doublebuf1-stretch 1.5 \; doublebuf1-stretchvar 0 \; doublebuf1-pos 0 \; doublebuf1-posvar 0 \; doublebuf1-dur 800 \; doublebuf1-durvar 0 \; doublebuf1-transp 0 \; doublebuf1-transpvar 0 \; doublebuf1-pitchquant 0 \;;
#X msg 427 107 \; doublebuf1-density 0 \; doublebuf1-metro 120 \; doublebuf1-freeze 0 \; doublebuf1-stretch 0.8 \; doublebuf1-stretchvar 0 \; doublebuf1-pos 0 \; doublebuf1-posvar 0 \; doublebuf1-dur 900 \; doublebuf1-durvar 0 \; doublebuf1-transp 0 \; doublebuf1-transpvar 0 \; doublebuf1-pitchquant 0 \;;
#X connect 0 0 1 0;
#X connect 1 0 9 0;
#X connect 1 0 5 0;
#X restore 719 361 pd figure;
#X obj 240 166 text define -k mycuelist;
#A set mycue 1 \; 120 mycue 2 \; 120 mycue 3 \; 60 mycue 4 \; 120 mycue 5 \; 120 mycue 6 \; 300 mycue 7 \;;
#X msg 208 136 line 0;
#X msg 127 136 auto;
#X msg 165 136 stop;
#X text 207 117 rewind;
#X obj 164 191 text sequence mycuelist -g -t 1 sec;
#X obj 157 16 r button4;
#X obj 127 62 change;
#X obj 127 86 select 1;
#X obj 127 110 t b b;
#N canvas 201 270 908 543 the-time 0;
#X obj 166 176 timer 1 sec;
#X floatatom 166 200 5 0 0 0 - - - 0;
#X obj 240 145 bng 19 250 50 0 empty empty empty 0 -10 0 12 #fcfcfc #000000 #000000;
#X obj 166 121 bng 19 250 50 0 empty empty empty 0 -10 0 12 #fcfcfc #000000 #000000;
#X obj 240 119 metro 1000;
#X obj 157 274 / 60;
#X obj 157 298 i;
#X floatatom 200 298 5 0 0 0 - - - 0;
#X floatatom 157 347 5 0 0 0 - - - 0;
#X obj 166 230 t f f;
#X obj 200 321 t b f;
#X obj 157 370 pack;
#X text 45 393 min / sec;
#X obj 250 419 list;
#X obj 250 395 bng 19 250 50 0 empty empty empty 0 -10 0 12 #fcfcfc #000000 #000000;
#X floatatom 250 297 5 0 0 0 - - - 0;
#X obj 250 320 select 0;
#X text 311 271 print every 10 sec;
#X obj 180 41 inlet;
#X obj 180 65 t b b;
#X msg 240 94 1;
#X obj 157 441 outlet;
#X obj 339 46 inlet;
#X msg 275 94 0;
#X obj 339 70 t b;
#X obj 250 273 mod 10;
#X obj 200 274 mod 60;
#X obj 250 473 print time;
#X obj 250 443 spigot;
#X obj 339 395 r verbose;
#X obj 339 419 tgl 19 0 empty empty empty 0 -10 0 12 #fcfcfc #000000 #000000 0 1;
#X connect 0 0 1 0;
#X connect 1 0 9 0;
#X connect 2 0 0 1;
#X connect 3 0 0 0;
#X connect 4 0 2 0;
#X connect 5 0 6 0;
#X connect 6 0 8 0;
#X connect 7 0 10 0;
#X connect 8 0 11 0;
#X connect 9 0 5 0;
#X connect 9 1 25 0;
#X connect 9 1 26 0;
#X connect 10 0 8 0;
#X connect 10 1 11 1;
#X connect 11 0 21 0;
#X connect 11 0 13 1;
#X connect 13 0 28 0;
#X connect 14 0 13 0;
#X connect 15 0 16 0;
#X connect 16 0 14 0;
#X connect 18 0 19 0;
#X connect 19 0 20 0;
#X connect 19 1 3 0;
#X connect 20 0 4 0;
#X connect 22 0 24 0;
#X connect 23 0 4 0;
#X connect 24 0 23 0;
#X connect 25 0 15 0;
#X connect 26 0 7 0;
#X connect 28 0 27 0;
#X connect 29 0 30 0;
#X connect 30 0 28 1;
#X restore 14 196 pd the-time;
#X msg 68 66 1;
#X obj 586 128 r mycue;
#X floatatom 585 155 5 0 0 0 - - - 0;
#X text 278 108 mycuelist keeps list of time (sec) and cue numbers, f 20;
#X text 729 257 cue numbers trigger presets for composition sections, f 28;
#X text 1015 216 other presets, f 28;
#X msg 88 173 stop;
#X obj 612 252 print mycue;
#X obj 536 138 f;
#X obj 536 162 + 1;
#X obj 536 113 bng 19 250 50 0 empty empty empty 0 -10 0 12 #fcfcfc #000000 #000000;
#X msg 587 206 1;
#X obj 587 182 select 8;
#X obj 589 306 select 1 2 3 4 5 6 7, f 33;
#X obj 975 65 r button3;
#X obj 972 91 change;
#X obj 972 115 select 1;
#X obj 972 139 tgl 19 0 empty empty empty 0 -10 0 12 #fcfcfc #000000 #000000 0 1;
#X obj 972 163 s doublebuf1-freeze;
#X text 295 323 mycue 1 \; 120 mycue 2 \; 120 mycue 3 \; 60 mycue 4 \; 120 mycue 5 \; 120 mycue 6 \; 300 mycue 7 \;;
#X text 300 306 bassclar;
#X text 195 306 viola;
#X text 190 324 mycue 1 \; 120 mycue 2 \; 120 mycue 3 \; 60 mycue 4 \; 180 mycue 5 \; 120 mycue 6 \; 240 mycue 7 \;;
#X text 407 306 piano;
#X text 402 323 mycue 1 \; 120 mycue 2 \; 120 mycue 3 \; 60 mycue 4 \; 240 mycue 5 \; 120 mycue 6 \; 120 mycue 7 \;;
#X obj 791 336 bng 19 250 50 0 empty empty empty 0 -10 0 12 #fcfcfc #000000 #000000;
#N canvas 40 397 860 507 drone2 0;
#X obj 206 9 inlet;
#X obj 206 33 bng 19 250 50 0 empty empty empty 0 -10 0 12 #fcfcfc #000000 #000000;
#X msg 39 94 \; doublebuf1-density 3 \; doublebuf1-metro 500 \; doublebuf1-freeze 1 \; doublebuf1-stretch 2 \; doublebuf1-stretchvar 0 \; doublebuf1-pos 0 \; doublebuf1-posvar 0 \; doublebuf1-dur 1000 \; doublebuf1-durvar 0 \; doublebuf1-transp 50 \; doublebuf1-transpvar 0 \; doublebuf1-pitchquant 0 \;;
#X text 47 63 viola;
#X text 416 63 bassclar;
#X msg 408 94 \; doublebuf1-density 3 \; doublebuf1-metro 300 \; doublebuf1-freeze 1 \; doublebuf1-stretch 0.6 \; doublebuf1-stretchvar 0 \; doublebuf1-pos 0 \; doublebuf1-posvar 0 \; doublebuf1-dur 900 \; doublebuf1-durvar 0 \; doublebuf1-transp -50 \; doublebuf1-transpvar 0 \; doublebuf1-pitchquant 0 \;;
#X text 631 63 piano;
#X msg 623 94 \; doublebuf1-density 3 \; doublebuf1-metro 450 \; doublebuf1-freeze 0 \; doublebuf1-stretch 3 \; doublebuf1-stretchvar 0 \; doublebuf1-pos 0 \; doublebuf1-posvar 0 \; doublebuf1-dur 2200 \; doublebuf1-durvar 0 \; doublebuf1-transp 60 \; doublebuf1-transpvar 0 \; doublebuf1-pitchquant 0 \;;
#X obj 254 94 print drone2;
#X connect 0 0 1 0;
#X connect 1 0 2 0;
#X connect 1 0 8 0;
#X restore 791 360 pd drone2;
#X obj 621 395 bng 19 250 50 0 empty empty empty 0 -10 0 12 #fcfcfc #000000 #000000;
#N canvas 40 397 1458 580 drone-line 0;
#X obj 206 9 inlet;
#X obj 206 33 bng 19 250 50 0 empty empty empty 0 -10 0 12 #fcfcfc #000000 #000000;
#X text 47 63 viola;
#X text 607 97 bassclar;
#X text 1087 89 piano;
#X obj 206 57 print drone-line;
#X obj 19 187 line;
#X obj 19 222 s doublebuf1-density;
#X msg 19 152 3 \, 10 60000 2000;
#X obj 90 292 line;
#X obj 90 327 s doublebuf1-stretchvar;
#X msg 90 257 0 \, 100 60000 1000;
#X obj 289 177 line;
#X obj 288 288 line;
#X obj 289 212 s doublebuf1-pos;
#X obj 288 323 s doublebuf1-posvar;
#X obj 142 420 line;
#X obj 142 455 s doublebuf1-durvar;
#X msg 142 385 0 \, 50 60000 1000;
#X obj 320 421 line;
#X obj 320 457 s doublebuf1-transpvar;
#X msg 320 386 0 \, 100 60000 1000;
#X obj 676 99 bng 19 250 50 0 empty empty empty 0 -10 0 12 #fcfcfc #000000 #000000;
#X obj 489 284 s doublebuf1-density;
#X obj 560 358 line;
#X obj 560 393 s doublebuf1-stretchvar;
#X msg 560 323 0 \, 100 60000 1000;
#X obj 759 243 line;
#X obj 758 354 line;
#X obj 759 278 s doublebuf1-pos;
#X obj 758 389 s doublebuf1-posvar;
#X obj 612 486 line;
#X obj 612 521 s doublebuf1-durvar;
#X msg 612 451 0 \, 50 60000 1000;
#X obj 790 487 line;
#X obj 790 523 s doublebuf1-transpvar;
#X msg 790 452 0 \, 100 60000 1000;
#X obj 1136 89 bng 19 250 50 0 empty empty empty 0 -10 0 12 #fcfcfc #000000 #000000;
#X obj 949 278 s doublebuf1-density;
#X obj 1020 348 line;
#X obj 1020 383 s doublebuf1-stretchvar;
#X msg 1020 313 0 \, 100 60000 1000;
#X obj 1219 233 line;
#X obj 1218 344 line;
#X obj 1219 268 s doublebuf1-pos;
#X obj 1218 379 s doublebuf1-posvar;
#X obj 1072 476 line;
#X obj 1072 511 s doublebuf1-durvar;
#X obj 1250 477 line;
#X obj 1250 513 s doublebuf1-transpvar;
#X msg 1250 442 0 \, 100 60000 1000;
#X msg 489 218 3 \, 12 60000 2000;
#X obj 489 251 line;
#X obj 949 232 line;
#X msg 289 142 0 \, 1000 60000 1000;
#X msg 759 208 0 \, 1250 60000 1000;
#X msg 949 208 3 \, 20 60000 2000;
#X msg 1072 441 0 \, 70 60000 1000;
#X msg 1219 198 0 \, 1800 60000 1000;
#X msg 288 253 0 \, 1000 60000 1000;
#X msg 758 319 0 \, 1250 60000 1000;
#X msg 1218 309 0 \, 1800 60000 1000;
#X connect 0 0 1 0;
#X connect 1 0 5 0;
#X connect 1 0 8 0;
#X connect 1 0 11 0;
#X connect 1 0 54 0;
#X connect 1 0 59 0;
#X connect 1 0 18 0;
#X connect 1 0 21 0;
#X connect 6 0 7 0;
#X connect 8 0 6 0;
#X connect 9 0 10 0;
#X connect 11 0 9 0;
#X connect 12 0 14 0;
#X connect 13 0 15 0;
#X connect 16 0 17 0;
#X connect 18 0 16 0;
#X connect 19 0 20 0;
#X connect 21 0 19 0;
#X connect 22 0 51 0;
#X connect 22 0 26 0;
#X connect 22 0 55 0;
#X connect 22 0 60 0;
#X connect 22 0 33 0;
#X connect 22 0 36 0;
#X connect 24 0 25 0;
#X connect 26 0 24 0;
#X connect 27 0 29 0;
#X connect 28 0 30 0;
#X connect 31 0 32 0;
#X connect 33 0 31 0;
#X connect 34 0 35 0;
#X connect 36 0 34 0;
#X connect 37 0 56 0;
#X connect 37 0 41 0;
#X connect 37 0 58 0;
#X connect 37 0 61 0;
#X connect 37 0 57 0;
#X connect 37 0 50 0;
#X connect 39 0 40 0;
#X connect 41 0 39 0;
#X connect 42 0 44 0;
#X connect 43 0 45 0;
#X connect 46 0 47 0;
#X connect 48 0 49 0;
#X connect 50 0 48 0;
#X connect 51 0 52 0;
#X connect 52 0 23 0;
#X connect 53 0 38 0;
#X connect 54 0 12 0;
#X connect 55 0 27 0;
#X connect 56 0 53 0;
#X connect 57 0 46 0;
#X connect 58 0 42 0;
#X connect 59 0 13 0;
#X connect 60 0 28 0;
#X connect 61 0 43 0;
#X restore 621 419 pd drone-line;
#X obj 720 395 bng 19 250 50 0 empty empty empty 0 -10 0 12 #fcfcfc #000000 #000000;
#N canvas 40 397 1458 580 slap-line 0;
#X obj 206 9 inlet;
#X obj 206 33 bng 19 250 50 0 empty empty empty 0 -10 0 12 #fcfcfc #000000 #000000;
#X text 47 63 viola;
#X obj 62 350 line;
#X obj 62 385 s doublebuf1-density;
#X obj 27 139 line;
#X obj 27 174 s doublebuf1-posvar;
#X obj 225 286 line;
#X obj 225 321 s doublebuf1-durvar;
#X obj 253 52 print slap-line;
#X msg 27 104 0 \, 1000 40000 1000;
#X obj 40 267 s doublebuf1-metro;
#X msg 40 240 100;
#X msg 62 315 3 \, 20 60000 2000;
#X msg 225 251 0 \, 50 80000 1000;
#X obj 238 105 delay 100000;
#X msg 238 131 \; doublebuf1-transp 400 \; doublebuf1-transpvar 100 \; doublebuf1-pitchquant 200 \;;
#X obj 691 60 bng 19 250 50 0 empty empty empty 0 -10 0 12 #fcfcfc #000000 #000000;
#X obj 547 377 line;
#X obj 547 412 s doublebuf1-density;
#X obj 512 166 line;
#X obj 512 201 s doublebuf1-posvar;
#X obj 710 313 line;
#X obj 710 348 s doublebuf1-durvar;
#X obj 738 79 print slap-line;
#X obj 523 295 s doublebuf1-metro;
#X obj 1187 73 bng 19 250 50 0 empty empty empty 0 -10 0 12 #fcfcfc #000000 #000000;
#X obj 1043 390 line;
#X obj 1008 179 line;
#X obj 1008 214 s doublebuf1-posvar;
#X obj 1234 92 print slap-line;
#X text 534 90 bassclar;
#X text 1028 103 piano;
#X msg 512 131 0 \, 600 20000 1000;
#X msg 523 268 90;
#X obj 40 213 delay 30000;
#X msg 547 342 4 \, 25 30000 2000;
#X msg 710 279 0 \, 50 40000 1000;
#X obj 723 132 delay 50000;
#X msg 723 158 \; doublebuf1-transp 300 \; doublebuf1-transpvar 100 \; doublebuf1-pitchquant 100 \;;
#X msg 1008 144 0 \, 1200 80000 1000;
#X obj 1033 307 s doublebuf1-metro;
#X obj 1033 252 delay 60000;
#X msg 1033 280 300;
#X obj 1043 425 s doublebuf1-stretch;
#X msg 1043 355 1 \, 0.5 60000 2000;
#X connect 0 0 1 0;
#X connect 1 0 13 0;
#X connect 1 0 10 0;
#X connect 1 0 14 0;
#X connect 1 0 9 0;
#X connect 1 0 15 0;
#X connect 1 0 35 0;
#X connect 3 0 4 0;
#X connect 5 0 6 0;
#X connect 7 0 8 0;
#X connect 10 0 5 0;
#X connect 12 0 11 0;
#X connect 13 0 3 0;
#X connect 14 0 7 0;
#X connect 15 0 16 0;
#X connect 17 0 36 0;
#X connect 17 0 33 0;
#X connect 17 0 37 0;
#X connect 17 0 24 0;
#X connect 17 0 34 0;
#X connect 17 0 38 0;
#X connect 18 0 19 0;
#X connect 20 0 21 0;
#X connect 22 0 23 0;
#X connect 26 0 45 0;
#X connect 26 0 40 0;
#X connect 26 0 30 0;
#X connect 26 0 42 0;
#X connect 27 0 44 0;
#X connect 28 0 29 0;
#X connect 33 0 20 0;
#X connect 34 0 25 0;
#X connect 35 0 12 0;
#X connect 36 0 18 0;
#X connect 37 0 22 0;
#X connect 38 0 39 0;
#X connect 40 0 28 0;
#X connect 42 0 43 0;
#X connect 43 0 41 0;
#X connect 45 0 27 0;
#X restore 720 419 pd slap-line;
#X obj 816 395 bng 19 250 50 0 empty empty empty 0 -10 0 12 #fcfcfc #000000 #000000;
#N canvas 40 397 1458 580 fig-line 0;
#X obj 206 9 inlet;
#X obj 206 33 bng 19 250 50 0 empty empty empty 0 -10 0 12 #fcfcfc #000000 #000000;
#X text 47 63 viola;
#X obj 64 238 line;
#X obj 64 273 s doublebuf1-density;
#X obj 107 368 line;
#X obj 107 403 s doublebuf1-stretchvar;
#X obj 289 177 line;
#X obj 288 288 line;
#X obj 289 212 s doublebuf1-pos;
#X obj 288 323 s doublebuf1-posvar;
#X obj 159 496 line;
#X obj 159 531 s doublebuf1-durvar;
#X obj 315 396 line;
#X obj 258 33 print fig-line;
#X msg 64 203 0 \, 30 90000 2000;
#X msg 54 135 \; doublebuf1-freeze 1 \;;
#X obj 54 109 delay 90000;
#X msg 107 333 0 \, 100 90000 1000;
#X msg 289 142 0 \, 1000 90000 1000;
#X msg 288 253 0 \, 500 90000 1000;
#X msg 159 461 0 \, 90 90000 1000;
#X obj 335 495 line;
#X obj 335 531 s doublebuf1-transpvar;
#X msg 335 460 0 \, 100 90000 1000;
#X obj 315 432 s doublebuf1-transp;
#X msg 315 361 0 \, 700 90000 1000;
#X obj 657 42 bng 19 250 50 0 empty empty empty 0 -10 0 12 #fcfcfc #000000 #000000;
#X obj 515 247 line;
#X obj 515 282 s doublebuf1-density;
#X obj 558 377 line;
#X obj 558 412 s doublebuf1-stretchvar;
#X obj 740 186 line;
#X obj 739 297 line;
#X obj 740 221 s doublebuf1-pos;
#X obj 739 332 s doublebuf1-posvar;
#X obj 610 505 line;
#X obj 610 540 s doublebuf1-durvar;
#X obj 766 405 line;
#X obj 709 42 print fig-line;
#X msg 505 144 \; doublebuf1-freeze 1 \;;
#X obj 786 504 line;
#X obj 786 540 s doublebuf1-transpvar;
#X obj 766 441 s doublebuf1-transp;
#X obj 1111 46 bng 19 250 50 0 empty empty empty 0 -10 0 12 #fcfcfc #000000 #000000;
#X obj 969 251 line;
#X obj 969 286 s doublebuf1-density;
#X obj 981 352 line;
#X obj 981 387 s doublebuf1-stretchvar;
#X obj 1194 190 line;
#X obj 1193 301 line;
#X obj 1194 225 s doublebuf1-pos;
#X obj 1193 336 s doublebuf1-posvar;
#X obj 1064 540 line;
#X obj 1064 565 s doublebuf1-durvar;
#X obj 1220 409 line;
#X obj 1163 46 print fig-line;
#X msg 959 148 \; doublebuf1-freeze 1 \;;
#X obj 1240 508 line;
#X obj 1240 544 s doublebuf1-transpvar;
#X obj 1220 445 s doublebuf1-transp;
#X text 952 76 piano;
#X text 500 72 bassclar;
#X msg 515 212 0 \, 25 120000 2000;
#X obj 505 118 delay 120000;
#X msg 558 342 0 \, 100 120000 1000;
#X msg 610 470 0 \, 90 120000 1000;
#X msg 740 151 0 \, 1200 120000 1000;
#X msg 739 262 0 \, 1000 120000 1000;
#X msg 766 370 0 \, -400 120000 1000;
#X msg 786 469 0 \, 100 120000 1000;
#X obj 959 122 delay 60000;
#X msg 969 216 0 \, 20 60000 2000;
#X msg 981 317 0 \, 100 60000 1000;
#X msg 1064 514 0 \, 90 60000 1000;
#X obj 1017 448 line;
#X obj 1017 473 s doublebuf1-dur;
#X msg 1017 422 900 \, 500 60000 1000;
#X msg 1194 155 0 \, 1550 60000 1000;
#X msg 1193 266 0 \, 1250 60000 1000;
#X msg 1220 374 0 \, 300 60000 1000;
#X msg 1240 473 0 \, 100 60000 1000;
#X connect 0 0 1 0;
#X connect 1 0 15 0;
#X connect 1 0 18 0;
#X connect 1 0 19 0;
#X connect 1 0 20 0;
#X connect 1 0 21 0;
#X connect 1 0 26 0;
#X connect 1 0 14 0;
#X connect 1 0 17 0;
#X connect 1 0 24 0;
#X connect 3 0 4 0;
#X connect 5 0 6 0;
#X connect 7 0 9 0;
#X connect 8 0 10 0;
#X connect 11 0 12 0;
#X connect 13 0 25 0;
#X connect 15 0 3 0;
#X connect 17 0 16 0;
#X connect 18 0 5 0;
#X connect 19 0 7 0;
#X connect 20 0 8 0;
#X connect 21 0 11 0;
#X connect 22 0 23 0;
#X connect 24 0 22 0;
#X connect 26 0 13 0;
#X connect 27 0 63 0;
#X connect 27 0 65 0;
#X connect 27 0 67 0;
#X connect 27 0 68 0;
#X connect 27 0 66 0;
#X connect 27 0 69 0;
#X connect 27 0 39 0;
#X connect 27 0 70 0;
#X connect 27 0 64 0;
#X connect 28 0 29 0;
#X connect 30 0 31 0;
#X connect 32 0 34 0;
#X connect 33 0 35 0;
#X connect 36 0 37 0;
#X connect 38 0 43 0;
#X connect 41 0 42 0;
#X connect 44 0 72 0;
#X connect 44 0 73 0;
#X connect 44 0 78 0;
#X connect 44 0 79 0;
#X connect 44 0 74 0;
#X connect 44 0 80 0;
#X connect 44 0 56 0;
#X connect 44 0 81 0;
#X connect 44 0 71 0;
#X connect 44 0 77 0;
#X connect 45 0 46 0;
#X connect 47 0 48 0;
#X connect 49 0 51 0;
#X connect 50 0 52 0;
#X connect 53 0 54 0;
#X connect 55 0 60 0;
#X connect 58 0 59 0;
#X connect 63 0 28 0;
#X connect 64 0 40 0;
#X connect 65 0 30 0;
#X connect 66 0 36 0;
#X connect 67 0 32 0;
#X connect 68 0 33 0;
#X connect 69 0 38 0;
#X connect 70 0 41 0;
#X connect 71 0 57 0;
#X connect 72 0 45 0;
#X connect 73 0 47 0;
#X connect 74 0 53 0;
#X connect 75 0 76 0;
#X connect 77 0 75 0;
#X connect 78 0 49 0;
#X connect 79 0 50 0;
#X connect 80 0 55 0;
#X connect 81 0 58 0;
#X restore 816 419 pd fig-line;
#X connect 2 0 1 0;
#X connect 3 0 4 0;
#X connect 5 0 6 0;
#X connect 8 0 12 0;
#X connect 9 0 12 0;
#X connect 10 0 12 0;
#X connect 14 0 15 0;
#X connect 15 0 16 0;
#X connect 16 0 9 0;
#X connect 16 0 17 0;
#X connect 16 1 8 0;
#X connect 18 0 15 0;
#X connect 19 0 20 0;
#X connect 20 0 30 0;
#X connect 24 0 17 1;
#X connect 26 0 27 0;
#X connect 27 0 20 0;
#X connect 28 0 26 0;
#X connect 29 0 25 0;
#X connect 29 0 26 1;
#X connect 29 0 31 0;
#X connect 30 0 29 0;
#X connect 30 1 25 0;
#X connect 30 1 26 1;
#X connect 30 1 31 0;
#X connect 31 0 2 0;
#X connect 31 1 45 0;
#X connect 31 2 3 0;
#X connect 31 3 47 0;
#X connect 31 4 5 0;
#X connect 31 5 49 0;
#X connect 31 6 43 0;
#X connect 33 0 34 0;
#X connect 34 0 35 0;
#X connect 35 0 36 0;
#X connect 43 0 44 0;
#X connect 45 0 46 0;
#X connect 47 0 48 0;
#X connect 49 0 50 0;
