#N canvas 238 37 1315 967 12;
#X declare -path .;
#N canvas 0 37 588 274 LICENSE 0;
#X text 79 84 (c) 2008 Reality Jockey;
#X text 57 36 Released under the GNU General Public License ver. 3 or later. See the file LICENSE.txt for the full text.;
#X restore 58 27 pd LICENSE;
#X obj 35 75 declare -path .;
#N canvas 0 37 536 303 LOADBANGS 0;
#X obj 172 140 s gain;
#X msg 172 119 1;
#X msg 290 121 0;
#X obj 290 142 s mode;
#X text 322 116 start in Play mode;
#X text 322 127 not Freeze mode;
#X obj 154 14 loadbang;
#X obj 154 57 s loadbang;
#X obj 154 36 bng 15 250 50 0 empty empty empty 17 7 0 10 #fcfcfc #000000 #000000;
#X obj 290 100 r loadbang;
#X obj 172 98 r loadbang;
#X obj 108 13 inlet;
#X msg 168 221 verbose 0;
#X obj 168 245 s bela_setMidi;
#X obj 168 190 r loadbang;
#X connect 1 0 0 0;
#X connect 2 0 3 0;
#X connect 6 0 8 0;
#X connect 8 0 7 0;
#X connect 9 0 2 0;
#X connect 10 0 1 0;
#X connect 11 0 8 0;
#X connect 12 0 13 0;
#X connect 14 0 12 0;
#X restore 36 51 pd LOADBANGS;
#X obj 36 31 bng 15 250 50 0 empty empty empty 17 7 0 10 #fcfcfc #000000 #000000;
#X obj 764 676 dac~, f 6;
#X floatatom 946 338 5 10 2000 0 - - - 0;
#X floatatom 991 338 5 0 100 0 - - - 0;
#X text 991 302 var %, f 4;
#X floatatom 629 379 5 0 0 0 - - - 0;
#X floatatom 1036 338 5 0 0 0 - - - 0;
#X floatatom 1081 338 5 0 1000 0 - - - 0;
#X text 1083 302 var %, f 4;
#X floatatom 679 379 5 0 0 0 - - - 0;
#X text 1032 302 transp (cts), f 6;
#X floatatom 855 338 5 10 2000 0 - - - 0;
#X floatatom 900 338 5 0 2500 0 - - - 0;
#X obj 406 56 tgl 19 0 empty empty empty 0 -10 0 12 #fcfcfc #000000 #000000 0 1;
#X floatatom 810 338 5 0 0 0 - - - 0;
#X floatatom 1126 338 5 0 0 0 - - - 0;
#N canvas 45 436 455 198 triangle-window 0;
#X text 256 9 window shape;
#X obj 20 26 loadbang;
#X obj 20 85 soundfiler;
#N canvas 179 217 450 300 (subpatch) 0;
#X array wndw 512 float 0;
#X coords 0 1 511 -1 200 140 1 0 0;
#X restore 210 32 graph;
#X obj 21 122 s trisize;
#X msg 20 55 read -resize tri wndw;
#X connect 1 0 5 0;
#X connect 2 0 4 0;
#X connect 5 0 2 0;
#X restore 35 97 pd triangle-window;
#X floatatom 765 338 5 0 0 0 - - - 0;
#X obj 720 338 tgl 19 0 empty empty empty 17 7 0 10 #fcfcfc #000000 #000000 0 1;
#X text 758 302 time stretch, f 7;
#X floatatom 578 379 5 0 0 0 - - - 0;
#X text 701 302 play/ freeze, f 6;
#X text 269 57 Play patch manually;
#X floatatom 590 338 5 10 2000 0 - - - 0;
#X floatatom 551 338 3 0 0 0 - - - 0;
#X text 1121 302 pitchquant (cents), f 10;
#X text 893 302 posvar (ms), f 6;
#X text 815 302 var %, f 3;
#X text 947 288 gran dur (ms), f 4;
#X text 424 144 Bela IDE monitor, f 8;
#X text 536 302 density (Hz), f 7;
#X text 587 302 metro (ms), f 5;
#X text 852 302 pos (ms), f 5;
#X obj 406 90 bela-knobs-buttons-leds;
#X floatatom 673 581 5 0 0 0 - - - 0;
#X obj 714 582 bng 19 250 50 0 empty empty empty 0 -10 0 12 #fcfcfc #000000 #000000;
#X obj 720 360 cloud-params doublebuf1, f 59;
#X obj 551 360 cloud-player doublebuf1;
#X text 668 394 transp (cts), f 6;
#X text 574 394 time stretch, f 7;
#X text 628 394 gran dur, f 4;
#X obj 633 115 vsl 16 100 0 1 0 0 empty empty empty 0 -9 0 12 #01e4e9 #000000 #000000 0 1;
#X obj 654 115 vsl 16 100 0 1 0 0 empty empty empty 0 -9 0 12 #01e4e9 #000000 #000000 0 1;
#X obj 691 115 vsl 16 100 0 1 0 0 empty empty empty 0 -9 0 12 #faff00 #000000 #000000 0 1;
#X obj 712 115 vsl 16 100 0 1 0 0 empty empty empty 0 -9 0 12 #faff00 #000000 #000000 0 1;
#X obj 749 114 vsl 16 100 0 1 0 0 empty empty empty 0 -9 0 12 #e3c6ff #000000 #000000 0 1;
#X obj 770 114 vsl 16 100 0 1 0 0 empty empty empty 0 -9 0 12 #e3c6ff #000000 #000000 0 1;
#N canvas 12 252 1945 387 mapper 0;
#X obj 33 46 inlet;
#X floatatom 33 70 5 0 0 0 - - - 0;
#X obj 50 138 m_scale 0 1 0 100;
#X floatatom 50 162 5 0 0 0 - - - 0;
#X floatatom 89 115 5 0 0 0 - - - 0;
#X floatatom 128 115 5 0 0 0 - - - 0;
#X floatatom 167 115 5 0 0 0 - - - 0;
#X obj 50 280 send;
#X msg 85 226 symbol doublebuf1-stretch;
#X symbolatom 75 254 25 0 0 0 - - - 0;
#X obj 76 70 route send min max curve;
#X obj 262 46 inlet;
#X floatatom 262 70 5 0 0 0 - - - 0;
#X obj 279 138 m_scale 0 1 0 100;
#X floatatom 279 162 5 0 0 0 - - - 0;
#X floatatom 318 115 5 0 0 0 - - - 0;
#X floatatom 357 115 5 0 0 0 - - - 0;
#X floatatom 396 115 5 0 0 0 - - - 0;
#X obj 279 280 send;
#X symbolatom 304 254 25 0 0 0 - - - 0;
#X obj 305 70 route send min max curve;
#X msg 314 226 symbol doublebuf1-dur;
#X obj 518 42 inlet;
#X floatatom 518 66 5 0 0 0 - - - 0;
#X obj 535 134 m_scale 0 1 0 100;
#X floatatom 535 158 5 0 0 0 - - - 0;
#X floatatom 574 111 5 0 0 0 - - - 0;
#X floatatom 613 111 5 0 0 0 - - - 0;
#X floatatom 652 111 5 0 0 0 - - - 0;
#X obj 535 276 send;
#X symbolatom 560 250 25 0 0 0 - - - 0;
#X obj 561 66 route send min max curve;
#X obj 747 42 inlet;
#X floatatom 747 66 5 0 0 0 - - - 0;
#X obj 764 134 m_scale 0 1 0 100;
#X floatatom 764 158 5 0 0 0 - - - 0;
#X floatatom 803 111 5 0 0 0 - - - 0;
#X floatatom 842 111 5 0 0 0 - - - 0;
#X floatatom 881 111 5 0 0 0 - - - 0;
#X obj 764 276 send;
#X symbolatom 789 250 25 0 0 0 - - - 0;
#X obj 790 66 route send min max curve;
#X obj 994 42 inlet;
#X floatatom 994 66 5 0 0 0 - - - 0;
#X obj 1011 134 m_scale 0 1 0 100;
#X floatatom 1011 158 5 0 0 0 - - - 0;
#X floatatom 1050 111 5 0 0 0 - - - 0;
#X floatatom 1089 111 5 0 0 0 - - - 0;
#X floatatom 1128 111 5 0 0 0 - - - 0;
#X obj 1011 276 send;
#X symbolatom 1036 250 25 0 0 0 - - - 0;
#X obj 1037 66 route send min max curve;
#X obj 1223 42 inlet;
#X floatatom 1223 66 5 0 0 0 - - - 0;
#X obj 1240 134 m_scale 0 1 0 100;
#X floatatom 1240 158 5 0 0 0 - - - 0;
#X floatatom 1279 111 5 0 0 0 - - - 0;
#X floatatom 1318 111 5 0 0 0 - - - 0;
#X floatatom 1357 111 5 0 0 0 - - - 0;
#X obj 1240 276 send;
#X symbolatom 1265 250 25 0 0 0 - - - 0;
#X obj 1266 66 route send min max curve;
#X msg 570 222 symbol doublebuf2-stretch;
#X msg 799 222 symbol doublebuf2-dur;
#X msg 1046 222 symbol doublebuf3-stretch;
#X msg 1275 222 symbol doublebuf3-dur;
#X msg 407 313 \; map1 send symbol doublebuf1-dur \; map1 min 0 \; map1 max 100 \; map1 curve 2 \;, f 33;
#X obj 1445 42 inlet;
#X floatatom 1445 66 5 0 0 0 - - - 0;
#X obj 1462 134 m_scale 0 1 0 100;
#X floatatom 1462 158 5 0 0 0 - - - 0;
#X floatatom 1501 111 5 0 0 0 - - - 0;
#X floatatom 1540 111 5 0 0 0 - - - 0;
#X floatatom 1579 111 5 0 0 0 - - - 0;
#X obj 1462 276 send;
#X symbolatom 1487 250 25 0 0 0 - - - 0;
#X obj 1488 66 route send min max curve;
#X obj 1680 39 inlet;
#X floatatom 1680 63 5 0 0 0 - - - 0;
#X obj 1697 131 m_scale 0 1 0 100;
#X floatatom 1697 155 5 0 0 0 - - - 0;
#X floatatom 1736 108 5 0 0 0 - - - 0;
#X floatatom 1775 108 5 0 0 0 - - - 0;
#X floatatom 1814 108 5 0 0 0 - - - 0;
#X obj 1697 273 send;
#X symbolatom 1722 247 25 0 0 0 - - - 0;
#X obj 1723 63 route send min max curve;
#X msg 1497 222 symbol doublebuf3-stretch;
#X msg 1732 219 symbol doublebuf3-dur;
#X obj 76 46 r map00;
#X obj 305 46 r map01;
#X obj 561 42 r map02;
#X obj 790 42 r map03;
#X obj 1037 42 r map04;
#X obj 1266 42 r map05;
#X obj 1488 42 r map06;
#X obj 1723 39 r map07;
#X connect 0 0 1 0;
#X connect 1 0 2 0;
#X connect 2 0 3 0;
#X connect 3 0 7 0;
#X connect 4 0 2 3;
#X connect 5 0 2 4;
#X connect 6 0 2 5;
#X connect 8 0 9 0;
#X connect 9 0 7 1;
#X connect 10 0 9 0;
#X connect 10 1 4 0;
#X connect 10 2 5 0;
#X connect 10 3 6 0;
#X connect 11 0 12 0;
#X connect 12 0 13 0;
#X connect 13 0 14 0;
#X connect 14 0 18 0;
#X connect 15 0 13 3;
#X connect 16 0 13 4;
#X connect 17 0 13 5;
#X connect 19 0 18 1;
#X connect 20 0 19 0;
#X connect 20 1 15 0;
#X connect 20 2 16 0;
#X connect 20 3 17 0;
#X connect 21 0 19 0;
#X connect 22 0 23 0;
#X connect 23 0 24 0;
#X connect 24 0 25 0;
#X connect 25 0 29 0;
#X connect 26 0 24 3;
#X connect 27 0 24 4;
#X connect 28 0 24 5;
#X connect 30 0 29 1;
#X connect 31 0 30 0;
#X connect 31 1 26 0;
#X connect 31 2 27 0;
#X connect 31 3 28 0;
#X connect 32 0 33 0;
#X connect 33 0 34 0;
#X connect 34 0 35 0;
#X connect 35 0 39 0;
#X connect 36 0 34 3;
#X connect 37 0 34 4;
#X connect 38 0 34 5;
#X connect 40 0 39 1;
#X connect 41 0 40 0;
#X connect 41 1 36 0;
#X connect 41 2 37 0;
#X connect 41 3 38 0;
#X connect 42 0 43 0;
#X connect 43 0 44 0;
#X connect 44 0 45 0;
#X connect 45 0 49 0;
#X connect 46 0 44 3;
#X connect 47 0 44 4;
#X connect 48 0 44 5;
#X connect 50 0 49 1;
#X connect 51 0 50 0;
#X connect 51 1 46 0;
#X connect 51 2 47 0;
#X connect 51 3 48 0;
#X connect 52 0 53 0;
#X connect 53 0 54 0;
#X connect 54 0 55 0;
#X connect 55 0 59 0;
#X connect 56 0 54 3;
#X connect 57 0 54 4;
#X connect 58 0 54 5;
#X connect 60 0 59 1;
#X connect 61 0 60 0;
#X connect 61 1 56 0;
#X connect 61 2 57 0;
#X connect 61 3 58 0;
#X connect 62 0 30 0;
#X connect 63 0 40 0;
#X connect 64 0 50 0;
#X connect 65 0 60 0;
#X connect 67 0 68 0;
#X connect 68 0 69 0;
#X connect 69 0 70 0;
#X connect 70 0 74 0;
#X connect 71 0 69 3;
#X connect 72 0 69 4;
#X connect 73 0 69 5;
#X connect 75 0 74 1;
#X connect 76 0 75 0;
#X connect 76 1 71 0;
#X connect 76 2 72 0;
#X connect 76 3 73 0;
#X connect 77 0 78 0;
#X connect 78 0 79 0;
#X connect 79 0 80 0;
#X connect 80 0 84 0;
#X connect 81 0 79 3;
#X connect 82 0 79 4;
#X connect 83 0 79 5;
#X connect 85 0 84 1;
#X connect 86 0 85 0;
#X connect 86 1 81 0;
#X connect 86 2 82 0;
#X connect 86 3 83 0;
#X connect 87 0 75 0;
#X connect 88 0 85 0;
#X connect 89 0 10 0;
#X connect 90 0 20 0;
#X connect 91 0 31 0;
#X connect 92 0 41 0;
#X connect 93 0 51 0;
#X connect 94 0 61 0;
#X connect 95 0 76 0;
#X connect 96 0 86 0;
#X restore 633 234 pd mapper;
#X f 29;
#N canvas 0 22 450 300 (subpatch) 0;
#X array doublebuf1 220500 float 0;
#X coords 0 1 220499 -1 200 140 1 0 0;
#X restore 38 438 graph;
#X text 204 581 220500 samples = 5 sec @ 44.1Khz, f 17;
#X text 343 581 Each half = 2.5 sec, f 13;
#X obj 77 295 bng 19 250 50 0 empty empty empty 0 -10 0 12 #fcfcfc #000000 #000000;
#X obj 140 295 bng 19 250 50 0 empty empty empty 0 -10 0 12 #fcfcfc #000000 #000000;
#X text 34 228 start first recording, f 12;
#X obj 37 330 adc~ 1;
#X text 132 435 | | | | | | | | | |, f 2;
#X text 40 581 Buffer contains two copies of 2500ms, f 20;
#X text 125 227 start second recording half buffer in, f 22;
#X text 29 837 msp Granular Synthesis;
#X text 28 855 Adam Parkinson / RJDJ iOS / 2010;
#X text 192 836 nobuyasu sakodna / MaxMSP / 1999;
#X text 28 763 Based on our port of Sakonda-san's MSP granular synth;
#X text 28 780 Combined with Cipriani & Giri's Gen~ cloud generator from their Vol. 3 book, f 77;
#X text 29 873 Atau Tanaka 2024;
#X text 28 744 Granular cloud CLONE generator;
#X text 29 800 granular engine plays one grain at a time at density \, overflowing to next available grain when busy \, uses clone object to instantiate grains, f 77;
#X text 32 662 for ERAMAA TRIO 2024;
#X text 32 686 Atau Tanaka;
#X obj 37 364 tabwrite~ doublebuf1;
#X obj 181 364 tabwrite~ doublebuf1;
#X obj 736 728 vsl 20 128 -99 18 0 1 \$0-gain gain gain -7 -18 0 14 #fca85c #000000 #000000 10855 1;
#X floatatom 736 864 5 0 0 1 _db - - 0;
#X obj 611 679 vu 19 200 empty empty -1 -10 0 12 #404040 #000000 1 0;
#X obj 401 150 tgl 19 1 empty empty empty 0 -10 0 12 #fcfcfc #000000 #000000 0 1;
#X obj 633 35 r cv0;
#X obj 679 35 r cv1;
#X text 1022 17 Knob 1 (0) : EMG RMS smoothing (0-200ms);
#X text 1022 40 Knob 2 (1) : EMG gain (1-20x);
#X text 29 721 BTMIDID BLE MIDI by Nathan Adams;
#X text 28 159 COMPOSITION HERE, f 11;
#X obj 253 330 adc~ 2;
#X obj 107 389 tabwrite~ doublebuf2;
#X obj 253 389 tabwrite~ doublebuf2;
#N canvas 0 22 450 300 (subpatch) 0;
#X array doublebuf2 220500 float 0;
#X coords 0 1 220499 -1 200 140 1 0 0;
#X restore 243 438 graph;
#X text 337 435 | | | | | | | | | |, f 2;
#X text 32 638 DEPLACEMENT for EMG and CHAMBER TRIO -- STEREO VERSION;
#N canvas 92 129 465 429 alternator4 0;
#X obj 35 43 tgl 19 0 empty empty empty 0 -10 0 12 #fcfcfc #000000 #000000 0 1;
#X floatatom 98 48 10 0 0 0 - - - 0;
#X obj 31 302 bng 19 250 50 0 empty empty empty 0 -10 0 12 #fcfcfc #000000 #000000;
#X obj 64 302 bng 19 250 50 0 empty empty empty 0 -10 0 12 #fcfcfc #000000 #000000;
#X obj 35 19 loadbang;
#X text 131 77 5 sec buffer \, with two recordings starting half a buffer apart, f 33;
#X text 152 242 trigger rec - first half \, second half;
#X obj 31 339 outlet;
#X obj 62 367 outlet;
#X floatatom 38 204 5 0 0 0 - - - 0;
#X obj 37 131 i;
#X msg 59 107 0;
#X obj 37 155 + 1;
#X obj 37 180 t f f;
#X obj 37 107 bng 19 250 50 0 empty empty empty 0 -10 0 12 #fcfcfc #000000 #000000;
#X obj 35 67 metro 1250;
#X obj 38 227 select 4;
#X obj 37 261 select 1 2 3 4;
#X obj 134 302 bng 19 250 50 0 empty empty empty 0 -10 0 12 #fcfcfc #000000 #000000;
#X obj 167 302 bng 19 250 50 0 empty empty empty 0 -10 0 12 #fcfcfc #000000 #000000;
#X obj 134 339 outlet;
#X obj 165 367 outlet;
#X connect 0 0 15 0;
#X connect 1 0 15 1;
#X connect 2 0 7 0;
#X connect 3 0 8 0;
#X connect 4 0 0 0;
#X connect 9 0 16 0;
#X connect 9 0 17 0;
#X connect 10 0 12 0;
#X connect 11 0 10 1;
#X connect 12 0 13 0;
#X connect 13 0 9 0;
#X connect 13 1 10 1;
#X connect 14 0 10 0;
#X connect 15 0 14 0;
#X connect 16 0 11 0;
#X connect 17 0 2 0;
#X connect 17 1 3 0;
#X connect 17 2 18 0;
#X connect 17 3 19 0;
#X connect 18 0 20 0;
#X connect 19 0 21 0;
#X restore 77 270 pd alternator4;
#X obj 107 307 bng 19 250 50 0 empty empty empty 0 -10 0 12 #fcfcfc #000000 #000000;
#X obj 172 307 bng 19 250 50 0 empty empty empty 0 -10 0 12 #fcfcfc #000000 #000000;
#X obj 658 679 vu 19 200 empty empty -1 -10 0 12 #404040 #000000 1 0;
#X obj 610 608 adc~ 1 2;
#X obj 673 607 cloud-chan-stereo doublebuf1 doublebuf2, f 23;
#N canvas 543 544 1811 673 cuelist 0;
#N canvas 63 100 929 708 presets 0;
#X msg 35 157 \; play-cloud 0 1000 1000 -400;
#X msg 35 205 \; play-cloud 0 1000 500 -400;
#X text 33 134 instance \, position (ms) \, grandur \, transp;
#X msg 128 34 \; density 0 \; metro 20 \; dur 80 \; transp 0 \; posvar 10 \;;
#X msg 35 35 \; density 0 \; metro 100 \; dur 200 \; transp 0 \; posvar 0 \;;
#X text 352 23 piano hits;
#X msg 378 156 \; density 0 \; metro 50 \; freeze 0 \; stretch 0.5 \; stretchvar 0 \; pos 0 \; posvar 0 \; dur 80 \; durvar 0 \; transp 0 \; transpvar 0 \; pitchquant 0 \;;
#X msg 501 153 \; density 40 \; metro 0 \; freeze 0 \; stretch 0.8 \; stretchvar 50 \; pos 0 \; posvar 4 \; dur 80 \; durvar 50 \; transp 10 \; transpvar 100 \; pitchquant 0 \;;
#X obj 378 98 select 1;
#X obj 378 74 r button1;
#X obj 503 71 r button2;
#X obj 503 95 select 1;
#X obj 643 96 select 1;
#X obj 768 93 select 1;
#X obj 643 72 r button3;
#X obj 768 69 r button4;
#X msg 643 154 \; density 10 \; metro 250 \; freeze 1 \; stretch 0 \; stretchvar 0 \; pos 1000 \; posvar 50 \; dur 250 \; durvar 30 \; transp 100 \; transpvar 50 \; pitchquant 0 \;;
#X msg 766 151 \; density 0 \; metro 100 \; freeze 0 \; stretch 0.8 \; stretchvar 50 \; pos 0 \; posvar 4 \; dur 280 \; durvar 50 \; transp 700 \; transpvar 50 \; pitchquant 200 \;;
#X msg 66 445 \; doublebuf1-density 3 \; doublebuf1-metro 500 \; doublebuf1-freeze 0 \; doublebuf1-stretch 1 \; doublebuf1-stretchvar 25 \; doublebuf1-pos 0 \; doublebuf1-posvar 50 \; doublebuf1-dur 1000 \; doublebuf1-durvar 20 \; doublebuf1-transp 0 \; doublebuf1-transpvar 0 \; doublebuf1-pitchquant 0 \;;
#X text 269 477 Examples of messages in Composition patch, f 29;
#X msg 269 554 \; map00 send symbol doublebuf1-dur \; map00 min 0 \; map00 max 100 \; map00 curve 2 \;;
#X connect 9 0 8 0;
#X connect 10 0 11 0;
#X connect 14 0 12 0;
#X connect 15 0 13 0;
#X restore 255 571 pd presets;
#X obj 1248 138 bng 19 250 50 0 empty empty empty 0 -10 0 12 #fcfcfc #000000 #000000;
#X obj 310 506 bng 19 250 50 0 empty empty empty 0 -10 0 12 #fcfcfc #000000 #000000;
#N canvas 20 386 435 520 slap 0;
#X obj 206 9 inlet;
#X obj 206 33 bng 19 250 50 0 empty empty empty 0 -10 0 12 #fcfcfc #000000 #000000;
#X msg 39 94 \; doublebuf1-density 3 \; doublebuf1-metro 0 \; doublebuf1-freeze 0 \; doublebuf1-stretch 1 \; doublebuf1-stretchvar 0 \; doublebuf1-pos 0 \; doublebuf1-posvar 0 \; doublebuf1-dur 750 \; doublebuf1-durvar 0 \; doublebuf1-transp 0 \; doublebuf1-transpvar 0 \; doublebuf1-pitchquant 0 \;;
#X obj 292 93 print slap;
#X msg 39 389 \; map00 send symbol doublebuf1-dur \; map00 min 1000 \; map00 max 500 \; map00 curve 1 \;, f 20;
#X msg 208 291 \; map00 send symbol doublebuf1-pos \; map00 min 0 \; map00 max 500 \; map00 curve 1 \;, f 17;
#X msg 39 290 \; map01 send symbol doublebuf1-density \; map01 min 3 \; map01 max 30 \; map01 curve 1 \;, f 20;
#X connect 0 0 1 0;
#X connect 1 0 2 0;
#X connect 1 0 6 0;
#X connect 1 0 4 0;
#X connect 1 0 3 0;
#X restore 310 530 pd slap;
#X obj 388 506 bng 19 250 50 0 empty empty empty 0 -10 0 12 #fcfcfc #000000 #000000;
#N canvas 20 396 426 516 figure 0;
#X obj 206 9 inlet;
#X obj 206 33 bng 19 250 50 0 empty empty empty 0 -10 0 12 #fcfcfc #000000 #000000;
#X msg 39 94 \; doublebuf1-density 0 \; doublebuf1-metro 160 \; doublebuf1-freeze 0 \; doublebuf1-stretch 1.5 \; doublebuf1-stretchvar 0 \; doublebuf1-pos 0 \; doublebuf1-posvar 0 \; doublebuf1-dur 750 \; doublebuf1-durvar 0 \; doublebuf1-transp 0 \; doublebuf1-transpvar 0 \; doublebuf1-pitchquant 0 \;;
#X obj 263 134 print figure;
#X msg 39 389 \; map01 send symbol doublebuf1-dur \; map01 min 900 \; map01 max 300 \; map01 curve 1 \;, f 20;
#X msg 208 292 \; map00 send symbol doublebuf1-pos \; map00 min 0 \; map00 max 500 \; map00 curve 1 \;, f 17;
#X msg 39 290 \; map00 send symbol doublebuf1-metro \; map00 min 200 \; map00 max 30 \; map00 curve 1 \;, f 20;
#X connect 0 0 1 0;
#X connect 1 0 2 0;
#X connect 1 0 4 0;
#X connect 1 0 5 0;
#X connect 1 0 3 0;
#X restore 388 530 pd figure;
#X obj 308 164 text define -k mycuelist;
#A set mycue 1 \; 300 mycue 2 \; 300 mycue 3 \;;
#X msg 276 134 line 0;
#X msg 195 134 auto;
#X msg 233 134 stop;
#X text 275 115 rewind;
#X obj 232 189 text sequence mycuelist -g -t 1 sec;
#X obj 195 60 change;
#X obj 195 84 select 1;
#X obj 195 108 t b b;
#N canvas 201 270 908 543 the-time 0;
#X obj 166 176 timer 1 sec;
#X floatatom 166 200 5 0 0 0 - - - 0;
#X obj 240 145 bng 19 250 50 0 empty empty empty 0 -10 0 12 #fcfcfc #000000 #000000;
#X obj 166 121 bng 19 250 50 0 empty empty empty 0 -10 0 12 #fcfcfc #000000 #000000;
#X obj 240 119 metro 1000;
#X obj 157 274 / 60;
#X obj 157 298 i;
#X floatatom 200 298 5 0 0 0 - - - 0;
#X floatatom 157 347 5 0 0 0 - - - 0;
#X obj 166 230 t f f;
#X obj 200 321 t b f;
#X obj 157 370 pack;
#X text 45 393 min / sec;
#X obj 250 419 list;
#X obj 250 395 bng 19 250 50 0 empty empty empty 0 -10 0 12 #fcfcfc #000000 #000000;
#X floatatom 250 297 5 0 0 0 - - - 0;
#X obj 250 320 select 0;
#X text 311 271 print every 10 sec;
#X obj 180 41 inlet;
#X obj 180 65 t b b;
#X msg 240 94 1;
#X obj 157 441 outlet;
#X obj 339 46 inlet;
#X msg 275 94 0;
#X obj 339 70 t b;
#X obj 250 273 mod 10;
#X obj 200 274 mod 60;
#X obj 250 473 print time;
#X obj 250 443 spigot;
#X obj 339 395 r verbose;
#X obj 339 419 tgl 19 0 empty empty empty 0 -10 0 12 #fcfcfc #000000 #000000 0 1;
#X connect 0 0 1 0;
#X connect 1 0 9 0;
#X connect 2 0 0 1;
#X connect 3 0 0 0;
#X connect 4 0 2 0;
#X connect 5 0 6 0;
#X connect 6 0 8 0;
#X connect 7 0 10 0;
#X connect 8 0 11 0;
#X connect 9 0 5 0;
#X connect 9 1 25 0;
#X connect 9 1 26 0;
#X connect 10 0 8 0;
#X connect 10 1 11 1;
#X connect 11 0 21 0;
#X connect 11 0 13 1;
#X connect 13 0 28 0;
#X connect 14 0 13 0;
#X connect 15 0 16 0;
#X connect 16 0 14 0;
#X connect 18 0 19 0;
#X connect 19 0 20 0;
#X connect 19 1 3 0;
#X connect 20 0 4 0;
#X connect 22 0 24 0;
#X connect 23 0 4 0;
#X connect 24 0 23 0;
#X connect 25 0 15 0;
#X connect 26 0 7 0;
#X connect 28 0 27 0;
#X connect 29 0 30 0;
#X connect 30 0 28 1;
#X restore 82 194 pd the-time;
#X msg 136 64 1;
#X obj 244 330 r mycue;
#X floatatom 243 357 5 0 0 0 - - - 0;
#X obj 244 475 select 1 2 3;
#X text 346 106 mycuelist keeps list of time (sec) and cue numbers, f 20;
#X text 359 458 cue numbers trigger presets for composition sections, f 28;
#X text 257 597 other presets, f 28;
#X msg 156 171 stop;
#X obj 295 432 print mycue;
#X obj 149 259 change;
#X obj 149 283 select 1;
#X obj 194 340 f;
#X obj 149 307 t b;
#X obj 194 364 + 1;
#X obj 112 306 bng 19 250 50 0 empty empty empty 0 -10 0 12 #fcfcfc #000000 #000000;
#X obj 243 380 select 4;
#X msg 243 404 1;
#X obj 965 491 loadbang;
#X text 1032 491 knob 8 = wetdry;
#X msg 965 521 \; map07 send symbol wetdry \; map07 min -1 \; map07 max 1 \; map07 curve 1 \;;
#N canvas 40 397 560 573 gig 0;
#X obj 206 9 inlet;
#X obj 206 33 bng 19 250 50 0 empty empty empty 0 -10 0 12 #fcfcfc #000000 #000000;
#X text 268 12 then increase density add posvar;
#X msg 39 94 \; doublebuf1-density 3 \; doublebuf1-metro 500 \; doublebuf1-freeze 1 \; doublebuf1-stretch 2 \; doublebuf1-stretchvar 0 \; doublebuf1-pos 0 \; doublebuf1-posvar 0 \; doublebuf1-dur 1000 \; doublebuf1-durvar 0 \; doublebuf1-transp 50 \; doublebuf1-transpvar 0 \; doublebuf1-pitchquant 0 \;;
#X text 221 405 try also stretch;
#X msg 208 291 \; map00 send symbol doublebuf1-pos \; map00 min 0 \; map00 max 500 \; map00 curve 1 \;, f 17;
#X msg 39 389 \; map00 send symbol doublebuf1-transp \; map00 min -700 \; map00 max 700 \; map00 curve 1 \;, f 20;
#X msg 39 290 \; map01 send symbol doublebuf1-stretch \; map01 min 4 \; map01 max 0.5 \; map01 curve 1 \;, f 20;
#X obj 254 94 print noizechoir;
#X connect 0 0 1 0;
#X connect 1 0 3 0;
#X connect 1 0 7 0;
#X connect 1 0 6 0;
#X connect 1 0 8 0;
#X restore 1245 187 pd gig;
#X obj 738 129 bng 19 250 50 0 empty empty empty 0 -10 0 12 #fcfcfc #000000 #000000;
#X obj 1248 64 r button4;
#X obj 1248 89 change;
#X obj 1248 113 select 1;
#X obj 1248 162 t b b;
#X obj 1295 186 bng 19 250 50 0 empty empty empty 0 -10 0 12 #fcfcfc #000000 #000000;
#X obj 554 78 r nil;
#X text 555 49 sink for unmapped;
#X msg 1298 257 \; map02 send symbol nil \; map02 min 0 \; map02 max 1000 \; map02 curve 1 \;;
#X msg 1498 257 \; map03 send symbol nil \; map03 min 0 \; map03 max 500 \; map03 curve 1 \;;
#X msg 1297 343 \; map04 send symbol nil \; map04 min 50 \; map04 max 1500 \; map04 curve 1 \;;
#X msg 1502 344 \; map05 send symbol nil \; map05 min 0 \; map05 max 100 \; map05 curve 1 \;;
#X obj 738 75 change;
#X obj 738 99 select 1;
#X obj 738 50 r button3;
#X obj 1407 119 loadbang;
#X msg 666 371 \; map06 send symbol doublebuf1-density \; map06 min 0 \; map06 max 30 \; map06 curve 1 \;;
#X msg 1278 428 \; map06 send symbol nil \; map06 min 0 \; map06 max 30 \; map06 curve 1 \;;
#X msg 666 201 \; map02 send symbol doublebuf1-posvar \; map02 min 0 \; map02 max 1000 \; map02 curve 1 \;;
#X msg 666 286 \; map04 send symbol doublebuf1-dur \; map04 min 50 \; map04 max 1500 \; map04 curve 1 \;;
#X msg 941 201 \; map03 send symbol doublebuf1-pitchquant \; map03 min 0 \; map03 max 500 \; map03 curve 1 \;;
#X msg 945 288 \; map05 send symbol doublebuf1-durvar \; map05 min 0 \; map05 max 100 \; map05 curve 1 \;;
#X obj 858 97 print mapknobs;
#X connect 1 0 41 0;
#X connect 2 0 3 0;
#X connect 4 0 5 0;
#X connect 7 0 11 0;
#X connect 8 0 11 0;
#X connect 9 0 11 0;
#X connect 12 0 13 0;
#X connect 13 0 14 0;
#X connect 14 0 8 0;
#X connect 14 0 15 0;
#X connect 14 1 7 0;
#X connect 16 0 13 0;
#X connect 17 0 18 0;
#X connect 18 0 31 0;
#X connect 19 1 2 0;
#X connect 19 2 4 0;
#X connect 23 0 15 1;
#X connect 25 0 26 0;
#X connect 26 0 28 0;
#X connect 27 0 29 0;
#X connect 28 0 27 0;
#X connect 29 0 18 0;
#X connect 30 0 27 0;
#X connect 31 0 32 0;
#X connect 31 1 24 0;
#X connect 31 1 19 0;
#X connect 31 1 27 1;
#X connect 32 0 24 0;
#X connect 32 0 19 0;
#X connect 32 0 27 1;
#X connect 33 0 35 0;
#X connect 37 0 55 0;
#X connect 37 0 57 0;
#X connect 37 0 56 0;
#X connect 37 0 58 0;
#X connect 37 0 53 0;
#X connect 38 0 39 0;
#X connect 39 0 40 0;
#X connect 40 0 1 0;
#X connect 41 0 36 0;
#X connect 41 1 42 0;
#X connect 42 0 45 0;
#X connect 42 0 46 0;
#X connect 42 0 47 0;
#X connect 42 0 48 0;
#X connect 42 0 54 0;
#X connect 49 0 50 0;
#X connect 50 0 37 0;
#X connect 51 0 49 0;
#X connect 51 0 59 0;
#X connect 52 0 1 0;
#X restore 113 158 pd cuelist;
#N canvas 40 158 1243 494 parameter-monitor 0;
#X text 90 10 monitor parameters in Bela IDE console;
#X obj 106 67 tgl 19 0 empty empty empty 0 -10 0 12 #fcfcfc #000000 #000000 0 1;
#X obj 106 134 t b b b b b, f 30;
#X obj 530 443 print;
#X obj 106 42 inlet;
#X obj 106 261 pack 0 0 0 0 0 0 0 0, f 55;
#X obj 106 236 f;
#X obj 156 236 f;
#X obj 209 236 f;
#X obj 261 236 f;
#X obj 314 236 f;
#X obj 384 232 f;
#X obj 434 232 f;
#X obj 487 232 f;
#X obj 452 161 r cv6;
#X obj 528 190 r cv7;
#X msg 646 290 cv0 \$1 cv1 \$2 dry \$3 wet \$4 cv4 \$5 cv5 \$6 cv6 \$7 cv7 \$8;
#X obj 19 159 r doublebuf1-density;
#X obj 81 189 r doublebuf1-pos;
#X obj 171 160 r doublebuf1-dur;
#X obj 210 189 r doublebuf1-transp;
#X obj 297 163 r doublebuf1-stretch;
#X obj 106 90 metro 2000;
#X obj 391 191 r doublebuf1-metro;
#X msg 111 293 dens-metro \$1 pos \$2 dur \$3 transp \$4 stretch \$5 metro \$6;
#X obj 647 153 t b b b b b, f 30;
#X obj 647 254 pack 0 0 0 0 0 0 0 0, f 55;
#X obj 647 229 f;
#X obj 697 229 f;
#X obj 750 229 f;
#X obj 802 229 f;
#X obj 855 229 f;
#X obj 925 225 f;
#X obj 975 225 f;
#X obj 1028 225 f;
#X obj 945 184 r cv6;
#X obj 990 184 r cv7;
#X obj 666 184 r cv0;
#X obj 708 184 r cv1;
#X obj 751 184 r cv2;
#X obj 793 184 r cv3;
#X obj 835 184 r cv4;
#X obj 887 184 r cv5;
#X connect 1 0 22 0;
#X connect 2 0 6 0;
#X connect 2 1 7 0;
#X connect 2 2 8 0;
#X connect 2 3 9 0;
#X connect 2 4 10 0;
#X connect 2 4 11 0;
#X connect 2 4 13 0;
#X connect 2 4 12 0;
#X connect 4 0 1 0;
#X connect 5 0 24 0;
#X connect 6 0 5 0;
#X connect 7 0 5 1;
#X connect 8 0 5 2;
#X connect 9 0 5 3;
#X connect 10 0 5 4;
#X connect 11 0 5 5;
#X connect 12 0 5 6;
#X connect 13 0 5 7;
#X connect 14 0 12 1;
#X connect 15 0 13 1;
#X connect 16 0 3 0;
#X connect 17 0 6 1;
#X connect 18 0 7 1;
#X connect 19 0 8 1;
#X connect 20 0 9 1;
#X connect 21 0 10 1;
#X connect 22 0 2 0;
#X connect 22 0 25 0;
#X connect 23 0 11 1;
#X connect 24 0 3 0;
#X connect 25 0 27 0;
#X connect 25 1 28 0;
#X connect 25 2 29 0;
#X connect 25 3 30 0;
#X connect 25 4 31 0;
#X connect 25 4 32 0;
#X connect 25 4 34 0;
#X connect 25 4 33 0;
#X connect 26 0 16 0;
#X connect 27 0 26 0;
#X connect 28 0 26 1;
#X connect 29 0 26 2;
#X connect 30 0 26 3;
#X connect 31 0 26 4;
#X connect 32 0 26 5;
#X connect 33 0 26 6;
#X connect 34 0 26 7;
#X connect 35 0 33 1;
#X connect 36 0 34 1;
#X connect 37 0 27 1;
#X connect 38 0 28 1;
#X connect 39 0 29 1;
#X connect 40 0 30 1;
#X connect 41 0 31 1;
#X connect 42 0 32 1;
#X restore 401 176 pd parameter-monitor;
#X f 21;
#N canvas 81 402 607 469 emg 0;
#X obj 28 239 vsl 19 162 0 1 0 0 empty empty empty 0 -9 0 12 #fcfcfc #000000 #000000 0 1;
#X obj 109 239 vsl 19 162 0 1 0 0 empty empty empty 0 -9 0 12 #fcfcfc #000000 #000000 0 1;
#X obj 109 206 eavi-rms;
#N canvas 333 268 250 226 range 0;
#X floatatom 37 78 5 0 0 0 - - - 0;
#X obj 37 101 - 8192;
#X obj 37 125 / 8192;
#X floatatom 37 149 5 0 0 0 - - - 0;
#X obj 37 45 inlet;
#X obj 37 180 outlet;
#X text 98 94 14 bit value converted to -1 to 1, f 14;
#X connect 0 0 1 0;
#X connect 1 0 2 0;
#X connect 2 0 3 0;
#X connect 3 0 5 0;
#X connect 4 0 0 0;
#X restore 28 164 pd range;
#N canvas 333 268 250 226 range 0;
#X floatatom 37 78 5 0 0 0 - - - 0;
#X obj 37 101 - 8192;
#X obj 37 125 / 8192;
#X floatatom 37 149 5 0 0 0 - - - 0;
#X obj 37 45 inlet;
#X obj 37 180 outlet;
#X text 98 94 14 bit value converted to -1 to 1, f 14;
#X connect 0 0 1 0;
#X connect 1 0 2 0;
#X connect 2 0 3 0;
#X connect 3 0 5 0;
#X connect 4 0 0 0;
#X restore 109 164 pd range;
#X floatatom 189 166 5 0 0 0 - - - 0;
#X text 189 131 smoothing (ms), f 10;
#X obj 474 123 loadbang;
#X obj 28 206 eavi-rms;
#X msg 474 147 200;
#X floatatom 368 166 5 0 0 0 - - - 0;
#X text 368 132 amplification;
#X msg 543 148 10;
#X obj 28 409 outlet;
#X obj 109 409 outlet;
#X obj 28 136 bendin 2;
#X obj 109 136 bendin 3;
#X obj 314 61 inlet;
#X obj 369 61 inlet;
#X obj 369 109 + 1;
#X obj 369 85 * 20;
#X text 26 22 strangely \, EMG-1 comes out of Bendin 2...;
#X text 438 50 gain 1 and 2;
#X floatatom 314 167 5 0 0 0 - - - 0;
#X text 314 133 amplification;
#X obj 315 110 + 1;
#X obj 315 86 * 20;
#X connect 0 0 13 0;
#X connect 1 0 14 0;
#X connect 2 0 1 0;
#X connect 3 0 8 0;
#X connect 4 0 2 0;
#X connect 5 0 8 1;
#X connect 5 0 2 1;
#X connect 7 0 9 0;
#X connect 8 0 0 0;
#X connect 9 0 5 0;
#X connect 10 0 2 3;
#X connect 12 0 10 0;
#X connect 12 0 23 0;
#X connect 15 0 3 0;
#X connect 16 0 4 0;
#X connect 17 0 26 0;
#X connect 18 0 20 0;
#X connect 19 0 10 0;
#X connect 20 0 19 0;
#X connect 23 0 8 3;
#X connect 25 0 23 0;
#X connect 26 0 25 0;
#X coords 0 469 1 468 85 60 0;
#X restore 633 61 pd emg;
#X f 7;
#N canvas 9 113 1382 781 ble-midi 0;
#X msg 316 421 disconnect;
#X obj 288 450 netsend -u -b;
#X obj 303 371 loadbang;
#X text 389 451 send as UDP \, binary;
#X text 289 27 Spaces are delimiters instead of forward slash /;
#X msg 303 395 connect localhost 36892;
#X text 291 51 Set sets message \, then send data;
#X obj 29 403 select 1;
#X obj 29 427 t b b;
#X msg 61 454 set connect;
#X obj 289 126 select 1;
#X obj 289 150 t b b;
#X msg 321 177 set connect_alias;
#X obj 288 337 oscformat;
#X obj 29 508 list append 123456;
#X obj 491 130 select 1;
#X obj 491 181 bng 19 250 50 0 empty empty empty 0 -10 0 12 #fcfcfc #000000 #000000;
#X msg 523 181 set link_alsa;
#X obj 491 154 t b b;
#X msg 289 231 symbol EAVI;
#X msg 874 141 hw 1 0 0;
#X obj 874 111 select 1;
#X obj 874 169 s bela_setMidi;
#X msg 33 227 symbol E2:16:01:30:32:30;
#X msg 33 149 symbol E2:16:01:39:31:30;
#X msg 36 74 symbol E2:16:01:37:31:30;
#X text 38 44 EAVI 17 Viola;
#X text 35 120 EAVI 19 Bass clarinet;
#X text 36 198 EAVI 20 Piano;
#X obj 29 375 change;
#X obj 289 98 change;
#X obj 491 102 change;
#X obj 874 83 change;
#X msg 29 481 symbol E2:16:01:37:31:30;
#X obj 289 74 r button1;
#X obj 584 255 oscparse;
#X obj 584 221 netreceive -u -b 36893;
#X obj 584 356 print connect;
#X obj 661 383 print connect_alias;
#X obj 739 409 print link_alsa;
#X obj 584 291 route list;
#X obj 584 324 route connect connect_alias link_alsa wd_status wd_PANIC;
#X text 697 463 strip timestamp;
#X obj 895 360 bng 19 250 50 0 empty empty empty 0 -10 0 12 #fcfcfc #000000 #000000;
#X obj 817 443 unpack 0 0 0;
#X floatatom 817 467 5 0 0 0 - - - 0;
#X floatatom 858 467 5 0 0 0 - - - 0;
#X floatatom 898 468 5 0 0 0 - - - 0;
#X obj 858 515 bng 19 250 50 0 empty empty empty 0 -10 0 12 #fcfcfc #000000 #000000;
#X obj 895 515 bng 19 250 50 0 empty empty empty 0 -10 0 12 #fcfcfc #000000 #000000;
#X obj 895 544 f;
#X obj 895 592 bng 19 250 50 0 empty empty empty 0 -10 0 12 #fcfcfc #000000 #000000;
#X obj 928 593 bng 19 250 50 0 empty empty empty 0 -10 0 12 #fcfcfc #000000 #000000;
#X obj 858 490 select 16 0;
#X text 867 291 need data on PANIC;
#X obj 895 568 select 4 0;
#X msg 928 617 Connected...;
#X msg 895 641 Reconnecting;
#X msg 858 666 DISCONNECTED;
#X obj 638 670 tgl 19 0 empty empty empty 0 -10 0 12 #fcfcfc #000000 #000000 0 1;
#X obj 663 693 tgl 19 0 empty empty empty 0 -10 0 12 #fcfcfc #000000 #000000 0 1;
#X obj 663 669 metro 150;
#X obj 684 643 unpack;
#X msg 684 610 1 150;
#X msg 738 610 1 350;
#X msg 791 610 1 1000;
#X obj 663 716 outlet;
#X obj 789 359 print status;
#X text 575 104 watchdog takes care of this;
#X obj 800 62 loadbang;
#X obj 874 59 r button2;
#X text 30 270 EAVI 8 Piano;
#X msg 27 299 symbol E2:16:01:38:30:30;
#X obj 1021 717 print EAVI-BLE;
#X obj 1021 692 spigot;
#X obj 895 415 print PANIC;
#X obj 895 391 spigot;
#X obj 979 415 print other;
#X obj 979 387 spigot;
#X obj 1109 317 r verbose;
#X obj 1109 341 tgl 19 0 empty empty empty 0 -10 0 12 #fcfcfc #000000 #000000 0 1;
#X obj 248 521 print sendosc;
#X obj 248 493 spigot;
#X connect 0 0 1 0;
#X connect 2 0 5 0;
#X connect 5 0 1 0;
#X connect 5 0 82 0;
#X connect 7 0 8 0;
#X connect 8 0 33 0;
#X connect 8 1 9 0;
#X connect 10 0 11 0;
#X connect 11 0 19 0;
#X connect 11 1 12 0;
#X connect 12 0 13 0;
#X connect 13 0 1 0;
#X connect 13 0 82 0;
#X connect 15 0 18 0;
#X connect 16 0 13 0;
#X connect 17 0 13 0;
#X connect 18 0 16 0;
#X connect 18 1 17 0;
#X connect 19 0 13 0;
#X connect 20 0 22 0;
#X connect 21 0 20 0;
#X connect 29 0 7 0;
#X connect 30 0 10 0;
#X connect 31 0 15 0;
#X connect 32 0 21 0;
#X connect 33 0 14 0;
#X connect 34 0 30 0;
#X connect 35 0 40 0;
#X connect 36 0 35 0;
#X connect 40 0 41 0;
#X connect 41 0 37 0;
#X connect 41 1 38 0;
#X connect 41 2 39 0;
#X connect 41 3 44 0;
#X connect 41 4 43 0;
#X connect 41 5 78 0;
#X connect 43 0 76 0;
#X connect 44 0 45 0;
#X connect 44 1 46 0;
#X connect 44 2 47 0;
#X connect 46 0 53 0;
#X connect 47 0 50 1;
#X connect 48 0 58 0;
#X connect 48 0 63 0;
#X connect 49 0 50 0;
#X connect 50 0 55 0;
#X connect 51 0 57 0;
#X connect 51 0 64 0;
#X connect 52 0 56 0;
#X connect 52 0 65 0;
#X connect 53 0 48 0;
#X connect 53 1 49 0;
#X connect 55 0 51 0;
#X connect 55 1 52 0;
#X connect 56 0 74 0;
#X connect 57 0 74 0;
#X connect 58 0 74 0;
#X connect 59 0 61 0;
#X connect 60 0 66 0;
#X connect 61 0 60 0;
#X connect 62 0 59 0;
#X connect 62 1 61 1;
#X connect 63 0 62 0;
#X connect 64 0 62 0;
#X connect 65 0 62 0;
#X connect 69 0 20 0;
#X connect 70 0 32 0;
#X connect 74 0 73 0;
#X connect 76 0 75 0;
#X connect 78 0 77 0;
#X connect 79 0 80 0;
#X connect 80 0 78 1;
#X connect 80 0 76 1;
#X connect 80 0 74 1;
#X connect 80 0 82 1;
#X connect 82 0 81 0;
#X restore 432 56 pd ble-midi;
#X text 1079 61 knob 7 = dry level;
#X text 1079 83 knob 8 = wet level;
#X text 322 141 Verbose to console, f 10;
#X obj 300 151 tgl 19 0 empty empty empty 0 -10 0 12 #fcfcfc #000000 #000000 0 1;
#X obj 300 175 s verbose;
#X obj 742 567 hsl 128 15 -1 1 0 1 empty wetdry empty -2 -6 0 8 #000000 #fc9000 #000000 12700 0;
#X obj 742 586 hsl 128 15 -1 1 0 1 empty pan empty -2 -6 0 8 #fce014 #000000 #000000 6300 1;
#N canvas 1985 568 561 362 stereo-wetdry 0;
#X obj 105 215 stgain2~, f 10;
#N canvas 110 415 625 417 vu 0;
#X obj 59 129 env~ 1024;
#X obj 161 111 abs~;
#X obj 161 213 snapshot~;
#X obj 161 256 rmstodb;
#X obj 161 21 inlet~;
#X obj 161 288 - 100;
#X obj 59 287 - 100;
#X obj 59 361 outlet;
#X obj 161 361 outlet;
#X text 344 307 Check the help file of env~ and slop~ for more details., f 31;
#X obj 239 89 expr 1000 / $f1;
#X floatatom 239 117 5 0 0 0 - - - 0;
#X obj 161 146 slop~ 0 0 0 0 1e+09;
#X obj 239 18 inlet;
#X floatatom 239 57 5 0 0 0 - - - 0;
#X text 359 89 convert to hz;
#X text 282 118 hz;
#X text 284 57 peak decay time in ms;
#X obj 59 171 t f b;
#X text 345 132 The env~ object is dedicated to RMS analysis. Its output is in dB (0-100 range \, pd style) but needs to be converted to dBFS (and we do that by simply subtracting 100)., f 31;
#X text 345 225 The slop~ object is used here for peak detection. We need to convert the output to dB with rmstodb and also subtract by 100 to convert it to dBFS., f 31;
#X connect 0 0 18 0;
#X connect 1 0 12 0;
#X connect 2 0 3 0;
#X connect 3 0 5 0;
#X connect 4 0 0 0;
#X connect 4 0 1 0;
#X connect 5 0 8 0;
#X connect 6 0 7 0;
#X connect 10 0 11 0;
#X connect 11 0 12 3;
#X connect 12 0 2 0;
#X connect 13 0 14 0;
#X connect 14 0 10 0;
#X connect 18 0 6 0;
#X connect 18 1 2 0;
#X restore 105 287 pd vu;
#N canvas 110 415 625 417 vu 0;
#X obj 59 129 env~ 1024;
#X obj 161 111 abs~;
#X obj 161 213 snapshot~;
#X obj 161 256 rmstodb;
#X obj 161 21 inlet~;
#X obj 161 288 - 100;
#X obj 59 287 - 100;
#X obj 59 361 outlet;
#X obj 161 361 outlet;
#X text 344 307 Check the help file of env~ and slop~ for more details., f 31;
#X obj 239 89 expr 1000 / $f1;
#X floatatom 239 117 5 0 0 0 - - - 0;
#X obj 161 146 slop~ 0 0 0 0 1e+09;
#X obj 239 18 inlet;
#X floatatom 239 57 5 0 0 0 - - - 0;
#X text 359 89 convert to hz;
#X text 282 118 hz;
#X text 284 57 peak decay time in ms;
#X obj 59 171 t f b;
#X text 345 132 The env~ object is dedicated to RMS analysis. Its output is in dB (0-100 range \, pd style) but needs to be converted to dBFS (and we do that by simply subtracting 100)., f 31;
#X text 345 225 The slop~ object is used here for peak detection. We need to convert the output to dB with rmstodb and also subtract by 100 to convert it to dBFS., f 31;
#X connect 0 0 18 0;
#X connect 1 0 12 0;
#X connect 2 0 3 0;
#X connect 3 0 5 0;
#X connect 4 0 0 0;
#X connect 4 0 1 0;
#X connect 5 0 8 0;
#X connect 6 0 7 0;
#X connect 10 0 11 0;
#X connect 11 0 12 3;
#X connect 12 0 2 0;
#X connect 13 0 14 0;
#X connect 14 0 10 0;
#X connect 18 0 6 0;
#X connect 18 1 2 0;
#X restore 242 287 pd vu;
#X obj 105 154 stbal1~, f 20;
#X obj 105 240 st-panner~, f 20;
#X text 75 10 dry in;
#X obj 60 39 inlet~;
#X obj 109 39 inlet~;
#X obj 159 39 inlet~;
#X obj 208 39 inlet~;
#X text 173 10 wet in;
#X obj 261 114 hsl 128 15 -1 1 0 1 empty empty empty -2 -6 0 8 #000000 #fc9000 #000000 12700 0;
#X floatatom 258 135 5 0 0 0 - - - 0;
#X obj 258 39 inlet;
#X text 251 10 dry/wet;
#X obj 396 61 vsl 20 128 -99 18 0 1 \$0-gain empty gain -7 -18 0 14 #fca85c #000000 #000000 10700 1;
#X floatatom 397 197 5 0 0 1 _db - - 0;
#X obj 105 311 outlet;
#X obj 242 311 outlet;
#X obj 325 287 outlet~;
#X obj 462 287 outlet~;
#X obj 451 40 inlet;
#X obj 260 162 hsl 128 15 -1 1 0 1 empty empty empty -2 -6 0 8 #fce014 #000000 #000000 6300 1;
#X floatatom 257 182 5 0 0 0 - - - 0;
#X obj 315 39 inlet;
#X text 319 10 pan;
#X connect 0 0 4 0;
#X connect 0 1 4 1;
#X connect 1 0 17 0;
#X connect 2 0 18 0;
#X connect 3 0 0 0;
#X connect 3 1 0 1;
#X connect 4 0 1 0;
#X connect 4 0 19 0;
#X connect 4 1 2 0;
#X connect 4 1 20 0;
#X connect 6 0 3 0;
#X connect 7 0 3 1;
#X connect 8 0 3 2;
#X connect 9 0 3 3;
#X connect 11 0 12 0;
#X connect 12 0 3 4;
#X connect 13 0 11 0;
#X connect 15 0 16 0;
#X connect 16 0 0 2;
#X connect 21 0 15 0;
#X connect 22 0 23 0;
#X connect 23 0 4 2;
#X connect 24 0 22 0;
#X restore 610 648 pd stereo-wetdry;
#X f 28;
#X text 877 562 dry/wet;
#X text 881 583 pan;
#X obj 705 63 r cv2;
#X obj 712 85 r cv3;
#X obj 763 63 r cv4;
#X obj 770 85 r cv5;
#X obj 812 116 vsl 16 100 0 1 0 0 empty empty empty 0 -9 0 12 #ffc7c6 #000000 #000000 0 1;
#X obj 833 116 vsl 16 100 0 1 0 0 empty empty empty 0 -9 0 12 #ffc7c6 #000000 #000000 0 1;
#X obj 826 65 r cv6;
#X obj 833 87 r cv7;
#X connect 3 0 2 0;
#X connect 5 0 39 5;
#X connect 6 0 39 6;
#X connect 9 0 39 7;
#X connect 10 0 39 8;
#X connect 14 0 39 3;
#X connect 15 0 39 4;
#X connect 16 0 36 0;
#X connect 17 0 39 2;
#X connect 18 0 39 9;
#X connect 20 0 39 1;
#X connect 21 0 39 0;
#X connect 26 0 40 1;
#X connect 27 0 40 0;
#X connect 37 0 94 0;
#X connect 38 0 94 0;
#X connect 39 0 21 0;
#X connect 39 1 20 0;
#X connect 39 2 17 0;
#X connect 39 3 14 0;
#X connect 39 4 15 0;
#X connect 39 5 5 0;
#X connect 39 6 6 0;
#X connect 39 7 9 0;
#X connect 39 8 10 0;
#X connect 39 9 18 0;
#X connect 40 0 27 0;
#X connect 40 1 26 0;
#X connect 40 2 23 0;
#X connect 40 3 8 0;
#X connect 40 4 12 0;
#X connect 44 0 50 0;
#X connect 45 0 50 1;
#X connect 46 0 50 2;
#X connect 47 0 50 3;
#X connect 48 0 50 4;
#X connect 49 0 50 5;
#X connect 54 0 71 0;
#X connect 55 0 72 0;
#X connect 57 0 71 0;
#X connect 57 0 72 0;
#X connect 73 0 74 0;
#X connect 76 0 96 0;
#X connect 77 0 97 0;
#X connect 78 0 97 1;
#X connect 83 0 84 0;
#X connect 83 0 85 0;
#X connect 89 0 54 0;
#X connect 89 1 90 0;
#X connect 89 2 55 0;
#X connect 89 3 91 0;
#X connect 90 0 84 0;
#X connect 91 0 85 0;
#X connect 93 0 106 0;
#X connect 93 1 106 1;
#X connect 97 0 44 0;
#X connect 97 0 36 4;
#X connect 97 1 45 0;
#X connect 97 1 36 5;
#X connect 98 0 36 1;
#X connect 102 0 103 0;
#X connect 104 0 106 4;
#X connect 105 0 106 5;
#X connect 106 0 75 0;
#X connect 106 1 92 0;
#X connect 106 2 4 0;
#X connect 106 3 4 1;
#X connect 109 0 46 0;
#X connect 110 0 47 0;
#X connect 111 0 48 0;
#X connect 112 0 49 0;
#X connect 113 0 50 6;
#X connect 114 0 50 7;
#X connect 115 0 113 0;
#X connect 116 0 114 0;
#X coords 0 0 1 1 85 60 0;
