#N canvas 28 37 1224 882 12;
#X declare -path .;
#N canvas 0 37 588 274 LICENSE 0;
#X text 79 84 (c) 2008 Reality Jockey;
#X text 57 36 Released under the GNU General Public License ver. 3 or later. See the file LICENSE.txt for the full text.;
#X restore 58 27 pd LICENSE;
#X obj 35 75 declare -path .;
#N canvas 0 37 545 181 LOADBANGS 0;
#X obj 172 140 s gain;
#X msg 172 119 1;
#X msg 290 121 0;
#X obj 290 142 s mode;
#X text 322 116 start in Play mode;
#X text 322 127 not Freeze mode;
#X obj 154 14 loadbang;
#X obj 154 57 s loadbang;
#X obj 154 36 bng 15 250 50 0 empty empty empty 17 7 0 10 #fcfcfc #000000 #000000;
#X obj 290 100 r loadbang;
#X obj 172 98 r loadbang;
#X obj 108 13 inlet;
#X connect 1 0 0 0;
#X connect 2 0 3 0;
#X connect 6 0 8 0;
#X connect 8 0 7 0;
#X connect 9 0 2 0;
#X connect 10 0 1 0;
#X connect 11 0 8 0;
#X restore 36 51 pd LOADBANGS;
#X obj 36 31 bng 15 250 50 0 empty empty empty 17 7 0 10 #fcfcfc #000000 #000000;
#X obj 1135 632 dac~, f 6;
#X floatatom 845 86 5 10 2000 0 - - - 0;
#X floatatom 890 86 5 0 100 0 - - - 0;
#X text 890 50 var %, f 4;
#X floatatom 528 127 5 0 0 0 - - - 0;
#X floatatom 935 86 5 0 0 0 - - - 0;
#X floatatom 980 86 5 0 1000 0 - - - 0;
#X text 982 50 var %, f 4;
#X floatatom 578 127 5 0 0 0 - - - 0;
#X text 931 50 transp (cts), f 6;
#X floatatom 754 86 5 10 2000 0 - - - 0;
#X floatatom 799 86 5 0 2500 0 - - - 0;
#N canvas 0 22 450 300 (subpatch) 0;
#X array doublebuf1 220500 float 0;
#X coords 0 1 220499 -1 200 140 1 0 0;
#X restore 30 558 graph;
#X text 84 234 start first recording, f 12;
#X obj 27 294 adc~ 1;
#N canvas 41 387 1231 383 cv-map 0;
#X text 338 21 map Bela CV input to parameters;
#X obj 326 149 s density;
#X obj 422 149 s metro;
#X obj 722 126 map 0 100;
#X obj 920 126 map -1200 1200;
#X obj 891 263 map 1 2500;
#X obj 891 287 s pos;
#X obj 919 153 s transp;
#X obj 1108 126 map 0 100;
#X obj 1108 153 s transpvar;
#X obj 422 66 r cv1;
#X obj 722 66 r cv3;
#X obj 328 94 map 0 40;
#X obj 328 66 r cv0;
#N canvas 40 158 692 411 parameter-monitor 0;
#X text 90 10 monitor parameters in Bela IDE console;
#X obj 106 85 tgl 19 0 empty empty empty 0 -10 0 12 #fcfcfc #000000 #000000 0 1;
#X obj 106 134 t b b b b b, f 30;
#X obj 103 363 print;
#X obj 106 60 inlet;
#X obj 267 51 r density;
#X obj 339 51 r metro;
#X obj 402 52 r pos;
#X obj 455 52 r dur;
#X obj 502 52 r transp;
#X msg 230 336 dens-metro \$1 pos \$2 dur \$3 transp \$4 stretch \$5;
#X obj 106 261 pack 0 0 0 0 0 0 0 0, f 55;
#X obj 106 236 f;
#X obj 156 236 f;
#X obj 209 236 f;
#X obj 261 236 f;
#X obj 314 236 f;
#X obj 384 232 f;
#X obj 434 232 f;
#X obj 487 232 f;
#X obj 115 166 r cv0;
#X obj 106 108 metro 250;
#X obj 174 165 r cv1;
#X obj 227 165 r cv2;
#X obj 274 165 r cv3;
#X obj 343 167 r cv4;
#X obj 393 162 r cv5;
#X obj 452 161 r cv6;
#X obj 505 161 r cv7;
#X obj 432 128 r freeze;
#X obj 447 83 r durvar;
#X obj 571 54 r transpvar;
#X msg 237 294 cv0-dens \$1 cv1-metro \$2 cv2-dur \$3 cv3-durvar \$4 freeze \$5 cv5-transp \$6 cv6-transpvar \$7 cv7-pquant \$8;
#X obj 580 105 r pitchquant;
#X connect 1 0 21 0;
#X connect 2 0 12 0;
#X connect 2 1 13 0;
#X connect 2 2 14 0;
#X connect 2 3 15 0;
#X connect 2 4 16 0;
#X connect 2 4 17 0;
#X connect 2 4 19 0;
#X connect 2 4 18 0;
#X connect 4 0 1 0;
#X connect 5 0 12 1;
#X connect 6 0 13 1;
#X connect 8 0 14 1;
#X connect 9 0 17 1;
#X connect 11 0 32 0;
#X connect 11 0 10 0;
#X connect 12 0 11 0;
#X connect 13 0 11 1;
#X connect 14 0 11 2;
#X connect 15 0 11 3;
#X connect 16 0 11 4;
#X connect 17 0 11 5;
#X connect 18 0 11 6;
#X connect 19 0 11 7;
#X connect 21 0 2 0;
#X connect 29 0 16 1;
#X connect 30 0 15 1;
#X connect 31 0 18 1;
#X connect 32 0 3 0;
#X connect 33 0 19 1;
#X restore 115 153 pd parameter-monitor;
#X f 21;
#X obj 115 131 tgl 19 1 empty empty empty 0 -10 0 12 #fcfcfc #000000 #000000 0 1;
#X text 12 136 print to Bela console, f 12;
#X obj 114 217 outlet;
#X obj 116 15 inlet;
#X msg 114 189 set \$1;
#X obj 140 71 loadbang;
#X obj 323 281 select 1;
#X obj 323 257 r button1;
#X obj 323 305 tgl 19 0 empty empty empty 0 -10 0 12 #fcfcfc #000000 #000000 0 1;
#X obj 323 334 s freeze;
#X obj 422 94 route 0;
#X obj 983 259 hsl 162 19 0 127 0 0 empty empty empty -2 -10 0 12 #fcfcfc #000000 #000000 0 1;
#X obj 980 283 / 127;
#X floatatom 980 307 5 0 0 0 - - - 0;
#X obj 468 126 m_scale 0.001 1 1000 0 0.5;
#X floatatom 665 126 5 0 0 0 - - - 0;
#X obj 665 94 m_scale 0 1 10 2000 2;
#X obj 665 149 s dur;
#X obj 665 66 r cv2;
#X obj 722 149 s durvar;
#X obj 921 66 r cv5;
#X obj 875 66 r cv4;
#X obj 1062 66 r cv6;
#X obj 1108 66 r cv7;
#X obj 432 281 select 1;
#X obj 432 257 r button2;
#X obj 538 281 select 1;
#X obj 647 281 select 1;
#X obj 538 257 r button3;
#X obj 647 257 r button4;
#X msg 432 305 0;
#X msg 538 305 200;
#X msg 647 305 700;
#X obj 538 334 s pitchquant;
#X msg 140 95 0;
#X connect 3 0 34 0;
#X connect 4 0 7 0;
#X connect 5 0 6 0;
#X connect 8 0 9 0;
#X connect 10 0 25 0;
#X connect 11 0 3 0;
#X connect 12 0 1 0;
#X connect 13 0 12 0;
#X connect 15 0 14 0;
#X connect 15 0 19 0;
#X connect 18 0 15 0;
#X connect 19 0 17 0;
#X connect 20 0 49 0;
#X connect 21 0 23 0;
#X connect 22 0 21 0;
#X connect 23 0 24 0;
#X connect 25 0 2 0;
#X connect 25 1 29 0;
#X connect 26 0 27 0;
#X connect 27 0 28 0;
#X connect 29 0 2 0;
#X connect 30 0 32 0;
#X connect 31 0 30 0;
#X connect 33 0 31 0;
#X connect 35 0 4 0;
#X connect 38 0 8 0;
#X connect 39 0 45 0;
#X connect 40 0 39 0;
#X connect 41 0 46 0;
#X connect 42 0 47 0;
#X connect 43 0 41 0;
#X connect 44 0 42 0;
#X connect 45 0 48 0;
#X connect 46 0 48 0;
#X connect 47 0 48 0;
#X connect 49 0 15 0;
#X restore 209 149 pd cv-map;
#X text 124 555 | | | | | | | | | |, f 2;
#X obj 209 80 tgl 19 0 empty empty empty 0 -10 0 12 #fcfcfc #000000 #000000 0 1;
#X text 101 527 Buffer contains two copies of 2500ms, f 20;
#X obj 210 29 loadbang;
#X msg 209 58 1;
#X floatatom 709 86 5 0 0 0 - - - 0;
#X floatatom 1025 86 5 0 0 0 - - - 0;
#N canvas 45 436 455 198 triangle-window 0;
#X text 256 9 window shape;
#X obj 20 26 loadbang;
#X obj 20 85 soundfiler;
#N canvas 179 217 450 300 (subpatch) 0;
#X array wndw 512 float 0;
#X coords 0 1 511 -1 200 140 1 0 0;
#X restore 210 32 graph;
#X obj 21 122 s trisize;
#X msg 20 55 read -resize tri wndw;
#X connect 1 0 5 0;
#X connect 2 0 4 0;
#X connect 5 0 2 0;
#X restore 35 97 pd triangle-window;
#X floatatom 664 86 5 0 0 0 - - - 0;
#X obj 619 86 tgl 19 0 empty empty empty 17 7 0 10 #fcfcfc #000000 #000000 0 1;
#X text 657 50 time stretch, f 7;
#X floatatom 477 127 5 0 0 0 - - - 0;
#X text 600 50 play/ freeze, f 6;
#X text 233 80 Play patch manually;
#X floatatom 489 86 5 10 2000 0 - - - 0;
#X floatatom 450 86 3 0 0 0 - - - 0;
#N canvas 92 129 527 438 alternator 0;
#X obj 21 73 tgl 19 0 empty empty empty 0 -10 0 12 #fcfcfc #000000 #000000 0 1;
#X floatatom 88 75 10 0 0 0 - - - 0;
#X obj -6 315 bng 19 250 50 0 empty empty empty 0 -10 0 12 #fcfcfc #000000 #000000;
#X obj 27 315 bng 19 250 50 0 empty empty empty 0 -10 0 12 #fcfcfc #000000 #000000;
#X obj 21 49 loadbang;
#X text 219 247 5 sec buffer \, with two recordings starting half a buffer apart, f 33;
#X text 211 292 trigger rec - first half \, second half;
#X obj -6 352 outlet;
#X obj 45 352 outlet;
#X floatatom 22 218 5 0 0 0 - - - 0;
#X obj 21 145 i;
#X msg 43 121 0;
#X obj 21 169 + 1;
#X obj 22 241 select 6;
#X floatatom 221 27 5 0 0 0 - - - 0;
#X obj 21 194 t f f;
#X obj 22 271 select 1 2 3 4 5 6;
#X obj 90 48 expr 2500/$f1;
#X obj 21 121 bng 19 250 50 0 empty empty empty 0 -10 0 12 #fcfcfc #000000 #000000;
#X obj 52 316 bng 19 250 50 0 empty empty empty 0 -10 0 12 #fcfcfc #000000 #000000;
#X obj 85 316 bng 19 250 50 0 empty empty empty 0 -10 0 12 #fcfcfc #000000 #000000;
#X obj 115 315 bng 19 250 50 0 empty empty empty 0 -10 0 12 #fcfcfc #000000 #000000;
#X obj 148 315 bng 19 250 50 0 empty empty empty 0 -10 0 12 #fcfcfc #000000 #000000;
#X obj 21 97 metro 416;
#X obj 99 352 outlet;
#X obj 150 352 outlet;
#X obj 201 352 outlet;
#X obj 252 352 outlet;
#X connect 0 0 23 0;
#X connect 1 0 23 1;
#X connect 2 0 7 0;
#X connect 3 0 8 0;
#X connect 4 0 0 0;
#X connect 9 0 13 0;
#X connect 9 0 16 0;
#X connect 10 0 12 0;
#X connect 11 0 10 1;
#X connect 12 0 15 0;
#X connect 13 0 11 0;
#X connect 14 0 13 1;
#X connect 14 0 17 0;
#X connect 15 0 9 0;
#X connect 15 1 10 1;
#X connect 16 0 2 0;
#X connect 16 1 3 0;
#X connect 16 2 19 0;
#X connect 16 3 20 0;
#X connect 16 4 21 0;
#X connect 16 5 22 0;
#X connect 17 0 1 0;
#X connect 18 0 10 0;
#X connect 19 0 24 0;
#X connect 20 0 25 0;
#X connect 21 0 26 0;
#X connect 22 0 27 0;
#X connect 23 0 18 0;
#X restore 85 267 pd alternator;
#X text 185 231 start second recording half buffer in, f 20;
#X text 1020 50 pitchquant (cents), f 10;
#X text 792 50 posvar (ms), f 6;
#X text 714 50 var %, f 3;
#X text 846 36 gran dur (ms), f 4;
#X obj 209 127 tgl 19 0 empty empty empty 0 -10 0 12 #fcfcfc #000000 #000000 0 1;
#X text 147 128 Bela IDE monitor, f 8;
#X text 435 50 density (Hz), f 7;
#X text 486 50 metro (ms), f 5;
#X text 751 50 pos (ms), f 5;
#N canvas 63 100 909 484 presets 0;
#X msg 35 157 \; play-cloud 0 1000 1000 -400;
#X msg 35 205 \; play-cloud 0 1000 500 -400;
#X text 33 134 instance \, position (ms) \, grandur \, transp;
#X msg 128 34 \; density 0 \; metro 20 \; dur 80 \; transp 0 \; posvar 10 \;;
#X msg 35 35 \; density 0 \; metro 100 \; dur 200 \; transp 0 \; posvar 0 \;;
#X text 352 23 piano hits;
#X msg 378 156 \; density 0 \; metro 50 \; freeze 0 \; stretch 0.5 \; stretchvar 0 \; pos 0 \; posvar 0 \; dur 80 \; durvar 0 \; transp 0 \; transpvar 0 \; pitchquant 0 \;;
#X msg 501 153 \; density 40 \; metro 0 \; freeze 0 \; stretch 0.8 \; stretchvar 50 \; pos 0 \; posvar 4 \; dur 80 \; durvar 50 \; transp 10 \; transpvar 100 \; pitchquant 0 \;;
#X obj 378 98 select 1;
#X obj 378 74 r button1;
#X obj 503 71 r button2;
#X obj 503 95 select 1;
#X obj 643 96 select 1;
#X obj 768 93 select 1;
#X obj 643 72 r button3;
#X obj 768 69 r button4;
#X msg 643 154 \; density 10 \; metro 250 \; freeze 1 \; stretch 0 \; stretchvar 0 \; pos 1000 \; posvar 50 \; dur 250 \; durvar 30 \; transp 100 \; transpvar 50 \; pitchquant 0 \;;
#X msg 766 151 \; density 0 \; metro 100 \; freeze 0 \; stretch 0.8 \; stretchvar 50 \; pos 0 \; posvar 4 \; dur 280 \; durvar 50 \; transp 700 \; transpvar 50 \; pitchquant 200 \;;
#X connect 9 0 8 0;
#X connect 10 0 11 0;
#X connect 14 0 12 0;
#X connect 15 0 13 0;
#X restore 35 119 pd presets;
#X obj 209 104 bela-knobs-buttons-leds;
#N canvas 0 22 450 300 (subpatch) 0;
#X array doublebuf2 220500 float 0;
#X coords 0 1 220499 -1 200 140 1 0 0;
#X restore 29 725 graph;
#N canvas 0 22 450 300 (subpatch) 0;
#X array doublebuf3 220500 float 0;
#X coords 0 1 220499 -1 200 140 1 0 0;
#X restore 257 559 graph;
#X text 351 556 | | | | | | | | | |, f 2;
#N canvas 0 22 450 300 (subpatch) 0;
#X array doublebuf4 220500 float 0;
#X coords 0 1 220499 -1 200 140 1 0 0;
#X restore 256 726 graph;
#X obj 27 351 adc~ 2;
#X obj 27 324 tabwrite~ doublebuf1;
#X obj 173 324 tabwrite~ doublebuf1;
#X obj 27 378 tabwrite~ doublebuf2;
#X obj 173 378 tabwrite~ doublebuf2;
#X obj 27 405 adc~ 3;
#X obj 27 432 tabwrite~ doublebuf3;
#X obj 175 432 tabwrite~ doublebuf3;
#X obj 27 459 adc~ 4;
#X obj 175 486 tabwrite~ doublebuf4;
#X text 124 722 | | | | | | | | | |, f 2;
#X text 351 723 | | | | | | | | | |, f 2;
#X obj 562 589 cloud-chan doublebuf1;
#X floatatom 652 566 5 0 0 0 - - - 0;
#X obj 693 567 bng 19 250 50 0 empty empty empty 0 -10 0 12 #fcfcfc #000000 #000000;
#X obj 582 663 vsl 20 128 -99 18 0 1 \$0-gain empty gain -7 -18 0 14 #fca85c #000000 #000000 9600 1;
#X floatatom 582 799 5 0 0 1 _db - - 0;
#X obj 612 661 vu 19 200 empty empty -1 -10 0 12 #404040 #000000 1 0;
#X obj 665 661 vu 19 200 empty empty -1 -10 0 12 #404040 #000000 1 0;
#X obj 619 108 cloud-params doublebuf1, f 59;
#X obj 450 108 cloud-player doublebuf1;
#X text 567 142 transp (cts), f 6;
#X text 473 142 time stretch, f 7;
#X obj 27 486 tabwrite~ doublebuf3;
#X floatatom 859 565 5 0 0 0 - - - 0;
#X obj 900 566 bng 19 250 50 0 empty empty empty 0 -10 0 12 #fcfcfc #000000 #000000;
#X obj 767 662 vu 19 200 empty empty -1 -10 0 12 #404040 #000000 1 0;
#X obj 820 662 vu 19 200 empty empty -1 -10 0 12 #404040 #000000 1 0;
#X obj 769 588 cloud-chan doublebuf2;
#X floatatom 844 175 5 10 2000 0 - - - 0;
#X floatatom 889 175 5 0 100 0 - - - 0;
#X floatatom 527 216 5 0 0 0 - - - 0;
#X floatatom 934 175 5 0 0 0 - - - 0;
#X floatatom 979 175 5 0 1000 0 - - - 0;
#X floatatom 577 216 5 0 0 0 - - - 0;
#X floatatom 753 175 5 10 2000 0 - - - 0;
#X floatatom 798 175 5 0 2500 0 - - - 0;
#X floatatom 708 175 5 0 0 0 - - - 0;
#X floatatom 1024 175 5 0 0 0 - - - 0;
#X floatatom 663 175 5 0 0 0 - - - 0;
#X obj 618 175 tgl 19 0 empty empty empty 17 7 0 10 #fcfcfc #000000 #000000 0 1;
#X floatatom 476 216 5 0 0 0 - - - 0;
#X floatatom 488 175 5 10 2000 0 - - - 0;
#X floatatom 449 175 3 0 0 0 - - - 0;
#X obj 449 197 cloud-player doublebuf2;
#X obj 618 197 cloud-params doublebuf2, f 59;
#X floatatom 1067 556 5 0 0 0 - - - 0;
#X obj 1112 557 bng 19 250 50 0 empty empty empty 0 -10 0 12 #fcfcfc #000000 #000000;
#X obj 926 662 vu 19 200 empty empty -1 -10 0 12 #404040 #000000 1 0;
#X obj 979 662 vu 19 200 empty empty -1 -10 0 12 #404040 #000000 1 0;
#X obj 987 579 cloud-chan-stereo doublebuf3 doublebuf4, f 22;
#X floatatom 844 250 5 10 2000 0 - - - 0;
#X floatatom 889 250 5 0 100 0 - - - 0;
#X floatatom 527 291 5 0 0 0 - - - 0;
#X floatatom 934 250 5 0 0 0 - - - 0;
#X floatatom 979 250 5 0 1000 0 - - - 0;
#X floatatom 577 291 5 0 0 0 - - - 0;
#X floatatom 753 250 5 10 2000 0 - - - 0;
#X floatatom 798 250 5 0 2500 0 - - - 0;
#X floatatom 708 250 5 0 0 0 - - - 0;
#X floatatom 1024 250 5 0 0 0 - - - 0;
#X floatatom 663 250 5 0 0 0 - - - 0;
#X obj 618 250 tgl 19 0 empty empty empty 17 7 0 10 #fcfcfc #000000 #000000 0 1;
#X floatatom 476 291 5 0 0 0 - - - 0;
#X floatatom 488 250 5 10 2000 0 - - - 0;
#X floatatom 449 250 3 0 0 0 - - - 0;
#X text 527 142 gran dur, f 4;
#X obj 449 272 cloud-player doublebuf3;
#X obj 618 272 cloud-params doublebuf3, f 59;
#X obj 737 665 vsl 20 128 -99 18 0 1 \$0-gain empty gain -7 -18 0 14 #fca85c #000000 #000000 11100 1;
#X floatatom 737 801 5 0 0 1 _db - - 0;
#X obj 896 665 vsl 20 128 -99 18 0 1 \$0-gain empty gain -7 -18 0 14 #fca85c #000000 #000000 9900 1;
#X floatatom 896 801 5 0 0 1 _db - - 0;
#X obj 516 549 hsl 128 15 -1 1 0 1 empty empty empty -2 -6 0 8 #000000 #fc9000 #000000 8800 0;
#X obj 516 568 hsl 128 15 -1 1 0 1 empty empty empty -2 -6 0 8 #fce014 #000000 #000000 1700 1;
#X obj 513 589 adc~ 1;
#N canvas 76 279 561 362 stereo-wetdry 0;
#X obj 105 215 stgain2~, f 10;
#N canvas 110 415 625 417 vu 0;
#X obj 59 129 env~ 1024;
#X obj 161 111 abs~;
#X obj 161 213 snapshot~;
#X obj 161 256 rmstodb;
#X obj 161 21 inlet~;
#X obj 161 288 - 100;
#X obj 59 287 - 100;
#X obj 59 361 outlet;
#X obj 161 361 outlet;
#X text 344 307 Check the help file of env~ and slop~ for more details., f 31;
#X obj 239 89 expr 1000 / $f1;
#X floatatom 239 117 5 0 0 0 - - - 0;
#X obj 161 146 slop~ 0 0 0 0 1e+09;
#X obj 239 18 inlet;
#X floatatom 239 57 5 0 0 0 - - - 0;
#X text 359 89 convert to hz;
#X text 282 118 hz;
#X text 284 57 peak decay time in ms;
#X obj 59 171 t f b;
#X text 345 132 The env~ object is dedicated to RMS analysis. Its output is in dB (0-100 range \, pd style) but needs to be converted to dBFS (and we do that by simply subtracting 100)., f 31;
#X text 345 225 The slop~ object is used here for peak detection. We need to convert the output to dB with rmstodb and also subtract by 100 to convert it to dBFS., f 31;
#X connect 0 0 18 0;
#X connect 1 0 12 0;
#X connect 2 0 3 0;
#X connect 3 0 5 0;
#X connect 4 0 0 0;
#X connect 4 0 1 0;
#X connect 5 0 8 0;
#X connect 6 0 7 0;
#X connect 10 0 11 0;
#X connect 11 0 12 3;
#X connect 12 0 2 0;
#X connect 13 0 14 0;
#X connect 14 0 10 0;
#X connect 18 0 6 0;
#X connect 18 1 2 0;
#X restore 105 287 pd vu;
#N canvas 110 415 625 417 vu 0;
#X obj 59 129 env~ 1024;
#X obj 161 111 abs~;
#X obj 161 213 snapshot~;
#X obj 161 256 rmstodb;
#X obj 161 21 inlet~;
#X obj 161 288 - 100;
#X obj 59 287 - 100;
#X obj 59 361 outlet;
#X obj 161 361 outlet;
#X text 344 307 Check the help file of env~ and slop~ for more details., f 31;
#X obj 239 89 expr 1000 / $f1;
#X floatatom 239 117 5 0 0 0 - - - 0;
#X obj 161 146 slop~ 0 0 0 0 1e+09;
#X obj 239 18 inlet;
#X floatatom 239 57 5 0 0 0 - - - 0;
#X text 359 89 convert to hz;
#X text 282 118 hz;
#X text 284 57 peak decay time in ms;
#X obj 59 171 t f b;
#X text 345 132 The env~ object is dedicated to RMS analysis. Its output is in dB (0-100 range \, pd style) but needs to be converted to dBFS (and we do that by simply subtracting 100)., f 31;
#X text 345 225 The slop~ object is used here for peak detection. We need to convert the output to dB with rmstodb and also subtract by 100 to convert it to dBFS., f 31;
#X connect 0 0 18 0;
#X connect 1 0 12 0;
#X connect 2 0 3 0;
#X connect 3 0 5 0;
#X connect 4 0 0 0;
#X connect 4 0 1 0;
#X connect 5 0 8 0;
#X connect 6 0 7 0;
#X connect 10 0 11 0;
#X connect 11 0 12 3;
#X connect 12 0 2 0;
#X connect 13 0 14 0;
#X connect 14 0 10 0;
#X connect 18 0 6 0;
#X connect 18 1 2 0;
#X restore 242 287 pd vu;
#X obj 105 154 stbal1~, f 20;
#X obj 105 240 st-panner~, f 20;
#X text 75 10 dry in;
#X obj 60 39 inlet~;
#X obj 109 39 inlet~;
#X obj 159 39 inlet~;
#X obj 208 39 inlet~;
#X text 173 10 wet in;
#X obj 261 114 hsl 128 15 -1 1 0 1 empty empty empty -2 -6 0 8 #000000 #fc9000 #000000 8800 0;
#X floatatom 258 135 5 0 0 0 - - - 0;
#X obj 258 39 inlet;
#X text 250 10 dry/wet;
#X obj 396 61 vsl 20 128 -99 18 0 1 \$0-gain empty gain -7 -18 0 14 #fca85c #000000 #000000 9600 1;
#X floatatom 397 197 5 0 0 1 _db - - 0;
#X obj 105 311 outlet;
#X obj 242 311 outlet;
#X obj 325 287 outlet~;
#X obj 462 287 outlet~;
#X obj 451 40 inlet;
#X obj 260 162 hsl 128 15 -1 1 0 1 empty empty empty -2 -6 0 8 #fce014 #000000 #000000 1700 1;
#X floatatom 257 182 5 0 0 0 - - - 0;
#X obj 315 39 inlet;
#X text 318 10 pan;
#X connect 0 0 4 0;
#X connect 0 1 4 1;
#X connect 1 0 17 0;
#X connect 2 0 18 0;
#X connect 3 0 0 0;
#X connect 3 1 0 1;
#X connect 4 0 1 0;
#X connect 4 0 19 0;
#X connect 4 1 2 0;
#X connect 4 1 20 0;
#X connect 6 0 3 0;
#X connect 7 0 3 1;
#X connect 8 0 3 2;
#X connect 9 0 3 3;
#X connect 11 0 12 0;
#X connect 12 0 3 4;
#X connect 13 0 11 0;
#X connect 15 0 16 0;
#X connect 16 0 0 2;
#X connect 21 0 15 0;
#X connect 22 0 23 0;
#X connect 23 0 4 2;
#X connect 24 0 22 0;
#X restore 513 613 pd stereo-wetdry;
#X f 28;
#X obj 723 549 hsl 128 15 -1 1 0 1 empty empty empty -2 -6 0 8 #000000 #fc9000 #000000 9800 0;
#X obj 723 568 hsl 128 15 -1 1 0 1 empty empty empty -2 -6 0 8 #fce014 #000000 #000000 10800 1;
#N canvas 76 279 561 362 stereo-wetdry 0;
#X obj 105 215 stgain2~, f 10;
#N canvas 110 415 625 417 vu 0;
#X obj 59 129 env~ 1024;
#X obj 161 111 abs~;
#X obj 161 213 snapshot~;
#X obj 161 256 rmstodb;
#X obj 161 21 inlet~;
#X obj 161 288 - 100;
#X obj 59 287 - 100;
#X obj 59 361 outlet;
#X obj 161 361 outlet;
#X text 344 307 Check the help file of env~ and slop~ for more details., f 31;
#X obj 239 89 expr 1000 / $f1;
#X floatatom 239 117 5 0 0 0 - - - 0;
#X obj 161 146 slop~ 0 0 0 0 1e+09;
#X obj 239 18 inlet;
#X floatatom 239 57 5 0 0 0 - - - 0;
#X text 359 89 convert to hz;
#X text 282 118 hz;
#X text 284 57 peak decay time in ms;
#X obj 59 171 t f b;
#X text 345 132 The env~ object is dedicated to RMS analysis. Its output is in dB (0-100 range \, pd style) but needs to be converted to dBFS (and we do that by simply subtracting 100)., f 31;
#X text 345 225 The slop~ object is used here for peak detection. We need to convert the output to dB with rmstodb and also subtract by 100 to convert it to dBFS., f 31;
#X connect 0 0 18 0;
#X connect 1 0 12 0;
#X connect 2 0 3 0;
#X connect 3 0 5 0;
#X connect 4 0 0 0;
#X connect 4 0 1 0;
#X connect 5 0 8 0;
#X connect 6 0 7 0;
#X connect 10 0 11 0;
#X connect 11 0 12 3;
#X connect 12 0 2 0;
#X connect 13 0 14 0;
#X connect 14 0 10 0;
#X connect 18 0 6 0;
#X connect 18 1 2 0;
#X restore 105 287 pd vu;
#N canvas 110 415 625 417 vu 0;
#X obj 59 129 env~ 1024;
#X obj 161 111 abs~;
#X obj 161 213 snapshot~;
#X obj 161 256 rmstodb;
#X obj 161 21 inlet~;
#X obj 161 288 - 100;
#X obj 59 287 - 100;
#X obj 59 361 outlet;
#X obj 161 361 outlet;
#X text 344 307 Check the help file of env~ and slop~ for more details., f 31;
#X obj 239 89 expr 1000 / $f1;
#X floatatom 239 117 5 0 0 0 - - - 0;
#X obj 161 146 slop~ 0 0 0 0 1e+09;
#X obj 239 18 inlet;
#X floatatom 239 57 5 0 0 0 - - - 0;
#X text 359 89 convert to hz;
#X text 282 118 hz;
#X text 284 57 peak decay time in ms;
#X obj 59 171 t f b;
#X text 345 132 The env~ object is dedicated to RMS analysis. Its output is in dB (0-100 range \, pd style) but needs to be converted to dBFS (and we do that by simply subtracting 100)., f 31;
#X text 345 225 The slop~ object is used here for peak detection. We need to convert the output to dB with rmstodb and also subtract by 100 to convert it to dBFS., f 31;
#X connect 0 0 18 0;
#X connect 1 0 12 0;
#X connect 2 0 3 0;
#X connect 3 0 5 0;
#X connect 4 0 0 0;
#X connect 4 0 1 0;
#X connect 5 0 8 0;
#X connect 6 0 7 0;
#X connect 10 0 11 0;
#X connect 11 0 12 3;
#X connect 12 0 2 0;
#X connect 13 0 14 0;
#X connect 14 0 10 0;
#X connect 18 0 6 0;
#X connect 18 1 2 0;
#X restore 242 287 pd vu;
#X obj 105 154 stbal1~, f 20;
#X obj 105 240 st-panner~, f 20;
#X text 75 10 dry in;
#X obj 60 39 inlet~;
#X obj 109 39 inlet~;
#X obj 159 39 inlet~;
#X obj 208 39 inlet~;
#X text 173 10 wet in;
#X obj 261 114 hsl 128 15 -1 1 0 1 empty empty empty -2 -6 0 8 #000000 #fc9000 #000000 9800 0;
#X floatatom 258 135 5 0 0 0 - - - 0;
#X obj 258 39 inlet;
#X text 250 10 dry/wet;
#X obj 396 61 vsl 20 128 -99 18 0 1 \$0-gain empty gain -7 -18 0 14 #fca85c #000000 #000000 11100 1;
#X floatatom 397 197 5 0 0 1 _db - - 0;
#X obj 105 311 outlet;
#X obj 242 311 outlet;
#X obj 325 287 outlet~;
#X obj 462 287 outlet~;
#X obj 451 40 inlet;
#X obj 260 162 hsl 128 15 -1 1 0 1 empty empty empty -2 -6 0 8 #fce014 #000000 #000000 10800 1;
#X floatatom 257 182 5 0 0 0 - - - 0;
#X obj 315 39 inlet;
#X text 318 10 pan;
#X connect 0 0 4 0;
#X connect 0 1 4 1;
#X connect 1 0 17 0;
#X connect 2 0 18 0;
#X connect 3 0 0 0;
#X connect 3 1 0 1;
#X connect 4 0 1 0;
#X connect 4 0 19 0;
#X connect 4 1 2 0;
#X connect 4 1 20 0;
#X connect 6 0 3 0;
#X connect 7 0 3 1;
#X connect 8 0 3 2;
#X connect 9 0 3 3;
#X connect 11 0 12 0;
#X connect 12 0 3 4;
#X connect 13 0 11 0;
#X connect 15 0 16 0;
#X connect 16 0 0 2;
#X connect 21 0 15 0;
#X connect 22 0 23 0;
#X connect 23 0 4 2;
#X connect 24 0 22 0;
#X restore 720 613 pd stereo-wetdry;
#X f 28;
#X obj 720 589 adc~ 2;
#X obj 927 540 hsl 128 15 -1 1 0 1 empty empty empty -2 -6 0 8 #000000 #fc9000 #000000 8800 0;
#X obj 927 559 hsl 128 15 -1 1 0 1 empty empty empty -2 -6 0 8 #fce014 #000000 #000000 6200 1;
#N canvas 76 279 561 362 stereo-wetdry 0;
#X obj 105 215 stgain2~, f 10;
#N canvas 110 415 625 417 vu 0;
#X obj 59 129 env~ 1024;
#X obj 161 111 abs~;
#X obj 161 213 snapshot~;
#X obj 161 256 rmstodb;
#X obj 161 21 inlet~;
#X obj 161 288 - 100;
#X obj 59 287 - 100;
#X obj 59 361 outlet;
#X obj 161 361 outlet;
#X text 344 307 Check the help file of env~ and slop~ for more details., f 31;
#X obj 239 89 expr 1000 / $f1;
#X floatatom 239 117 5 0 0 0 - - - 0;
#X obj 161 146 slop~ 0 0 0 0 1e+09;
#X obj 239 18 inlet;
#X floatatom 239 57 5 0 0 0 - - - 0;
#X text 359 89 convert to hz;
#X text 282 118 hz;
#X text 284 57 peak decay time in ms;
#X obj 59 171 t f b;
#X text 345 132 The env~ object is dedicated to RMS analysis. Its output is in dB (0-100 range \, pd style) but needs to be converted to dBFS (and we do that by simply subtracting 100)., f 31;
#X text 345 225 The slop~ object is used here for peak detection. We need to convert the output to dB with rmstodb and also subtract by 100 to convert it to dBFS., f 31;
#X connect 0 0 18 0;
#X connect 1 0 12 0;
#X connect 2 0 3 0;
#X connect 3 0 5 0;
#X connect 4 0 0 0;
#X connect 4 0 1 0;
#X connect 5 0 8 0;
#X connect 6 0 7 0;
#X connect 10 0 11 0;
#X connect 11 0 12 3;
#X connect 12 0 2 0;
#X connect 13 0 14 0;
#X connect 14 0 10 0;
#X connect 18 0 6 0;
#X connect 18 1 2 0;
#X restore 105 287 pd vu;
#N canvas 110 415 625 417 vu 0;
#X obj 59 129 env~ 1024;
#X obj 161 111 abs~;
#X obj 161 213 snapshot~;
#X obj 161 256 rmstodb;
#X obj 161 21 inlet~;
#X obj 161 288 - 100;
#X obj 59 287 - 100;
#X obj 59 361 outlet;
#X obj 161 361 outlet;
#X text 344 307 Check the help file of env~ and slop~ for more details., f 31;
#X obj 239 89 expr 1000 / $f1;
#X floatatom 239 117 5 0 0 0 - - - 0;
#X obj 161 146 slop~ 0 0 0 0 1e+09;
#X obj 239 18 inlet;
#X floatatom 239 57 5 0 0 0 - - - 0;
#X text 359 89 convert to hz;
#X text 282 118 hz;
#X text 284 57 peak decay time in ms;
#X obj 59 171 t f b;
#X text 345 132 The env~ object is dedicated to RMS analysis. Its output is in dB (0-100 range \, pd style) but needs to be converted to dBFS (and we do that by simply subtracting 100)., f 31;
#X text 345 225 The slop~ object is used here for peak detection. We need to convert the output to dB with rmstodb and also subtract by 100 to convert it to dBFS., f 31;
#X connect 0 0 18 0;
#X connect 1 0 12 0;
#X connect 2 0 3 0;
#X connect 3 0 5 0;
#X connect 4 0 0 0;
#X connect 4 0 1 0;
#X connect 5 0 8 0;
#X connect 6 0 7 0;
#X connect 10 0 11 0;
#X connect 11 0 12 3;
#X connect 12 0 2 0;
#X connect 13 0 14 0;
#X connect 14 0 10 0;
#X connect 18 0 6 0;
#X connect 18 1 2 0;
#X restore 242 287 pd vu;
#X obj 105 154 stbal1~, f 20;
#X obj 105 240 st-panner~, f 20;
#X text 75 10 dry in;
#X obj 60 39 inlet~;
#X obj 109 39 inlet~;
#X obj 159 39 inlet~;
#X obj 208 39 inlet~;
#X text 173 10 wet in;
#X obj 261 114 hsl 128 15 -1 1 0 1 empty empty empty -2 -6 0 8 #000000 #fc9000 #000000 8800 0;
#X floatatom 258 135 5 0 0 0 - - - 0;
#X obj 258 39 inlet;
#X text 250 10 dry/wet;
#X obj 396 61 vsl 20 128 -99 18 0 1 \$0-gain empty gain -7 -18 0 14 #fca85c #000000 #000000 9900 1;
#X floatatom 397 197 5 0 0 1 _db - - 0;
#X obj 105 311 outlet;
#X obj 242 311 outlet;
#X obj 325 287 outlet~;
#X obj 462 287 outlet~;
#X obj 451 40 inlet;
#X obj 260 162 hsl 128 15 -1 1 0 1 empty empty empty -2 -6 0 8 #fce014 #000000 #000000 6200 1;
#X floatatom 257 182 5 0 0 0 - - - 0;
#X obj 315 39 inlet;
#X text 318 10 pan;
#X connect 0 0 4 0;
#X connect 0 1 4 1;
#X connect 1 0 17 0;
#X connect 2 0 18 0;
#X connect 3 0 0 0;
#X connect 3 1 0 1;
#X connect 4 0 1 0;
#X connect 4 0 19 0;
#X connect 4 1 2 0;
#X connect 4 1 20 0;
#X connect 6 0 3 0;
#X connect 7 0 3 1;
#X connect 8 0 3 2;
#X connect 9 0 3 3;
#X connect 11 0 12 0;
#X connect 12 0 3 4;
#X connect 13 0 11 0;
#X connect 15 0 16 0;
#X connect 16 0 0 2;
#X connect 21 0 15 0;
#X connect 22 0 23 0;
#X connect 23 0 4 2;
#X connect 24 0 22 0;
#X restore 925 613 pd stereo-wetdry;
#X f 28;
#X obj 924 580 adc~ 3 4;
#X obj 78 294 bng 19 250 50 0 empty empty empty 0 -10 0 12 #fcfcfc #000000 #000000;
#X obj 99 294 bng 19 250 50 0 empty empty empty 0 -10 0 12 #fcfcfc #000000 #000000;
#X obj 120 294 bng 19 250 50 0 empty empty empty 0 -10 0 12 #fcfcfc #000000 #000000;
#X obj 141 294 bng 19 250 50 0 empty empty empty 0 -10 0 12 #fcfcfc #000000 #000000;
#X obj 163 294 bng 19 250 50 0 empty empty empty 0 -10 0 12 #fcfcfc #000000 #000000;
#X obj 184 294 bng 19 250 50 0 empty empty empty 0 -10 0 12 #fcfcfc #000000 #000000;
#N canvas 81 402 867 342 emg 0;
#X obj 28 112 vsl 19 162 0 1 0 0 empty empty empty 0 -9 0 12 #fcfcfc #000000 #000000 0 1;
#X obj 109 112 vsl 19 162 0 1 0 0 empty empty empty 0 -9 0 12 #fcfcfc #000000 #000000 0 1;
#X obj 109 79 eavi-rms;
#N canvas 333 268 250 226 range 0;
#X floatatom 37 78 5 0 0 0 - - - 0;
#X obj 37 101 - 8192;
#X obj 37 125 / 8192;
#X floatatom 37 149 5 0 0 0 - - - 0;
#X obj 37 45 inlet;
#X obj 37 180 outlet;
#X text 98 94 14 bit value converted to -1 to 1, f 14;
#X connect 0 0 1 0;
#X connect 1 0 2 0;
#X connect 2 0 3 0;
#X connect 3 0 5 0;
#X connect 4 0 0 0;
#X restore 28 49 pd range;
#N canvas 333 268 250 226 range 0;
#X floatatom 37 78 5 0 0 0 - - - 0;
#X obj 37 101 - 8192;
#X obj 37 125 / 8192;
#X floatatom 37 149 5 0 0 0 - - - 0;
#X obj 37 45 inlet;
#X obj 37 180 outlet;
#X text 98 94 14 bit value converted to -1 to 1, f 14;
#X connect 0 0 1 0;
#X connect 1 0 2 0;
#X connect 2 0 3 0;
#X connect 3 0 5 0;
#X connect 4 0 0 0;
#X restore 109 49 pd range;
#X floatatom 682 61 5 0 0 0 - - - 0;
#X text 682 26 smoothing (ms), f 10;
#X obj 870 18 loadbang;
#X obj 28 79 eavi-rms;
#X msg 870 42 200;
#X floatatom 764 61 5 0 0 0 - - - 0;
#X text 764 27 amplification;
#X msg 904 42 10;
#X obj 28 282 outlet;
#X obj 109 282 outlet;
#X obj 28 21 bendin 2;
#X obj 109 21 bendin 3;
#X obj 258 112 vsl 19 162 0 1 0 0 empty empty empty 0 -9 0 12 #fcfcfc #000000 #000000 0 1;
#X obj 339 112 vsl 19 162 0 1 0 0 empty empty empty 0 -9 0 12 #fcfcfc #000000 #000000 0 1;
#X obj 339 79 eavi-rms;
#N canvas 333 268 250 226 range 0;
#X floatatom 37 78 5 0 0 0 - - - 0;
#X obj 37 101 - 8192;
#X obj 37 125 / 8192;
#X floatatom 37 149 5 0 0 0 - - - 0;
#X obj 37 45 inlet;
#X obj 37 180 outlet;
#X text 98 94 14 bit value converted to -1 to 1, f 14;
#X connect 0 0 1 0;
#X connect 1 0 2 0;
#X connect 2 0 3 0;
#X connect 3 0 5 0;
#X connect 4 0 0 0;
#X restore 258 49 pd range;
#N canvas 333 268 250 226 range 0;
#X floatatom 37 78 5 0 0 0 - - - 0;
#X obj 37 101 - 8192;
#X obj 37 125 / 8192;
#X floatatom 37 149 5 0 0 0 - - - 0;
#X obj 37 45 inlet;
#X obj 37 180 outlet;
#X text 98 94 14 bit value converted to -1 to 1, f 14;
#X connect 0 0 1 0;
#X connect 1 0 2 0;
#X connect 2 0 3 0;
#X connect 3 0 5 0;
#X connect 4 0 0 0;
#X restore 339 49 pd range;
#X obj 258 79 eavi-rms;
#X obj 258 282 outlet;
#X obj 339 282 outlet;
#X obj 258 21 bendin 18;
#X obj 339 21 bendin 19;
#X obj 472 112 vsl 19 162 0 1 0 0 empty empty empty 0 -9 0 12 #fcfcfc #000000 #000000 0 1;
#X obj 553 112 vsl 19 162 0 1 0 0 empty empty empty 0 -9 0 12 #fcfcfc #000000 #000000 0 1;
#X obj 553 79 eavi-rms;
#N canvas 333 268 250 226 range 0;
#X floatatom 37 78 5 0 0 0 - - - 0;
#X obj 37 101 - 8192;
#X obj 37 125 / 8192;
#X floatatom 37 149 5 0 0 0 - - - 0;
#X obj 37 45 inlet;
#X obj 37 180 outlet;
#X text 98 94 14 bit value converted to -1 to 1, f 14;
#X connect 0 0 1 0;
#X connect 1 0 2 0;
#X connect 2 0 3 0;
#X connect 3 0 5 0;
#X connect 4 0 0 0;
#X restore 472 49 pd range;
#N canvas 333 268 250 226 range 0;
#X floatatom 37 78 5 0 0 0 - - - 0;
#X obj 37 101 - 8192;
#X obj 37 125 / 8192;
#X floatatom 37 149 5 0 0 0 - - - 0;
#X obj 37 45 inlet;
#X obj 37 180 outlet;
#X text 98 94 14 bit value converted to -1 to 1, f 14;
#X connect 0 0 1 0;
#X connect 1 0 2 0;
#X connect 2 0 3 0;
#X connect 3 0 5 0;
#X connect 4 0 0 0;
#X restore 553 49 pd range;
#X obj 472 79 eavi-rms;
#X obj 472 282 outlet;
#X obj 553 282 outlet;
#X obj 472 21 bendin 34;
#X obj 553 21 bendin 35;
#X connect 0 0 13 0;
#X connect 1 0 14 0;
#X connect 2 0 1 0;
#X connect 3 0 8 0;
#X connect 4 0 2 0;
#X connect 5 0 8 1;
#X connect 5 0 2 1;
#X connect 5 0 22 1;
#X connect 5 0 19 1;
#X connect 5 0 32 1;
#X connect 5 0 29 1;
#X connect 7 0 9 0;
#X connect 8 0 0 0;
#X connect 9 0 5 0;
#X connect 10 0 8 3;
#X connect 10 0 2 3;
#X connect 10 0 22 3;
#X connect 10 0 19 3;
#X connect 10 0 32 3;
#X connect 10 0 29 3;
#X connect 12 0 10 0;
#X connect 15 0 3 0;
#X connect 16 0 4 0;
#X connect 17 0 23 0;
#X connect 18 0 24 0;
#X connect 19 0 18 0;
#X connect 20 0 22 0;
#X connect 21 0 19 0;
#X connect 22 0 17 0;
#X connect 25 0 20 0;
#X connect 26 0 21 0;
#X connect 27 0 33 0;
#X connect 28 0 34 0;
#X connect 29 0 28 0;
#X connect 30 0 32 0;
#X connect 31 0 29 0;
#X connect 32 0 27 0;
#X connect 35 0 30 0;
#X connect 36 0 31 0;
#X coords 0 342 1 341 85 60 0;
#X restore 514 358 pd emg;
#X f 20;
#X obj 514 389 vsl 16 100 0 1 0 0 empty empty empty 0 -9 0 12 #01e4e9 #000000 #000000 0 1;
#X obj 535 389 vsl 16 100 0 1 0 0 empty empty empty 0 -9 0 12 #01e4e9 #000000 #000000 0 1;
#X obj 572 389 vsl 16 100 0 1 0 0 empty empty empty 0 -9 0 12 #faff00 #000000 #000000 0 1;
#X obj 593 389 vsl 16 100 0 1 0 0 empty empty empty 0 -9 0 12 #faff00 #000000 #000000 0 1;
#X obj 630 388 vsl 16 100 0 1 0 0 empty empty empty 0 -9 0 12 #e3c6ff #000000 #000000 0 1;
#X obj 651 388 vsl 16 100 0 1 0 0 empty empty empty 0 -9 0 12 #e3c6ff #000000 #000000 0 1;
#N canvas 12 252 1447 314 mapper 0;
#X obj 20 24 inlet;
#X floatatom 20 48 5 0 0 0 - - - 0;
#X obj 37 116 m_scale 0 1 0 100;
#X floatatom 37 140 5 0 0 0 - - - 0;
#X floatatom 76 93 5 0 0 0 - - - 0;
#X floatatom 115 93 5 0 0 0 - - - 0;
#X floatatom 154 93 5 0 0 0 - - - 0;
#X obj 37 258 send;
#X msg 72 204 symbol doublebuf1-stretch;
#X symbolatom 62 232 25 0 0 0 - - - 0;
#X obj 63 48 route send min max curve;
#X obj 63 24 r map1;
#X obj 249 24 inlet;
#X floatatom 249 48 5 0 0 0 - - - 0;
#X obj 266 116 m_scale 0 1 0 100;
#X floatatom 266 140 5 0 0 0 - - - 0;
#X floatatom 305 93 5 0 0 0 - - - 0;
#X floatatom 344 93 5 0 0 0 - - - 0;
#X floatatom 383 93 5 0 0 0 - - - 0;
#X obj 266 258 send;
#X symbolatom 291 232 25 0 0 0 - - - 0;
#X obj 292 48 route send min max curve;
#X obj 292 24 r map2;
#X msg 301 204 symbol doublebuf1-dur;
#X obj 505 20 inlet;
#X floatatom 505 44 5 0 0 0 - - - 0;
#X obj 522 112 m_scale 0 1 0 100;
#X floatatom 522 136 5 0 0 0 - - - 0;
#X floatatom 561 89 5 0 0 0 - - - 0;
#X floatatom 600 89 5 0 0 0 - - - 0;
#X floatatom 639 89 5 0 0 0 - - - 0;
#X obj 522 254 send;
#X symbolatom 547 228 25 0 0 0 - - - 0;
#X obj 548 44 route send min max curve;
#X obj 734 20 inlet;
#X floatatom 734 44 5 0 0 0 - - - 0;
#X obj 751 112 m_scale 0 1 0 100;
#X floatatom 751 136 5 0 0 0 - - - 0;
#X floatatom 790 89 5 0 0 0 - - - 0;
#X floatatom 829 89 5 0 0 0 - - - 0;
#X floatatom 868 89 5 0 0 0 - - - 0;
#X obj 751 254 send;
#X symbolatom 776 228 25 0 0 0 - - - 0;
#X obj 777 44 route send min max curve;
#X obj 981 20 inlet;
#X floatatom 981 44 5 0 0 0 - - - 0;
#X obj 998 112 m_scale 0 1 0 100;
#X floatatom 998 136 5 0 0 0 - - - 0;
#X floatatom 1037 89 5 0 0 0 - - - 0;
#X floatatom 1076 89 5 0 0 0 - - - 0;
#X floatatom 1115 89 5 0 0 0 - - - 0;
#X obj 998 254 send;
#X symbolatom 1023 228 25 0 0 0 - - - 0;
#X obj 1024 44 route send min max curve;
#X obj 1210 20 inlet;
#X floatatom 1210 44 5 0 0 0 - - - 0;
#X obj 1227 112 m_scale 0 1 0 100;
#X floatatom 1227 136 5 0 0 0 - - - 0;
#X floatatom 1266 89 5 0 0 0 - - - 0;
#X floatatom 1305 89 5 0 0 0 - - - 0;
#X floatatom 1344 89 5 0 0 0 - - - 0;
#X obj 1227 254 send;
#X symbolatom 1252 228 25 0 0 0 - - - 0;
#X obj 1253 44 route send min max curve;
#X obj 548 20 r map3;
#X obj 777 20 r map4;
#X obj 1024 20 r map5;
#X obj 1253 20 r map6;
#X msg 557 200 symbol doublebuf2-stretch;
#X msg 786 200 symbol doublebuf2-dur;
#X msg 1033 200 symbol doublebuf3-stretch;
#X msg 1262 200 symbol doublebuf3-dur;
#X msg 79 281 \; map1 send symbol doublebuf1-dur \; map1 min 0 \; map1 max 100 \; map1 curve 2 \;, f 33;
#X connect 0 0 1 0;
#X connect 1 0 2 0;
#X connect 2 0 3 0;
#X connect 3 0 7 0;
#X connect 4 0 2 3;
#X connect 5 0 2 4;
#X connect 6 0 2 5;
#X connect 8 0 9 0;
#X connect 9 0 7 1;
#X connect 10 0 9 0;
#X connect 10 1 4 0;
#X connect 10 2 5 0;
#X connect 10 3 6 0;
#X connect 11 0 10 0;
#X connect 12 0 13 0;
#X connect 13 0 14 0;
#X connect 14 0 15 0;
#X connect 15 0 19 0;
#X connect 16 0 14 3;
#X connect 17 0 14 4;
#X connect 18 0 14 5;
#X connect 20 0 19 1;
#X connect 21 0 20 0;
#X connect 21 1 16 0;
#X connect 21 2 17 0;
#X connect 21 3 18 0;
#X connect 22 0 21 0;
#X connect 23 0 20 0;
#X connect 24 0 25 0;
#X connect 25 0 26 0;
#X connect 26 0 27 0;
#X connect 27 0 31 0;
#X connect 28 0 26 3;
#X connect 29 0 26 4;
#X connect 30 0 26 5;
#X connect 32 0 31 1;
#X connect 33 0 32 0;
#X connect 33 1 28 0;
#X connect 33 2 29 0;
#X connect 33 3 30 0;
#X connect 34 0 35 0;
#X connect 35 0 36 0;
#X connect 36 0 37 0;
#X connect 37 0 41 0;
#X connect 38 0 36 3;
#X connect 39 0 36 4;
#X connect 40 0 36 5;
#X connect 42 0 41 1;
#X connect 43 0 42 0;
#X connect 43 1 38 0;
#X connect 43 2 39 0;
#X connect 43 3 40 0;
#X connect 44 0 45 0;
#X connect 45 0 46 0;
#X connect 46 0 47 0;
#X connect 47 0 51 0;
#X connect 48 0 46 3;
#X connect 49 0 46 4;
#X connect 50 0 46 5;
#X connect 52 0 51 1;
#X connect 53 0 52 0;
#X connect 53 1 48 0;
#X connect 53 2 49 0;
#X connect 53 3 50 0;
#X connect 54 0 55 0;
#X connect 55 0 56 0;
#X connect 56 0 57 0;
#X connect 57 0 61 0;
#X connect 58 0 56 3;
#X connect 59 0 56 4;
#X connect 60 0 56 5;
#X connect 62 0 61 1;
#X connect 63 0 62 0;
#X connect 63 1 58 0;
#X connect 63 2 59 0;
#X connect 63 3 60 0;
#X connect 64 0 33 0;
#X connect 65 0 43 0;
#X connect 66 0 53 0;
#X connect 67 0 63 0;
#X connect 68 0 32 0;
#X connect 69 0 42 0;
#X connect 70 0 52 0;
#X connect 71 0 62 0;
#X restore 514 502 pd mapper;
#X f 20;
#X msg 706 329 \; doublebuf1-density 3 \; doublebuf1-metro 500 \; doublebuf1-freeze 0 \; doublebuf1-stretch 1 \; doublebuf1-stretchvar 25 \; doublebuf1-pos 0 \; doublebuf1-posvar 50 \; doublebuf1-dur 1000 \; doublebuf1-durvar 20 \; doublebuf1-transp 0 \; doublebuf1-transpvar 0 \; doublebuf1-pitchquant 0 \;;
#X msg 909 438 \; map1 send symbol doublebuf1-dur \; map1 min 0 \; map1 max 100 \; map1 curve 2 \;, f 33;
#X text 909 361 Examples of messages in Composition patch, f 29;
#X connect 3 0 2 0;
#X connect 5 0 72 5;
#X connect 6 0 72 6;
#X connect 9 0 72 7;
#X connect 10 0 72 8;
#X connect 14 0 72 3;
#X connect 15 0 72 4;
#X connect 18 0 54 0;
#X connect 18 0 55 0;
#X connect 19 0 42 0;
#X connect 21 0 48 0;
#X connect 23 0 24 0;
#X connect 24 0 21 0;
#X connect 25 0 72 2;
#X connect 26 0 72 9;
#X connect 28 0 72 1;
#X connect 29 0 72 0;
#X connect 34 0 73 1;
#X connect 35 0 73 0;
#X connect 36 0 138 0;
#X connect 36 1 139 0;
#X connect 36 2 140 0;
#X connect 36 3 141 0;
#X connect 36 4 142 0;
#X connect 36 5 143 0;
#X connect 42 0 19 0;
#X connect 53 0 56 0;
#X connect 53 0 57 0;
#X connect 58 0 59 0;
#X connect 58 0 60 0;
#X connect 61 0 62 0;
#X connect 61 0 76 0;
#X connect 65 0 129 2;
#X connect 65 1 129 3;
#X connect 66 0 65 0;
#X connect 67 0 65 0;
#X connect 68 0 69 0;
#X connect 69 0 129 6;
#X connect 72 0 29 0;
#X connect 72 1 28 0;
#X connect 72 2 25 0;
#X connect 72 3 14 0;
#X connect 72 4 15 0;
#X connect 72 5 5 0;
#X connect 72 6 6 0;
#X connect 72 7 9 0;
#X connect 72 8 10 0;
#X connect 72 9 26 0;
#X connect 73 0 35 0;
#X connect 73 1 34 0;
#X connect 73 2 31 0;
#X connect 73 3 8 0;
#X connect 73 4 12 0;
#X connect 77 0 81 0;
#X connect 78 0 81 0;
#X connect 81 0 132 2;
#X connect 81 1 132 3;
#X connect 82 0 98 5;
#X connect 83 0 98 6;
#X connect 85 0 98 7;
#X connect 86 0 98 8;
#X connect 88 0 98 3;
#X connect 89 0 98 4;
#X connect 90 0 98 2;
#X connect 91 0 98 9;
#X connect 92 0 98 1;
#X connect 93 0 98 0;
#X connect 95 0 97 1;
#X connect 96 0 97 0;
#X connect 97 0 96 0;
#X connect 97 1 95 0;
#X connect 97 2 94 0;
#X connect 97 3 84 0;
#X connect 97 4 87 0;
#X connect 98 0 93 0;
#X connect 98 1 92 0;
#X connect 98 2 90 0;
#X connect 98 3 88 0;
#X connect 98 4 89 0;
#X connect 98 5 82 0;
#X connect 98 6 83 0;
#X connect 98 7 85 0;
#X connect 98 8 86 0;
#X connect 98 9 91 0;
#X connect 99 0 103 0;
#X connect 100 0 103 0;
#X connect 103 0 136 2;
#X connect 103 1 136 3;
#X connect 104 0 121 5;
#X connect 105 0 121 6;
#X connect 107 0 121 7;
#X connect 108 0 121 8;
#X connect 110 0 121 3;
#X connect 111 0 121 4;
#X connect 112 0 121 2;
#X connect 113 0 121 9;
#X connect 114 0 121 1;
#X connect 115 0 121 0;
#X connect 117 0 120 1;
#X connect 118 0 120 0;
#X connect 120 0 118 0;
#X connect 120 1 117 0;
#X connect 120 2 116 0;
#X connect 120 3 106 0;
#X connect 120 4 109 0;
#X connect 121 0 115 0;
#X connect 121 1 114 0;
#X connect 121 2 112 0;
#X connect 121 3 110 0;
#X connect 121 4 111 0;
#X connect 121 5 104 0;
#X connect 121 6 105 0;
#X connect 121 7 107 0;
#X connect 121 8 108 0;
#X connect 121 9 113 0;
#X connect 122 0 123 0;
#X connect 123 0 132 6;
#X connect 124 0 125 0;
#X connect 125 0 136 6;
#X connect 126 0 129 4;
#X connect 127 0 129 5;
#X connect 128 0 129 1;
#X connect 128 0 129 0;
#X connect 129 0 70 0;
#X connect 129 1 71 0;
#X connect 129 2 4 0;
#X connect 129 3 4 1;
#X connect 130 0 132 4;
#X connect 131 0 132 5;
#X connect 132 0 79 0;
#X connect 132 1 80 0;
#X connect 132 2 4 0;
#X connect 132 3 4 1;
#X connect 133 0 132 1;
#X connect 133 0 132 0;
#X connect 134 0 136 4;
#X connect 135 0 136 5;
#X connect 136 0 101 0;
#X connect 136 1 102 0;
#X connect 136 2 4 0;
#X connect 136 3 4 1;
#X connect 137 0 136 0;
#X connect 137 1 136 1;
#X connect 138 0 54 0;
#X connect 139 0 56 0;
#X connect 140 0 59 0;
#X connect 140 0 76 0;
#X connect 141 0 55 0;
#X connect 142 0 57 0;
#X connect 143 0 60 0;
#X connect 143 0 62 0;
#X connect 144 0 145 0;
#X connect 144 1 146 0;
#X connect 144 2 147 0;
#X connect 144 3 148 0;
#X connect 144 4 149 0;
#X connect 144 5 150 0;
#X connect 145 0 151 0;
#X connect 146 0 151 1;
#X connect 147 0 151 2;
#X connect 148 0 151 3;
#X connect 149 0 151 4;
#X connect 150 0 151 5;
