#N canvas 63 365 1405 984 12;
#X declare -path .;
#N canvas 0 37 588 274 LICENSE 0;
#X text 79 84 (c) 2008 Reality Jockey;
#X text 57 36 Released under the GNU General Public License ver. 3 or later. See the file LICENSE.txt for the full text.;
#X restore 58 27 pd LICENSE;
#X obj 35 75 declare -path .;
#N canvas 0 37 545 181 LOADBANGS 0;
#X obj 172 140 s gain;
#X msg 172 119 1;
#X msg 290 121 0;
#X obj 290 142 s mode;
#X text 322 116 start in Play mode;
#X text 322 127 not Freeze mode;
#X obj 154 14 loadbang;
#X obj 154 57 s loadbang;
#X obj 154 36 bng 15 250 50 0 empty empty empty 17 7 0 10 #fcfcfc #000000 #000000;
#X obj 290 100 r loadbang;
#X obj 172 98 r loadbang;
#X obj 108 13 inlet;
#X connect 1 0 0 0;
#X connect 2 0 3 0;
#X connect 6 0 8 0;
#X connect 8 0 7 0;
#X connect 9 0 2 0;
#X connect 10 0 1 0;
#X connect 11 0 8 0;
#X restore 36 51 pd LOADBANGS;
#X obj 36 31 bng 15 250 50 0 empty empty empty 17 7 0 10 #fcfcfc #000000 #000000;
#X obj 603 617 dac~, f 6;
#X floatatom 845 86 5 10 2000 0 - - - 0;
#X floatatom 890 86 5 0 100 0 - - - 0;
#X text 890 50 var %, f 4;
#X floatatom 528 127 5 0 0 0 - - - 0;
#X floatatom 935 86 5 0 0 0 - - - 0;
#X floatatom 980 86 5 0 1000 0 - - - 0;
#X text 982 50 var %, f 4;
#X floatatom 578 127 5 0 0 0 - - - 0;
#X text 931 50 transp (cts), f 6;
#X floatatom 754 86 5 10 2000 0 - - - 0;
#X floatatom 799 86 5 0 2500 0 - - - 0;
#X obj 209 80 tgl 19 0 empty empty empty 0 -10 0 12 #fcfcfc #000000 #000000 0 1;
#X obj 208 9 loadbang;
#X msg 208 38 1;
#X floatatom 709 86 5 0 0 0 - - - 0;
#X floatatom 1025 86 5 0 0 0 - - - 0;
#N canvas 45 436 455 198 triangle-window 0;
#X text 256 9 window shape;
#X obj 20 26 loadbang;
#X obj 20 85 soundfiler;
#N canvas 179 217 450 300 (subpatch) 0;
#X array wndw 512 float 0;
#X coords 0 1 511 -1 200 140 1 0 0;
#X restore 210 32 graph;
#X obj 21 122 s trisize;
#X msg 20 55 read -resize tri wndw;
#X connect 1 0 5 0;
#X connect 2 0 4 0;
#X connect 5 0 2 0;
#X restore 35 97 pd triangle-window;
#X floatatom 664 86 5 0 0 0 - - - 0;
#X obj 619 86 tgl 19 0 empty empty empty 17 7 0 10 #fcfcfc #000000 #000000 0 1;
#X text 657 50 time stretch, f 7;
#X floatatom 477 127 5 0 0 0 - - - 0;
#X text 600 50 play/ freeze, f 6;
#X text 233 80 Play patch manually;
#X floatatom 489 86 5 10 2000 0 - - - 0;
#X floatatom 450 86 3 0 0 0 - - - 0;
#X text 1020 50 pitchquant (cents), f 10;
#X text 792 50 posvar (ms), f 6;
#X text 714 50 var %, f 3;
#X text 846 36 gran dur (ms), f 4;
#X text 147 128 Bela IDE monitor, f 8;
#X text 435 50 density (Hz), f 7;
#X text 486 50 metro (ms), f 5;
#X text 751 50 pos (ms), f 5;
#N canvas 63 100 909 484 presets 0;
#X msg 35 157 \; play-cloud 0 1000 1000 -400;
#X msg 35 205 \; play-cloud 0 1000 500 -400;
#X text 33 134 instance \, position (ms) \, grandur \, transp;
#X msg 128 34 \; density 0 \; metro 20 \; dur 80 \; transp 0 \; posvar 10 \;;
#X msg 35 35 \; density 0 \; metro 100 \; dur 200 \; transp 0 \; posvar 0 \;;
#X text 352 23 piano hits;
#X msg 378 156 \; density 0 \; metro 50 \; freeze 0 \; stretch 0.5 \; stretchvar 0 \; pos 0 \; posvar 0 \; dur 80 \; durvar 0 \; transp 0 \; transpvar 0 \; pitchquant 0 \;;
#X msg 501 153 \; density 40 \; metro 0 \; freeze 0 \; stretch 0.8 \; stretchvar 50 \; pos 0 \; posvar 4 \; dur 80 \; durvar 50 \; transp 10 \; transpvar 100 \; pitchquant 0 \;;
#X obj 378 98 select 1;
#X obj 378 74 r button1;
#X obj 503 71 r button2;
#X obj 503 95 select 1;
#X obj 643 96 select 1;
#X obj 768 93 select 1;
#X obj 643 72 r button3;
#X obj 768 69 r button4;
#X msg 643 154 \; density 10 \; metro 250 \; freeze 1 \; stretch 0 \; stretchvar 0 \; pos 1000 \; posvar 50 \; dur 250 \; durvar 30 \; transp 100 \; transpvar 50 \; pitchquant 0 \;;
#X msg 766 151 \; density 0 \; metro 100 \; freeze 0 \; stretch 0.8 \; stretchvar 50 \; pos 0 \; posvar 4 \; dur 280 \; durvar 50 \; transp 700 \; transpvar 50 \; pitchquant 200 \;;
#X connect 9 0 8 0;
#X connect 10 0 11 0;
#X connect 14 0 12 0;
#X connect 15 0 13 0;
#X restore 35 119 pd presets;
#X obj 209 104 bela-knobs-buttons-leds;
#X obj 664 522 cloud-chan doublebuf1;
#X floatatom 755 499 5 0 0 0 - - - 0;
#X obj 796 500 bng 19 250 50 0 empty empty empty 0 -10 0 12 #fcfcfc #000000 #000000;
#X obj 916 402 vsl 20 128 -99 18 0 1 \$0-gain wet wet -7 -18 0 14 #fca85c #000000 #000000 12650 1;
#X floatatom 916 538 5 0 0 1 _db - - 0;
#X obj 882 668 vu 19 200 empty empty -1 -10 0 12 #404040 #000000 1 0;
#X obj 935 668 vu 19 200 empty empty -1 -10 0 12 #404040 #000000 1 0;
#X obj 619 108 cloud-params doublebuf1, f 59;
#X obj 450 108 cloud-player doublebuf1;
#X text 567 142 transp (cts), f 6;
#X text 473 142 time stretch, f 7;
#X text 527 142 gran dur, f 4;
#X obj 604 522 adc~ 1;
#N canvas 81 402 1034 434 emg 0;
#X obj 28 204 vsl 19 162 0 1 0 0 empty empty empty 0 -9 0 12 #fcfcfc #000000 #000000 0 1;
#X obj 109 204 vsl 19 162 0 1 0 0 empty empty empty 0 -9 0 12 #fcfcfc #000000 #000000 0 1;
#X obj 109 171 eavi-rms;
#N canvas 333 268 250 226 range 0;
#X floatatom 37 78 5 0 0 0 - - - 0;
#X obj 37 101 - 8192;
#X obj 37 125 / 8192;
#X floatatom 37 149 5 0 0 0 - - - 0;
#X obj 37 45 inlet;
#X obj 37 180 outlet;
#X text 98 94 14 bit value converted to -1 to 1, f 14;
#X connect 0 0 1 0;
#X connect 1 0 2 0;
#X connect 2 0 3 0;
#X connect 3 0 5 0;
#X connect 4 0 0 0;
#X restore 28 141 pd range;
#N canvas 333 268 250 226 range 0;
#X floatatom 37 78 5 0 0 0 - - - 0;
#X obj 37 101 - 8192;
#X obj 37 125 / 8192;
#X floatatom 37 149 5 0 0 0 - - - 0;
#X obj 37 45 inlet;
#X obj 37 180 outlet;
#X text 98 94 14 bit value converted to -1 to 1, f 14;
#X connect 0 0 1 0;
#X connect 1 0 2 0;
#X connect 2 0 3 0;
#X connect 3 0 5 0;
#X connect 4 0 0 0;
#X restore 109 141 pd range;
#X floatatom 682 153 5 0 0 0 - - - 0;
#X text 682 118 smoothing (ms), f 10;
#X obj 870 110 loadbang;
#X obj 28 171 eavi-rms;
#X msg 870 134 200;
#X floatatom 764 153 5 0 0 0 - - - 0;
#X text 764 119 amplification;
#X msg 904 134 10;
#X obj 28 374 outlet;
#X obj 109 374 outlet;
#X obj 28 113 bendin 2;
#X obj 109 113 bendin 3;
#X obj 258 204 vsl 19 162 0 1 0 0 empty empty empty 0 -9 0 12 #fcfcfc #000000 #000000 0 1;
#X obj 339 204 vsl 19 162 0 1 0 0 empty empty empty 0 -9 0 12 #fcfcfc #000000 #000000 0 1;
#X obj 339 171 eavi-rms;
#N canvas 333 268 250 226 range 0;
#X floatatom 37 78 5 0 0 0 - - - 0;
#X obj 37 101 - 8192;
#X obj 37 125 / 8192;
#X floatatom 37 149 5 0 0 0 - - - 0;
#X obj 37 45 inlet;
#X obj 37 180 outlet;
#X text 98 94 14 bit value converted to -1 to 1, f 14;
#X connect 0 0 1 0;
#X connect 1 0 2 0;
#X connect 2 0 3 0;
#X connect 3 0 5 0;
#X connect 4 0 0 0;
#X restore 258 141 pd range;
#N canvas 333 268 250 226 range 0;
#X floatatom 37 78 5 0 0 0 - - - 0;
#X obj 37 101 - 8192;
#X obj 37 125 / 8192;
#X floatatom 37 149 5 0 0 0 - - - 0;
#X obj 37 45 inlet;
#X obj 37 180 outlet;
#X text 98 94 14 bit value converted to -1 to 1, f 14;
#X connect 0 0 1 0;
#X connect 1 0 2 0;
#X connect 2 0 3 0;
#X connect 3 0 5 0;
#X connect 4 0 0 0;
#X restore 339 141 pd range;
#X obj 258 171 eavi-rms;
#X obj 258 374 outlet;
#X obj 339 374 outlet;
#X obj 339 113 bendin 19;
#X obj 472 204 vsl 19 162 0 1 0 0 empty empty empty 0 -9 0 12 #fcfcfc #000000 #000000 0 1;
#X obj 553 204 vsl 19 162 0 1 0 0 empty empty empty 0 -9 0 12 #fcfcfc #000000 #000000 0 1;
#X obj 553 171 eavi-rms;
#N canvas 333 268 250 226 range 0;
#X floatatom 37 78 5 0 0 0 - - - 0;
#X obj 37 101 - 8192;
#X obj 37 125 / 8192;
#X floatatom 37 149 5 0 0 0 - - - 0;
#X obj 37 45 inlet;
#X obj 37 180 outlet;
#X text 98 94 14 bit value converted to -1 to 1, f 14;
#X connect 0 0 1 0;
#X connect 1 0 2 0;
#X connect 2 0 3 0;
#X connect 3 0 5 0;
#X connect 4 0 0 0;
#X restore 472 141 pd range;
#N canvas 333 268 250 226 range 0;
#X floatatom 37 78 5 0 0 0 - - - 0;
#X obj 37 101 - 8192;
#X obj 37 125 / 8192;
#X floatatom 37 149 5 0 0 0 - - - 0;
#X obj 37 45 inlet;
#X obj 37 180 outlet;
#X text 98 94 14 bit value converted to -1 to 1, f 14;
#X connect 0 0 1 0;
#X connect 1 0 2 0;
#X connect 2 0 3 0;
#X connect 3 0 5 0;
#X connect 4 0 0 0;
#X restore 553 141 pd range;
#X obj 472 171 eavi-rms;
#X obj 472 374 outlet;
#X obj 553 374 outlet;
#X obj 472 113 bendin 34;
#X obj 553 113 bendin 35;
#X obj 684 292 vsl 19 162 0 1 0 0 empty empty empty 0 -9 0 12 #fcfcfc #000000 #000000 0 1;
#N canvas 333 268 250 226 range 0;
#X floatatom 37 78 5 0 0 0 - - - 0;
#X obj 37 101 - 8192;
#X obj 37 125 / 8192;
#X floatatom 37 149 5 0 0 0 - - - 0;
#X obj 37 45 inlet;
#X obj 37 180 outlet;
#X text 98 94 14 bit value converted to -1 to 1, f 14;
#X connect 0 0 1 0;
#X connect 1 0 2 0;
#X connect 2 0 3 0;
#X connect 3 0 5 0;
#X connect 4 0 0 0;
#X restore 684 229 pd range;
#X obj 684 259 eavi-rms;
#X obj 684 201 bendin 20;
#X obj 258 113 bendin 20;
#X connect 0 0 13 0;
#X connect 1 0 14 0;
#X connect 2 0 1 0;
#X connect 3 0 8 0;
#X connect 4 0 2 0;
#X connect 5 0 8 1;
#X connect 5 0 2 1;
#X connect 5 0 22 1;
#X connect 5 0 19 1;
#X connect 5 0 31 1;
#X connect 5 0 28 1;
#X connect 7 0 9 0;
#X connect 8 0 0 0;
#X connect 9 0 5 0;
#X connect 10 0 8 3;
#X connect 10 0 2 3;
#X connect 10 0 22 3;
#X connect 10 0 19 3;
#X connect 10 0 31 3;
#X connect 10 0 28 3;
#X connect 12 0 10 0;
#X connect 15 0 3 0;
#X connect 16 0 4 0;
#X connect 17 0 23 0;
#X connect 18 0 24 0;
#X connect 19 0 18 0;
#X connect 20 0 22 0;
#X connect 21 0 19 0;
#X connect 22 0 17 0;
#X connect 25 0 21 0;
#X connect 26 0 32 0;
#X connect 27 0 33 0;
#X connect 28 0 27 0;
#X connect 29 0 31 0;
#X connect 30 0 28 0;
#X connect 31 0 26 0;
#X connect 34 0 29 0;
#X connect 35 0 30 0;
#X connect 37 0 38 0;
#X connect 38 0 36 0;
#X connect 39 0 37 0;
#X connect 40 0 20 0;
#X coords 0 434 1 433 85 60 0;
#X restore 495 210 pd emg;
#X f 20;
#X obj 496 309 vsl 16 100 0 1 0 0 empty empty empty 0 -9 0 12 #01e4e9 #000000 #000000 0 1;
#X obj 517 309 vsl 16 100 0 1 0 0 empty empty empty 0 -9 0 12 #01e4e9 #000000 #000000 0 1;
#X obj 554 309 vsl 16 100 0 1 0 0 empty empty empty 0 -9 0 12 #faff00 #000000 #000000 0 1;
#X obj 575 309 vsl 16 100 0 1 0 0 empty empty empty 0 -9 0 12 #faff00 #000000 #000000 0 1;
#X obj 612 308 vsl 16 100 0 1 0 0 empty empty empty 0 -9 0 12 #e3c6ff #000000 #000000 0 1;
#X obj 633 308 vsl 16 100 0 1 0 0 empty empty empty 0 -9 0 12 #e3c6ff #000000 #000000 0 1;
#N canvas 12 252 1447 314 mapper 0;
#X obj 20 24 inlet;
#X floatatom 20 48 5 0 0 0 - - - 0;
#X obj 37 116 m_scale 0 1 0 100;
#X floatatom 37 140 5 0 0 0 - - - 0;
#X floatatom 76 93 5 0 0 0 - - - 0;
#X floatatom 115 93 5 0 0 0 - - - 0;
#X floatatom 154 93 5 0 0 0 - - - 0;
#X obj 37 258 send;
#X msg 72 204 symbol doublebuf1-stretch;
#X symbolatom 62 232 25 0 0 0 - - - 0;
#X obj 63 48 route send min max curve;
#X obj 63 24 r map1;
#X obj 249 24 inlet;
#X floatatom 249 48 5 0 0 0 - - - 0;
#X obj 266 116 m_scale 0 1 0 100;
#X floatatom 266 140 5 0 0 0 - - - 0;
#X floatatom 305 93 5 0 0 0 - - - 0;
#X floatatom 344 93 5 0 0 0 - - - 0;
#X floatatom 383 93 5 0 0 0 - - - 0;
#X obj 266 258 send;
#X symbolatom 291 232 25 0 0 0 - - - 0;
#X obj 292 48 route send min max curve;
#X obj 292 24 r map2;
#X msg 301 204 symbol doublebuf1-dur;
#X obj 505 20 inlet;
#X floatatom 505 44 5 0 0 0 - - - 0;
#X obj 522 112 m_scale 0 1 0 100;
#X floatatom 522 136 5 0 0 0 - - - 0;
#X floatatom 561 89 5 0 0 0 - - - 0;
#X floatatom 600 89 5 0 0 0 - - - 0;
#X floatatom 639 89 5 0 0 0 - - - 0;
#X obj 522 254 send;
#X symbolatom 547 228 25 0 0 0 - - - 0;
#X obj 548 44 route send min max curve;
#X obj 734 20 inlet;
#X floatatom 734 44 5 0 0 0 - - - 0;
#X obj 751 112 m_scale 0 1 0 100;
#X floatatom 751 136 5 0 0 0 - - - 0;
#X floatatom 790 89 5 0 0 0 - - - 0;
#X floatatom 829 89 5 0 0 0 - - - 0;
#X floatatom 868 89 5 0 0 0 - - - 0;
#X obj 751 254 send;
#X symbolatom 776 228 25 0 0 0 - - - 0;
#X obj 777 44 route send min max curve;
#X obj 981 20 inlet;
#X floatatom 981 44 5 0 0 0 - - - 0;
#X obj 998 112 m_scale 0 1 0 100;
#X floatatom 998 136 5 0 0 0 - - - 0;
#X floatatom 1037 89 5 0 0 0 - - - 0;
#X floatatom 1076 89 5 0 0 0 - - - 0;
#X floatatom 1115 89 5 0 0 0 - - - 0;
#X obj 998 254 send;
#X symbolatom 1023 228 25 0 0 0 - - - 0;
#X obj 1024 44 route send min max curve;
#X obj 1210 20 inlet;
#X floatatom 1210 44 5 0 0 0 - - - 0;
#X obj 1227 112 m_scale 0 1 0 100;
#X floatatom 1227 136 5 0 0 0 - - - 0;
#X floatatom 1266 89 5 0 0 0 - - - 0;
#X floatatom 1305 89 5 0 0 0 - - - 0;
#X floatatom 1344 89 5 0 0 0 - - - 0;
#X obj 1227 254 send;
#X symbolatom 1252 228 25 0 0 0 - - - 0;
#X obj 1253 44 route send min max curve;
#X obj 548 20 r map3;
#X obj 777 20 r map4;
#X obj 1024 20 r map5;
#X obj 1253 20 r map6;
#X msg 557 200 symbol doublebuf2-stretch;
#X msg 786 200 symbol doublebuf2-dur;
#X msg 1033 200 symbol doublebuf3-stretch;
#X msg 1262 200 symbol doublebuf3-dur;
#X msg 79 281 \; map1 send symbol doublebuf1-dur \; map1 min 0 \; map1 max 100 \; map1 curve 2 \;, f 33;
#X connect 0 0 1 0;
#X connect 1 0 2 0;
#X connect 2 0 3 0;
#X connect 3 0 7 0;
#X connect 4 0 2 3;
#X connect 5 0 2 4;
#X connect 6 0 2 5;
#X connect 8 0 9 0;
#X connect 9 0 7 1;
#X connect 10 0 9 0;
#X connect 10 1 4 0;
#X connect 10 2 5 0;
#X connect 10 3 6 0;
#X connect 11 0 10 0;
#X connect 12 0 13 0;
#X connect 13 0 14 0;
#X connect 14 0 15 0;
#X connect 15 0 19 0;
#X connect 16 0 14 3;
#X connect 17 0 14 4;
#X connect 18 0 14 5;
#X connect 20 0 19 1;
#X connect 21 0 20 0;
#X connect 21 1 16 0;
#X connect 21 2 17 0;
#X connect 21 3 18 0;
#X connect 22 0 21 0;
#X connect 23 0 20 0;
#X connect 24 0 25 0;
#X connect 25 0 26 0;
#X connect 26 0 27 0;
#X connect 27 0 31 0;
#X connect 28 0 26 3;
#X connect 29 0 26 4;
#X connect 30 0 26 5;
#X connect 32 0 31 1;
#X connect 33 0 32 0;
#X connect 33 1 28 0;
#X connect 33 2 29 0;
#X connect 33 3 30 0;
#X connect 34 0 35 0;
#X connect 35 0 36 0;
#X connect 36 0 37 0;
#X connect 37 0 41 0;
#X connect 38 0 36 3;
#X connect 39 0 36 4;
#X connect 40 0 36 5;
#X connect 42 0 41 1;
#X connect 43 0 42 0;
#X connect 43 1 38 0;
#X connect 43 2 39 0;
#X connect 43 3 40 0;
#X connect 44 0 45 0;
#X connect 45 0 46 0;
#X connect 46 0 47 0;
#X connect 47 0 51 0;
#X connect 48 0 46 3;
#X connect 49 0 46 4;
#X connect 50 0 46 5;
#X connect 52 0 51 1;
#X connect 53 0 52 0;
#X connect 53 1 48 0;
#X connect 53 2 49 0;
#X connect 53 3 50 0;
#X connect 54 0 55 0;
#X connect 55 0 56 0;
#X connect 56 0 57 0;
#X connect 57 0 61 0;
#X connect 58 0 56 3;
#X connect 59 0 56 4;
#X connect 60 0 56 5;
#X connect 62 0 61 1;
#X connect 63 0 62 0;
#X connect 63 1 58 0;
#X connect 63 2 59 0;
#X connect 63 3 60 0;
#X connect 64 0 33 0;
#X connect 65 0 43 0;
#X connect 66 0 53 0;
#X connect 67 0 63 0;
#X connect 68 0 32 0;
#X connect 69 0 42 0;
#X connect 70 0 52 0;
#X connect 71 0 62 0;
#X restore 496 422 pd mapper;
#X f 20;
#X msg 687 181 \; doublebuf1-density 3 \; doublebuf1-metro 500 \; doublebuf1-freeze 0 \; doublebuf1-stretch 1 \; doublebuf1-stretchvar 25 \; doublebuf1-pos 0 \; doublebuf1-posvar 50 \; doublebuf1-dur 1000 \; doublebuf1-durvar 20 \; doublebuf1-transp 0 \; doublebuf1-transpvar 0 \; doublebuf1-pitchquant 0 \;;
#X msg 890 290 \; map1 send symbol doublebuf1-dur \; map1 min 0 \; map1 max 100 \; map1 curve 2 \;, f 33;
#X text 890 213 Examples of messages in Composition patch, f 29;
#X text 491 189 set gain 5;
#N canvas 0 22 450 300 (subpatch) 0;
#X array doublebuf1 220500 float 0;
#X coords 0 1 220499 -1 200 140 1 0 0;
#X restore 28 335 graph;
#X text 234 387 220500 samples = 5 sec @ 44.1Khz, f 17;
#X text 234 439 Each half = 2.5 sec, f 13;
#X obj 83 211 bng 19 250 50 0 empty empty empty 0 -10 0 12 #fcfcfc #000000 #000000;
#X obj 171 211 bng 19 250 50 0 empty empty empty 0 -10 0 12 #fcfcfc #000000 #000000;
#X text 50 237 start first recording, f 17;
#X obj 28 184 adc~ 1;
#X text 122 332 | | | | | | | | | |, f 2;
#X text 234 335 Buffer contains two copies of 2500ms, f 20;
#N canvas 92 129 427 246 alternator 0;
#X obj 35 43 tgl 19 0 empty empty empty 0 -10 0 12 #fcfcfc #000000 #000000 0 1;
#X floatatom 98 48 10 0 0 0 - - - 0;
#X obj 35 67 metro 2500;
#X obj 35 91 tgl 19 0 empty empty empty 0 -10 0 12 #fcfcfc #000000 #000000 0 1;
#X obj 35 115 select 0 1;
#X obj 35 139 bng 19 250 50 0 empty empty empty 0 -10 0 12 #fcfcfc #000000 #000000;
#X obj 68 139 bng 19 250 50 0 empty empty empty 0 -10 0 12 #fcfcfc #000000 #000000;
#X obj 35 19 loadbang;
#X text 131 77 5 sec buffer \, with two recordings starting half a buffer apart, f 33;
#X text 127 145 trigger rec - first half \, second half;
#X obj 35 176 outlet;
#X obj 86 176 outlet;
#X connect 0 0 2 0;
#X connect 1 0 2 1;
#X connect 2 0 3 0;
#X connect 3 0 4 0;
#X connect 4 0 5 0;
#X connect 4 1 6 0;
#X connect 5 0 10 0;
#X connect 6 0 11 0;
#X connect 7 0 0 0;
#X restore 83 185 pd alternator;
#X text 179 237 start second recording half buffer in, f 22;
#X text 19 792 msp Granular Synthesis;
#X text 18 810 Adam Parkinson / RJDJ iOS / 2010;
#X text 182 791 nobuyasu sakodna / MaxMSP / 1999;
#X text 18 718 Based on our port of Sakonda-san's MSP granular synth;
#X text 18 735 Combined with Cipriani & Giri's Gen~ cloud generator from their Vol. 3 book, f 77;
#X text 19 828 Atau Tanaka 2024;
#X text 18 699 Granular cloud CLONE generator;
#X text 19 755 granular engine plays one grain at a time at density \, overflowing to next available grain when busy \, uses clone object to instantiate grains, f 77;
#X text 19 582 DEPLACEMENT for EMG and CHAMBER TRIO;
#X text 19 606 for ERAMAA TRIO 2024;
#X text 19 630 Atau Tanaka;
#X obj 27 270 tabwrite~ doublebuf1;
#X obj 171 270 tabwrite~ doublebuf1;
#X obj 604 556 gain2~;
#X obj 851 402 vsl 20 128 -99 18 0 1 \$0-gain dry dry -7 -18 0 14 #fca85c #000000 #000000 9953 1;
#X floatatom 851 538 5 0 0 1 _db - - 0;
#X obj 664 556 stgain2~;
#N canvas 167 938 450 300 korg-nanokontrol 0;
#X obj 203 39 ctlin 14 1;
#X floatatom 203 63 5 0 0 0 - - - 0;
#X floatatom 294 64 5 0 0 0 - - - 0;
#X obj 294 40 ctlin 15 1;
#X obj 203 86 / 127;
#X floatatom 203 110 5 0 0 0 - - - 0;
#X obj 294 87 / 127;
#X floatatom 294 111 5 0 0 0 - - - 0;
#X obj 203 133 outlet;
#X obj 294 134 outlet;
#X floatatom 25 64 5 0 0 0 - - - 0;
#X floatatom 116 65 5 0 0 0 - - - 0;
#X obj 25 87 / 127;
#X floatatom 25 111 5 0 0 0 - - - 0;
#X obj 116 88 / 127;
#X floatatom 116 112 5 0 0 0 - - - 0;
#X obj 25 134 outlet;
#X obj 116 135 outlet;
#X obj 25 40 ctlin 2 1;
#X obj 116 41 ctlin 3 1;
#X obj 32 178 s nano01;
#X obj 118 178 s nano02;
#X connect 0 0 1 0;
#X connect 1 0 4 0;
#X connect 2 0 6 0;
#X connect 3 0 2 0;
#X connect 4 0 5 0;
#X connect 5 0 8 0;
#X connect 6 0 7 0;
#X connect 7 0 9 0;
#X connect 10 0 12 0;
#X connect 11 0 14 0;
#X connect 12 0 13 0;
#X connect 13 0 16 0;
#X connect 13 0 20 0;
#X connect 14 0 15 0;
#X connect 15 0 17 0;
#X connect 15 0 21 0;
#X connect 18 0 10 0;
#X connect 19 0 11 0;
#X restore 532 246 pd korg-nanokontrol;
#N canvas 110 415 625 417 vu 0;
#X obj 59 129 env~ 1024;
#X obj 161 111 abs~;
#X obj 161 213 snapshot~;
#X obj 161 256 rmstodb;
#X obj 161 21 inlet~;
#X obj 161 288 - 100;
#X obj 59 287 - 100;
#X obj 59 361 outlet;
#X obj 161 361 outlet;
#X text 344 307 Check the help file of env~ and slop~ for more details., f 31;
#X obj 239 89 expr 1000 / $f1;
#X floatatom 239 117 5 0 0 0 - - - 0;
#X obj 161 146 slop~ 0 0 0 0 1e+09;
#X obj 239 18 inlet;
#X floatatom 239 57 5 0 0 0 - - - 0;
#X text 359 89 convert to hz;
#X text 282 118 hz;
#X text 284 57 peak decay time in ms;
#X obj 59 171 t f b;
#X text 345 132 The env~ object is dedicated to RMS analysis. Its output is in dB (0-100 range \, pd style) but needs to be converted to dBFS (and we do that by simply subtracting 100)., f 31;
#X text 345 225 The slop~ object is used here for peak detection. We need to convert the output to dB with rmstodb and also subtract by 100 to convert it to dBFS., f 31;
#X connect 0 0 18 0;
#X connect 1 0 12 0;
#X connect 2 0 3 0;
#X connect 3 0 5 0;
#X connect 4 0 0 0;
#X connect 4 0 1 0;
#X connect 5 0 8 0;
#X connect 6 0 7 0;
#X connect 10 0 11 0;
#X connect 11 0 12 3;
#X connect 12 0 2 0;
#X connect 13 0 14 0;
#X connect 14 0 10 0;
#X connect 18 0 6 0;
#X connect 18 1 2 0;
#X restore 881 634 pd vu;
#N canvas 110 415 625 417 vu 0;
#X obj 59 129 env~ 1024;
#X obj 161 111 abs~;
#X obj 161 213 snapshot~;
#X obj 161 256 rmstodb;
#X obj 161 21 inlet~;
#X obj 161 288 - 100;
#X obj 59 287 - 100;
#X obj 59 361 outlet;
#X obj 161 361 outlet;
#X text 344 307 Check the help file of env~ and slop~ for more details., f 31;
#X obj 239 89 expr 1000 / $f1;
#X floatatom 239 117 5 0 0 0 - - - 0;
#X obj 161 146 slop~ 0 0 0 0 1e+09;
#X obj 239 18 inlet;
#X floatatom 239 57 5 0 0 0 - - - 0;
#X text 359 89 convert to hz;
#X text 282 118 hz;
#X text 284 57 peak decay time in ms;
#X obj 59 171 t f b;
#X text 345 132 The env~ object is dedicated to RMS analysis. Its output is in dB (0-100 range \, pd style) but needs to be converted to dBFS (and we do that by simply subtracting 100)., f 31;
#X text 345 225 The slop~ object is used here for peak detection. We need to convert the output to dB with rmstodb and also subtract by 100 to convert it to dBFS., f 31;
#X connect 0 0 18 0;
#X connect 1 0 12 0;
#X connect 2 0 3 0;
#X connect 3 0 5 0;
#X connect 4 0 0 0;
#X connect 4 0 1 0;
#X connect 5 0 8 0;
#X connect 6 0 7 0;
#X connect 10 0 11 0;
#X connect 11 0 12 3;
#X connect 12 0 2 0;
#X connect 13 0 14 0;
#X connect 14 0 10 0;
#X connect 18 0 6 0;
#X connect 18 1 2 0;
#X restore 934 634 pd vu;
#X obj 820 669 vu 19 200 empty empty -1 -10 0 12 #404040 #000000 1 0;
#N canvas 110 415 625 417 vu 0;
#X obj 59 129 env~ 1024;
#X obj 161 111 abs~;
#X obj 161 213 snapshot~;
#X obj 161 256 rmstodb;
#X obj 161 21 inlet~;
#X obj 161 288 - 100;
#X obj 59 287 - 100;
#X obj 59 361 outlet;
#X obj 161 361 outlet;
#X text 344 307 Check the help file of env~ and slop~ for more details., f 31;
#X obj 239 89 expr 1000 / $f1;
#X floatatom 239 117 5 0 0 0 - - - 0;
#X obj 161 146 slop~ 0 0 0 0 1e+09;
#X obj 239 18 inlet;
#X floatatom 239 57 5 0 0 0 - - - 0;
#X text 359 89 convert to hz;
#X text 282 118 hz;
#X text 284 57 peak decay time in ms;
#X obj 59 171 t f b;
#X text 345 132 The env~ object is dedicated to RMS analysis. Its output is in dB (0-100 range \, pd style) but needs to be converted to dBFS (and we do that by simply subtracting 100)., f 31;
#X text 345 225 The slop~ object is used here for peak detection. We need to convert the output to dB with rmstodb and also subtract by 100 to convert it to dBFS., f 31;
#X connect 0 0 18 0;
#X connect 1 0 12 0;
#X connect 2 0 3 0;
#X connect 3 0 5 0;
#X connect 4 0 0 0;
#X connect 4 0 1 0;
#X connect 5 0 8 0;
#X connect 6 0 7 0;
#X connect 10 0 11 0;
#X connect 11 0 12 3;
#X connect 12 0 2 0;
#X connect 13 0 14 0;
#X connect 14 0 10 0;
#X connect 18 0 6 0;
#X connect 18 1 2 0;
#X restore 819 635 pd vu;
#X msg 1112 393 \; map3 send symbol dry \; map3 min -99 \; map3 max 18 \; map3 curve 0.5 \;, f 22;
#X msg 1114 477 \; map4 send symbol wet \; map4 min -99 \; map4 max 18 \; map4 curve 0.5 \;, f 22;
#X obj 566 271 r cv0;
#X obj 608 271 r cv1;
#N canvas 36 574 586 459 drone 0;
#X obj 206 9 inlet;
#X obj 206 33 bng 19 250 50 0 empty empty empty 0 -10 0 12 #fcfcfc #000000 #000000;
#X text 268 12 then increase density add posvar;
#X msg 39 94 \; doublebuf1-density 3 \; doublebuf1-metro 500 \; doublebuf1-freeze 1 \; doublebuf1-stretch 2 \; doublebuf1-stretchvar 0 \; doublebuf1-pos 0 \; doublebuf1-posvar 0 \; doublebuf1-dur 1000 \; doublebuf1-durvar 0 \; doublebuf1-transp 50 \; doublebuf1-transpvar 0 \; doublebuf1-pitchquant 0 \;;
#X msg 208 291 \; map1 send symbol doublebuf1-pos \; map1 min 0 \; map1 max 500 \; map1 curve 1 \;, f 17;
#X text 221 405 try also stretch;
#X msg 39 290 \; map2 send symbol doublebuf1-dur \; map2 min 500 \; map2 max 1500 \; map2 curve 1 \;, f 20;
#X msg 39 389 \; map1 send symbol doublebuf1-transp \; map1 min -25 \; map1 max 100 \; map1 curve 1 \;, f 20;
#X connect 0 0 1 0;
#X connect 1 0 3 0;
#X connect 1 0 6 0;
#X connect 1 0 7 0;
#X restore 1104 719 pd drone;
#X obj 1104 695 bng 19 250 50 0 empty empty empty 0 -10 0 12 #fcfcfc #000000 #000000;
#X obj 1175 695 bng 19 250 50 0 empty empty empty 0 -10 0 12 #fcfcfc #000000 #000000;
#N canvas 20 386 435 520 slap 0;
#X obj 206 9 inlet;
#X obj 206 33 bng 19 250 50 0 empty empty empty 0 -10 0 12 #fcfcfc #000000 #000000;
#X msg 208 291 \; map1 send symbol doublebuf1-pos \; map1 min 0 \; map1 max 500 \; map1 curve 1 \;, f 17;
#X msg 39 94 \; doublebuf1-density 3 \; doublebuf1-metro 0 \; doublebuf1-freeze 0 \; doublebuf1-stretch 1 \; doublebuf1-stretchvar 0 \; doublebuf1-pos 0 \; doublebuf1-posvar 0 \; doublebuf1-dur 750 \; doublebuf1-durvar 0 \; doublebuf1-transp 0 \; doublebuf1-transpvar 0 \; doublebuf1-pitchquant 0 \;;
#X msg 39 290 \; map1 send symbol doublebuf1-density \; map1 min 3 \; map1 max 30 \; map1 curve 1 \;, f 20;
#X msg 39 389 \; map2 send symbol doublebuf1-dur \; map2 min 1000 \; map2 max 500 \; map2 curve 1 \;, f 20;
#X connect 0 0 1 0;
#X connect 1 0 3 0;
#X connect 1 0 4 0;
#X connect 1 0 5 0;
#X restore 1175 719 pd slap;
#X obj 1253 695 bng 19 250 50 0 empty empty empty 0 -10 0 12 #fcfcfc #000000 #000000;
#N canvas 20 396 426 516 figure 0;
#X obj 206 9 inlet;
#X obj 206 33 bng 19 250 50 0 empty empty empty 0 -10 0 12 #fcfcfc #000000 #000000;
#X msg 208 291 \; map1 send symbol doublebuf1-pos \; map1 min 0 \; map1 max 500 \; map1 curve 1 \;, f 17;
#X msg 39 290 \; map1 send symbol doublebuf1-metro \; map1 min 200 \; map1 max 30 \; map1 curve 1 \;, f 20;
#X msg 39 389 \; map2 send symbol doublebuf1-dur \; map2 min 900 \; map2 max 300 \; map2 curve 1 \;, f 20;
#X msg 39 94 \; doublebuf1-density 0 \; doublebuf1-metro 160 \; doublebuf1-freeze 0 \; doublebuf1-stretch 1.5 \; doublebuf1-stretchvar 0 \; doublebuf1-pos 0 \; doublebuf1-posvar 0 \; doublebuf1-dur 750 \; doublebuf1-durvar 0 \; doublebuf1-transp 0 \; doublebuf1-transpvar 0 \; doublebuf1-pitchquant 0 \;;
#X connect 0 0 1 0;
#X connect 1 0 5 0;
#X connect 1 0 4 0;
#X connect 1 0 2 0;
#X restore 1253 719 pd figure;
#X obj 1180 361 loadbang;
#X obj 1104 642 r button2;
#X obj 1104 666 select 1;
#X obj 1175 666 select 1;
#X obj 1247 666 select 1;
#X obj 1175 642 r button3;
#X obj 1247 642 r button4;
#N canvas 40 158 692 411 parameter-monitor 0;
#X text 90 10 monitor parameters in Bela IDE console;
#X obj 106 85 tgl 19 0 empty empty empty 0 -10 0 12 #fcfcfc #000000 #000000 0 1;
#X obj 106 134 t b b b b b, f 30;
#X obj 106 363 print;
#X obj 106 60 inlet;
#X msg 230 336 dens-metro \$1 pos \$2 dur \$3 transp \$4 stretch \$5;
#X obj 106 261 pack 0 0 0 0 0 0 0 0, f 55;
#X obj 106 236 f;
#X obj 156 236 f;
#X obj 209 236 f;
#X obj 261 236 f;
#X obj 314 236 f;
#X obj 384 232 f;
#X obj 434 232 f;
#X obj 487 232 f;
#X obj 115 166 r cv0;
#X obj 174 165 r cv1;
#X obj 343 167 r cv4;
#X obj 393 162 r cv5;
#X obj 452 161 r cv6;
#X obj 505 161 r cv7;
#X obj 227 165 r dry;
#X obj 274 165 r wet;
#X msg 106 308 cv0 \$1 cv1 \$2 dry \$3 wet \$4 cv4 \$5 cv5 \$6 cv6 \$7 cv7 \$8;
#X obj 106 108 metro 1000;
#X connect 1 0 24 0;
#X connect 2 0 7 0;
#X connect 2 1 8 0;
#X connect 2 2 9 0;
#X connect 2 3 10 0;
#X connect 2 4 11 0;
#X connect 2 4 12 0;
#X connect 2 4 14 0;
#X connect 2 4 13 0;
#X connect 4 0 1 0;
#X connect 6 0 23 0;
#X connect 7 0 6 0;
#X connect 8 0 6 1;
#X connect 9 0 6 2;
#X connect 10 0 6 3;
#X connect 11 0 6 4;
#X connect 12 0 6 5;
#X connect 13 0 6 6;
#X connect 14 0 6 7;
#X connect 15 0 7 1;
#X connect 16 0 8 1;
#X connect 17 0 11 1;
#X connect 18 0 12 1;
#X connect 19 0 13 1;
#X connect 20 0 14 1;
#X connect 21 0 9 1;
#X connect 22 0 10 1;
#X connect 23 0 3 0;
#X connect 24 0 2 0;
#X restore 209 152 pd parameter-monitor;
#X f 21;
#X obj 209 130 tgl 19 1 empty empty empty 0 -10 0 12 #fcfcfc #000000 #000000 1 1;
#X connect 3 0 2 0;
#X connect 5 0 47 5;
#X connect 6 0 47 6;
#X connect 9 0 47 7;
#X connect 10 0 47 8;
#X connect 14 0 47 3;
#X connect 15 0 47 4;
#X connect 16 0 39 0;
#X connect 17 0 18 0;
#X connect 18 0 116 0;
#X connect 19 0 47 2;
#X connect 20 0 47 9;
#X connect 22 0 47 1;
#X connect 23 0 47 0;
#X connect 28 0 48 1;
#X connect 29 0 48 0;
#X connect 40 0 92 0;
#X connect 40 1 92 1;
#X connect 41 0 40 0;
#X connect 42 0 40 0;
#X connect 43 0 44 0;
#X connect 44 0 92 2;
#X connect 47 0 23 0;
#X connect 47 1 22 0;
#X connect 47 2 19 0;
#X connect 47 3 14 0;
#X connect 47 4 15 0;
#X connect 47 5 5 0;
#X connect 47 6 6 0;
#X connect 47 7 9 0;
#X connect 47 8 10 0;
#X connect 47 9 20 0;
#X connect 48 0 29 0;
#X connect 48 1 28 0;
#X connect 48 2 25 0;
#X connect 48 3 8 0;
#X connect 48 4 12 0;
#X connect 52 0 89 0;
#X connect 54 0 60 0;
#X connect 55 0 60 1;
#X connect 56 0 60 2;
#X connect 57 0 60 3;
#X connect 58 0 60 4;
#X connect 59 0 60 5;
#X connect 68 0 87 0;
#X connect 69 0 88 0;
#X connect 71 0 87 0;
#X connect 71 0 88 0;
#X connect 74 0 68 0;
#X connect 74 1 69 0;
#X connect 89 0 4 0;
#X connect 89 0 4 1;
#X connect 89 0 97 0;
#X connect 90 0 91 0;
#X connect 91 0 89 1;
#X connect 92 0 4 0;
#X connect 92 0 94 0;
#X connect 92 1 4 1;
#X connect 92 1 95 0;
#X connect 93 0 54 0;
#X connect 93 1 55 0;
#X connect 94 0 45 0;
#X connect 95 0 46 0;
#X connect 97 0 96 0;
#X connect 100 0 56 0;
#X connect 101 0 57 0;
#X connect 103 0 102 0;
#X connect 104 0 105 0;
#X connect 106 0 107 0;
#X connect 108 0 98 0;
#X connect 108 0 99 0;
#X connect 109 0 110 0;
#X connect 110 0 103 0;
#X connect 111 0 104 0;
#X connect 112 0 106 0;
#X connect 113 0 111 0;
#X connect 114 0 112 0;
#X connect 116 0 115 0;
#X coords 0 0 1 1 85 60 0;
