#N canvas 57 37 1210 891 12;
#X declare -path .;
#N canvas 0 37 588 274 LICENSE 0;
#X text 79 84 (c) 2008 Reality Jockey;
#X text 57 36 Released under the GNU General Public License ver. 3 or later. See the file LICENSE.txt for the full text.;
#X restore 58 27 pd LICENSE;
#X obj 35 75 declare -path .;
#N canvas 0 37 536 303 LOADBANGS 0;
#X obj 172 140 s gain;
#X msg 172 119 1;
#X msg 290 121 0;
#X obj 290 142 s mode;
#X text 322 116 start in Play mode;
#X text 322 127 not Freeze mode;
#X obj 154 14 loadbang;
#X obj 154 57 s loadbang;
#X obj 154 36 bng 15 250 50 0 empty empty empty 17 7 0 10 #fcfcfc #000000 #000000;
#X obj 290 100 r loadbang;
#X obj 172 98 r loadbang;
#X obj 108 13 inlet;
#X msg 168 221 verbose 0;
#X obj 168 245 s bela_setMidi;
#X obj 168 190 r loadbang;
#X connect 1 0 0 0;
#X connect 2 0 3 0;
#X connect 6 0 8 0;
#X connect 8 0 7 0;
#X connect 9 0 2 0;
#X connect 10 0 1 0;
#X connect 11 0 8 0;
#X connect 12 0 13 0;
#X connect 14 0 12 0;
#X restore 36 51 pd LOADBANGS;
#X obj 36 31 bng 15 250 50 0 empty empty empty 17 7 0 10 #fcfcfc #000000 #000000;
#X floatatom 946 361 5 10 2000 0 - - - 0;
#X floatatom 991 361 5 0 100 0 - - - 0;
#X text 991 325 var %, f 4;
#X floatatom 629 402 5 0 0 0 - - - 0;
#X floatatom 1036 361 5 0 0 0 - - - 0;
#X floatatom 1081 361 5 0 1000 0 - - - 0;
#X text 1083 325 var %, f 4;
#X floatatom 679 402 5 0 0 0 - - - 0;
#X text 1032 325 transp (cts), f 6;
#X floatatom 855 361 5 10 2000 0 - - - 0;
#X floatatom 900 361 5 0 2500 0 - - - 0;
#X obj 381 75 tgl 19 0 empty empty empty 0 -10 0 12 #fcfcfc #000000 #000000 0 1;
#X floatatom 810 361 5 0 0 0 - - - 0;
#X floatatom 1126 361 5 0 0 0 - - - 0;
#N canvas 45 436 455 198 triangle-window 0;
#X text 256 9 window shape;
#X obj 20 26 loadbang;
#X obj 20 85 soundfiler;
#N canvas 179 217 450 300 (subpatch) 0;
#X array wndw 512 float 0;
#X coords 0 1 511 -1 200 140 1 0 0;
#X restore 210 32 graph;
#X obj 21 122 s trisize;
#X msg 20 55 read -resize tri wndw;
#X connect 1 0 5 0;
#X connect 2 0 4 0;
#X connect 5 0 2 0;
#X restore 35 97 pd triangle-window;
#X floatatom 765 361 5 0 0 0 - - - 0;
#X obj 720 361 tgl 19 0 empty empty empty 17 7 0 10 #fcfcfc #000000 #000000 0 1;
#X text 758 325 time stretch, f 7;
#X floatatom 578 402 5 0 0 0 - - - 0;
#X text 701 325 play/ freeze, f 6;
#X text 244 75 Play patch manually;
#X floatatom 590 361 5 10 2000 0 - - - 0;
#X floatatom 551 361 3 0 0 0 - - - 0;
#X text 1121 325 pitchquant (cents), f 10;
#X text 893 325 posvar (ms), f 6;
#X text 815 325 var %, f 3;
#X text 947 311 gran dur (ms), f 4;
#X text 409 170 Bela IDE monitor, f 8;
#X text 536 325 density (Hz), f 7;
#X text 587 325 metro (ms), f 5;
#X text 852 325 pos (ms), f 5;
#X obj 381 115 bela-knobs-buttons-leds;
#X obj 652 552 cloud-chan doublebuf1;
#X floatatom 743 527 5 0 0 0 - - - 0;
#X obj 784 528 bng 19 250 50 0 empty empty empty 0 -10 0 12 #fcfcfc #000000 #000000;
#X obj 904 432 vsl 20 128 -99 18 0 1 \$0-gain wet wet -7 -18 0 14 #fca85c #000000 #000000 12309 1;
#X floatatom 904 568 5 0 0 1 _db - - 0;
#X obj 708 654 vu 19 200 empty empty -1 -10 0 12 #404040 #000000 1 0;
#X obj 761 654 vu 19 200 empty empty -1 -10 0 12 #404040 #000000 1 0;
#X obj 720 383 cloud-params doublebuf1, f 59;
#X obj 551 383 cloud-player doublebuf1;
#X text 668 417 transp (cts), f 6;
#X text 574 417 time stretch, f 7;
#X text 628 417 gran dur, f 4;
#N canvas 81 402 607 469 emg 0;
#X obj 28 239 vsl 19 162 0 1 0 0 empty empty empty 0 -9 0 12 #fcfcfc #000000 #000000 0 1;
#X obj 109 239 vsl 19 162 0 1 0 0 empty empty empty 0 -9 0 12 #fcfcfc #000000 #000000 0 1;
#X obj 109 206 eavi-rms;
#N canvas 333 268 250 226 range 0;
#X floatatom 37 78 5 0 0 0 - - - 0;
#X obj 37 101 - 8192;
#X obj 37 125 / 8192;
#X floatatom 37 149 5 0 0 0 - - - 0;
#X obj 37 45 inlet;
#X obj 37 180 outlet;
#X text 98 94 14 bit value converted to -1 to 1, f 14;
#X connect 0 0 1 0;
#X connect 1 0 2 0;
#X connect 2 0 3 0;
#X connect 3 0 5 0;
#X connect 4 0 0 0;
#X restore 28 164 pd range;
#N canvas 333 268 250 226 range 0;
#X floatatom 37 78 5 0 0 0 - - - 0;
#X obj 37 101 - 8192;
#X obj 37 125 / 8192;
#X floatatom 37 149 5 0 0 0 - - - 0;
#X obj 37 45 inlet;
#X obj 37 180 outlet;
#X text 98 94 14 bit value converted to -1 to 1, f 14;
#X connect 0 0 1 0;
#X connect 1 0 2 0;
#X connect 2 0 3 0;
#X connect 3 0 5 0;
#X connect 4 0 0 0;
#X restore 109 164 pd range;
#X floatatom 189 166 5 0 0 0 - - - 0;
#X text 189 131 smoothing (ms), f 10;
#X obj 474 123 loadbang;
#X obj 28 206 eavi-rms;
#X msg 474 147 200;
#X floatatom 368 166 5 0 0 0 - - - 0;
#X text 368 132 amplification;
#X msg 543 148 10;
#X obj 28 409 outlet;
#X obj 109 409 outlet;
#X obj 28 136 bendin 2;
#X obj 109 136 bendin 3;
#X obj 314 61 inlet;
#X obj 369 61 inlet;
#X obj 369 109 + 1;
#X obj 369 85 * 20;
#X text 26 22 strangely \, EMG-1 comes out of Bendin 2...;
#X text 438 50 gain 1 and 2;
#X floatatom 314 167 5 0 0 0 - - - 0;
#X text 314 133 amplification;
#X obj 315 110 + 1;
#X obj 315 86 * 20;
#X connect 0 0 13 0;
#X connect 1 0 14 0;
#X connect 2 0 1 0;
#X connect 3 0 8 0;
#X connect 4 0 2 0;
#X connect 5 0 8 1;
#X connect 5 0 2 1;
#X connect 7 0 9 0;
#X connect 8 0 0 0;
#X connect 9 0 5 0;
#X connect 10 0 2 3;
#X connect 12 0 10 0;
#X connect 12 0 23 0;
#X connect 15 0 3 0;
#X connect 16 0 4 0;
#X connect 17 0 26 0;
#X connect 18 0 20 0;
#X connect 19 0 10 0;
#X connect 20 0 19 0;
#X connect 23 0 8 3;
#X connect 25 0 23 0;
#X connect 26 0 25 0;
#X coords 0 469 1 468 85 60 0;
#X restore 605 80 pd emg;
#X f 7;
#X obj 608 134 vsl 16 100 0 1 0 0 empty empty empty 0 -9 0 12 #01e4e9 #000000 #000000 0 1;
#X obj 629 134 vsl 16 100 0 1 0 0 empty empty empty 0 -9 0 12 #01e4e9 #000000 #000000 0 1;
#X obj 666 134 vsl 16 100 0 1 0 0 empty empty empty 0 -9 0 12 #faff00 #000000 #000000 0 1;
#X obj 687 134 vsl 16 100 0 1 0 0 empty empty empty 0 -9 0 12 #faff00 #000000 #000000 0 1;
#X obj 724 133 vsl 16 100 0 1 0 0 empty empty empty 0 -9 0 12 #e3c6ff #000000 #000000 0 1;
#X obj 745 133 vsl 16 100 0 1 0 0 empty empty empty 0 -9 0 12 #e3c6ff #000000 #000000 0 1;
#N canvas 12 252 1447 314 mapper 0;
#X obj 20 24 inlet;
#X floatatom 20 48 5 0 0 0 - - - 0;
#X obj 37 116 m_scale 0 1 0 100;
#X floatatom 37 140 5 0 0 0 - - - 0;
#X floatatom 76 93 5 0 0 0 - - - 0;
#X floatatom 115 93 5 0 0 0 - - - 0;
#X floatatom 154 93 5 0 0 0 - - - 0;
#X obj 37 258 send;
#X msg 72 204 symbol doublebuf1-stretch;
#X symbolatom 62 232 25 0 0 0 - - - 0;
#X obj 63 48 route send min max curve;
#X obj 63 24 r map1;
#X obj 249 24 inlet;
#X floatatom 249 48 5 0 0 0 - - - 0;
#X obj 266 116 m_scale 0 1 0 100;
#X floatatom 266 140 5 0 0 0 - - - 0;
#X floatatom 305 93 5 0 0 0 - - - 0;
#X floatatom 344 93 5 0 0 0 - - - 0;
#X floatatom 383 93 5 0 0 0 - - - 0;
#X obj 266 258 send;
#X symbolatom 291 232 25 0 0 0 - - - 0;
#X obj 292 48 route send min max curve;
#X obj 292 24 r map2;
#X msg 301 204 symbol doublebuf1-dur;
#X obj 505 20 inlet;
#X floatatom 505 44 5 0 0 0 - - - 0;
#X obj 522 112 m_scale 0 1 0 100;
#X floatatom 522 136 5 0 0 0 - - - 0;
#X floatatom 561 89 5 0 0 0 - - - 0;
#X floatatom 600 89 5 0 0 0 - - - 0;
#X floatatom 639 89 5 0 0 0 - - - 0;
#X obj 522 254 send;
#X symbolatom 547 228 25 0 0 0 - - - 0;
#X obj 548 44 route send min max curve;
#X obj 734 20 inlet;
#X floatatom 734 44 5 0 0 0 - - - 0;
#X obj 751 112 m_scale 0 1 0 100;
#X floatatom 751 136 5 0 0 0 - - - 0;
#X floatatom 790 89 5 0 0 0 - - - 0;
#X floatatom 829 89 5 0 0 0 - - - 0;
#X floatatom 868 89 5 0 0 0 - - - 0;
#X obj 751 254 send;
#X symbolatom 776 228 25 0 0 0 - - - 0;
#X obj 777 44 route send min max curve;
#X obj 981 20 inlet;
#X floatatom 981 44 5 0 0 0 - - - 0;
#X obj 998 112 m_scale 0 1 0 100;
#X floatatom 998 136 5 0 0 0 - - - 0;
#X floatatom 1037 89 5 0 0 0 - - - 0;
#X floatatom 1076 89 5 0 0 0 - - - 0;
#X floatatom 1115 89 5 0 0 0 - - - 0;
#X obj 998 254 send;
#X symbolatom 1023 228 25 0 0 0 - - - 0;
#X obj 1024 44 route send min max curve;
#X obj 1210 20 inlet;
#X floatatom 1210 44 5 0 0 0 - - - 0;
#X obj 1227 112 m_scale 0 1 0 100;
#X floatatom 1227 136 5 0 0 0 - - - 0;
#X floatatom 1266 89 5 0 0 0 - - - 0;
#X floatatom 1305 89 5 0 0 0 - - - 0;
#X floatatom 1344 89 5 0 0 0 - - - 0;
#X obj 1227 254 send;
#X symbolatom 1252 228 25 0 0 0 - - - 0;
#X obj 1253 44 route send min max curve;
#X obj 548 20 r map3;
#X obj 777 20 r map4;
#X obj 1024 20 r map5;
#X obj 1253 20 r map6;
#X msg 557 200 symbol doublebuf2-stretch;
#X msg 786 200 symbol doublebuf2-dur;
#X msg 1033 200 symbol doublebuf3-stretch;
#X msg 1262 200 symbol doublebuf3-dur;
#X msg 79 281 \; map1 send symbol doublebuf1-dur \; map1 min 0 \; map1 max 100 \; map1 curve 2 \;, f 33;
#X connect 0 0 1 0;
#X connect 1 0 2 0;
#X connect 2 0 3 0;
#X connect 3 0 7 0;
#X connect 4 0 2 3;
#X connect 5 0 2 4;
#X connect 6 0 2 5;
#X connect 8 0 9 0;
#X connect 9 0 7 1;
#X connect 10 0 9 0;
#X connect 10 1 4 0;
#X connect 10 2 5 0;
#X connect 10 3 6 0;
#X connect 11 0 10 0;
#X connect 12 0 13 0;
#X connect 13 0 14 0;
#X connect 14 0 15 0;
#X connect 15 0 19 0;
#X connect 16 0 14 3;
#X connect 17 0 14 4;
#X connect 18 0 14 5;
#X connect 20 0 19 1;
#X connect 21 0 20 0;
#X connect 21 1 16 0;
#X connect 21 2 17 0;
#X connect 21 3 18 0;
#X connect 22 0 21 0;
#X connect 23 0 20 0;
#X connect 24 0 25 0;
#X connect 25 0 26 0;
#X connect 26 0 27 0;
#X connect 27 0 31 0;
#X connect 28 0 26 3;
#X connect 29 0 26 4;
#X connect 30 0 26 5;
#X connect 32 0 31 1;
#X connect 33 0 32 0;
#X connect 33 1 28 0;
#X connect 33 2 29 0;
#X connect 33 3 30 0;
#X connect 34 0 35 0;
#X connect 35 0 36 0;
#X connect 36 0 37 0;
#X connect 37 0 41 0;
#X connect 38 0 36 3;
#X connect 39 0 36 4;
#X connect 40 0 36 5;
#X connect 42 0 41 1;
#X connect 43 0 42 0;
#X connect 43 1 38 0;
#X connect 43 2 39 0;
#X connect 43 3 40 0;
#X connect 44 0 45 0;
#X connect 45 0 46 0;
#X connect 46 0 47 0;
#X connect 47 0 51 0;
#X connect 48 0 46 3;
#X connect 49 0 46 4;
#X connect 50 0 46 5;
#X connect 52 0 51 1;
#X connect 53 0 52 0;
#X connect 53 1 48 0;
#X connect 53 2 49 0;
#X connect 53 3 50 0;
#X connect 54 0 55 0;
#X connect 55 0 56 0;
#X connect 56 0 57 0;
#X connect 57 0 61 0;
#X connect 58 0 56 3;
#X connect 59 0 56 4;
#X connect 60 0 56 5;
#X connect 62 0 61 1;
#X connect 63 0 62 0;
#X connect 63 1 58 0;
#X connect 63 2 59 0;
#X connect 63 3 60 0;
#X connect 64 0 33 0;
#X connect 65 0 43 0;
#X connect 66 0 53 0;
#X connect 67 0 63 0;
#X connect 68 0 32 0;
#X connect 69 0 42 0;
#X connect 70 0 52 0;
#X connect 71 0 62 0;
#X restore 608 247 pd mapper;
#X f 20;
#N canvas 0 22 450 300 (subpatch) 0;
#X array doublebuf1 220500 float 0;
#X coords 0 1 220499 -1 200 140 1 0 0;
#X restore 38 424 graph;
#X text 244 476 220500 samples = 5 sec @ 44.1Khz, f 17;
#X text 244 528 Each half = 2.5 sec, f 13;
#X obj 100 300 bng 19 250 50 0 empty empty empty 0 -10 0 12 #fcfcfc #000000 #000000;
#X obj 188 300 bng 19 250 50 0 empty empty empty 0 -10 0 12 #fcfcfc #000000 #000000;
#X text 67 326 start first recording, f 17;
#X text 132 421 | | | | | | | | | |, f 2;
#X text 244 424 Buffer contains two copies of 2500ms, f 20;
#N canvas 92 129 427 246 alternator 0;
#X obj 35 43 tgl 19 0 empty empty empty 0 -10 0 12 #fcfcfc #000000 #000000 0 1;
#X floatatom 98 48 10 0 0 0 - - - 0;
#X obj 35 67 metro 2500;
#X obj 35 91 tgl 19 0 empty empty empty 0 -10 0 12 #fcfcfc #000000 #000000 0 1;
#X obj 35 115 select 0 1;
#X obj 35 139 bng 19 250 50 0 empty empty empty 0 -10 0 12 #fcfcfc #000000 #000000;
#X obj 68 139 bng 19 250 50 0 empty empty empty 0 -10 0 12 #fcfcfc #000000 #000000;
#X obj 35 19 loadbang;
#X text 131 77 5 sec buffer \, with two recordings starting half a buffer apart, f 33;
#X text 127 145 trigger rec - first half \, second half;
#X obj 35 176 outlet;
#X obj 86 176 outlet;
#X connect 0 0 2 0;
#X connect 1 0 2 1;
#X connect 2 0 3 0;
#X connect 3 0 4 0;
#X connect 4 0 5 0;
#X connect 4 1 6 0;
#X connect 5 0 10 0;
#X connect 6 0 11 0;
#X connect 7 0 0 0;
#X restore 100 274 pd alternator;
#X text 196 326 start second recording half buffer in, f 22;
#X text 30 813 msp Granular Synthesis;
#X text 29 831 Adam Parkinson / RJDJ iOS / 2010;
#X text 193 812 nobuyasu sakodna / MaxMSP / 1999;
#X text 29 739 Based on our port of Sakonda-san's MSP granular synth;
#X text 29 756 Combined with Cipriani & Giri's Gen~ cloud generator from their Vol. 3 book, f 77;
#X text 30 849 Atau Tanaka 2024;
#X text 29 720 Granular cloud CLONE generator;
#X text 30 776 granular engine plays one grain at a time at density \, overflowing to next available grain when busy \, uses clone object to instantiate grains, f 77;
#X text 33 614 DEPLACEMENT for EMG and CHAMBER TRIO;
#X text 33 638 for ERAMAA TRIO 2024;
#X text 33 662 Atau Tanaka;
#X obj 37 359 tabwrite~ doublebuf1;
#X obj 188 359 tabwrite~ doublebuf1;
#X obj 572 586 gain2~;
#X obj 839 432 vsl 20 128 -99 18 0 1 \$0-gain dry dry -7 -18 0 14 #fca85c #000000 #000000 0 1;
#X floatatom 839 568 5 0 0 1 _db - - 0;
#X obj 652 586 stgain2~;
#N canvas 110 415 625 417 vu 0;
#X obj 59 129 env~ 1024;
#X obj 161 111 abs~;
#X obj 161 213 snapshot~;
#X obj 161 256 rmstodb;
#X obj 161 21 inlet~;
#X obj 161 288 - 100;
#X obj 59 287 - 100;
#X obj 59 361 outlet;
#X obj 161 361 outlet;
#X text 344 307 Check the help file of env~ and slop~ for more details., f 31;
#X obj 239 89 expr 1000 / $f1;
#X floatatom 239 117 5 0 0 0 - - - 0;
#X obj 161 146 slop~ 0 0 0 0 1e+09;
#X obj 239 18 inlet;
#X floatatom 239 57 5 0 0 0 - - - 0;
#X text 359 89 convert to hz;
#X text 282 118 hz;
#X text 284 57 peak decay time in ms;
#X obj 59 171 t f b;
#X text 345 132 The env~ object is dedicated to RMS analysis. Its output is in dB (0-100 range \, pd style) but needs to be converted to dBFS (and we do that by simply subtracting 100)., f 31;
#X text 345 225 The slop~ object is used here for peak detection. We need to convert the output to dB with rmstodb and also subtract by 100 to convert it to dBFS., f 31;
#X connect 0 0 18 0;
#X connect 1 0 12 0;
#X connect 2 0 3 0;
#X connect 3 0 5 0;
#X connect 4 0 0 0;
#X connect 4 0 1 0;
#X connect 5 0 8 0;
#X connect 6 0 7 0;
#X connect 10 0 11 0;
#X connect 11 0 12 3;
#X connect 12 0 2 0;
#X connect 13 0 14 0;
#X connect 14 0 10 0;
#X connect 18 0 6 0;
#X connect 18 1 2 0;
#X restore 707 620 pd vu;
#N canvas 110 415 625 417 vu 0;
#X obj 59 129 env~ 1024;
#X obj 161 111 abs~;
#X obj 161 213 snapshot~;
#X obj 161 256 rmstodb;
#X obj 161 21 inlet~;
#X obj 161 288 - 100;
#X obj 59 287 - 100;
#X obj 59 361 outlet;
#X obj 161 361 outlet;
#X text 344 307 Check the help file of env~ and slop~ for more details., f 31;
#X obj 239 89 expr 1000 / $f1;
#X floatatom 239 117 5 0 0 0 - - - 0;
#X obj 161 146 slop~ 0 0 0 0 1e+09;
#X obj 239 18 inlet;
#X floatatom 239 57 5 0 0 0 - - - 0;
#X text 359 89 convert to hz;
#X text 282 118 hz;
#X text 284 57 peak decay time in ms;
#X obj 59 171 t f b;
#X text 345 132 The env~ object is dedicated to RMS analysis. Its output is in dB (0-100 range \, pd style) but needs to be converted to dBFS (and we do that by simply subtracting 100)., f 31;
#X text 345 225 The slop~ object is used here for peak detection. We need to convert the output to dB with rmstodb and also subtract by 100 to convert it to dBFS., f 31;
#X connect 0 0 18 0;
#X connect 1 0 12 0;
#X connect 2 0 3 0;
#X connect 3 0 5 0;
#X connect 4 0 0 0;
#X connect 4 0 1 0;
#X connect 5 0 8 0;
#X connect 6 0 7 0;
#X connect 10 0 11 0;
#X connect 11 0 12 3;
#X connect 12 0 2 0;
#X connect 13 0 14 0;
#X connect 14 0 10 0;
#X connect 18 0 6 0;
#X connect 18 1 2 0;
#X restore 760 620 pd vu;
#X obj 646 655 vu 19 200 empty empty -1 -10 0 12 #404040 #000000 1 0;
#N canvas 110 415 625 417 vu 0;
#X obj 59 129 env~ 1024;
#X obj 161 111 abs~;
#X obj 161 213 snapshot~;
#X obj 161 256 rmstodb;
#X obj 161 21 inlet~;
#X obj 161 288 - 100;
#X obj 59 287 - 100;
#X obj 59 361 outlet;
#X obj 161 361 outlet;
#X text 344 307 Check the help file of env~ and slop~ for more details., f 31;
#X obj 239 89 expr 1000 / $f1;
#X floatatom 239 117 5 0 0 0 - - - 0;
#X obj 161 146 slop~ 0 0 0 0 1e+09;
#X obj 239 18 inlet;
#X floatatom 239 57 5 0 0 0 - - - 0;
#X text 359 89 convert to hz;
#X text 282 118 hz;
#X text 284 57 peak decay time in ms;
#X obj 59 171 t f b;
#X text 345 132 The env~ object is dedicated to RMS analysis. Its output is in dB (0-100 range \, pd style) but needs to be converted to dBFS (and we do that by simply subtracting 100)., f 31;
#X text 345 225 The slop~ object is used here for peak detection. We need to convert the output to dB with rmstodb and also subtract by 100 to convert it to dBFS., f 31;
#X connect 0 0 18 0;
#X connect 1 0 12 0;
#X connect 2 0 3 0;
#X connect 3 0 5 0;
#X connect 4 0 0 0;
#X connect 4 0 1 0;
#X connect 5 0 8 0;
#X connect 6 0 7 0;
#X connect 10 0 11 0;
#X connect 11 0 12 3;
#X connect 12 0 2 0;
#X connect 13 0 14 0;
#X connect 14 0 10 0;
#X connect 18 0 6 0;
#X connect 18 1 2 0;
#X restore 645 621 pd vu;
#X msg 992 559 \; map3 send symbol dry \; map3 min -99 \; map3 max 18 \; map3 curve 0.5 \;, f 22;
#X msg 992 640 \; map4 send symbol wet \; map4 min -99 \; map4 max 18 \; map4 curve 0.5 \;, f 22;
#X obj 992 534 loadbang;
#N canvas 40 158 1243 494 parameter-monitor 0;
#X text 90 10 monitor parameters in Bela IDE console;
#X obj 106 67 tgl 19 0 empty empty empty 0 -10 0 12 #fcfcfc #000000 #000000 0 1;
#X obj 106 134 t b b b b b, f 30;
#X obj 530 443 print;
#X obj 106 42 inlet;
#X obj 106 261 pack 0 0 0 0 0 0 0 0, f 55;
#X obj 106 236 f;
#X obj 156 236 f;
#X obj 209 236 f;
#X obj 261 236 f;
#X obj 314 236 f;
#X obj 384 232 f;
#X obj 434 232 f;
#X obj 487 232 f;
#X obj 452 161 r cv6;
#X obj 528 190 r cv7;
#X msg 646 290 cv0 \$1 cv1 \$2 dry \$3 wet \$4 cv4 \$5 cv5 \$6 cv6 \$7 cv7 \$8;
#X obj 19 159 r doublebuf1-density;
#X obj 81 189 r doublebuf1-pos;
#X obj 171 160 r doublebuf1-dur;
#X obj 210 189 r doublebuf1-transp;
#X obj 297 163 r doublebuf1-stretch;
#X obj 106 90 metro 2000;
#X obj 391 191 r doublebuf1-metro;
#X msg 111 293 dens-metro \$1 pos \$2 dur \$3 transp \$4 stretch \$5 metro \$6;
#X obj 647 153 t b b b b b, f 30;
#X obj 647 254 pack 0 0 0 0 0 0 0 0, f 55;
#X obj 647 229 f;
#X obj 697 229 f;
#X obj 750 229 f;
#X obj 802 229 f;
#X obj 855 229 f;
#X obj 925 225 f;
#X obj 975 225 f;
#X obj 1028 225 f;
#X obj 945 184 r cv6;
#X obj 990 184 r cv7;
#X obj 666 184 r cv0;
#X obj 708 184 r cv1;
#X obj 751 184 r cv2;
#X obj 793 184 r cv3;
#X obj 835 184 r cv4;
#X obj 887 184 r cv5;
#X connect 1 0 22 0;
#X connect 2 0 6 0;
#X connect 2 1 7 0;
#X connect 2 2 8 0;
#X connect 2 3 9 0;
#X connect 2 4 10 0;
#X connect 2 4 11 0;
#X connect 2 4 13 0;
#X connect 2 4 12 0;
#X connect 4 0 1 0;
#X connect 5 0 24 0;
#X connect 6 0 5 0;
#X connect 7 0 5 1;
#X connect 8 0 5 2;
#X connect 9 0 5 3;
#X connect 10 0 5 4;
#X connect 11 0 5 5;
#X connect 12 0 5 6;
#X connect 13 0 5 7;
#X connect 14 0 12 1;
#X connect 15 0 13 1;
#X connect 16 0 3 0;
#X connect 17 0 6 1;
#X connect 18 0 7 1;
#X connect 19 0 8 1;
#X connect 20 0 9 1;
#X connect 21 0 10 1;
#X connect 22 0 2 0;
#X connect 22 0 25 0;
#X connect 23 0 11 1;
#X connect 24 0 3 0;
#X connect 25 0 27 0;
#X connect 25 1 28 0;
#X connect 25 2 29 0;
#X connect 25 3 30 0;
#X connect 25 4 31 0;
#X connect 25 4 32 0;
#X connect 25 4 34 0;
#X connect 25 4 33 0;
#X connect 26 0 16 0;
#X connect 27 0 26 0;
#X connect 28 0 26 1;
#X connect 29 0 26 2;
#X connect 30 0 26 3;
#X connect 31 0 26 4;
#X connect 32 0 26 5;
#X connect 33 0 26 6;
#X connect 34 0 26 7;
#X connect 35 0 33 1;
#X connect 36 0 34 1;
#X connect 37 0 27 1;
#X connect 38 0 28 1;
#X connect 39 0 29 1;
#X connect 40 0 30 1;
#X connect 41 0 31 1;
#X connect 42 0 32 1;
#X restore 387 202 pd parameter-monitor;
#X f 21;
#X obj 387 180 tgl 19 1 empty empty empty 0 -10 0 12 #fcfcfc #000000 #000000 0 1;
#X obj 678 96 r cv6;
#X obj 720 96 r cv7;
#X text 992 492 knob 7 = dry;
#X text 992 514 knob 8 = wet;
#X obj 605 54 r cv0;
#X obj 656 54 r cv1;
#X text 30 697 BTMIDID BLE MIDI by Nathan Adams;
#X text 34 161 COMPOSITION HERE, f 11;
#X obj 571 622 dac~ 1 2;
#X obj 38 274 adc~ 1;
#X obj 572 552 adc~ 1;
#X text 712 65 Knob 2 (1) : EMG gain 2 (1-20x);
#X text 712 42 Knob 1 (0) : EMG gain 1 (1-20x);
#X text 769 86 knob 7 = dry level;
#X text 769 108 knob 8 = wet level;
#X text 308 173 Verbose to console, f 10;
#X obj 286 183 tgl 19 0 empty empty empty 0 -10 0 12 #fcfcfc #000000 #000000 0 1;
#X obj 286 207 s verbose;
#N canvas 206 143 1264 782 ble-midi 0;
#X msg 316 421 disconnect;
#X obj 288 450 netsend -u -b;
#X obj 303 371 loadbang;
#X text 389 451 send as UDP \, binary;
#X text 289 27 Spaces are delimiters instead of forward slash /;
#X msg 303 395 connect localhost 36892;
#X text 291 51 Set sets message \, then send data;
#X obj 29 403 select 1;
#X obj 29 427 t b b;
#X msg 61 454 set connect;
#X obj 289 126 select 1;
#X obj 289 150 t b b;
#X msg 321 177 set connect_alias;
#X obj 288 337 oscformat;
#X obj 29 508 list append 123456;
#X obj 491 130 select 1;
#X obj 491 181 bng 19 250 50 0 empty empty empty 0 -10 0 12 #fcfcfc #000000 #000000;
#X msg 523 181 set link_alsa;
#X obj 491 154 t b b;
#X msg 289 231 symbol EAVI;
#X msg 874 141 hw 1 0 0;
#X obj 491 78 r button3;
#X obj 874 111 select 1;
#X obj 874 169 s bela_setMidi;
#X msg 33 227 symbol E2:16:01:30:32:30;
#X msg 33 149 symbol E2:16:01:39:31:30;
#X msg 36 74 symbol E2:16:01:37:31:30;
#X text 38 44 EAVI 17 Viola;
#X text 35 120 EAVI 19 Bass clarinet;
#X text 36 198 EAVI 20 Piano;
#X obj 29 375 change;
#X obj 289 98 change;
#X obj 491 102 change;
#X obj 874 83 change;
#X msg 29 481 symbol E2:16:01:37:31:30;
#X obj 289 74 r button1;
#X obj 584 255 oscparse;
#X obj 584 221 netreceive -u -b 36893;
#X obj 584 356 print connect;
#X obj 661 383 print connect_alias;
#X obj 739 409 print link_alsa;
#X obj 584 291 route list;
#X obj 584 324 route connect connect_alias link_alsa wd_status wd_PANIC;
#X text 697 463 strip timestamp;
#X obj 895 360 bng 19 250 50 0 empty empty empty 0 -10 0 12 #fcfcfc #000000 #000000;
#X obj 817 443 unpack 0 0 0;
#X floatatom 817 467 5 0 0 0 - - - 0;
#X floatatom 858 467 5 0 0 0 - - - 0;
#X floatatom 898 468 5 0 0 0 - - - 0;
#X obj 858 515 bng 19 250 50 0 empty empty empty 0 -10 0 12 #fcfcfc #000000 #000000;
#X obj 895 515 bng 19 250 50 0 empty empty empty 0 -10 0 12 #fcfcfc #000000 #000000;
#X obj 895 544 f;
#X obj 895 592 bng 19 250 50 0 empty empty empty 0 -10 0 12 #fcfcfc #000000 #000000;
#X obj 928 593 bng 19 250 50 0 empty empty empty 0 -10 0 12 #fcfcfc #000000 #000000;
#X obj 858 490 select 16 0;
#X text 867 291 need data on PANIC;
#X obj 895 568 select 4 0;
#X msg 928 617 Connected...;
#X msg 895 641 Reconnecting;
#X msg 858 666 DISCONNECTED;
#X obj 638 670 tgl 19 0 empty empty empty 0 -10 0 12 #fcfcfc #000000 #000000 0 1;
#X obj 663 693 tgl 19 0 empty empty empty 0 -10 0 12 #fcfcfc #000000 #000000 0 1;
#X obj 663 669 metro 150;
#X obj 684 643 unpack;
#X msg 684 610 1 150;
#X msg 738 610 1 350;
#X msg 791 610 1 1000;
#X obj 663 716 outlet;
#X obj 789 359 print status;
#X text 575 104 watchdog takes care of this;
#X obj 800 62 loadbang;
#X obj 874 59 r button2;
#X text 30 270 EAVI 8 Piano;
#X msg 27 299 symbol E2:16:01:38:30:30;
#X obj 1021 717 print EAVI-BLE;
#X obj 1021 692 spigot;
#X obj 895 415 print PANIC;
#X obj 895 391 spigot;
#X obj 979 415 print other;
#X obj 979 387 spigot;
#X obj 1109 317 r verbose;
#X obj 1109 341 tgl 19 0 empty empty empty 0 -10 0 12 #fcfcfc #000000 #000000 0 1;
#X obj 248 521 print sendosc;
#X obj 248 493 spigot;
#X connect 0 0 1 0;
#X connect 2 0 5 0;
#X connect 5 0 1 0;
#X connect 5 0 83 0;
#X connect 7 0 8 0;
#X connect 8 0 34 0;
#X connect 8 1 9 0;
#X connect 10 0 11 0;
#X connect 11 0 19 0;
#X connect 11 1 12 0;
#X connect 12 0 13 0;
#X connect 13 0 1 0;
#X connect 13 0 83 0;
#X connect 15 0 18 0;
#X connect 16 0 13 0;
#X connect 17 0 13 0;
#X connect 18 0 16 0;
#X connect 18 1 17 0;
#X connect 19 0 13 0;
#X connect 20 0 23 0;
#X connect 21 0 32 0;
#X connect 22 0 20 0;
#X connect 30 0 7 0;
#X connect 31 0 10 0;
#X connect 32 0 15 0;
#X connect 33 0 22 0;
#X connect 34 0 14 0;
#X connect 35 0 31 0;
#X connect 36 0 41 0;
#X connect 37 0 36 0;
#X connect 41 0 42 0;
#X connect 42 0 38 0;
#X connect 42 1 39 0;
#X connect 42 2 40 0;
#X connect 42 3 45 0;
#X connect 42 4 44 0;
#X connect 42 5 79 0;
#X connect 44 0 77 0;
#X connect 45 0 46 0;
#X connect 45 1 47 0;
#X connect 45 2 48 0;
#X connect 47 0 54 0;
#X connect 48 0 51 1;
#X connect 49 0 59 0;
#X connect 49 0 64 0;
#X connect 50 0 51 0;
#X connect 51 0 56 0;
#X connect 52 0 58 0;
#X connect 52 0 65 0;
#X connect 53 0 57 0;
#X connect 53 0 66 0;
#X connect 54 0 49 0;
#X connect 54 1 50 0;
#X connect 56 0 52 0;
#X connect 56 1 53 0;
#X connect 57 0 75 0;
#X connect 58 0 75 0;
#X connect 59 0 75 0;
#X connect 60 0 62 0;
#X connect 61 0 67 0;
#X connect 62 0 61 0;
#X connect 63 0 60 0;
#X connect 63 1 62 1;
#X connect 64 0 63 0;
#X connect 65 0 63 0;
#X connect 66 0 63 0;
#X connect 70 0 20 0;
#X connect 71 0 33 0;
#X connect 75 0 74 0;
#X connect 77 0 76 0;
#X connect 79 0 78 0;
#X connect 80 0 81 0;
#X connect 81 0 79 1;
#X connect 81 0 77 1;
#X connect 81 0 75 1;
#X connect 81 0 83 1;
#X connect 83 0 82 0;
#X restore 420 76 pd ble-midi;
#N canvas 391 101 829 543 cuelist 0;
#N canvas 63 100 929 708 presets 0;
#X msg 35 157 \; play-cloud 0 1000 1000 -400;
#X msg 35 205 \; play-cloud 0 1000 500 -400;
#X text 33 134 instance \, position (ms) \, grandur \, transp;
#X msg 128 34 \; density 0 \; metro 20 \; dur 80 \; transp 0 \; posvar 10 \;;
#X msg 35 35 \; density 0 \; metro 100 \; dur 200 \; transp 0 \; posvar 0 \;;
#X text 352 23 piano hits;
#X msg 378 156 \; density 0 \; metro 50 \; freeze 0 \; stretch 0.5 \; stretchvar 0 \; pos 0 \; posvar 0 \; dur 80 \; durvar 0 \; transp 0 \; transpvar 0 \; pitchquant 0 \;;
#X msg 501 153 \; density 40 \; metro 0 \; freeze 0 \; stretch 0.8 \; stretchvar 50 \; pos 0 \; posvar 4 \; dur 80 \; durvar 50 \; transp 10 \; transpvar 100 \; pitchquant 0 \;;
#X obj 378 98 select 1;
#X obj 378 74 r button1;
#X obj 503 71 r button2;
#X obj 503 95 select 1;
#X obj 643 96 select 1;
#X obj 768 93 select 1;
#X obj 643 72 r button3;
#X obj 768 69 r button4;
#X msg 643 154 \; density 10 \; metro 250 \; freeze 1 \; stretch 0 \; stretchvar 0 \; pos 1000 \; posvar 50 \; dur 250 \; durvar 30 \; transp 100 \; transpvar 50 \; pitchquant 0 \;;
#X msg 766 151 \; density 0 \; metro 100 \; freeze 0 \; stretch 0.8 \; stretchvar 50 \; pos 0 \; posvar 4 \; dur 280 \; durvar 50 \; transp 700 \; transpvar 50 \; pitchquant 200 \;;
#X msg 66 445 \; doublebuf1-density 3 \; doublebuf1-metro 500 \; doublebuf1-freeze 0 \; doublebuf1-stretch 1 \; doublebuf1-stretchvar 25 \; doublebuf1-pos 0 \; doublebuf1-posvar 50 \; doublebuf1-dur 1000 \; doublebuf1-durvar 20 \; doublebuf1-transp 0 \; doublebuf1-transpvar 0 \; doublebuf1-pitchquant 0 \;;
#X msg 269 554 \; map1 send symbol doublebuf1-dur \; map1 min 0 \; map1 max 100 \; map1 curve 2 \;, f 33;
#X text 269 477 Examples of messages in Composition patch, f 29;
#X connect 9 0 8 0;
#X connect 10 0 11 0;
#X connect 14 0 12 0;
#X connect 15 0 13 0;
#X restore 543 448 pd presets;
#N canvas 40 397 586 459 drone 0;
#X obj 206 9 inlet;
#X obj 206 33 bng 19 250 50 0 empty empty empty 0 -10 0 12 #fcfcfc #000000 #000000;
#X text 268 12 then increase density add posvar;
#X msg 39 94 \; doublebuf1-density 3 \; doublebuf1-metro 500 \; doublebuf1-freeze 1 \; doublebuf1-stretch 2 \; doublebuf1-stretchvar 0 \; doublebuf1-pos 0 \; doublebuf1-posvar 0 \; doublebuf1-dur 1000 \; doublebuf1-durvar 0 \; doublebuf1-transp 50 \; doublebuf1-transpvar 0 \; doublebuf1-pitchquant 0 \;;
#X msg 208 291 \; map1 send symbol doublebuf1-pos \; map1 min 0 \; map1 max 500 \; map1 curve 1 \;, f 17;
#X text 221 405 try also stretch;
#X msg 39 290 \; map2 send symbol doublebuf1-dur \; map2 min 500 \; map2 max 1500 \; map2 curve 1 \;, f 20;
#X msg 39 389 \; map1 send symbol doublebuf1-transp \; map1 min -25 \; map1 max 100 \; map1 curve 1 \;, f 20;
#X obj 254 94 print drone;
#X connect 0 0 1 0;
#X connect 1 0 3 0;
#X connect 1 0 6 0;
#X connect 1 0 7 0;
#X connect 1 0 8 0;
#X restore 527 407 pd drone;
#X obj 527 383 bng 19 250 50 0 empty empty empty 0 -10 0 12 #fcfcfc #000000 #000000;
#X obj 598 383 bng 19 250 50 0 empty empty empty 0 -10 0 12 #fcfcfc #000000 #000000;
#N canvas 20 386 435 520 slap 0;
#X obj 206 9 inlet;
#X obj 206 33 bng 19 250 50 0 empty empty empty 0 -10 0 12 #fcfcfc #000000 #000000;
#X msg 208 291 \; map1 send symbol doublebuf1-pos \; map1 min 0 \; map1 max 500 \; map1 curve 1 \;, f 17;
#X msg 39 94 \; doublebuf1-density 3 \; doublebuf1-metro 0 \; doublebuf1-freeze 0 \; doublebuf1-stretch 1 \; doublebuf1-stretchvar 0 \; doublebuf1-pos 0 \; doublebuf1-posvar 0 \; doublebuf1-dur 750 \; doublebuf1-durvar 0 \; doublebuf1-transp 0 \; doublebuf1-transpvar 0 \; doublebuf1-pitchquant 0 \;;
#X msg 39 290 \; map1 send symbol doublebuf1-density \; map1 min 3 \; map1 max 30 \; map1 curve 1 \;, f 20;
#X msg 39 389 \; map2 send symbol doublebuf1-dur \; map2 min 1000 \; map2 max 500 \; map2 curve 1 \;, f 20;
#X obj 292 93 print slap;
#X connect 0 0 1 0;
#X connect 1 0 3 0;
#X connect 1 0 4 0;
#X connect 1 0 5 0;
#X connect 1 0 6 0;
#X restore 598 407 pd slap;
#X obj 676 383 bng 19 250 50 0 empty empty empty 0 -10 0 12 #fcfcfc #000000 #000000;
#N canvas 20 396 426 516 figure 0;
#X obj 206 9 inlet;
#X obj 206 33 bng 19 250 50 0 empty empty empty 0 -10 0 12 #fcfcfc #000000 #000000;
#X msg 208 291 \; map1 send symbol doublebuf1-pos \; map1 min 0 \; map1 max 500 \; map1 curve 1 \;, f 17;
#X msg 39 290 \; map1 send symbol doublebuf1-metro \; map1 min 200 \; map1 max 30 \; map1 curve 1 \;, f 20;
#X msg 39 389 \; map2 send symbol doublebuf1-dur \; map2 min 900 \; map2 max 300 \; map2 curve 1 \;, f 20;
#X msg 39 94 \; doublebuf1-density 0 \; doublebuf1-metro 160 \; doublebuf1-freeze 0 \; doublebuf1-stretch 1.5 \; doublebuf1-stretchvar 0 \; doublebuf1-pos 0 \; doublebuf1-posvar 0 \; doublebuf1-dur 750 \; doublebuf1-durvar 0 \; doublebuf1-transp 0 \; doublebuf1-transpvar 0 \; doublebuf1-pitchquant 0 \;;
#X obj 263 134 print figure;
#X connect 0 0 1 0;
#X connect 1 0 5 0;
#X connect 1 0 4 0;
#X connect 1 0 2 0;
#X connect 1 0 6 0;
#X restore 676 407 pd figure;
#X obj 308 164 text define -k mycuelist;
#A set mycue 1 \; 300 mycue 2 \; 300 mycue 3 \;;
#X msg 276 134 line 0;
#X msg 195 134 auto;
#X msg 233 134 stop;
#X text 275 115 rewind;
#X obj 232 189 text sequence mycuelist -g -t 1 sec;
#X obj 195 36 r button4;
#X obj 195 60 change;
#X obj 195 84 select 1;
#X obj 195 108 t b b;
#N canvas 201 270 908 543 the-time 0;
#X obj 166 176 timer 1 sec;
#X floatatom 166 200 5 0 0 0 - - - 0;
#X obj 240 145 bng 19 250 50 0 empty empty empty 0 -10 0 12 #fcfcfc #000000 #000000;
#X obj 166 121 bng 19 250 50 0 empty empty empty 0 -10 0 12 #fcfcfc #000000 #000000;
#X obj 240 119 metro 1000;
#X obj 157 274 / 60;
#X obj 157 298 i;
#X floatatom 200 298 5 0 0 0 - - - 0;
#X floatatom 157 347 5 0 0 0 - - - 0;
#X obj 166 230 t f f;
#X obj 200 321 t b f;
#X obj 157 370 pack;
#X text 45 393 min / sec;
#X obj 250 419 list;
#X obj 250 395 bng 19 250 50 0 empty empty empty 0 -10 0 12 #fcfcfc #000000 #000000;
#X floatatom 250 297 5 0 0 0 - - - 0;
#X obj 250 320 select 0;
#X text 311 271 print every 10 sec;
#X obj 180 41 inlet;
#X obj 180 65 t b b;
#X msg 240 94 1;
#X obj 157 441 outlet;
#X obj 339 46 inlet;
#X msg 275 94 0;
#X obj 339 70 t b;
#X obj 250 273 mod 10;
#X obj 200 274 mod 60;
#X obj 250 473 print time;
#X obj 250 443 spigot;
#X obj 339 395 r verbose;
#X obj 339 419 tgl 19 0 empty empty empty 0 -10 0 12 #fcfcfc #000000 #000000 0 1;
#X connect 0 0 1 0;
#X connect 1 0 9 0;
#X connect 2 0 0 1;
#X connect 3 0 0 0;
#X connect 4 0 2 0;
#X connect 5 0 6 0;
#X connect 6 0 8 0;
#X connect 7 0 10 0;
#X connect 8 0 11 0;
#X connect 9 0 5 0;
#X connect 9 1 25 0;
#X connect 9 1 26 0;
#X connect 10 0 8 0;
#X connect 10 1 11 1;
#X connect 11 0 21 0;
#X connect 11 0 13 1;
#X connect 13 0 28 0;
#X connect 14 0 13 0;
#X connect 15 0 16 0;
#X connect 16 0 14 0;
#X connect 18 0 19 0;
#X connect 19 0 20 0;
#X connect 19 1 3 0;
#X connect 20 0 4 0;
#X connect 22 0 24 0;
#X connect 23 0 4 0;
#X connect 24 0 23 0;
#X connect 25 0 15 0;
#X connect 26 0 7 0;
#X connect 28 0 27 0;
#X connect 29 0 30 0;
#X connect 30 0 28 1;
#X restore 82 194 pd the-time;
#X msg 136 64 1;
#X obj 657 127 r mycue;
#X floatatom 656 154 5 0 0 0 - - - 0;
#X obj 532 352 select 1 2 3;
#X text 346 106 mycuelist keeps list of time (sec) and cue numbers, f 20;
#X text 647 335 cue numbers trigger presets for composition sections, f 28;
#X text 545 474 other presets, f 28;
#X msg 156 171 stop;
#X obj 683 251 print mycue;
#X obj 562 56 change;
#X obj 562 80 select 1;
#X obj 562 32 r button3;
#X obj 607 137 f;
#X obj 562 104 t b;
#X obj 607 161 + 1;
#X obj 525 103 bng 19 250 50 0 empty empty empty 0 -10 0 12 #fcfcfc #000000 #000000;
#X obj 656 177 select 4;
#X msg 656 201 1;
#X connect 2 0 1 0;
#X connect 3 0 4 0;
#X connect 5 0 6 0;
#X connect 8 0 12 0;
#X connect 9 0 12 0;
#X connect 10 0 12 0;
#X connect 13 0 14 0;
#X connect 14 0 15 0;
#X connect 15 0 16 0;
#X connect 16 0 9 0;
#X connect 16 0 17 0;
#X connect 16 1 8 0;
#X connect 18 0 15 0;
#X connect 19 0 20 0;
#X connect 20 0 34 0;
#X connect 21 0 2 0;
#X connect 21 1 3 0;
#X connect 21 2 5 0;
#X connect 25 0 17 1;
#X connect 27 0 28 0;
#X connect 28 0 31 0;
#X connect 29 0 27 0;
#X connect 30 0 32 0;
#X connect 31 0 30 0;
#X connect 32 0 20 0;
#X connect 33 0 30 0;
#X connect 34 0 35 0;
#X connect 34 1 26 0;
#X connect 34 1 21 0;
#X connect 34 1 30 1;
#X connect 35 0 26 0;
#X connect 35 0 21 0;
#X connect 35 0 30 1;
#X restore 122 165 pd cuelist;
#X connect 3 0 2 0;
#X connect 4 0 43 5;
#X connect 5 0 43 6;
#X connect 8 0 43 7;
#X connect 9 0 43 8;
#X connect 13 0 43 3;
#X connect 14 0 43 4;
#X connect 15 0 35 0;
#X connect 16 0 43 2;
#X connect 17 0 43 9;
#X connect 19 0 43 1;
#X connect 20 0 43 0;
#X connect 25 0 44 1;
#X connect 26 0 44 0;
#X connect 36 0 82 0;
#X connect 36 1 82 1;
#X connect 37 0 36 0;
#X connect 38 0 36 0;
#X connect 39 0 40 0;
#X connect 40 0 82 2;
#X connect 43 0 20 0;
#X connect 43 1 19 0;
#X connect 43 2 16 0;
#X connect 43 3 13 0;
#X connect 43 4 14 0;
#X connect 43 5 4 0;
#X connect 43 6 5 0;
#X connect 43 7 8 0;
#X connect 43 8 9 0;
#X connect 43 9 17 0;
#X connect 44 0 26 0;
#X connect 44 1 25 0;
#X connect 44 2 22 0;
#X connect 44 3 7 0;
#X connect 44 4 11 0;
#X connect 48 0 49 0;
#X connect 48 0 35 4;
#X connect 48 1 50 0;
#X connect 48 1 35 5;
#X connect 49 0 55 0;
#X connect 50 0 55 1;
#X connect 51 0 55 2;
#X connect 52 0 55 3;
#X connect 53 0 55 4;
#X connect 54 0 55 5;
#X connect 59 0 77 0;
#X connect 60 0 78 0;
#X connect 64 0 59 0;
#X connect 64 1 60 0;
#X connect 79 0 86 0;
#X connect 79 0 100 0;
#X connect 79 0 100 1;
#X connect 80 0 81 0;
#X connect 81 0 79 1;
#X connect 82 0 83 0;
#X connect 82 0 100 0;
#X connect 82 0 100 1;
#X connect 82 1 84 0;
#X connect 82 1 100 1;
#X connect 82 1 100 0;
#X connect 83 0 41 0;
#X connect 84 0 42 0;
#X connect 86 0 85 0;
#X connect 89 0 87 0;
#X connect 89 0 88 0;
#X connect 91 0 90 0;
#X connect 92 0 51 0;
#X connect 93 0 52 0;
#X connect 96 0 48 0;
#X connect 97 0 48 1;
#X connect 101 0 77 0;
#X connect 101 0 78 0;
#X connect 102 0 79 0;
#X connect 108 0 109 0;
#X connect 110 0 35 1;
#X coords 0 0 1 1 85 60 0;
