#N canvas 472 65 998 727 12;
#X floatatom 105 94 5 0 0 0 - - - 0;
#X text 159 130 square;
#X text 695 31 data rate (Hz);
#X floatatom 463 127 5 0 0 0 - - - 0;
#X text 505 126 sec window;
#X obj 463 151 * 200;
#X floatatom 700 133 5 0 0 0 - - - 0;
#X floatatom 463 177 5 0 0 0 - - - 0;
#X msg 463 207 resize \$1;
#X obj 296 195 bela.counter 1 200;
#X floatatom 296 219 5 0 0 0 - - - 0;
#X obj 105 176 t b f b;
#X obj 105 405 / 200;
#X obj 105 128 t f f;
#X obj 105 152 *;
#X obj 105 429 sqrt;
#X floatatom 105 458 10 0 0 0 - - - 0;
#X obj 105 505 vsl 19 162 0 1 0 0 empty empty empty 0 -9 0 12 #fcfcfc #000000 #000000 0 1;
#X text 177 426 root;
#X text 176 402 mean;
#X floatatom 868 463 5 0 0 0 - - - 0;
#X obj 105 481 * 10;
#X obj 105 54 inlet;
#X text 105 31 raw EMG in (-1 - 1);
#X obj 463 54 inlet;
#X obj 463 83 / 1000;
#X text 462 31 smoothing window (ms);
#X obj 700 54 inlet;
#X text 688 158 default 200Hz;
#X msg 140 301 set \$1;
#X obj 140 252 bng 15 250 50 0 empty empty empty 17 7 0 10 #fcfcfc #000000 #000000;
#X obj 105 370 array sum \$0-emg;
#X obj 463 240 array define \$0-emg 200;
#X obj 140 275 symbol \$0-emg;
#X obj 128 346 tabwrite;
#X obj 140 224 loadbang;
#X obj 105 675 outlet;
#X text 172 675 0-1;
#X obj 868 54 inlet;
#X text 863 31 gain;
#X text 872 485 detault 10;
#N canvas 0 22 450 278 (subpatch) 0;
#X array \$0-env 200 float 1;
#A 0 0 0 0 0 0 0 0 0 0 0 0 0 0 0 0 0 0 0 0 0 0 0 0 0 0 0 0 0 0 0 0 0 0 0 0 0 0 0 0 0 0 0 0 0 0 0 0 0 0 0 0 0 0 0 0 0 0 0 0 0 0 0 0 0 0 0 0 0 0 0 0 0 0 0 0 0 0 0 0 0 0 0 0 0 0 0 0 0 0 0 0 0 0 0 0 0 0 0 0 0 0 0 0 0 0 0 0 0 0 0 0 0 0 0 0 0 0 0 0 0 0 0 0 0 0 0 0 0 0 0 0 0 0 0 0 0 0 0 0 0 0 0 0 0 0 0 0 0 0 0 0 0 0 0 0 0 0 0 0 0 0 0 0 0 0 0 0 0 0 0 0 0 0 0 0 0 0 0 0 0 0 0 0 0 0 0 0 0 0 0 0 0 0 0 0 0 0 0 0 0;
#X coords 0 1 199 -1 200 140 1 0 0;
#X restore 368 561 graph;
#X msg 362 370 set \$1;
#X obj 362 396 tabwrite;
#X obj 362 344 symbol \$0-env;
#X connect 0 0 13 0;
#X connect 3 0 5 0;
#X connect 5 0 7 0;
#X connect 6 0 5 1;
#X connect 7 0 8 0;
#X connect 7 0 9 2;
#X connect 7 0 12 1;
#X connect 8 0 32 0;
#X connect 9 0 10 0;
#X connect 10 0 34 1;
#X connect 10 0 43 1;
#X connect 11 0 31 0;
#X connect 11 1 34 0;
#X connect 11 2 9 0;
#X connect 12 0 15 0;
#X connect 13 0 14 0;
#X connect 13 1 14 1;
#X connect 14 0 11 0;
#X connect 15 0 16 0;
#X connect 16 0 21 0;
#X connect 17 0 36 0;
#X connect 20 0 21 1;
#X connect 21 0 17 0;
#X connect 21 0 43 0;
#X connect 22 0 0 0;
#X connect 24 0 25 0;
#X connect 25 0 3 0;
#X connect 27 0 6 0;
#X connect 29 0 34 0;
#X connect 30 0 33 0;
#X connect 30 0 44 0;
#X connect 31 0 12 0;
#X connect 33 0 29 0;
#X connect 35 0 30 0;
#X connect 38 0 20 0;
#X connect 42 0 43 0;
#X connect 44 0 42 0;
