#N canvas 114 37 1356 863 12;
#X declare -path .;
#X declare -path sounds;
#N canvas 0 23 588 274 LICENSE 0;
#X text 79 84 (c) 2008 Reality Jockey;
#X text 57 36 Released under the GNU General Public License ver. 3 or later. See the file LICENSE.txt for the full text.;
#X restore 770 654 pd LICENSE;
#X obj 14 59 declare -path .;
#X text 768 769 msp Granular Synthesis;
#N canvas 0 37 545 181 LOADBANGS 0;
#X obj 172 140 s gain;
#X msg 172 119 1;
#X msg 290 121 0;
#X obj 290 142 s mode;
#X text 322 116 start in Play mode;
#X text 322 127 not Freeze mode;
#X obj 154 14 loadbang;
#X obj 154 57 s loadbang;
#X obj 154 36 bng 15 250 50 0 empty empty empty 17 7 0 10 #fcfcfc #000000 #000000;
#X obj 290 100 r loadbang;
#X obj 172 98 r loadbang;
#X obj 108 13 inlet;
#X connect 1 0 0 0;
#X connect 2 0 3 0;
#X connect 6 0 8 0;
#X connect 8 0 7 0;
#X connect 9 0 2 0;
#X connect 10 0 1 0;
#X connect 11 0 8 0;
#X restore 15 35 pd LOADBANGS;
#X obj 15 15 bng 15 250 50 0 empty empty empty 17 7 0 10 #fcfcfc #000000 #000000;
#X obj 29 765 dac~, f 6;
#X text 156 46 load in sample #;
#X obj 15 85 declare -path sounds;
#N canvas 500 444 1333 486 INIT 1;
#X obj 663 380 send basepitch;
#X obj 321 370 send min;
#X obj 321 266 spigot;
#X obj 116 212 r mode;
#X obj 206 265 spigot;
#X obj 388 349 + 0.01;
#X obj 388 371 send maxi;
#X obj 710 55 delay 300;
#X floatatom 445 291 5 0 0 0 - - - 0;
#X obj 427 249 spigot;
#X obj 427 271 + 1;
#X obj 427 310 * 5;
#X msg 631 155 0;
#X obj 321 288 + 1;
#X obj 321 307 * 64;
#X obj 663 338 r ppr;
#X obj 206 371 send stretch;
#X floatatom 206 355 5 0 0 0 - - - 0;
#X obj 206 288 * 2;
#X obj 206 311 + 1;
#X obj 697 4 inlet;
#X obj 697 98 bng 15 250 50 0 empty empty empty 17 7 0 10 #fcfcfc #000000 #000000;
#X obj 245 228 == 0;
#X obj 360 228 tgl 15 0 empty empty empty 17 7 0 10 #fcfcfc #000000 #000000 0 1;
#X obj 245 247 tgl 15 0 empty empty empty 17 7 0 10 #fcfcfc #000000 #000000 0 1;
#X text 207 392 Play mode;
#X text 328 405 Freeze mode;
#X text 329 390 0-127;
#X text 325 419 Position + loop end in Slider_Adjuster;
#X text 100 196 Play/Freeze;
#X obj 466 228 tgl 15 0 empty empty empty 17 7 0 10 #fcfcfc #000000 #000000 0 1;
#X obj 710 33 r loadbang;
#X msg 328 167 1;
#X obj 788 370 send pitchrand;
#X obj 967 282 * 100;
#X obj 967 372 send pitchquant;
#X obj 1174 370 send duration;
#X msg 967 160 0;
#X msg 788 161 0;
#X floatatom 891 239 5 0 0 0 - - - 0;
#X floatatom 1103 243 5 0 0 0 - - - 0;
#X obj 1103 261 / 100;
#X obj 891 258 / 100;
#X obj 735 253 / 100;
#X obj 1174 297 * 250;
#X obj 788 290 * 127;
#X obj 735 230 r rpr;
#X obj 891 217 r qpr;
#X obj 1103 222 r dpr;
#X msg 1174 160 0.36;
#X connect 2 0 13 0;
#X connect 3 0 22 0;
#X connect 3 0 23 0;
#X connect 3 0 30 0;
#X connect 4 0 18 0;
#X connect 5 0 6 0;
#X connect 7 0 21 0;
#X connect 8 0 11 1;
#X connect 9 0 10 0;
#X connect 10 0 11 0;
#X connect 11 0 5 1;
#X connect 12 0 0 0;
#X connect 13 0 14 0;
#X connect 14 0 1 0;
#X connect 14 0 5 0;
#X connect 15 0 0 0;
#X connect 17 0 16 0;
#X connect 18 0 19 0;
#X connect 19 0 17 0;
#X connect 20 0 21 0;
#X connect 21 0 12 0;
#X connect 21 0 38 0;
#X connect 21 0 37 0;
#X connect 21 0 32 0;
#X connect 21 0 49 0;
#X connect 22 0 24 0;
#X connect 23 0 2 1;
#X connect 24 0 4 1;
#X connect 30 0 9 1;
#X connect 31 0 7 0;
#X connect 32 0 17 0;
#X connect 37 0 34 0;
#X connect 38 0 45 0;
#X connect 39 0 42 0;
#X connect 40 0 41 0;
#X connect 41 0 44 0;
#X connect 42 0 34 0;
#X connect 43 0 45 0;
#X connect 44 0 36 0;
#X connect 46 0 43 0;
#X connect 47 0 39 0;
#X connect 48 0 40 0;
#X connect 49 0 44 0;
#X restore 107 35 pd INIT;
#X text 767 804 Adam Parkinson / RJDJ iOS / 2010;
#X text 767 786 nobuyasu sakodna / MaxMSP / 1999;
#X text 155 22 CLICK to select;
#X floatatom 1011 159 5 0 0 0 - - - 0;
#X obj 1011 183 density-generator;
#X obj 1223 158 tgl 19 0 empty empty empty 0 -10 0 12 #fcfcfc #000000 #000000 0 1;
#X floatatom 1282 159 5 0 0 0 - - - 0;
#X obj 1223 182 metro 500;
#X msg 1056 159 0;
#X floatatom 836 396 5 10 2000 0 - - - 0;
#X floatatom 880 396 5 0 100 0 - - - 0;
#X text 890 354 var %;
#X floatatom 810 469 5 0 0 0 - - - 0;
#X floatatom 978 396 5 0 0 0 - - - 0;
#X floatatom 1022 396 5 0 1000 0 - - - 0;
#X text 1047 354 var %;
#X floatatom 952 469 5 0 0 0 - - - 0;
#X text 956 354 transp (cts);
#X obj 952 448 variator;
#X obj 810 448 variator;
#X obj 1141 429 bng 19 250 50 0 empty empty empty 0 -10 0 12 #fcfcfc #000000 #000000;
#X floatatom 695 396 5 10 2000 0 - - - 0;
#X floatatom 739 396 5 0 100 0 - - - 0;
#X text 753 354 var %;
#X floatatom 669 472 5 0 0 0 - - - 0;
#X obj 669 448 variator;
#X text 692 354 pos (ms);
#X obj 777 518 pack 0 0 0;
#X obj 1011 108 r density;
#X obj 1283 109 r metro;
#X text 833 106 stochastic density/sec;
#X text 833 121 or machine gun metro;
#X text 834 137 or both;
#X obj 1182 134 r metro-onoff;
#X obj 1011 132 change;
#X obj 1283 133 change;
#X obj 28 694 r play-cloud;
#X msg 256 527 \; play-cloud 0 1000 1000 -400;
#X msg 256 575 \; play-cloud 0 1000 500 -400;
#X msg 777 580 \; play-cloud 0 \$1 \$2 \$3;
#X obj 166 745 list split 1;
#X obj 166 772 + 1;
#X obj 166 799 list;
#X obj 166 826 route 8;
#X text 254 504 instance \, position (ms) \, grandur \, transp;
#X text 767 695 Based on our port of Sakonda-san's MSP granular synth;
#X text 767 712 Combined with Cipriani & Giri's Gen~ cloud generator from their Vol. 3 book, f 77;
#X text 768 821 Atau Tanaka 2024;
#X text 767 676 Granular cloud CLONE generator;
#N canvas 63 100 374 270 viewer 0;
#X obj 238 65 inlet;
#X obj 238 185 outlet;
#X obj 238 89 t b f;
#X obj 238 113 tgl 19 0 empty empty empty 0 -10 0 12 #fcfcfc #000000 #000000 0 1;
#X obj 238 137 pack;
#X msg 31 131 vis 2 0;
#X msg 94 131 vis 2 1;
#X msg 31 157 vis 3 0;
#X msg 94 157 vis 3 1;
#X msg 32 74 vis 0 0;
#X msg 95 74 vis 0 1;
#X msg 32 100 vis 1 0;
#X msg 95 100 vis 1 1;
#X msg 238 161 vis \$2 \$1;
#X connect 0 0 2 0;
#X connect 2 0 3 0;
#X connect 2 1 4 1;
#X connect 3 0 4 0;
#X connect 4 0 13 0;
#X connect 5 0 1 0;
#X connect 6 0 1 0;
#X connect 7 0 1 0;
#X connect 8 0 1 0;
#X connect 9 0 1 0;
#X connect 10 0 1 0;
#X connect 11 0 1 0;
#X connect 12 0 1 0;
#X connect 13 0 1 0;
#X restore 122 694 pd viewer;
#X msg 123 638 1, f 2;
#X msg 147 638 2, f 2;
#X msg 172 638 3, f 2;
#X msg 196 638 4, f 2;
#X msg 222 638 5, f 2;
#X msg 97 661 6, f 2;
#X msg 123 661 7, f 2;
#X msg 147 661 8, f 2;
#X obj 29 718 clone grain-clone-st~ 12;
#N canvas 412 61 724 700 old-stuff 0;
#X floatatom 75 589 8 0 0 0 - filterfreq - 0;
#X obj 78 554 hsl 128 15 0 1 0 1 filtercutoff empty filtercutoff 4 8 0 10 #fcfcfc #000000 #000000 12700 1;
#X floatatom 75 572 5 0 0 0 - - - 0;
#X obj 77 619 hsl 128 15 0 1 0 1 filterres empty filterres 4 8 0 10 #fcfcfc #000000 #000000 0 1;
#X floatatom 74 637 5 0 0 0 - - - 0;
#X text 142 589 Hz;
#X obj 241 574 tgl 15 0 distoonoff empty disto_on/off 17 7 0 12 #fcfcfc #000000 #000000 0 1;
#X floatatom 235 639 5 0 0 0 - - distodrive 0;
#X floatatom 235 596 5 0 0 0 - - - 0;
#X text 283 640 DISTORTION;
#N canvas 150 461 450 300 autoscale-init 0;
#X obj 64 47 inlet;
#X obj 64 151 outlet;
#X msg 201 76 input -1 1 \, 0;
#X obj 64 104 m_autoscale 0 100 dB;
#X obj 201 53 r loadbang;
#X connect 0 0 3 0;
#X connect 2 0 3 1;
#X connect 3 0 1 0;
#X connect 4 0 2 0;
#X restore 235 617 pd autoscale-init;
#X text 120 637 Q;
#X obj 238 553 hsl 128 15 -1 1 0 0 empty distortion empty -2 -8 0 10 #fcfcfc #000000 #000000 0 1;
#X text 77 491 ________________ FX SECTION ________________;
#X text 74 517 ________LPF________ ______OVERDRIVE_____;
#X obj 300 196 s rndm;
#X floatatom 300 136 4 0 0 0 - - - 0;
#X floatatom 431 166 10 0 0 0 - - - 0;
#N canvas 5 38 498 255 time_stretcher 0;
#X obj 270 158 r rndm;
#X obj 158 197 +~;
#X obj 158 218 throw~ control;
#N canvas 37 389 915 461 seq_engine 0;
#X obj 178 184 sel 0;
#X obj 220 422 outlet~;
#X obj 345 66 r sample_length;
#X obj 220 394 *~ 1000;
#X obj 178 162 * 1;
#X obj 218 274 phasor~;
#X obj 178 138 t b f;
#X obj 106 51 sel 0;
#X obj 106 26 inlet;
#X obj 210 209 t b f;
#X obj 218 254 /;
#X obj 138 76 t b f;
#X obj 138 120 /;
#X msg 138 98 1;
#X msg 216 231 1000;
#X obj 327 307 snapshot~;
#X floatatom 327 328 5 0 0 0 - - - 0;
#X obj 309 354 f;
#X obj 327 261 r mode;
#X obj 327 282 sel 1 0;
#X obj 264 122 r bangz;
#X msg 264 166 0;
#X obj 264 144 sel 1;
#X obj 433 249 inlet;
#X obj 451 305 r raw_length;
#X obj 433 338 /;
#X text 430 222 helps make sure sample starts;
#X text 430 232 at right place when switching modes;
#X text 295 166 reset to sample start;
#X text 314 241 Play/Freeze;
#X text 153 27 stretch factor;
#X text 173 98 reciprocal;
#X text 61 265 MASTER CLOCK;
#X text 60 277 FOR SAMPLE PLAYBACK;
#X connect 0 1 9 0;
#X connect 2 0 6 0;
#X connect 2 0 3 1;
#X connect 3 0 1 0;
#X connect 4 0 0 0;
#X connect 5 0 3 0;
#X connect 5 0 15 0;
#X connect 6 0 4 0;
#X connect 6 1 4 1;
#X connect 7 1 11 0;
#X connect 8 0 7 0;
#X connect 9 0 14 0;
#X connect 9 1 10 1;
#X connect 10 0 5 0;
#X connect 11 0 13 0;
#X connect 11 1 12 1;
#X connect 12 0 4 0;
#X connect 13 0 12 0;
#X connect 14 0 10 0;
#X connect 15 0 16 0;
#X connect 16 0 17 1;
#X connect 17 0 5 1;
#X connect 18 0 19 0;
#X connect 19 0 15 0;
#X connect 19 1 17 0;
#X connect 20 0 22 0;
#X connect 21 0 5 1;
#X connect 22 0 21 0;
#X connect 23 0 25 0;
#X connect 24 0 25 1;
#X connect 25 0 17 1;
#X restore 194 123 pd seq_engine;
#X floatatom 123 31 0 0 0 0 - - - 0;
#N canvas 378 62 450 300 switch 0;
#X obj 116 135 *~;
#X obj 121 181 +~;
#X obj 156 137 *~;
#X obj 135 27 inlet;
#X obj 128 78 < 1;
#X obj 123 249 outlet~;
#X obj 241 26 inlet~;
#X obj 180 26 inlet~;
#X connect 0 0 1 0;
#X connect 1 0 5 0;
#X connect 2 0 1 1;
#X connect 3 0 4 0;
#X connect 3 0 2 1;
#X connect 4 0 0 1;
#X connect 6 0 2 0;
#X connect 7 0 0 0;
#X restore 158 169 pd switch;
#X obj 136 145 tgl 15 0 empty empty empty 17 7 0 10 #fcfcfc #000000 #000000 0 1;
#X obj 136 124 r mode;
#X obj 122 4 r stretch;
#N canvas 58 80 262 182 pos_rndm 0;
#X obj 60 83 +~ 1;
#X obj 60 108 *~ 0;
#X obj 60 60 noise~;
#X obj 102 82 / 2;
#X obj 108 31 inlet;
#X obj 60 143 outlet~;
#X connect 0 0 1 0;
#X connect 1 0 5 0;
#X connect 2 0 0 0;
#X connect 3 0 1 1;
#X connect 4 0 3 0;
#X restore 270 178 pd pos_rndm;
#X text 274 219 to Granvoice;
#X obj 314 25 inlet;
#X text 152 31 Stretch factor;
#X text 72 98 PLAY mode;
#X text 358 128 FREEZE position;
#X text 63 137 Play (0);
#X text 60 148 Freeze (1);
#X obj 313 126 line~;
#X msg 314 80 \$1 5;
#X connect 0 0 9 0;
#X connect 1 0 2 0;
#X connect 3 0 5 1;
#X connect 4 0 3 0;
#X connect 5 0 1 0;
#X connect 6 0 5 0;
#X connect 7 0 6 0;
#X connect 8 0 4 0;
#X connect 9 0 1 1;
#X connect 11 0 3 1;
#X connect 11 0 18 0;
#X connect 17 0 5 2;
#X connect 18 0 17 0;
#X restore 431 197 pd time_stretcher;
#X text 508 166 freeze position (ms);
#N canvas 789 74 681 481 gran_pitch 0;
#X floatatom 407 302 0 0 0 0 - - - 0;
#N canvas 790 313 680 446 random_pitch 0;
#X obj 47 58 loadbang;
#X floatatom 431 165 0 0 0 0 - - - 0;
#X msg 500 244 2;
#X msg 500 223 bang;
#X msg 431 239 1;
#X obj 431 201 sel 0;
#X floatatom 240 77 0 0 0 0 - - - 0;
#X obj 431 340 * 1;
#X text 78 19 duration;
#X text 257 58 random width;
#X text 240 104 0 ~ 3;
#X text 470 167 0 ~1.0;
#X text 326 182 pitch quantize;
#N canvas 192 270 548 310 switch 0;
#X obj 41 187 spigot;
#X obj 132 188 spigot;
#X obj 240 187 spigot;
#X obj 361 187 spigot;
#X obj 44 19 inlet;
#X obj 78 106 i 1;
#X obj 400 105 i 1;
#X obj 278 106 i 1;
#X obj 169 105 i 1;
#X obj 247 6 inlet;
#X obj 89 136 i 0;
#X obj 180 135 i 0;
#X obj 289 136 i 0;
#X obj 411 135 i 0;
#X obj 45 236 outlet;
#X obj 133 232 outlet;
#X obj 240 233 outlet;
#X obj 361 236 outlet;
#X obj 247 56 select 1 2 3 4;
#X connect 0 0 14 0;
#X connect 1 0 15 0;
#X connect 2 0 16 0;
#X connect 3 0 17 0;
#X connect 4 0 0 0;
#X connect 4 0 1 0;
#X connect 4 0 2 0;
#X connect 4 0 3 0;
#X connect 5 0 0 1;
#X connect 6 0 3 1;
#X connect 7 0 2 1;
#X connect 8 0 1 1;
#X connect 9 0 18 0;
#X connect 10 0 0 1;
#X connect 11 0 1 1;
#X connect 12 0 2 1;
#X connect 13 0 3 1;
#X connect 18 0 5 0;
#X connect 18 0 11 0;
#X connect 18 0 12 0;
#X connect 18 0 13 0;
#X connect 18 1 8 0;
#X connect 18 1 10 0;
#X connect 18 1 12 0;
#X connect 18 1 13 0;
#X connect 18 2 7 0;
#X connect 18 2 10 0;
#X connect 18 2 11 0;
#X connect 18 2 13 0;
#X connect 18 3 6 0;
#X connect 18 3 10 0;
#X connect 18 3 11 0;
#X connect 18 3 12 0;
#X restore 433 275 pd switch;
#X obj 28 16 inlet;
#X obj 240 23 inlet;
#X obj 431 30 inlet;
#X obj 431 364 outlet;
#X obj 52 88 tgl 15 0 empty empty empty 20 8 0 8 #fcfcfc #000000 #000000 0 1;
#X obj 55 111 metro 0;
#N canvas 92 129 450 300 expr 0;
#X obj 310 132 /;
#X obj 308 194 *;
#X obj 331 164 int;
#X obj 273 94 inlet;
#X obj 351 99 inlet;
#X obj 313 263 outlet;
#X connect 0 0 2 0;
#X connect 1 0 5 0;
#X connect 2 0 1 0;
#X connect 3 0 0 0;
#X connect 4 0 0 1;
#X connect 4 0 1 1;
#X restore 459 311 pd expr;
#X obj 105 191 random 2000;
#X obj 105 215 - 1000;
#X obj 105 241 / 1000;
#X obj 116 271 *;
#X obj 99 306 t b f;
#X obj 104 371 pow;
#X msg 90 339 2;
#X connect 0 0 18 0;
#X connect 0 0 4 0;
#X connect 1 0 5 0;
#X connect 2 0 13 1;
#X connect 3 0 2 0;
#X connect 4 0 13 1;
#X connect 5 0 4 0;
#X connect 5 1 3 0;
#X connect 5 1 20 1;
#X connect 6 0 24 1;
#X connect 7 0 17 0;
#X connect 13 0 7 0;
#X connect 13 1 20 0;
#X connect 14 0 7 1;
#X connect 15 0 6 0;
#X connect 16 0 1 0;
#X connect 18 0 19 0;
#X connect 19 0 21 0;
#X connect 20 0 7 0;
#X connect 21 0 22 0;
#X connect 22 0 23 0;
#X connect 23 0 24 0;
#X connect 24 0 25 0;
#X connect 25 0 27 0;
#X connect 25 1 26 1;
#X connect 26 0 13 0;
#X connect 27 0 26 0;
#X restore 352 379 pd random_pitch;
#X obj 352 398 sig~;
#X obj 56 350 s gfreq;
#X floatatom 109 205 0 0 0 0 - - - 0;
#X floatatom 56 255 0 0 0 0 - - - 0;
#X obj 352 419 throw~ gdur;
#X floatatom 403 350 5 0 0 0 - - - 0;
#N canvas 0 38 831 413 exprA 0;
#X floatatom 479 86 5 0 0 0 - - - 0;
#X floatatom 373 50 5 0 0 0 - - - 0;
#X obj 301 120 t b f;
#X msg 304 170 1000;
#X obj 304 210 *;
#X obj 302 266 /;
#X floatatom 302 303 5 0 0 0 - - - 0;
#X obj 248 149 f;
#X obj 249 124 t b;
#X obj 372 7 inlet;
#X obj 475 7 inlet;
#X obj 301 342 outlet;
#X floatatom 244 252 5 0 0 0 - - - 0;
#X connect 0 0 2 0;
#X connect 0 0 7 1;
#X connect 1 0 5 1;
#X connect 1 0 8 0;
#X connect 2 0 3 0;
#X connect 2 1 4 1;
#X connect 3 0 4 0;
#X connect 4 0 5 0;
#X connect 4 0 12 0;
#X connect 5 0 6 0;
#X connect 6 0 11 0;
#X connect 7 0 2 0;
#X connect 8 0 7 0;
#X connect 9 0 1 0;
#X connect 10 0 0 0;
#X restore 56 286 pd exprA;
#X obj 56 234 r duration;
#X obj 109 55 r basepitch;
#X obj 407 261 r pitchrand;
#X obj 455 295 r pitchquant;
#X floatatom 56 317 5 0 0 0 - - - 0;
#X floatatom 109 77 5 0 0 0 - - - 0;
#X obj 109 94 / 1200;
#X obj 109 159 pow;
#X obj 109 115 t b f;
#X msg 109 136 2;
#X floatatom 455 317 0 0 0 0 - - - 0;
#X obj 224 55 r physics-reset;
#X msg 298 165 1;
#X obj 109 181 * 1;
#X msg 328 165 100;
#X obj 298 137 sel 0 1;
#X obj 343 54 r xtrmpitch;
#X obj 355 137 tgl 15 0 empty empty empty 17 7 0 10 #fcfcfc #000000 #000000 0 1;
#X text 150 77 cents;
#X text 149 160 12th root of 2;
#X text 174 208 frequency multiple;
#X text 83 255 gran dur (ms);
#X text 347 36 Extreme pitch button makes freq swing wider;
#X text 53 371 drives phasor~ in granvoice;
#X text 381 180 NEED TO LOOK AT DIVIDER (40) BELOW;
#X text 224 31 from INIT;
#X obj 407 327 * 3;
#X connect 0 0 35 0;
#X connect 1 0 2 0;
#X connect 2 0 6 0;
#X connect 4 0 8 1;
#X connect 5 0 1 0;
#X connect 5 0 8 0;
#X connect 7 0 1 1;
#X connect 8 0 13 0;
#X connect 9 0 5 0;
#X connect 10 0 14 0;
#X connect 11 0 0 0;
#X connect 12 0 19 0;
#X connect 13 0 3 0;
#X connect 14 0 15 0;
#X connect 15 0 17 0;
#X connect 16 0 22 0;
#X connect 17 0 18 0;
#X connect 17 1 16 1;
#X connect 18 0 16 0;
#X connect 19 0 1 2;
#X connect 20 0 21 0;
#X connect 21 0 22 1;
#X connect 22 0 4 0;
#X connect 23 0 22 1;
#X connect 24 0 21 0;
#X connect 24 1 23 0;
#X connect 25 0 24 0;
#X connect 25 0 26 0;
#X connect 35 0 7 0;
#X restore 65 385 pd gran_pitch;
#X obj 434 138 hsl 190 15 0 1 0 0 empty empty empty 20 8 0 8 #fcfcfc #000000 #000000 0 1;
#N canvas 53 236 693 556 slider_adjuster 0;
#X obj 130 450 * 1, f 6;
#X obj 28 305 inlet;
#X obj 129 503 outlet;
#X floatatom 173 165 6 0 0 0 - - - 0;
#X text 219 164 sample length;
#X obj 455 92 r mode;
#X text 473 32 Play/Freeze (0/1);
#X obj 133 57 r raw_length;
#X obj 454 123 sel 1;
#X text 514 122 Going into Freeze;
#X text 283 32 Sample position in Play;
#X text 514 134 captures position;
#X text 281 50 from "PD Granular";
#X obj 340 73 r trackpoint;
#X obj 341 136 /;
#X floatatom 364 121 5 0 0 0 - - - 0;
#X floatatom 339 99 5 0 0 0 - - - 0;
#X floatatom 346 160 5 0 0 0 - - - 0;
#X msg 435 272 set \$1;
#X obj 434 500 outlet;
#X obj 535 73 s-r mode;
#X obj 535 56 tgl 15 0 empty empty empty 17 7 0 10 #fcfcfc #000000 #000000 0 1;
#X obj 132 130 t b f;
#X obj 330 281 f;
#X text 25 282 slider (pos);
#X text 183 504 update pos (ms);
#X obj 129 377 / 1;
#X text 179 378 divide by 127 if MIDI;
#X obj 347 211 * 1;
#X text 488 501 update slider (0-1);
#X text 410 215 multiply by 127 if MIDI;
#X connect 0 0 2 0;
#X connect 1 0 26 0;
#X connect 3 0 0 1;
#X connect 5 0 8 0;
#X connect 7 0 22 0;
#X connect 7 0 15 0;
#X connect 8 0 23 0;
#X connect 13 0 16 0;
#X connect 14 0 17 0;
#X connect 15 0 14 1;
#X connect 16 0 14 0;
#X connect 17 0 28 0;
#X connect 18 0 19 0;
#X connect 20 0 21 0;
#X connect 21 0 20 0;
#X connect 22 0 26 0;
#X connect 22 1 3 0;
#X connect 23 0 26 0;
#X connect 26 0 0 0;
#X connect 28 0 18 0;
#X connect 28 0 23 1;
#X restore 431 107 pd slider_adjuster;
#X obj 162 148 s-r mode;
#X obj 162 130 tgl 15 0 empty empty empty 17 7 0 10 #fcfcfc #000000 #000000 0 1;
#X floatatom 531 339 0 0 0 0 - - - 0;
#X floatatom 163 175 0 0 0 0 - - - 0;
#X floatatom 67 318 5 0 0 0 - - - 0;
#X floatatom 530 298 0 0 0 0 - - - 0;
#X obj 531 383 tgl 15 0 empty empty empty 17 7 0 10 #fcfcfc #000000 #000000 0 1;
#X text 108 321 cents;
#X text 190 175 gran dur (ms);
#X obj 67 343 s-r basepitch;
#X obj 163 194 s-r duration;
#X obj 531 361 s-r pitchrand;
#X obj 530 317 s-r pitchquant;
#X obj 530 401 s-r xtrmpitch;
#X floatatom 306 322 5 0 0 0 - - - 0;
#X obj 307 342 s-r stretch;
#X obj 309 304 hsl 128 15 -2 4 0 0 empty empty empty -2 -8 0 10 #fcfcfc #000000 #000000 0 1;
#X text 368 287 |;
#X text 179 128 Play/Freeze;
#X obj 70 301 hsl 128 15 -1200 1200 0 0 empty empty empty -2 -8 0 10 #fcfcfc #000000 #000000 0 1;
#X msg 201 285 0;
#X text 129 284 |;
#X msg 440 288 1;
#X text 426 62 ______________SCRUB______________;
#X text 62 250 ________TRANSPOSE_________;
#X text 525 253 ______PITCH______;
#X text 560 297 quantization;
#X text 560 339 randomness;
#X text 558 382 extreme range;
#X text 305 249 _________STRETCH_________;
#X text 335 135 pos random;
#X text 560 198 --SEQ ENGINE HERE--;
#X text 162 59 ______________PLAYBACK__________________________;
#X obj 300 102 loadbang;
#X obj 300 167 + 5;
#X floatatom 667 153 5 0 0 0 - - - 0;
#X text 632 135 pos (0-1);
#X obj 431 83 r scrub;
#X connect 1 0 2 0;
#X connect 3 0 4 0;
#X connect 8 0 10 0;
#X connect 10 0 7 0;
#X connect 12 0 8 0;
#X connect 16 0 57 0;
#X connect 17 0 18 0;
#X connect 21 0 22 0;
#X connect 21 0 58 0;
#X connect 22 0 17 0;
#X connect 22 1 21 0;
#X connect 23 0 24 0;
#X connect 24 0 23 0;
#X connect 25 0 34 0;
#X connect 26 0 33 0;
#X connect 27 0 32 0;
#X connect 28 0 35 0;
#X connect 29 0 36 0;
#X connect 32 0 42 0;
#X connect 33 0 26 0;
#X connect 34 0 25 0;
#X connect 35 0 28 0;
#X connect 36 0 29 0;
#X connect 37 0 38 0;
#X connect 38 0 39 0;
#X connect 39 0 37 0;
#X connect 42 0 27 0;
#X connect 43 0 42 0;
#X connect 45 0 39 0;
#X connect 56 0 16 0;
#X connect 57 0 15 0;
#X connect 60 0 22 0;
#X restore 318 105 pd old-stuff;
#X text 343 635 view specific instances, f 13;
#X text 211 769 upon overflow \, pass play message to next instance, f 30;
#N canvas 0 22 450 300 (subpatch) 0;
#X array doublebuf 220500 float 0;
#X coords 0 1 220499 -1 200 140 1 0 0;
#X restore 47 469 graph;
#X text 44 420 220500 samples = 5 sec @ 44.1Khz;
#X text 45 437 Each half = 2.5 sec;
#X obj 31 207 tgl 19 0 empty empty empty 0 -10 0 12 #fcfcfc #000000 #000000 0 1;
#X floatatom 94 212 10 0 0 0 - - - 0;
#X obj 17 361 tabwrite~ doublebuf;
#X obj 31 231 metro 2500;
#X obj 161 362 tabwrite~ doublebuf;
#X obj 31 255 tgl 19 0 empty empty empty 0 -10 0 12 #fcfcfc #000000 #000000 0 1;
#X obj 31 279 select 0 1;
#X obj 31 303 bng 19 250 50 0 empty empty empty 0 -10 0 12 #fcfcfc #000000 #000000;
#X obj 64 303 bng 19 250 50 0 empty empty empty 0 -10 0 12 #fcfcfc #000000 #000000;
#X text 178 314 start second recording half buffer later from beginning, f 23;
#X text 40 328 start first recording, f 17;
#X obj 20 142 adc~ 1;
#X obj 31 183 loadbang;
#N canvas 92 129 457 491 play-buffer 0;
#N canvas 0 22 450 300 (subpatch) 0;
#X array playobject 391688 float 0;
#X coords 0 1 391687 -1 200 140 1;
#X restore 55 337 graph;
#N canvas 58 54 957 483 sampleloader 0;
#X obj 803 174 s raw_length;
#X obj 721 168 r rndm;
#X obj 690 258 s sample_length;
#X obj 696 69 soundfiler;
#N canvas 45 436 678 310 windowstuff 0;
#X text 445 103 window shape;
#X obj 20 26 loadbang;
#X obj 20 85 soundfiler;
#N canvas 179 217 450 300 (subpatch) 0;
#X array wndw 512 float 0;
#X coords 0 1 511 -1 200 140 1 0 0;
#X restore 399 126 graph;
#X obj 21 122 s trisize;
#X msg 20 55 read -resize tri wndw;
#X connect 1 0 5 0;
#X connect 2 0 4 0;
#X connect 5 0 2 0;
#X restore 33 215 pd windowstuff;
#X obj 690 226 -;
#X obj 722 190 t b f;
#X obj 663 165 f;
#X msg 696 38 read -resize mouse.wav playobject;
#X obj 627 36 r sfiler;
#X obj 298 46 inlet;
#X obj 636 344 list split 2;
#X obj 676 372 list split 1;
#X msg 676 398 set \$1;
#X obj 676 424 outlet;
#X obj 636 317 r sfiler;
#X obj 297 111 select 0 1 2 3 4 5;
#X obj 291 310 s sfiler;
#X floatatom 297 88 5 0 0 0 - - - 0;
#X text 175 90 load in sample #;
#X text 30 191 TRIANGLE WINDOW HERE;
#X obj 210 45 r loadbang;
#X obj 696 102 sampstoms;
#X msg 296 142 read -resize 01.wav playobject;
#X msg 316 174 read -resize 02.wav playobject;
#X msg 339 208 read -resize 03.wav playobject;
#X msg 358 240 read -resize 04.wav playobject;
#X msg 379 273 read -resize 05.wav playobject;
#X msg 210 69 2;
#X connect 1 0 6 0;
#X connect 3 0 22 0;
#X connect 5 0 2 0;
#X connect 6 0 7 0;
#X connect 6 1 5 1;
#X connect 7 0 5 0;
#X connect 8 0 3 0;
#X connect 9 0 3 0;
#X connect 10 0 18 0;
#X connect 11 1 12 0;
#X connect 12 0 13 0;
#X connect 13 0 14 0;
#X connect 15 0 11 0;
#X connect 16 0 23 0;
#X connect 16 1 24 0;
#X connect 16 2 25 0;
#X connect 16 3 26 0;
#X connect 16 4 27 0;
#X connect 18 0 16 0;
#X connect 21 0 28 0;
#X connect 22 0 7 1;
#X connect 22 0 0 0;
#X connect 22 0 5 0;
#X connect 23 0 17 0;
#X connect 24 0 17 0;
#X connect 25 0 17 0;
#X connect 26 0 17 0;
#X connect 27 0 17 0;
#X connect 28 0 18 0;
#X restore 146 316 pd sampleloader;
#X floatatom 147 291 5 0 0 0 - - - 0;
#X msg 147 269 0;
#X msg 178 269 1;
#X msg 212 269 2;
#X msg 243 269 3;
#X msg 274 269 4;
#X obj 269 308 change;
#X obj 269 332 s samp;
#X obj 59 198 tabplay~ playobject;
#X obj 59 109 unpack;
#X obj 98 139 *;
#X obj 158 50 samplerate~;
#X floatatom 158 74 9 0 0 0 - - - 0;
#X obj 158 26 loadbang;
#X obj 59 166 pack;
#X obj 158 97 / 1000;
#X obj 59 28 tgl 19 0 empty empty empty 0 -10 0 12 #fcfcfc #000000 #000000 0 1;
#X obj 59 55 metro 8800;
#X msg 59 82 0 8800;
#X text 239 132 placeholder play buffer instead of live input, f 27;
#X obj 59 230 outlet~;
#X connect 2 0 1 0;
#X connect 2 0 8 0;
#X connect 3 0 2 0;
#X connect 4 0 2 0;
#X connect 5 0 2 0;
#X connect 6 0 2 0;
#X connect 7 0 2 0;
#X connect 8 0 9 0;
#X connect 10 0 22 0;
#X connect 11 0 16 0;
#X connect 11 1 12 0;
#X connect 12 0 16 1;
#X connect 13 0 14 0;
#X connect 14 0 17 0;
#X connect 15 0 13 0;
#X connect 15 0 18 0;
#X connect 16 0 10 0;
#X connect 17 0 12 1;
#X connect 18 0 19 0;
#X connect 19 0 20 0;
#X connect 20 0 11 0;
#X restore 76 142 pd play-buffer;
#X text 127 241 5 sec buffer \, with two recordings starting half a buffer apart, f 33;
#N canvas 121 158 385 427 parameter-monitor 0;
#X text 10 11 monitor parameters in Bela IDE console;
#X obj 94 83 change;
#X obj 147 83 change;
#X obj 199 83 change;
#X obj 94 58 inlet;
#X obj 147 58 inlet;
#X obj 199 58 inlet;
#X obj 26 133 tgl 19 0 empty empty empty 0 -10 0 12 #fcfcfc #000000 #000000 0 1;
#X obj 26 181 t b b b b b, f 30;
#X obj 43 211 r samp;
#X obj 26 237 i;
#X obj 76 237 i;
#X obj 26 310 print;
#X obj 26 262 pack 0 0 0 0 0, f 30;
#X obj 129 237 i;
#X obj 181 237 i;
#X obj 234 237 i;
#X obj 26 155 metro 500;
#X msg 26 286 samp \$1 pos \$2 dur \$3 transp \$4 density \$5;
#X obj 26 61 inlet;
#X connect 1 0 11 1;
#X connect 2 0 14 1;
#X connect 3 0 15 1;
#X connect 4 0 1 0;
#X connect 5 0 2 0;
#X connect 6 0 3 0;
#X connect 7 0 17 0;
#X connect 8 0 10 0;
#X connect 8 1 11 0;
#X connect 8 2 14 0;
#X connect 8 3 15 0;
#X connect 8 4 16 0;
#X connect 9 0 10 1;
#X connect 10 0 13 0;
#X connect 11 0 13 1;
#X connect 13 0 18 0;
#X connect 14 0 13 2;
#X connect 15 0 13 3;
#X connect 16 0 13 4;
#X connect 17 0 8 0;
#X connect 18 0 12 0;
#X connect 19 0 7 0;
#X restore 624 414 pd parameter-monitor;
#X f 21;
#X obj 624 392 tgl 19 1 empty empty empty 0 -10 0 12 #fcfcfc #000000 #000000 0 1;
#N canvas 12 298 868 492 cv-map 0;
#X text 525 296 map Bela CV input to parameters;
#X obj 492 96 r CV0;
#X obj 422 96 r button1;
#N canvas 3 520 450 396 led3 0;
#X floatatom 43 85 5 0 0 0 - - - 0;
#X obj 43 134 i;
#X floatatom 43 213 5 0 0 0 - - - 0;
#X obj 43 108 - 0.5;
#X obj 43 187 + 1;
#X msg 44 276 1;
#X obj 44 300 tgl 19 0 empty empty empty 0 -10 0 12 #fcfcfc #000000 #000000 0 1;
#X msg 76 276 0;
#X obj 44 251 sel 1;
#X msg 109 275 1;
#X obj 109 299 tgl 19 0 empty empty empty 0 -10 0 12 #fcfcfc #000000 #000000 0 1;
#X msg 141 275 0;
#X msg 175 274 1;
#X obj 175 298 tgl 19 0 empty empty empty 0 -10 0 12 #fcfcfc #000000 #000000 0 1;
#X msg 207 274 0;
#X obj 109 250 sel 2;
#X obj 175 249 sel 3;
#X obj 43 31 inlet;
#X obj 44 329 outlet;
#X obj 109 329 outlet;
#X obj 175 329 outlet;
#X obj 43 61 map 1 3;
#X obj 43 160 change;
#X connect 0 0 3 0;
#X connect 1 0 22 0;
#X connect 2 0 8 0;
#X connect 2 0 15 0;
#X connect 2 0 16 0;
#X connect 3 0 1 0;
#X connect 4 0 2 0;
#X connect 5 0 6 0;
#X connect 6 0 18 0;
#X connect 7 0 6 0;
#X connect 8 0 5 0;
#X connect 8 1 7 0;
#X connect 9 0 10 0;
#X connect 10 0 19 0;
#X connect 11 0 10 0;
#X connect 12 0 13 0;
#X connect 13 0 20 0;
#X connect 14 0 13 0;
#X connect 15 0 9 0;
#X connect 15 1 11 0;
#X connect 16 0 12 0;
#X connect 16 1 14 0;
#X connect 17 0 21 0;
#X connect 21 0 0 0;
#X connect 22 0 4 0;
#X restore 474 198 pd led3;
#X obj 422 144 sel 1;
#N canvas 82 285 471 457 led2 0;
#X floatatom 43 85 5 0 0 0 - - - 0;
#X obj 43 134 i;
#X floatatom 43 216 5 0 0 0 - - - 0;
#X obj 43 108 - 0.5;
#X obj 43 190 + 1;
#X msg 50 303 1;
#X obj 66 342 tgl 19 0 empty empty empty 0 -10 0 12 #fcfcfc #000000 #000000 0 1;
#X msg 82 303 0;
#X msg 115 302 1;
#X obj 131 341 tgl 19 0 empty empty empty 0 -10 0 12 #fcfcfc #000000 #000000 0 1;
#X msg 147 302 0;
#X obj 43 31 inlet;
#X obj 66 371 outlet;
#X obj 131 371 outlet;
#X obj 43 61 map 1 3;
#X obj 44 254 sel 1 2 3, f 17;
#X obj 43 163 change;
#X connect 0 0 3 0;
#X connect 1 0 16 0;
#X connect 2 0 15 0;
#X connect 3 0 1 0;
#X connect 4 0 2 0;
#X connect 5 0 6 0;
#X connect 6 0 12 0;
#X connect 7 0 6 0;
#X connect 8 0 9 0;
#X connect 9 0 13 0;
#X connect 10 0 9 0;
#X connect 11 0 14 0;
#X connect 14 0 0 0;
#X connect 15 0 5 0;
#X connect 15 0 10 0;
#X connect 15 1 5 0;
#X connect 15 1 8 0;
#X connect 15 2 8 0;
#X connect 15 2 7 0;
#X connect 16 0 4 0;
#X restore 493 256 pd led2;
#N canvas 3 520 450 396 led3 0;
#X floatatom 43 85 5 0 0 0 - - - 0;
#X obj 43 134 i;
#X floatatom 43 213 5 0 0 0 - - - 0;
#X obj 43 108 - 0.5;
#X obj 43 187 + 1;
#X msg 44 276 1;
#X obj 44 300 tgl 19 0 empty empty empty 0 -10 0 12 #fcfcfc #000000 #000000 0 1;
#X msg 76 276 0;
#X obj 44 251 sel 1;
#X msg 109 275 1;
#X obj 109 299 tgl 19 0 empty empty empty 0 -10 0 12 #fcfcfc #000000 #000000 0 1;
#X msg 141 275 0;
#X msg 175 274 1;
#X obj 175 298 tgl 19 0 empty empty empty 0 -10 0 12 #fcfcfc #000000 #000000 0 1;
#X msg 207 274 0;
#X obj 109 250 sel 2;
#X obj 175 249 sel 3;
#X obj 43 31 inlet;
#X obj 44 329 outlet;
#X obj 109 329 outlet;
#X obj 175 329 outlet;
#X obj 43 61 map 1 3;
#X obj 43 160 change;
#X connect 0 0 3 0;
#X connect 1 0 22 0;
#X connect 2 0 8 0;
#X connect 2 0 15 0;
#X connect 2 0 16 0;
#X connect 3 0 1 0;
#X connect 4 0 2 0;
#X connect 5 0 6 0;
#X connect 6 0 18 0;
#X connect 7 0 6 0;
#X connect 8 0 5 0;
#X connect 8 1 7 0;
#X connect 9 0 10 0;
#X connect 10 0 19 0;
#X connect 11 0 10 0;
#X connect 12 0 13 0;
#X connect 13 0 20 0;
#X connect 14 0 13 0;
#X connect 15 0 9 0;
#X connect 15 1 11 0;
#X connect 16 0 12 0;
#X connect 16 1 14 0;
#X connect 17 0 21 0;
#X connect 21 0 0 0;
#X connect 22 0 4 0;
#X restore 566 198 pd led3;
#X obj 451 221 led-bargraph, f 30;
#X obj 473 145 map 0 20;
#X obj 473 170 s density;
#X msg 422 168 0;
#X obj 614 121 map 500 10;
#X obj 614 145 s metro;
#X obj 543 122 sel 1;
#X obj 543 145 tgl 19 0 empty empty empty 0 -10 0 12 #fcfcfc #000000 #000000 0 1;
#X obj 543 75 r button2;
#X obj 543 170 s metro-onoff;
#X obj 422 120 change;
#X obj 543 99 change;
#X obj 614 75 r CV1;
#X obj 698 171 sel 1;
#X obj 698 194 tgl 19 0 empty empty empty 0 -10 0 12 #fcfcfc #000000 #000000 0 1;
#X obj 698 148 change;
#X obj 698 124 r button4;
#X obj 556 258 r button3;
#X text 698 75 Button 4 switch betw ADC and viola loop, f 16;
#X obj 698 218 s inswitch;
#X obj 23 100 initialise_digitals;
#X text 22 62 Initialise LEDs \, buttons and trigger inputs, f 25;
#N canvas 421 209 746 660 CV-inputs 0;
#X obj 187 131 lop~ 1;
#X obj 187 106 adc~ 3;
#X obj 187 155 snapshot~;
#X obj 261 131 lop~ 1;
#X obj 261 154 snapshot~;
#X obj 261 106 adc~ 4;
#X obj 79 250 tgl 19 0 empty empty empty 0 -10 0 12 #fcfcfc #000000 #000000 0 1;
#X obj 79 199 loadbang;
#X msg 79 226 1;
#X text 57 131 avoid zipper noise;
#X obj 185 256 lop~ 1;
#X obj 185 280 snapshot~;
#X obj 259 256 lop~ 1;
#X obj 259 279 snapshot~;
#X obj 185 231 adc~ 5;
#X obj 259 231 adc~ 6;
#X obj 187 385 lop~ 1;
#X obj 187 409 snapshot~;
#X obj 261 385 lop~ 1;
#X obj 261 408 snapshot~;
#X obj 185 516 lop~ 1;
#X obj 185 540 snapshot~;
#X obj 259 516 lop~ 1;
#X obj 259 539 snapshot~;
#X obj 187 360 adc~ 7;
#X obj 261 360 adc~ 8;
#X obj 185 491 adc~ 9;
#X obj 259 491 adc~ 10;
#X text 15 107 analog input (range 0-1);
#X text 184 74 BELA KNOBS and CV;
#X obj 79 274 metro 100;
#X obj 139 56 inlet;
#X obj 187 202 s CV0;
#X obj 261 202 s CV1;
#X obj 186 329 s CV2;
#X obj 260 329 s CV3;
#X obj 188 458 s CV4;
#X obj 262 458 s CV5;
#X obj 186 589 s CV6;
#X obj 260 589 s CV7;
#X obj 408 56 inlet;
#X obj 408 91 tgl 19 0 empty empty empty 0 -10 0 12 #fcfcfc #000000 #000000 0 1;
#X obj 408 139 tgl 19 0 empty empty empty 0 -10 0 12 #fcfcfc #000000 #000000 0 1;
#X obj 408 115 flip 1;
#X text 368 27 debug mode on shuts off CV inputs;
#X obj 187 179 spigot 1;
#X obj 261 179 spigot 1;
#X obj 259 304 spigot 1;
#X obj 185 304 spigot 1;
#X obj 187 433 spigot 1;
#X obj 261 433 spigot 1;
#X obj 185 564 spigot 1;
#X obj 259 564 spigot 1;
#X obj 519 82 loadbang;
#X msg 519 106 0;
#X connect 0 0 2 0;
#X connect 1 0 0 0;
#X connect 2 0 45 0;
#X connect 3 0 4 0;
#X connect 4 0 46 0;
#X connect 5 0 3 0;
#X connect 6 0 30 0;
#X connect 7 0 8 0;
#X connect 8 0 6 0;
#X connect 10 0 11 0;
#X connect 11 0 48 0;
#X connect 12 0 13 0;
#X connect 13 0 47 0;
#X connect 14 0 10 0;
#X connect 15 0 12 0;
#X connect 16 0 17 0;
#X connect 17 0 49 0;
#X connect 18 0 19 0;
#X connect 19 0 50 0;
#X connect 20 0 21 0;
#X connect 21 0 51 0;
#X connect 22 0 23 0;
#X connect 23 0 52 0;
#X connect 24 0 16 0;
#X connect 25 0 18 0;
#X connect 26 0 20 0;
#X connect 27 0 22 0;
#X connect 30 0 2 0;
#X connect 30 0 4 0;
#X connect 30 0 11 0;
#X connect 30 0 13 0;
#X connect 30 0 17 0;
#X connect 30 0 19 0;
#X connect 30 0 21 0;
#X connect 30 0 23 0;
#X connect 31 0 30 1;
#X connect 40 0 41 0;
#X connect 41 0 43 0;
#X connect 42 0 45 1;
#X connect 42 0 46 1;
#X connect 42 0 47 1;
#X connect 42 0 48 1;
#X connect 42 0 49 1;
#X connect 42 0 50 1;
#X connect 42 0 51 1;
#X connect 42 0 52 1;
#X connect 43 0 42 0;
#X connect 45 0 32 0;
#X connect 46 0 33 0;
#X connect 47 0 35 0;
#X connect 48 0 34 0;
#X connect 49 0 36 0;
#X connect 50 0 37 0;
#X connect 51 0 38 0;
#X connect 52 0 39 0;
#X connect 53 0 54 0;
#X connect 54 0 41 0;
#X restore 23 178 pd CV-inputs;
#X obj 23 127 loadbang;
#X text 55 152 ms CV sampling;
#X obj 24 210 buttons, f 15;
#N canvas 411 448 589 172 button-sends 0;
#X obj 49 80 print Button 1:;
#X obj 161 80 print Button 2:;
#X obj 277 80 print Button 3:;
#X obj 389 79 print Button 4:;
#X obj 49 50 inlet;
#X obj 161 49 inlet;
#X obj 277 49 inlet;
#X obj 389 48 inlet;
#X obj 49 108 s button1;
#X obj 161 108 s button2;
#X obj 277 109 s button3;
#X obj 389 109 s button4;
#X connect 4 0 0 0;
#X connect 4 0 8 0;
#X connect 5 0 1 0;
#X connect 5 0 9 0;
#X connect 6 0 2 0;
#X connect 6 0 10 0;
#X connect 7 0 3 0;
#X connect 7 0 11 0;
#X restore 24 238 pd button-sends;
#X obj 214 159 tgl 19 0 empty empty empty 0 -10 0 12 #fcfcfc #000000 #000000 0 1;
#X text 236 159 DEBUG;
#X msg 23 152 20;
#X text 138 179 click to operate patch manually, f 19;
#X obj 215 19 inlet;
#X obj 412 395 map 0 100;
#X obj 608 395 map 0 100;
#X obj 579 371 r CV5;
#X obj 524 395 map 10 2000;
#X obj 732 371 r CV7;
#X obj 682 395 map -1200 1200;
#X obj 334 371 r CV2;
#X obj 412 371 r CV3;
#X obj 524 371 r CV4;
#X obj 682 371 r CV6;
#X obj 334 395 map 1 2500;
#X obj 334 419 s pos;
#X obj 412 419 s posvar;
#X obj 524 419 s dur;
#X obj 608 419 s durvar;
#X obj 682 419 s transp;
#X connect 1 0 3 0;
#X connect 1 0 8 0;
#X connect 2 0 17 0;
#X connect 3 0 7 1;
#X connect 3 1 7 2;
#X connect 3 2 7 3;
#X connect 4 0 10 0;
#X connect 6 0 7 5;
#X connect 6 1 7 6;
#X connect 6 2 7 7;
#X connect 8 0 9 0;
#X connect 10 0 9 0;
#X connect 11 0 12 0;
#X connect 13 0 14 0;
#X connect 14 0 7 4;
#X connect 14 0 16 0;
#X connect 15 0 18 0;
#X connect 17 0 4 0;
#X connect 17 0 7 0;
#X connect 18 0 13 0;
#X connect 19 0 6 0;
#X connect 19 0 11 0;
#X connect 20 0 21 0;
#X connect 21 0 7 9;
#X connect 21 0 26 0;
#X connect 22 0 20 0;
#X connect 23 0 22 0;
#X connect 30 0 36 0;
#X connect 32 0 33 0;
#X connect 32 1 33 1;
#X connect 32 2 33 2;
#X connect 32 3 33 3;
#X connect 34 0 29 1;
#X connect 36 0 29 0;
#X connect 38 0 34 0;
#X connect 39 0 51 0;
#X connect 40 0 53 0;
#X connect 41 0 40 0;
#X connect 42 0 52 0;
#X connect 44 0 54 0;
#X connect 45 0 49 0;
#X connect 46 0 39 0;
#X connect 47 0 42 0;
#X connect 48 0 44 0;
#X connect 49 0 50 0;
#X restore 318 80 pd cv-map;
#X obj 209 161 output~;
#X text 323 179 temporary dry output, f 21;
#X text 211 717 GRAIN CLOUD ENGINE;
#X text 141 466 | | | | | | | | | |, f 2;
#X obj 318 56 tgl 19 0 empty empty empty 0 -10 0 12 #fcfcfc #000000 #000000 0 1;
#X text 347 56 DEBUG;
#X text 44 403 Buffer contains two copies of 2500ms, f 40;
#X obj 318 12 loadbang;
#X msg 318 34 1;
#X text 347 33 temporary;
#X text 825 354 dur (ms);
#X text 595 356 print to Bela console, f 12;
#N canvas 208 245 470 144 parameters 0;
#X obj 20 39 r pos;
#X obj 20 63 outlet;
#X obj 70 63 outlet;
#X obj 70 39 r posvar;
#X obj 139 63 outlet;
#X obj 189 63 outlet;
#X obj 139 39 r dur;
#X obj 189 39 r durvar;
#X obj 258 63 outlet;
#X obj 323 63 outlet;
#X obj 258 39 r transp;
#X obj 323 39 r transpvar;
#X connect 0 0 1 0;
#X connect 3 0 2 0;
#X connect 6 0 4 0;
#X connect 7 0 5 0;
#X connect 10 0 8 0;
#X connect 11 0 9 0;
#X restore 695 374 pd parameters;
#X f 51;
#X text 768 732 granular engine plays one grain at a time at density \, overflowing to next available grain when busy \, uses clone object to instantiate grains, f 77;
#N canvas 2 208 674 595 stepper 0;
#X obj 632 68 r pos;
#X obj 613 103 f;
#X obj 239 82 f;
#X obj 258 49 r dur;
#X obj 365 82 f;
#X obj 384 50 r transp;
#X obj 110 13 inlet;
#X obj 110 39 bng 19 250 50 0 empty empty empty 0 -10 0 12 #fcfcfc #000000 #000000;
#X floatatom 639 39 5 0 0 0 - - - 0;
#X floatatom 258 19 5 0 0 0 - - - 0;
#X floatatom 387 20 5 0 0 0 - - - 0;
#X floatatom 613 133 5 0 0 0 - - - 0;
#X floatatom 239 112 5 0 0 0 - - - 0;
#X floatatom 365 112 5 0 0 0 - - - 0;
#X floatatom 110 326 5 0 0 0 - - - 0;
#X obj 110 299 +;
#X obj 133 401 select 0 1;
#X obj 127 425 i;
#X obj 136 150 r metro;
#X floatatom 136 174 5 0 0 0 - - - 0;
#X obj 133 377 >= 2500;
#X obj 166 232 i;
#X obj 166 256 * -1;
#X obj 110 63 t b b b;
#X obj 110 480 pack 0 0 0, f 37;
#X obj 110 504 outlet;
#X obj 110 199 variator;
#X floatatom 483 181 5 0 0 0 - - - 0;
#X text 191 367 foldover at half buffer, f 15;
#X text 201 238 reset to zero, f 7;
#X obj 110 349 t f f f;
#X obj 110 174 bng 19 250 50 0 empty empty empty 0 -10 0 12 #fcfcfc #000000 #000000;
#X floatatom 110 223 5 0 0 0 - - - 0;
#X obj 166 280 clip 0;
#X text 19 242 increment pos by metro ms +/- var, f 11;
#X obj 483 150 r posvar;
#X connect 0 0 1 1;
#X connect 1 0 11 0;
#X connect 2 0 12 0;
#X connect 3 0 2 1;
#X connect 4 0 13 0;
#X connect 5 0 4 1;
#X connect 6 0 7 0;
#X connect 7 0 23 0;
#X connect 8 0 1 1;
#X connect 9 0 2 1;
#X connect 10 0 4 1;
#X connect 12 0 24 1;
#X connect 13 0 24 2;
#X connect 14 0 30 0;
#X connect 15 0 14 0;
#X connect 16 0 17 0;
#X connect 16 1 21 0;
#X connect 17 0 15 1;
#X connect 18 0 19 0;
#X connect 19 0 21 1;
#X connect 19 0 26 1;
#X connect 19 0 33 2;
#X connect 20 0 16 0;
#X connect 21 0 22 0;
#X connect 22 0 33 0;
#X connect 23 0 31 0;
#X connect 23 1 2 0;
#X connect 23 2 4 0;
#X connect 24 0 25 0;
#X connect 26 0 32 0;
#X connect 27 0 26 2;
#X connect 30 0 24 0;
#X connect 30 1 20 0;
#X connect 30 2 17 1;
#X connect 31 0 26 0;
#X connect 32 0 15 0;
#X connect 33 0 15 1;
#X connect 35 0 27 0;
#X restore 1072 502 pd stepper;
#X msg 172 661 9, f 2;
#X msg 196 661 10, f 2;
#X msg 222 661 11, f 2;
#X msg 97 638 0, f 2;
#X floatatom 789 200 5 0 0 0 - - - 0;
#X obj 789 223 s metro;
#X floatatom 865 205 5 0 0 0 - - - 0;
#X obj 865 228 s transp;
#X floatatom 790 259 5 0 0 0 - - - 0;
#X obj 790 282 s dur;
#X msg 567 211 \; density 0 \; metro 100 \; dur 200 \; transp 0 \; posvar 0 \;;
#X msg 660 210 \; density 0 \; metro 20 \; dur 80 \; transp 0 \; posvar 10 \;;
#X obj 891 297 s pitchrand;
#X floatatom 891 265 5 0 0 0 - - - 0;
#X floatatom 981 265 5 0 0 0 - - - 0;
#X obj 981 297 s pitchquant;
#X text 935 266 0-1;
#X text 1026 267 0-1;
#X connect 4 0 3 0;
#X connect 12 0 13 0;
#X connect 13 0 29 0;
#X connect 14 0 16 0;
#X connect 15 0 16 1;
#X connect 16 0 29 0;
#X connect 17 0 12 0;
#X connect 18 0 28 1;
#X connect 18 0 89 2;
#X connect 19 0 28 2;
#X connect 21 0 36 1;
#X connect 22 0 27 1;
#X connect 22 0 89 3;
#X connect 23 0 27 2;
#X connect 25 0 36 2;
#X connect 27 0 25 0;
#X connect 28 0 21 0;
#X connect 29 0 34 0;
#X connect 29 0 28 0;
#X connect 29 0 27 0;
#X connect 29 0 106 0;
#X connect 30 0 34 1;
#X connect 30 0 89 1;
#X connect 31 0 34 2;
#X connect 33 0 36 0;
#X connect 34 0 33 0;
#X connect 37 0 43 0;
#X connect 38 0 44 0;
#X connect 42 0 14 0;
#X connect 43 0 12 0;
#X connect 44 0 15 0;
#X connect 45 0 67 0;
#X connect 49 0 50 0;
#X connect 49 1 51 1;
#X connect 50 0 51 0;
#X connect 51 0 52 0;
#X connect 52 1 67 0;
#X connect 58 0 67 0;
#X connect 59 0 58 0;
#X connect 60 0 58 0;
#X connect 61 0 58 0;
#X connect 62 0 58 0;
#X connect 63 0 58 0;
#X connect 64 0 58 0;
#X connect 65 0 58 0;
#X connect 66 0 58 0;
#X connect 67 0 5 0;
#X connect 67 1 5 1;
#X connect 67 2 49 0;
#X connect 74 0 77 0;
#X connect 75 0 77 1;
#X connect 77 0 79 0;
#X connect 79 0 80 0;
#X connect 80 0 81 0;
#X connect 80 1 82 0;
#X connect 81 0 76 0;
#X connect 82 0 78 0;
#X connect 85 0 76 0;
#X connect 85 0 78 0;
#X connect 85 0 92 0;
#X connect 85 0 92 1;
#X connect 86 0 74 0;
#X connect 90 0 89 0;
#X connect 96 0 91 0;
#X connect 99 0 100 0;
#X connect 100 0 96 0;
#X connect 104 0 30 0;
#X connect 104 1 31 0;
#X connect 104 2 18 0;
#X connect 104 3 19 0;
#X connect 104 4 22 0;
#X connect 104 5 23 0;
#X connect 106 0 48 0;
#X connect 107 0 58 0;
#X connect 108 0 58 0;
#X connect 109 0 58 0;
#X connect 110 0 58 0;
#X connect 111 0 112 0;
#X connect 113 0 114 0;
#X connect 115 0 116 0;
#X connect 120 0 119 0;
#X connect 121 0 122 0;
