#N canvas 114 37 1356 863 12;
#X declare -path .;
#X declare -path sounds;
#N canvas 0 23 588 274 LICENSE 0;
#X text 79 84 (c) 2008 Reality Jockey;
#X text 57 36 Released under the GNU General Public License ver. 3 or later. See the file LICENSE.txt for the full text.;
#X restore 37 11 pd LICENSE;
#X obj 14 59 declare -path .;
#X text 37 633 msp Granular Synthesis;
#N canvas 0 37 545 181 LOADBANGS 0;
#X obj 172 140 s gain;
#X msg 172 119 1;
#X msg 290 121 0;
#X obj 290 142 s mode;
#X text 322 116 start in Play mode;
#X text 322 127 not Freeze mode;
#X obj 154 14 loadbang;
#X obj 154 57 s loadbang;
#X obj 154 36 bng 15 250 50 0 empty empty empty 17 7 0 10 #fcfcfc #000000 #000000;
#X obj 290 100 r loadbang;
#X obj 172 98 r loadbang;
#X obj 108 13 inlet;
#X connect 1 0 0 0;
#X connect 2 0 3 0;
#X connect 6 0 8 0;
#X connect 8 0 7 0;
#X connect 9 0 2 0;
#X connect 10 0 1 0;
#X connect 11 0 8 0;
#X restore 15 35 pd LOADBANGS;
#X obj 15 15 bng 15 250 50 0 empty empty empty 17 7 0 10 #fcfcfc #000000 #000000;
#X obj 783 504 dac~, f 6;
#X text 156 46 load in sample #;
#X obj 15 85 declare -path sounds;
#N canvas 137 442 1333 486 INIT 0;
#X obj 663 380 send basepitch;
#X obj 321 370 send min;
#X obj 321 266 spigot;
#X obj 116 212 r mode;
#X obj 206 265 spigot;
#X obj 388 349 + 0.01;
#X obj 388 371 send maxi;
#X obj 710 55 delay 300;
#X floatatom 445 291 5 0 0 0 - - - 0;
#X obj 427 249 spigot;
#X obj 427 271 + 1;
#X obj 427 310 * 5;
#X msg 631 155 0;
#X obj 321 288 + 1;
#X obj 321 307 * 64;
#X obj 663 338 r ppr;
#X obj 206 371 send stretch;
#X floatatom 206 355 5 0 0 0 - - - 0;
#X obj 206 288 * 2;
#X obj 206 311 + 1;
#X obj 697 4 inlet;
#X obj 697 98 bng 15 250 50 0 empty empty empty 17 7 0 10 #fcfcfc #000000 #000000;
#X obj 245 228 == 0;
#X obj 360 228 tgl 15 0 empty empty empty 17 7 0 10 #fcfcfc #000000 #000000 0 1;
#X obj 245 247 tgl 15 0 empty empty empty 17 7 0 10 #fcfcfc #000000 #000000 0 1;
#X text 207 392 Play mode;
#X text 328 405 Freeze mode;
#X text 329 390 0-127;
#X text 325 419 Position + loop end in Slider_Adjuster;
#X text 100 196 Play/Freeze;
#X obj 466 228 tgl 15 0 empty empty empty 17 7 0 10 #fcfcfc #000000 #000000 0 1;
#X obj 710 33 r loadbang;
#X msg 328 167 1;
#X obj 788 370 send pitchrand;
#X obj 967 282 * 100;
#X obj 967 372 send pitchquant;
#X obj 1174 370 send duration;
#X msg 967 160 0;
#X msg 788 161 0;
#X floatatom 891 239 5 0 0 0 - - - 0;
#X floatatom 1103 243 5 0 0 0 - - - 0;
#X obj 1103 261 / 100;
#X obj 891 258 / 100;
#X obj 735 253 / 100;
#X obj 1174 297 * 250;
#X obj 788 290 * 127;
#X obj 735 230 r rpr;
#X obj 891 217 r qpr;
#X obj 1103 222 r dpr;
#X msg 1174 160 0.36;
#X connect 2 0 13 0;
#X connect 3 0 22 0;
#X connect 3 0 23 0;
#X connect 3 0 30 0;
#X connect 4 0 18 0;
#X connect 5 0 6 0;
#X connect 7 0 21 0;
#X connect 8 0 11 1;
#X connect 9 0 10 0;
#X connect 10 0 11 0;
#X connect 11 0 5 1;
#X connect 12 0 0 0;
#X connect 13 0 14 0;
#X connect 14 0 1 0;
#X connect 14 0 5 0;
#X connect 15 0 0 0;
#X connect 17 0 16 0;
#X connect 18 0 19 0;
#X connect 19 0 17 0;
#X connect 20 0 21 0;
#X connect 21 0 12 0;
#X connect 21 0 38 0;
#X connect 21 0 37 0;
#X connect 21 0 32 0;
#X connect 21 0 49 0;
#X connect 22 0 24 0;
#X connect 23 0 2 1;
#X connect 24 0 4 1;
#X connect 30 0 9 1;
#X connect 31 0 7 0;
#X connect 32 0 17 0;
#X connect 37 0 34 0;
#X connect 38 0 45 0;
#X connect 39 0 42 0;
#X connect 40 0 41 0;
#X connect 41 0 44 0;
#X connect 42 0 34 0;
#X connect 43 0 45 0;
#X connect 44 0 36 0;
#X connect 46 0 43 0;
#X connect 47 0 39 0;
#X connect 48 0 40 0;
#X connect 49 0 44 0;
#X restore 107 35 pd INIT;
#X text 36 651 Adam Parkinson / RJDJ iOS / 2010;
#X text 200 632 nobuyasu sakodna / MaxMSP / 1999;
#X text 155 22 CLICK to select;
#X floatatom 802 147 5 10 2000 0 - - - 0;
#X floatatom 846 147 5 0 100 0 - - - 0;
#X text 846 113 var %, f 4;
#X floatatom 816 252 5 0 0 0 - - - 0;
#X floatatom 902 147 5 0 0 0 - - - 0;
#X floatatom 946 147 5 0 1000 0 - - - 0;
#X text 946 111 var %, f 4;
#X floatatom 958 252 5 0 0 0 - - - 0;
#X text 893 110 transp (cts), f 6;
#X obj 1147 193 bng 19 250 50 0 empty empty empty 0 -10 0 12 #fcfcfc #000000 #000000;
#X floatatom 702 147 5 10 2000 0 - - - 0;
#X floatatom 746 147 5 0 2500 0 - - - 0;
#X obj 783 301 pack 0 0 0;
#X obj 782 454 r play-cloud;
#X msg 657 723 \; play-cloud 0 1000 1000 -400;
#X msg 657 771 \; play-cloud 0 1000 500 -400;
#X msg 783 344 \; play-cloud 0 \$1 \$2 \$3;
#X text 655 700 instance \, position (ms) \, grandur \, transp;
#X text 36 559 Based on our port of Sakonda-san's MSP granular synth;
#X text 36 576 Combined with Cipriani & Giri's Gen~ cloud generator from their Vol. 3 book, f 77;
#X text 37 669 Atau Tanaka 2024;
#X text 36 540 Granular cloud CLONE generator;
#N canvas 63 100 673 285 viewer 0;
#X obj 238 65 inlet;
#X obj 259 242 outlet;
#X obj 238 89 t b f;
#X obj 238 113 tgl 19 0 empty empty empty 0 -10 0 12 #fcfcfc #000000 #000000 0 1;
#X obj 238 137 pack;
#X msg 437 138 vis 2 0;
#X msg 437 164 vis 3 0;
#X msg 438 81 vis 0 0;
#X msg 438 107 vis 1 0;
#X msg 238 161 vis \$2 \$1;
#X msg 501 81 vis 4 0;
#X msg 501 107 vis 5 0;
#X msg 500 138 vis 6 0;
#X msg 500 164 vis 7 0;
#X msg 569 81 vis 8 0;
#X msg 569 107 vis 9 0;
#X msg 568 138 vis 10 0;
#X msg 568 164 vis 11 0;
#X obj 490 23 inlet;
#X obj 490 47 bng 19 250 50 0 empty empty empty 0 -10 0 12 #fcfcfc #000000 #000000;
#X text 539 25 close all;
#X msg 70 95 vis 0 1;
#X msg 70 121 vis 1 1;
#X msg 69 152 vis 2 1;
#X msg 69 178 vis 3 1;
#X connect 0 0 2 0;
#X connect 2 0 3 0;
#X connect 2 1 4 1;
#X connect 3 0 4 0;
#X connect 4 0 9 0;
#X connect 5 0 1 0;
#X connect 6 0 1 0;
#X connect 7 0 1 0;
#X connect 8 0 1 0;
#X connect 9 0 1 0;
#X connect 10 0 1 0;
#X connect 11 0 1 0;
#X connect 12 0 1 0;
#X connect 13 0 1 0;
#X connect 14 0 1 0;
#X connect 15 0 1 0;
#X connect 16 0 1 0;
#X connect 17 0 1 0;
#X connect 18 0 19 0;
#X connect 19 0 6 0;
#X connect 19 0 5 0;
#X connect 19 0 8 0;
#X connect 19 0 7 0;
#X connect 19 0 13 0;
#X connect 19 0 12 0;
#X connect 19 0 11 0;
#X connect 19 0 10 0;
#X connect 19 0 17 0;
#X connect 19 0 16 0;
#X connect 19 0 15 0;
#X connect 19 0 14 0;
#X connect 21 0 1 0;
#X connect 22 0 1 0;
#X connect 23 0 1 0;
#X connect 24 0 1 0;
#X restore 876 454 pd viewer;
#X obj 783 478 clone grain-clone-st~ 12;
#N canvas 412 61 724 700 old-stuff 0;
#X floatatom 75 589 8 0 0 0 - filterfreq - 0;
#X obj 78 554 hsl 128 15 0 1 0 1 filtercutoff empty filtercutoff 4 8 0 10 #fcfcfc #000000 #000000 12700 1;
#X floatatom 75 572 5 0 0 0 - - - 0;
#X obj 77 619 hsl 128 15 0 1 0 1 filterres empty filterres 4 8 0 10 #fcfcfc #000000 #000000 0 1;
#X floatatom 74 637 5 0 0 0 - - - 0;
#X text 142 589 Hz;
#X obj 241 574 tgl 15 0 distoonoff empty disto_on/off 17 7 0 12 #fcfcfc #000000 #000000 0 1;
#X floatatom 235 639 5 0 0 0 - - distodrive 0;
#X floatatom 235 596 5 0 0 0 - - - 0;
#X text 283 640 DISTORTION;
#N canvas 150 461 450 300 autoscale-init 0;
#X obj 64 47 inlet;
#X obj 64 151 outlet;
#X msg 201 76 input -1 1 \, 0;
#X obj 64 104 m_autoscale 0 100 dB;
#X obj 201 53 r loadbang;
#X connect 0 0 3 0;
#X connect 2 0 3 1;
#X connect 3 0 1 0;
#X connect 4 0 2 0;
#X restore 235 617 pd autoscale-init;
#X text 120 637 Q;
#X obj 238 553 hsl 128 15 -1 1 0 0 empty distortion empty -2 -8 0 10 #fcfcfc #000000 #000000 0 1;
#X text 77 491 ________________ FX SECTION ________________;
#X text 74 517 ________LPF________ ______OVERDRIVE_____;
#X obj 300 196 s rndm;
#X floatatom 300 136 4 0 0 0 - - - 0;
#X floatatom 431 166 10 0 0 0 - - - 0;
#N canvas 5 38 498 255 time_stretcher 0;
#X obj 270 158 r rndm;
#X obj 158 197 +~;
#X obj 158 218 throw~ control;
#N canvas 37 389 915 461 seq_engine 0;
#X obj 178 184 sel 0;
#X obj 220 422 outlet~;
#X obj 345 66 r sample_length;
#X obj 220 394 *~ 1000;
#X obj 178 162 * 1;
#X obj 218 274 phasor~;
#X obj 178 138 t b f;
#X obj 106 51 sel 0;
#X obj 106 26 inlet;
#X obj 210 209 t b f;
#X obj 218 254 /;
#X obj 138 76 t b f;
#X obj 138 120 /;
#X msg 138 98 1;
#X msg 216 231 1000;
#X obj 327 307 snapshot~;
#X floatatom 327 328 5 0 0 0 - - - 0;
#X obj 309 354 f;
#X obj 327 261 r mode;
#X obj 327 282 sel 1 0;
#X obj 264 122 r bangz;
#X msg 264 166 0;
#X obj 264 144 sel 1;
#X obj 433 249 inlet;
#X obj 451 305 r raw_length;
#X obj 433 338 /;
#X text 430 222 helps make sure sample starts;
#X text 430 232 at right place when switching modes;
#X text 295 166 reset to sample start;
#X text 314 241 Play/Freeze;
#X text 153 27 stretch factor;
#X text 173 98 reciprocal;
#X text 61 265 MASTER CLOCK;
#X text 60 277 FOR SAMPLE PLAYBACK;
#X connect 0 1 9 0;
#X connect 2 0 6 0;
#X connect 2 0 3 1;
#X connect 3 0 1 0;
#X connect 4 0 0 0;
#X connect 5 0 3 0;
#X connect 5 0 15 0;
#X connect 6 0 4 0;
#X connect 6 1 4 1;
#X connect 7 1 11 0;
#X connect 8 0 7 0;
#X connect 9 0 14 0;
#X connect 9 1 10 1;
#X connect 10 0 5 0;
#X connect 11 0 13 0;
#X connect 11 1 12 1;
#X connect 12 0 4 0;
#X connect 13 0 12 0;
#X connect 14 0 10 0;
#X connect 15 0 16 0;
#X connect 16 0 17 1;
#X connect 17 0 5 1;
#X connect 18 0 19 0;
#X connect 19 0 15 0;
#X connect 19 1 17 0;
#X connect 20 0 22 0;
#X connect 21 0 5 1;
#X connect 22 0 21 0;
#X connect 23 0 25 0;
#X connect 24 0 25 1;
#X connect 25 0 17 1;
#X restore 194 123 pd seq_engine;
#X floatatom 123 31 0 0 0 0 - - - 0;
#N canvas 378 62 450 300 switch 0;
#X obj 116 135 *~;
#X obj 121 181 +~;
#X obj 156 137 *~;
#X obj 135 27 inlet;
#X obj 128 78 < 1;
#X obj 123 249 outlet~;
#X obj 241 26 inlet~;
#X obj 180 26 inlet~;
#X connect 0 0 1 0;
#X connect 1 0 5 0;
#X connect 2 0 1 1;
#X connect 3 0 4 0;
#X connect 3 0 2 1;
#X connect 4 0 0 1;
#X connect 6 0 2 0;
#X connect 7 0 0 0;
#X restore 158 169 pd switch;
#X obj 136 145 tgl 15 0 empty empty empty 17 7 0 10 #fcfcfc #000000 #000000 0 1;
#X obj 136 124 r mode;
#X obj 122 4 r stretch;
#N canvas 58 80 262 182 pos_rndm 0;
#X obj 60 83 +~ 1;
#X obj 60 108 *~ 0;
#X obj 60 60 noise~;
#X obj 102 82 / 2;
#X obj 108 31 inlet;
#X obj 60 143 outlet~;
#X connect 0 0 1 0;
#X connect 1 0 5 0;
#X connect 2 0 0 0;
#X connect 3 0 1 1;
#X connect 4 0 3 0;
#X restore 270 178 pd pos_rndm;
#X text 274 219 to Granvoice;
#X obj 314 25 inlet;
#X text 152 31 Stretch factor;
#X text 72 98 PLAY mode;
#X text 358 128 FREEZE position;
#X text 63 137 Play (0);
#X text 60 148 Freeze (1);
#X obj 313 126 line~;
#X msg 314 80 \$1 5;
#X connect 0 0 9 0;
#X connect 1 0 2 0;
#X connect 3 0 5 1;
#X connect 4 0 3 0;
#X connect 5 0 1 0;
#X connect 6 0 5 0;
#X connect 7 0 6 0;
#X connect 8 0 4 0;
#X connect 9 0 1 1;
#X connect 11 0 3 1;
#X connect 11 0 18 0;
#X connect 17 0 5 2;
#X connect 18 0 17 0;
#X restore 431 197 pd time_stretcher;
#X text 508 166 freeze position (ms);
#X obj 434 138 hsl 190 15 0 1 0 0 empty empty empty 20 8 0 8 #fcfcfc #000000 #000000 0 1;
#N canvas 53 236 693 556 slider_adjuster 0;
#X obj 130 450 * 1, f 6;
#X obj 28 305 inlet;
#X obj 129 503 outlet;
#X floatatom 173 165 6 0 0 0 - - - 0;
#X text 219 164 sample length;
#X obj 455 92 r mode;
#X text 473 32 Play/Freeze (0/1);
#X obj 133 57 r raw_length;
#X obj 454 123 sel 1;
#X text 514 122 Going into Freeze;
#X text 283 32 Sample position in Play;
#X text 514 134 captures position;
#X text 281 50 from "PD Granular";
#X obj 340 73 r trackpoint;
#X obj 341 136 /;
#X floatatom 364 121 5 0 0 0 - - - 0;
#X floatatom 339 99 5 0 0 0 - - - 0;
#X floatatom 346 160 5 0 0 0 - - - 0;
#X msg 435 272 set \$1;
#X obj 434 500 outlet;
#X obj 535 73 s-r mode;
#X obj 535 56 tgl 15 0 empty empty empty 17 7 0 10 #fcfcfc #000000 #000000 0 1;
#X obj 132 130 t b f;
#X obj 330 281 f;
#X text 25 282 slider (pos);
#X text 183 504 update pos (ms);
#X obj 129 377 / 1;
#X text 179 378 divide by 127 if MIDI;
#X obj 347 211 * 1;
#X text 488 501 update slider (0-1);
#X text 410 215 multiply by 127 if MIDI;
#X connect 0 0 2 0;
#X connect 1 0 26 0;
#X connect 3 0 0 1;
#X connect 5 0 8 0;
#X connect 7 0 22 0;
#X connect 7 0 15 0;
#X connect 8 0 23 0;
#X connect 13 0 16 0;
#X connect 14 0 17 0;
#X connect 15 0 14 1;
#X connect 16 0 14 0;
#X connect 17 0 28 0;
#X connect 18 0 19 0;
#X connect 20 0 21 0;
#X connect 21 0 20 0;
#X connect 22 0 26 0;
#X connect 22 1 3 0;
#X connect 23 0 26 0;
#X connect 26 0 0 0;
#X connect 28 0 18 0;
#X connect 28 0 23 1;
#X restore 431 107 pd slider_adjuster;
#X obj 162 148 s-r mode;
#X obj 162 130 tgl 15 0 empty empty empty 17 7 0 10 #fcfcfc #000000 #000000 0 1;
#X floatatom 163 175 0 0 0 0 - - - 0;
#X floatatom 67 318 5 0 0 0 - - - 0;
#X text 108 321 cents;
#X text 190 175 gran dur (ms);
#X obj 67 343 s-r basepitch;
#X obj 163 194 s-r duration;
#X floatatom 306 322 5 0 0 0 - - - 0;
#X obj 307 342 s-r stretch;
#X obj 309 304 hsl 128 15 -2 4 0 0 empty empty empty -2 -8 0 10 #fcfcfc #000000 #000000 0 1;
#X text 368 287 |;
#X text 179 128 Play/Freeze;
#X obj 70 301 hsl 128 15 -1200 1200 0 0 empty empty empty -2 -8 0 10 #fcfcfc #000000 #000000 0 1;
#X msg 201 285 0;
#X text 129 284 |;
#X msg 440 288 1;
#X text 426 62 ______________SCRUB______________;
#X text 62 250 ________TRANSPOSE_________;
#X text 525 253 ______PITCH______;
#X text 305 249 _________STRETCH_________;
#X text 335 135 pos random;
#X text 560 198 --SEQ ENGINE HERE--;
#X text 162 59 ______________PLAYBACK__________________________;
#X obj 300 102 loadbang;
#X obj 300 167 + 5;
#X floatatom 667 153 5 0 0 0 - - - 0;
#X text 632 135 pos (0-1);
#X obj 431 83 r scrub;
#X connect 1 0 2 0;
#X connect 3 0 4 0;
#X connect 8 0 10 0;
#X connect 10 0 7 0;
#X connect 12 0 8 0;
#X connect 16 0 47 0;
#X connect 17 0 18 0;
#X connect 20 0 21 0;
#X connect 20 0 48 0;
#X connect 21 0 17 0;
#X connect 21 1 20 0;
#X connect 22 0 23 0;
#X connect 23 0 22 0;
#X connect 24 0 29 0;
#X connect 25 0 28 0;
#X connect 28 0 35 0;
#X connect 29 0 24 0;
#X connect 30 0 31 0;
#X connect 31 0 32 0;
#X connect 32 0 30 0;
#X connect 35 0 25 0;
#X connect 36 0 35 0;
#X connect 38 0 32 0;
#X connect 46 0 16 0;
#X connect 47 0 15 0;
#X connect 50 0 21 0;
#X restore 318 105 pd old-stuff;
#X text 962 456 upon overflow \, pass play message to next instance, f 18;
#N canvas 0 22 450 300 (subpatch) 0;
#X array doublebuf 220500 float 0;
#X coords 0 1 220499 -1 200 140 1 0 0;
#X restore 21 325 graph;
#X text 227 377 220500 samples = 5 sec @ 44.1Khz, f 17;
#X text 227 429 Each half = 2.5 sec, f 13;
#X obj 20 260 tabwrite~ doublebuf;
#X obj 164 261 tabwrite~ doublebuf;
#X obj 76 201 bng 19 250 50 0 empty empty empty 0 -10 0 12 #fcfcfc #000000 #000000;
#X obj 164 201 bng 19 250 50 0 empty empty empty 0 -10 0 12 #fcfcfc #000000 #000000;
#X text 43 227 start first recording, f 17;
#X obj 21 174 adc~ 1;
#N canvas 92 129 457 491 play-buffer 0;
#N canvas 0 22 450 300 (subpatch) 0;
#X array playobject 391688 float 0;
#X coords 0 1 391687 -1 200 140 1;
#X restore 55 337 graph;
#N canvas 489 150 957 483 sampleloader 0;
#X obj 803 174 s raw_length;
#X obj 721 168 r rndm;
#X obj 690 258 s sample_length;
#X obj 696 69 soundfiler;
#X obj 690 226 -;
#X obj 722 190 t b f;
#X obj 663 165 f;
#X msg 696 38 read -resize mouse.wav playobject;
#X obj 627 36 r sfiler;
#X obj 298 46 inlet;
#X obj 636 344 list split 2;
#X obj 676 372 list split 1;
#X msg 676 398 set \$1;
#X obj 676 424 outlet;
#X obj 636 317 r sfiler;
#X obj 297 111 select 0 1 2 3 4 5;
#X obj 291 310 s sfiler;
#X floatatom 297 88 5 0 0 0 - - - 0;
#X text 175 90 load in sample #;
#X obj 210 45 r loadbang;
#X obj 696 102 sampstoms;
#X msg 296 142 read -resize 01.wav playobject;
#X msg 316 174 read -resize 02.wav playobject;
#X msg 339 208 read -resize 03.wav playobject;
#X msg 358 240 read -resize 04.wav playobject;
#X msg 379 273 read -resize 05.wav playobject;
#X msg 210 69 2;
#X connect 1 0 5 0;
#X connect 3 0 20 0;
#X connect 4 0 2 0;
#X connect 5 0 6 0;
#X connect 5 1 4 1;
#X connect 6 0 4 0;
#X connect 7 0 3 0;
#X connect 8 0 3 0;
#X connect 9 0 17 0;
#X connect 10 1 11 0;
#X connect 11 0 12 0;
#X connect 12 0 13 0;
#X connect 14 0 10 0;
#X connect 15 0 21 0;
#X connect 15 1 22 0;
#X connect 15 2 23 0;
#X connect 15 3 24 0;
#X connect 15 4 25 0;
#X connect 17 0 15 0;
#X connect 19 0 26 0;
#X connect 20 0 6 1;
#X connect 20 0 0 0;
#X connect 20 0 4 0;
#X connect 21 0 16 0;
#X connect 22 0 16 0;
#X connect 23 0 16 0;
#X connect 24 0 16 0;
#X connect 25 0 16 0;
#X connect 26 0 17 0;
#X restore 146 316 pd sampleloader;
#X floatatom 147 291 5 0 0 0 - - - 0;
#X msg 147 269 0;
#X msg 178 269 1;
#X msg 212 269 2;
#X msg 243 269 3;
#X msg 274 269 4;
#X obj 269 308 change;
#X obj 269 332 s samp;
#X obj 59 198 tabplay~ playobject;
#X obj 59 109 unpack;
#X obj 98 139 *;
#X obj 158 50 samplerate~;
#X floatatom 158 74 9 0 0 0 - - - 0;
#X obj 158 26 loadbang;
#X obj 59 166 pack;
#X obj 158 97 / 1000;
#X obj 59 28 tgl 19 0 empty empty empty 0 -10 0 12 #fcfcfc #000000 #000000 0 1;
#X obj 59 55 metro 8800;
#X msg 59 82 0 8800;
#X text 239 132 placeholder play buffer instead of live input, f 27;
#X obj 59 230 outlet~;
#X connect 2 0 1 0;
#X connect 2 0 8 0;
#X connect 3 0 2 0;
#X connect 4 0 2 0;
#X connect 5 0 2 0;
#X connect 6 0 2 0;
#X connect 7 0 2 0;
#X connect 8 0 9 0;
#X connect 10 0 22 0;
#X connect 11 0 16 0;
#X connect 11 1 12 0;
#X connect 12 0 16 1;
#X connect 13 0 14 0;
#X connect 14 0 17 0;
#X connect 15 0 13 0;
#X connect 15 0 18 0;
#X connect 16 0 10 0;
#X connect 17 0 12 1;
#X connect 18 0 19 0;
#X connect 19 0 20 0;
#X connect 20 0 11 0;
#X restore 361 168 pd play-buffer;
#N canvas 12 298 868 492 cv-map 0;
#X text 525 296 map Bela CV input to parameters;
#X obj 492 96 r CV0;
#X obj 422 96 r button1;
#N canvas 3 520 450 396 led3 0;
#X floatatom 43 85 5 0 0 0 - - - 0;
#X obj 43 134 i;
#X floatatom 43 213 5 0 0 0 - - - 0;
#X obj 43 108 - 0.5;
#X obj 43 187 + 1;
#X msg 44 276 1;
#X obj 44 300 tgl 19 0 empty empty empty 0 -10 0 12 #fcfcfc #000000 #000000 0 1;
#X msg 76 276 0;
#X obj 44 251 sel 1;
#X msg 109 275 1;
#X obj 109 299 tgl 19 0 empty empty empty 0 -10 0 12 #fcfcfc #000000 #000000 0 1;
#X msg 141 275 0;
#X msg 175 274 1;
#X obj 175 298 tgl 19 0 empty empty empty 0 -10 0 12 #fcfcfc #000000 #000000 0 1;
#X msg 207 274 0;
#X obj 109 250 sel 2;
#X obj 175 249 sel 3;
#X obj 43 31 inlet;
#X obj 44 329 outlet;
#X obj 109 329 outlet;
#X obj 175 329 outlet;
#X obj 43 61 map 1 3;
#X obj 43 160 change;
#X connect 0 0 3 0;
#X connect 1 0 22 0;
#X connect 2 0 8 0;
#X connect 2 0 15 0;
#X connect 2 0 16 0;
#X connect 3 0 1 0;
#X connect 4 0 2 0;
#X connect 5 0 6 0;
#X connect 6 0 18 0;
#X connect 7 0 6 0;
#X connect 8 0 5 0;
#X connect 8 1 7 0;
#X connect 9 0 10 0;
#X connect 10 0 19 0;
#X connect 11 0 10 0;
#X connect 12 0 13 0;
#X connect 13 0 20 0;
#X connect 14 0 13 0;
#X connect 15 0 9 0;
#X connect 15 1 11 0;
#X connect 16 0 12 0;
#X connect 16 1 14 0;
#X connect 17 0 21 0;
#X connect 21 0 0 0;
#X connect 22 0 4 0;
#X restore 474 198 pd led3;
#X obj 422 144 sel 1;
#N canvas 82 285 471 457 led2 0;
#X floatatom 43 85 5 0 0 0 - - - 0;
#X obj 43 134 i;
#X floatatom 43 216 5 0 0 0 - - - 0;
#X obj 43 108 - 0.5;
#X obj 43 190 + 1;
#X msg 50 303 1;
#X obj 66 342 tgl 19 0 empty empty empty 0 -10 0 12 #fcfcfc #000000 #000000 0 1;
#X msg 82 303 0;
#X msg 115 302 1;
#X obj 131 341 tgl 19 0 empty empty empty 0 -10 0 12 #fcfcfc #000000 #000000 0 1;
#X msg 147 302 0;
#X obj 43 31 inlet;
#X obj 66 371 outlet;
#X obj 131 371 outlet;
#X obj 43 61 map 1 3;
#X obj 44 254 sel 1 2 3, f 17;
#X obj 43 163 change;
#X connect 0 0 3 0;
#X connect 1 0 16 0;
#X connect 2 0 15 0;
#X connect 3 0 1 0;
#X connect 4 0 2 0;
#X connect 5 0 6 0;
#X connect 6 0 12 0;
#X connect 7 0 6 0;
#X connect 8 0 9 0;
#X connect 9 0 13 0;
#X connect 10 0 9 0;
#X connect 11 0 14 0;
#X connect 14 0 0 0;
#X connect 15 0 5 0;
#X connect 15 0 10 0;
#X connect 15 1 5 0;
#X connect 15 1 8 0;
#X connect 15 2 8 0;
#X connect 15 2 7 0;
#X connect 16 0 4 0;
#X restore 493 256 pd led2;
#N canvas 3 520 450 396 led3 0;
#X floatatom 43 85 5 0 0 0 - - - 0;
#X obj 43 134 i;
#X floatatom 43 213 5 0 0 0 - - - 0;
#X obj 43 108 - 0.5;
#X obj 43 187 + 1;
#X msg 44 276 1;
#X obj 44 300 tgl 19 0 empty empty empty 0 -10 0 12 #fcfcfc #000000 #000000 0 1;
#X msg 76 276 0;
#X obj 44 251 sel 1;
#X msg 109 275 1;
#X obj 109 299 tgl 19 0 empty empty empty 0 -10 0 12 #fcfcfc #000000 #000000 0 1;
#X msg 141 275 0;
#X msg 175 274 1;
#X obj 175 298 tgl 19 0 empty empty empty 0 -10 0 12 #fcfcfc #000000 #000000 0 1;
#X msg 207 274 0;
#X obj 109 250 sel 2;
#X obj 175 249 sel 3;
#X obj 43 31 inlet;
#X obj 44 329 outlet;
#X obj 109 329 outlet;
#X obj 175 329 outlet;
#X obj 43 61 map 1 3;
#X obj 43 160 change;
#X connect 0 0 3 0;
#X connect 1 0 22 0;
#X connect 2 0 8 0;
#X connect 2 0 15 0;
#X connect 2 0 16 0;
#X connect 3 0 1 0;
#X connect 4 0 2 0;
#X connect 5 0 6 0;
#X connect 6 0 18 0;
#X connect 7 0 6 0;
#X connect 8 0 5 0;
#X connect 8 1 7 0;
#X connect 9 0 10 0;
#X connect 10 0 19 0;
#X connect 11 0 10 0;
#X connect 12 0 13 0;
#X connect 13 0 20 0;
#X connect 14 0 13 0;
#X connect 15 0 9 0;
#X connect 15 1 11 0;
#X connect 16 0 12 0;
#X connect 16 1 14 0;
#X connect 17 0 21 0;
#X connect 21 0 0 0;
#X connect 22 0 4 0;
#X restore 566 198 pd led3;
#X obj 451 221 led-bargraph, f 30;
#X obj 473 145 map 0 20;
#X obj 473 170 s density;
#X msg 422 168 0;
#X obj 614 121 map 500 10;
#X obj 614 145 s metro;
#X obj 543 122 sel 1;
#X obj 543 145 tgl 19 0 empty empty empty 0 -10 0 12 #fcfcfc #000000 #000000 0 1;
#X obj 543 75 r button2;
#X obj 543 170 s metro-onoff;
#X obj 422 120 change;
#X obj 543 99 change;
#X obj 614 75 r CV1;
#X obj 698 171 sel 1;
#X obj 698 194 tgl 19 0 empty empty empty 0 -10 0 12 #fcfcfc #000000 #000000 0 1;
#X obj 698 148 change;
#X obj 698 124 r button4;
#X obj 556 258 r button3;
#X text 698 75 Button 4 switch betw ADC and viola loop, f 16;
#X obj 698 218 s inswitch;
#X obj 23 100 initialise_digitals;
#X text 22 62 Initialise LEDs \, buttons and trigger inputs, f 25;
#N canvas 421 209 746 660 CV-inputs 0;
#X obj 187 131 lop~ 1;
#X obj 187 106 adc~ 3;
#X obj 187 155 snapshot~;
#X obj 261 131 lop~ 1;
#X obj 261 154 snapshot~;
#X obj 261 106 adc~ 4;
#X obj 79 250 tgl 19 0 empty empty empty 0 -10 0 12 #fcfcfc #000000 #000000 0 1;
#X obj 79 199 loadbang;
#X msg 79 226 1;
#X text 57 131 avoid zipper noise;
#X obj 185 256 lop~ 1;
#X obj 185 280 snapshot~;
#X obj 259 256 lop~ 1;
#X obj 259 279 snapshot~;
#X obj 185 231 adc~ 5;
#X obj 259 231 adc~ 6;
#X obj 187 385 lop~ 1;
#X obj 187 409 snapshot~;
#X obj 261 385 lop~ 1;
#X obj 261 408 snapshot~;
#X obj 185 516 lop~ 1;
#X obj 185 540 snapshot~;
#X obj 259 516 lop~ 1;
#X obj 259 539 snapshot~;
#X obj 187 360 adc~ 7;
#X obj 261 360 adc~ 8;
#X obj 185 491 adc~ 9;
#X obj 259 491 adc~ 10;
#X text 15 107 analog input (range 0-1);
#X text 184 74 BELA KNOBS and CV;
#X obj 79 274 metro 100;
#X obj 139 56 inlet;
#X obj 187 202 s CV0;
#X obj 261 202 s CV1;
#X obj 186 329 s CV2;
#X obj 260 329 s CV3;
#X obj 188 458 s CV4;
#X obj 262 458 s CV5;
#X obj 186 589 s CV6;
#X obj 260 589 s CV7;
#X obj 408 56 inlet;
#X obj 408 91 tgl 19 0 empty empty empty 0 -10 0 12 #fcfcfc #000000 #000000 0 1;
#X obj 408 139 tgl 19 0 empty empty empty 0 -10 0 12 #fcfcfc #000000 #000000 0 1;
#X obj 408 115 flip 1;
#X text 368 27 debug mode on shuts off CV inputs;
#X obj 187 179 spigot 1;
#X obj 261 179 spigot 1;
#X obj 259 304 spigot 1;
#X obj 185 304 spigot 1;
#X obj 187 433 spigot 1;
#X obj 261 433 spigot 1;
#X obj 185 564 spigot 1;
#X obj 259 564 spigot 1;
#X obj 519 82 loadbang;
#X msg 519 106 0;
#X connect 0 0 2 0;
#X connect 1 0 0 0;
#X connect 2 0 45 0;
#X connect 3 0 4 0;
#X connect 4 0 46 0;
#X connect 5 0 3 0;
#X connect 6 0 30 0;
#X connect 7 0 8 0;
#X connect 8 0 6 0;
#X connect 10 0 11 0;
#X connect 11 0 48 0;
#X connect 12 0 13 0;
#X connect 13 0 47 0;
#X connect 14 0 10 0;
#X connect 15 0 12 0;
#X connect 16 0 17 0;
#X connect 17 0 49 0;
#X connect 18 0 19 0;
#X connect 19 0 50 0;
#X connect 20 0 21 0;
#X connect 21 0 51 0;
#X connect 22 0 23 0;
#X connect 23 0 52 0;
#X connect 24 0 16 0;
#X connect 25 0 18 0;
#X connect 26 0 20 0;
#X connect 27 0 22 0;
#X connect 30 0 2 0;
#X connect 30 0 4 0;
#X connect 30 0 11 0;
#X connect 30 0 13 0;
#X connect 30 0 17 0;
#X connect 30 0 19 0;
#X connect 30 0 21 0;
#X connect 30 0 23 0;
#X connect 31 0 30 1;
#X connect 40 0 41 0;
#X connect 41 0 43 0;
#X connect 42 0 45 1;
#X connect 42 0 46 1;
#X connect 42 0 47 1;
#X connect 42 0 48 1;
#X connect 42 0 49 1;
#X connect 42 0 50 1;
#X connect 42 0 51 1;
#X connect 42 0 52 1;
#X connect 43 0 42 0;
#X connect 45 0 32 0;
#X connect 46 0 33 0;
#X connect 47 0 35 0;
#X connect 48 0 34 0;
#X connect 49 0 36 0;
#X connect 50 0 37 0;
#X connect 51 0 38 0;
#X connect 52 0 39 0;
#X connect 53 0 54 0;
#X connect 54 0 41 0;
#X restore 23 178 pd CV-inputs;
#X obj 23 127 loadbang;
#X text 55 152 ms CV sampling;
#X obj 24 210 buttons, f 15;
#N canvas 411 448 589 172 button-sends 0;
#X obj 49 80 print Button 1:;
#X obj 161 80 print Button 2:;
#X obj 277 80 print Button 3:;
#X obj 389 79 print Button 4:;
#X obj 49 50 inlet;
#X obj 161 49 inlet;
#X obj 277 49 inlet;
#X obj 389 48 inlet;
#X obj 49 108 s button1;
#X obj 161 108 s button2;
#X obj 277 109 s button3;
#X obj 389 109 s button4;
#X connect 4 0 0 0;
#X connect 4 0 8 0;
#X connect 5 0 1 0;
#X connect 5 0 9 0;
#X connect 6 0 2 0;
#X connect 6 0 10 0;
#X connect 7 0 3 0;
#X connect 7 0 11 0;
#X restore 24 238 pd button-sends;
#X obj 214 159 tgl 19 0 empty empty empty 0 -10 0 12 #fcfcfc #000000 #000000 0 1;
#X text 236 159 DEBUG;
#X msg 23 152 20;
#X text 138 179 click to operate patch manually, f 19;
#X obj 215 19 inlet;
#X obj 412 395 map 0 100;
#X obj 608 395 map 0 100;
#X obj 579 371 r CV5;
#X obj 524 395 map 10 2000;
#X obj 732 371 r CV7;
#X obj 682 395 map -1200 1200;
#X obj 334 371 r CV2;
#X obj 412 371 r CV3;
#X obj 524 371 r CV4;
#X obj 682 371 r CV6;
#X obj 334 395 map 1 2500;
#X obj 334 419 s pos;
#X obj 412 419 s posvar;
#X obj 524 419 s dur;
#X obj 608 419 s durvar;
#X obj 682 419 s transp;
#X connect 1 0 3 0;
#X connect 1 0 8 0;
#X connect 2 0 17 0;
#X connect 3 0 7 1;
#X connect 3 1 7 2;
#X connect 3 2 7 3;
#X connect 4 0 10 0;
#X connect 6 0 7 5;
#X connect 6 1 7 6;
#X connect 6 2 7 7;
#X connect 8 0 9 0;
#X connect 10 0 9 0;
#X connect 11 0 12 0;
#X connect 13 0 14 0;
#X connect 14 0 7 4;
#X connect 14 0 16 0;
#X connect 15 0 18 0;
#X connect 17 0 4 0;
#X connect 17 0 7 0;
#X connect 18 0 13 0;
#X connect 19 0 6 0;
#X connect 19 0 11 0;
#X connect 20 0 21 0;
#X connect 21 0 7 9;
#X connect 21 0 26 0;
#X connect 22 0 20 0;
#X connect 23 0 22 0;
#X connect 30 0 36 0;
#X connect 32 0 33 0;
#X connect 32 1 33 1;
#X connect 32 2 33 2;
#X connect 32 3 33 3;
#X connect 34 0 29 1;
#X connect 36 0 29 0;
#X connect 38 0 34 0;
#X connect 39 0 51 0;
#X connect 40 0 53 0;
#X connect 41 0 40 0;
#X connect 42 0 52 0;
#X connect 44 0 54 0;
#X connect 45 0 49 0;
#X connect 46 0 39 0;
#X connect 47 0 42 0;
#X connect 48 0 44 0;
#X connect 49 0 50 0;
#X restore 318 80 pd cv-map;
#X obj 361 193 output~;
#X text 710 451 GRAIN CLOUD ENGINE, f 9;
#X text 115 322 | | | | | | | | | |, f 2;
#X obj 318 56 tgl 19 0 empty empty empty 0 -10 0 12 #fcfcfc #000000 #000000 0 1;
#X text 227 325 Buffer contains two copies of 2500ms, f 20;
#X obj 318 12 loadbang;
#X msg 318 34 1;
#X text 801 112 dur (ms), f 4;
#N canvas 8 299 1049 372 parameters 0;
#X obj 213 125 outlet;
#X obj 270 125 outlet;
#X obj 353 125 outlet;
#X obj 409 125 outlet;
#X obj 488 125 outlet;
#X obj 567 125 outlet;
#X obj 121 100 s-r stretch;
#X obj 121 125 outlet;
#X obj 121 74 inlet;
#X text 35 43 Play (0);
#X text 34 54 Freeze (1);
#X obj 45 100 s-r freeze;
#X obj 45 74 inlet;
#X obj 45 125 outlet;
#N canvas 121 158 385 427 parameter-monitor 0;
#X text 10 11 monitor parameters in Bela IDE console;
#X obj 94 83 change;
#X obj 147 83 change;
#X obj 199 83 change;
#X obj 94 58 inlet;
#X obj 147 58 inlet;
#X obj 199 58 inlet;
#X obj 26 133 tgl 19 0 empty empty empty 0 -10 0 12 #fcfcfc #000000 #000000 0 1;
#X obj 26 181 t b b b b b, f 30;
#X obj 43 211 r samp;
#X obj 26 237 i;
#X obj 76 237 i;
#X obj 26 310 print;
#X obj 26 262 pack 0 0 0 0 0, f 30;
#X obj 129 237 i;
#X obj 181 237 i;
#X obj 234 237 i;
#X obj 26 155 metro 500;
#X msg 26 286 samp \$1 pos \$2 dur \$3 transp \$4 density \$5;
#X obj 26 61 inlet;
#X connect 1 0 11 1;
#X connect 2 0 14 1;
#X connect 3 0 15 1;
#X connect 4 0 1 0;
#X connect 5 0 2 0;
#X connect 6 0 3 0;
#X connect 7 0 17 0;
#X connect 8 0 10 0;
#X connect 8 1 11 0;
#X connect 8 2 14 0;
#X connect 8 3 15 0;
#X connect 8 4 16 0;
#X connect 9 0 10 1;
#X connect 10 0 13 0;
#X connect 11 0 13 1;
#X connect 13 0 18 0;
#X connect 14 0 13 2;
#X connect 15 0 13 3;
#X connect 16 0 13 4;
#X connect 17 0 8 0;
#X connect 18 0 12 0;
#X connect 19 0 7 0;
#X restore 155 327 pd parameter-monitor;
#X f 21;
#X obj 155 305 tgl 19 1 empty empty empty 0 -10 0 12 #fcfcfc #000000 #000000 0 1;
#X text 126 269 print to Bela console, f 12;
#X obj 213 100 s-r pos;
#X obj 270 100 s-r posvar;
#X obj 213 74 inlet;
#X obj 270 74 inlet;
#X obj 353 100 s-r dur;
#X obj 409 100 s-r durvar;
#X obj 353 74 inlet;
#X obj 409 74 inlet;
#X obj 488 100 s-r transp;
#X obj 567 100 s-r transpvar;
#X obj 488 74 inlet;
#X obj 567 74 inlet;
#X obj 671 103 s-r pitchrand;
#X obj 776 103 s-r pitchquant;
#X obj 671 127 outlet;
#X obj 671 76 inlet;
#X obj 776 127 outlet;
#X obj 776 76 inlet;
#X connect 6 0 7 0;
#X connect 8 0 6 0;
#X connect 11 0 13 0;
#X connect 12 0 11 0;
#X connect 15 0 14 0;
#X connect 17 0 0 0;
#X connect 18 0 1 0;
#X connect 19 0 17 0;
#X connect 20 0 18 0;
#X connect 21 0 2 0;
#X connect 22 0 3 0;
#X connect 23 0 21 0;
#X connect 24 0 22 0;
#X connect 25 0 4 0;
#X connect 26 0 5 0;
#X connect 27 0 25 0;
#X connect 28 0 26 0;
#X connect 29 0 31 0;
#X connect 30 0 33 0;
#X connect 32 0 29 0;
#X connect 34 0 30 0;
#X restore 599 169 pd parameters;
#X f 65;
#X text 37 596 granular engine plays one grain at a time at density \, overflowing to next available grain when busy \, uses clone object to instantiate grains, f 77;
#X msg 750 600 \; density 0 \; metro 20 \; dur 80 \; transp 0 \; posvar 10 \;;
#X floatatom 998 144 5 0 0 0 - - - 0;
#X floatatom 1050 142 5 0 0 0 - - - 0;
#X text 359 255 temporary buffer play and dry output to delete, f 18;
#N canvas 45 436 678 310 triangle-window 0;
#X text 445 103 window shape;
#X obj 20 26 loadbang;
#X obj 20 85 soundfiler;
#N canvas 179 217 450 300 (subpatch) 0;
#X array wndw 512 float 0;
#X coords 0 1 511 -1 200 140 1 0 0;
#X restore 399 126 graph;
#X obj 21 122 s trisize;
#X msg 20 55 read -resize tri wndw;
#X connect 1 0 5 0;
#X connect 2 0 4 0;
#X connect 5 0 2 0;
#X restore 21 469 pd triangle-window;
#N canvas 72 338 532 523 transposer 0;
#N canvas 228 147 680 446 random_pitch 1;
#X obj 354 217 loadbang;
#X floatatom 431 143 0 0 0 0 - - - 0;
#X msg 500 244 2;
#X msg 500 223 bang;
#X msg 431 239 1;
#X obj 431 201 sel 0;
#X floatatom 154 57 0 0 0 0 - - - 0;
#X obj 431 340 * 1;
#X text 76 15 duration;
#X text 197 14 random width;
#X text 470 142 0 ~1.0;
#X text 478 15 pitch quantize;
#N canvas 192 270 548 310 switch 0;
#X obj 41 187 spigot;
#X obj 132 188 spigot;
#X obj 240 187 spigot;
#X obj 361 187 spigot;
#X obj 44 19 inlet;
#X obj 78 106 i 1;
#X obj 400 105 i 1;
#X obj 278 106 i 1;
#X obj 169 105 i 1;
#X obj 247 6 inlet;
#X obj 89 136 i 0;
#X obj 180 135 i 0;
#X obj 289 136 i 0;
#X obj 411 135 i 0;
#X obj 45 236 outlet;
#X obj 133 232 outlet;
#X obj 240 233 outlet;
#X obj 361 236 outlet;
#X obj 247 56 select 1 2 3 4;
#X connect 0 0 14 0;
#X connect 1 0 15 0;
#X connect 2 0 16 0;
#X connect 3 0 17 0;
#X connect 4 0 0 0;
#X connect 4 0 1 0;
#X connect 4 0 2 0;
#X connect 4 0 3 0;
#X connect 5 0 0 1;
#X connect 6 0 3 1;
#X connect 7 0 2 1;
#X connect 8 0 1 1;
#X connect 9 0 18 0;
#X connect 10 0 0 1;
#X connect 11 0 1 1;
#X connect 12 0 2 1;
#X connect 13 0 3 1;
#X connect 18 0 5 0;
#X connect 18 0 11 0;
#X connect 18 0 12 0;
#X connect 18 0 13 0;
#X connect 18 1 8 0;
#X connect 18 1 10 0;
#X connect 18 1 12 0;
#X connect 18 1 13 0;
#X connect 18 2 7 0;
#X connect 18 2 10 0;
#X connect 18 2 11 0;
#X connect 18 2 13 0;
#X connect 18 3 6 0;
#X connect 18 3 10 0;
#X connect 18 3 11 0;
#X connect 18 3 12 0;
#X restore 433 275 pd switch;
#X obj 28 16 inlet;
#X obj 154 14 inlet;
#X obj 431 16 inlet;
#X obj 431 364 outlet;
#X obj 177 138 tgl 15 0 empty empty empty 20 8 0 8 #fcfcfc #000000 #000000 0 1;
#X obj 177 161 metro 0;
#N canvas 71 130 450 300 expr 0;
#X obj 310 132 /;
#X obj 308 194 *;
#X obj 331 164 int;
#X obj 273 94 inlet;
#X obj 351 99 inlet;
#X obj 313 263 outlet;
#X connect 0 0 2 0;
#X connect 1 0 5 0;
#X connect 2 0 1 0;
#X connect 3 0 0 0;
#X connect 4 0 0 1;
#X connect 4 0 1 1;
#X restore 459 311 pd expr;
#X obj 177 189 random 2000;
#X obj 177 213 - 1000;
#X obj 177 239 / 1000;
#X obj 177 271 *, f 4;
#X obj 177 303 t b f;
#X obj 177 367 pow, f 5;
#X msg 177 335 2;
#X obj 177 114 != 0;
#X text 183 56 0 ~ 1;
#X floatatom 197 400 5 0 0 0 - - - 0;
#X obj 154 161 bng 19 250 50 0 empty empty empty 0 -10 0 12 #fcfcfc #000000 #000000;
#X text 63 188 force return to zero random, f 14;
#X obj 28 38 t b f;
#X obj 154 80 t b f f;
#X connect 0 0 4 0;
#X connect 1 0 5 0;
#X connect 2 0 12 1;
#X connect 3 0 2 0;
#X connect 4 0 12 1;
#X connect 5 0 4 0;
#X connect 5 1 3 0;
#X connect 5 1 19 1;
#X connect 6 0 33 0;
#X connect 7 0 16 0;
#X connect 12 0 7 0;
#X connect 12 1 19 0;
#X connect 13 0 32 0;
#X connect 14 0 6 0;
#X connect 15 0 1 0;
#X connect 17 0 18 0;
#X connect 18 0 20 0;
#X connect 19 0 7 0;
#X connect 20 0 21 0;
#X connect 21 0 22 0;
#X connect 22 0 23 0;
#X connect 23 0 24 0;
#X connect 24 0 26 0;
#X connect 24 1 25 1;
#X connect 25 0 12 0;
#X connect 25 0 29 0;
#X connect 26 0 25 0;
#X connect 27 0 17 0;
#X connect 30 0 20 0;
#X connect 32 0 6 0;
#X connect 32 1 7 1;
#X connect 33 0 30 0;
#X connect 33 1 27 0;
#X connect 33 2 23 1;
#X restore 41 310 pd random_pitch;
#X floatatom 288 242 0 0 0 0 - - - 0;
#X floatatom 41 213 5 0 0 0 - - - 0;
#X floatatom 91 213 5 0 0 0 - - - 0;
#X floatatom 288 114 5 0 0 0 - - - 0;
#X obj 288 131 / 1200;
#X obj 288 196 pow;
#X obj 288 152 t b f;
#X msg 288 173 2;
#X floatatom 143 213 0 0 0 0 - - - 0;
#X text 329 114 cents;
#X text 328 197 12th root of 2;
#X text 318 242 frequency multiple;
#X text 38 67 gran dur (ms);
#X obj 259 334 outlet;
#X obj 41 334 outlet;
#X text 291 67 basepitch;
#X obj 288 90 inlet;
#X obj 41 90 inlet;
#X obj 288 265 t b f;
#X obj 91 164 r pitchrand;
#X obj 143 190 r pitchquant;
#X text 31 361 pitch adjusted gran dur. This with ramp time will give transposition with consistent actual grain duration, f 25;
#X text 256 361 use gran dur as ramp time for phasor, f 16;
#X obj 41 286 * 1;
#X floatatom 55 453 5 0 0 0 - - - 0;
#X connect 0 0 15 0;
#X connect 0 0 25 0;
#X connect 1 0 19 0;
#X connect 2 0 14 0;
#X connect 2 0 24 0;
#X connect 3 0 0 1;
#X connect 4 0 5 0;
#X connect 5 0 7 0;
#X connect 6 0 1 0;
#X connect 7 0 8 0;
#X connect 7 1 6 1;
#X connect 8 0 6 0;
#X connect 9 0 0 2;
#X connect 17 0 4 0;
#X connect 18 0 2 0;
#X connect 19 0 24 0;
#X connect 19 1 24 1;
#X connect 20 0 3 0;
#X connect 21 0 9 0;
#X connect 24 0 0 0;
#X restore 1005 301 pd transposer;
#X floatatom 649 147 5 0 0 0 - - - 0;
#X obj 599 147 tgl 19 0 empty empty empty 17 7 0 10 #fcfcfc #000000 #000000 0 1;
#X text 688 111 frz pos (ms), f 7;
#X text 627 111 time stretch, f 7;
#N canvas 42 423 859 393 stretchfreeze 0;
#X floatatom 472 218 5 0 0 0 - - - 0;
#X floatatom 364 169 5 0 0 0 - - - 0;
#N canvas 2 208 674 595 timestretch 0;
#X obj 110 13 inlet;
#X obj 110 35 bng 19 250 50 0 empty empty empty 0 -10 0 12 #fcfcfc #000000 #000000;
#X floatatom 110 326 5 0 0 0 - - - 0;
#X obj 110 299 +;
#X obj 133 427 select 0 1;
#X obj 126 465 i;
#X obj 199 33 r metro;
#X floatatom 199 57 5 0 0 0 - - - 0;
#X obj 133 403 >= 2500;
#X obj 166 232 i;
#X obj 166 256 * -1;
#X obj 110 57 t b b b;
#X obj 110 504 outlet;
#X floatatom 483 181 5 0 0 0 - - - 0;
#X text 194 391 foldover at half buffer, f 15;
#X text 201 238 reset to zero, f 7;
#X obj 110 349 t f f f;
#X obj 110 174 bng 19 250 50 0 empty empty empty 0 -10 0 12 #fcfcfc #000000 #000000;
#X floatatom 110 223 5 0 0 0 - - - 0;
#X obj 166 280 clip 0;
#X obj 271 128 *;
#X obj 271 33 inlet;
#X floatatom 271 57 5 0 0 0 - - - 0;
#X obj 271 104 t b f;
#X text 272 12 timestretch amount;
#X floatatom 303 128 5 0 0 0 - - - 0;
#X obj 271 80 clip 0 10;
#N canvas 237 274 499 370 posvar 0;
#X floatatom 244 93 5 0 0 0 - - - 0;
#X floatatom 304 93 5 0 100 0 - - - 0;
#X obj 102 134 random 1000;
#X obj 102 159 / 1000;
#X obj 102 93 bng 19 250 50 0 empty empty empty 0 -10 0 12 #fcfcfc #000000 #000000;
#X obj 286 196 *;
#X obj 243 254 +;
#X floatatom 243 278 5 0 0 0 - - - 0;
#X obj 286 220 t b f;
#X obj 244 49 inlet;
#X obj 305 49 inlet;
#X obj 102 49 inlet;
#X text 103 23 generate output;
#X obj 243 301 outlet;
#X text 246 23 value;
#X text 302 23 random var (absolute);
#X connect 0 0 6 0;
#X connect 1 0 5 1;
#X connect 2 0 3 0;
#X connect 3 0 5 0;
#X connect 4 0 2 0;
#X connect 5 0 8 0;
#X connect 6 0 7 0;
#X connect 7 0 13 0;
#X connect 8 0 6 0;
#X connect 8 1 6 1;
#X connect 9 0 0 0;
#X connect 10 0 1 0;
#X connect 11 0 4 0;
#X restore 110 199 pd posvar;
#X floatatom 271 152 5 0 0 0 - - - 0;
#X obj 482 33 inlet;
#X floatatom 482 57 5 0 0 0 - - - 0;
#X text 482 12 posvar (ms);
#X connect 0 0 1 0;
#X connect 1 0 11 0;
#X connect 2 0 16 0;
#X connect 3 0 2 0;
#X connect 4 0 5 0;
#X connect 4 1 9 0;
#X connect 5 0 3 1;
#X connect 6 0 7 0;
#X connect 7 0 9 1;
#X connect 7 0 19 2;
#X connect 7 0 20 0;
#X connect 8 0 4 0;
#X connect 9 0 10 0;
#X connect 10 0 19 0;
#X connect 11 0 17 0;
#X connect 13 0 27 2;
#X connect 16 0 12 0;
#X connect 16 1 8 0;
#X connect 16 2 5 1;
#X connect 17 0 27 0;
#X connect 18 0 3 0;
#X connect 19 0 3 1;
#X connect 20 0 28 0;
#X connect 21 0 22 0;
#X connect 22 0 26 0;
#X connect 23 0 20 0;
#X connect 23 1 20 1;
#X connect 23 1 25 0;
#X connect 26 0 23 0;
#X connect 27 0 18 0;
#X connect 28 0 27 1;
#X connect 29 0 30 0;
#X connect 30 0 13 0;
#X restore 317 191 pd timestretch;
#N canvas 378 62 327 284 switch 1;
#X obj 135 27 inlet;
#X obj 135 78 < 1;
#X obj 116 135 *;
#X obj 156 135 *;
#X obj 156 161 t b f;
#X obj 189 27 inlet;
#X obj 241 27 inlet;
#X obj 116 206 +;
#X obj 116 249 outlet;
#X connect 0 0 1 0;
#X connect 0 0 3 1;
#X connect 1 0 2 1;
#X connect 2 0 7 0;
#X connect 3 0 4 0;
#X connect 4 0 7 0;
#X connect 4 1 7 1;
#X connect 5 0 2 0;
#X connect 6 0 3 0;
#X connect 7 0 8 0;
#X restore 287 284 pd switch;
#X floatatom 287 308 5 0 0 0 - - - 0;
#X floatatom 317 215 5 0 0 0 - - - 0;
#X text 365 34 time stretch;
#N canvas 237 274 499 370 frzpos 0;
#X floatatom 244 93 5 0 0 0 - - - 0;
#X floatatom 304 93 5 0 100 0 - - - 0;
#X obj 102 134 random 1000;
#X obj 102 159 / 1000;
#X obj 102 93 bng 19 250 50 0 empty empty empty 0 -10 0 12 #fcfcfc #000000 #000000;
#X obj 286 196 *;
#X obj 243 254 +;
#X floatatom 243 278 5 0 0 0 - - - 0;
#X obj 286 220 t b f;
#X obj 244 49 inlet;
#X obj 305 49 inlet;
#X obj 102 49 inlet;
#X text 103 23 generate output;
#X obj 243 301 outlet;
#X text 246 23 value;
#X text 302 23 random var (absolute);
#X connect 0 0 6 0;
#X connect 1 0 5 1;
#X connect 2 0 3 0;
#X connect 3 0 5 0;
#X connect 4 0 2 0;
#X connect 5 0 8 0;
#X connect 6 0 7 0;
#X connect 7 0 13 0;
#X connect 8 0 6 0;
#X connect 8 1 6 1;
#X connect 9 0 0 0;
#X connect 10 0 1 0;
#X connect 11 0 4 0;
#X restore 472 192 pd frzpos;
#X obj 235 56 inlet;
#X obj 234 171 bng 19 250 50 0 empty empty empty 0 -10 0 12 #fcfcfc #000000 #000000;
#X floatatom 502 164 5 0 0 0 - - - 0;
#X floatatom 642 174 5 0 0 0 - - - 0;
#X text 642 36 position var (ms);
#X text 503 34 position (ms);
#X obj 287 331 outlet;
#X text 362 285 switch between 'freeze' mode (position+var) and 'play' mode (timestretch+var), f 31;
#X obj 289 57 r freeze;
#X obj 364 56 r stretch;
#X obj 503 56 r pos;
#X obj 642 56 r posvar;
#X connect 0 0 3 2;
#X connect 1 0 2 1;
#X connect 2 0 5 0;
#X connect 3 0 4 0;
#X connect 4 0 14 0;
#X connect 5 0 3 1;
#X connect 7 0 0 0;
#X connect 8 0 9 0;
#X connect 9 0 2 0;
#X connect 9 0 7 0;
#X connect 10 0 7 1;
#X connect 11 0 7 2;
#X connect 11 0 2 2;
#X connect 16 0 3 0;
#X connect 17 0 1 0;
#X connect 18 0 10 0;
#X connect 19 0 11 0;
#X restore 649 212 pd stretchfreeze;
#X floatatom 649 236 5 0 0 0 - - - 0;
#X text 577 111 play/ freeze, f 6;
#X msg 657 601 \; density 0 \; metro 100 \; dur 200 \; transp 0 \; posvar 0 \;;
#N canvas 52 341 272 174 grain-dur 0;
#X floatatom 72 97 5 0 0 0 - - - 0;
#X obj 72 57 variator;
#X obj 41 17 inlet;
#X obj 89 17 r dur;
#X obj 133 18 r durvar;
#X obj 72 120 outlet;
#X connect 0 0 5 0;
#X connect 1 0 0 0;
#X connect 2 0 1 0;
#X connect 3 0 1 1;
#X connect 4 0 1 2;
#X restore 816 212 pd grain-dur;
#X text 743 110 posvar (ms), f 6;
#N canvas 42 142 1051 636 transposer 1;
#X obj 67 84 variator;
#X obj 67 39 inlet;
#X obj 118 38 r transp;
#X obj 183 38 r transpvar;
#X obj 388 545 outlet;
#X floatatom 428 338 5 0 0 0 - - - 0;
#X obj 428 361 / 100;
#X obj 428 388 i;
#X floatatom 428 412 5 0 0 0 - - - 0;
#X obj 428 435 * 100;
#X floatatom 388 474 5 0 0 0 - - - 0;
#X msg 556 562 25;
#X msg 592 562 50;
#X msg 627 562 100;
#X msg 664 562 200;
#X msg 702 562 300;
#X msg 738 562 400;
#X msg 773 562 500;
#X msg 810 562 600;
#X msg 839 563 700;
#X msg 875 563 800;
#X msg 910 563 900;
#X msg 947 563 1000;
#X msg 985 563 1100;
#X msg 1024 563 1200;
#X floatatom 489 75 5 0 0 0 - - - 0;
#X obj 536 170 moses 0.5;
#X obj 596 196 moses 1;
#X obj 642 223 moses 2;
#X obj 689 253 moses 3;
#X obj 735 286 moses 4;
#X obj 781 312 moses 5;
#X obj 827 339 moses 6;
#X obj 873 369 moses 7;
#X obj 919 396 moses 8;
#X obj 965 426 moses 9;
#X obj 1011 459 moses 10;
#X obj 1064 485 moses 11;
#X obj 1117 512 moses 12;
#X text 530 73 quantize amount: 0.25 \, 0.5 \, 1-12;
#X obj 489 98 route 0;
#X obj 312 153 loadbang;
#X msg 458 173 2;
#X msg 458 152 bang;
#X msg 425 173 1;
#X obj 426 127 sel 0;
#N canvas 192 270 548 310 switch 0;
#X obj 41 187 spigot;
#X obj 132 188 spigot;
#X obj 240 187 spigot;
#X obj 361 187 spigot;
#X obj 44 19 inlet;
#X obj 78 106 i 1;
#X obj 400 105 i 1;
#X obj 278 106 i 1;
#X obj 169 105 i 1;
#X obj 247 6 inlet;
#X obj 89 136 i 0;
#X obj 180 135 i 0;
#X obj 289 136 i 0;
#X obj 411 135 i 0;
#X obj 45 236 outlet;
#X obj 133 232 outlet;
#X obj 240 233 outlet;
#X obj 361 236 outlet;
#X obj 247 56 select 1 2 3 4;
#X connect 0 0 14 0;
#X connect 1 0 15 0;
#X connect 2 0 16 0;
#X connect 3 0 17 0;
#X connect 4 0 0 0;
#X connect 4 0 1 0;
#X connect 4 0 2 0;
#X connect 4 0 3 0;
#X connect 5 0 0 1;
#X connect 6 0 3 1;
#X connect 7 0 2 1;
#X connect 8 0 1 1;
#X connect 9 0 18 0;
#X connect 10 0 0 1;
#X connect 11 0 1 1;
#X connect 12 0 2 1;
#X connect 13 0 3 1;
#X connect 18 0 5 0;
#X connect 18 0 11 0;
#X connect 18 0 12 0;
#X connect 18 0 13 0;
#X connect 18 1 8 0;
#X connect 18 1 10 0;
#X connect 18 1 12 0;
#X connect 18 1 13 0;
#X connect 18 2 7 0;
#X connect 18 2 10 0;
#X connect 18 2 11 0;
#X connect 18 2 13 0;
#X connect 18 3 6 0;
#X connect 18 3 10 0;
#X connect 18 3 11 0;
#X connect 18 3 12 0;
#X restore 391 204 pd switch;
#X floatatom 391 102 5 0 0 0 - - - 0;
#X text 289 101 transposition;
#X obj 489 51 r pitchquant;
#X connect 0 0 47 0;
#X connect 1 0 0 0;
#X connect 2 0 0 1;
#X connect 3 0 0 2;
#X connect 5 0 6 0;
#X connect 6 0 7 0;
#X connect 7 0 8 0;
#X connect 8 0 9 0;
#X connect 9 0 10 0;
#X connect 10 0 4 0;
#X connect 11 0 6 1;
#X connect 11 0 9 1;
#X connect 12 0 6 1;
#X connect 12 0 9 1;
#X connect 13 0 6 1;
#X connect 13 0 9 1;
#X connect 14 0 6 1;
#X connect 14 0 9 1;
#X connect 15 0 6 1;
#X connect 15 0 9 1;
#X connect 16 0 6 1;
#X connect 16 0 9 1;
#X connect 17 0 6 1;
#X connect 17 0 9 1;
#X connect 18 0 6 1;
#X connect 18 0 9 1;
#X connect 19 0 6 1;
#X connect 19 0 9 1;
#X connect 20 0 6 1;
#X connect 20 0 9 1;
#X connect 21 0 6 1;
#X connect 21 0 9 1;
#X connect 22 0 6 1;
#X connect 22 0 9 1;
#X connect 23 0 6 1;
#X connect 23 0 9 1;
#X connect 24 0 6 1;
#X connect 24 0 9 1;
#X connect 25 0 40 0;
#X connect 25 0 45 0;
#X connect 26 0 11 0;
#X connect 26 1 27 0;
#X connect 27 0 12 0;
#X connect 27 1 28 0;
#X connect 28 0 13 0;
#X connect 28 1 29 0;
#X connect 29 0 14 0;
#X connect 29 1 30 0;
#X connect 30 0 15 0;
#X connect 30 1 31 0;
#X connect 31 0 16 0;
#X connect 31 1 32 0;
#X connect 32 0 17 0;
#X connect 32 1 33 0;
#X connect 33 0 18 0;
#X connect 33 1 34 0;
#X connect 34 0 19 0;
#X connect 34 1 35 0;
#X connect 35 0 20 0;
#X connect 35 1 36 0;
#X connect 36 0 21 0;
#X connect 36 1 37 0;
#X connect 37 0 22 0;
#X connect 37 1 38 0;
#X connect 38 0 23 0;
#X connect 38 1 24 0;
#X connect 40 1 26 0;
#X connect 41 0 44 0;
#X connect 42 0 46 1;
#X connect 43 0 42 0;
#X connect 44 0 46 1;
#X connect 45 0 44 0;
#X connect 45 1 43 0;
#X connect 46 0 10 0;
#X connect 46 1 5 0;
#X connect 47 0 46 0;
#X connect 49 0 25 0;
#X restore 958 212 pd transposer;
#X text 347 56 Play patch manually;
#X text 986 115 pitchrand;
#X text 1060 114 pitchquant;
#X floatatom 1099 59 5 10 2000 0 - - - 0;
#N canvas 8 299 497 468 cloud-generator 0;
#X obj 298 121 outlet;
#X obj 181 121 outlet;
#X obj 181 70 inlet;
#X text 86 39 Play (0);
#X text 85 50 Freeze (1);
#X obj 96 70 inlet;
#X obj 96 121 outlet;
#X obj 298 70 inlet;
#X obj 96 96 s-r density;
#X floatatom 57 286 5 0 0 0 - - - 0;
#X obj 57 310 density-generator;
#X obj 319 300 tgl 19 0 empty empty empty 0 -10 0 12 #fcfcfc #000000 #000000 0 1;
#X floatatom 378 301 5 0 0 0 - - - 0;
#X obj 319 324 metro 500;
#X msg 102 286 0;
#X obj 57 235 r density;
#X obj 379 251 r metro;
#X text 151 192 stochastic density/sec;
#X text 151 207 or machine gun metro;
#X text 152 223 or both;
#X obj 320 228 r metro-onoff;
#X obj 57 259 change;
#X obj 379 275 change;
#X obj 181 96 s-r metro-onoff;
#X obj 298 96 s-r metro;
#X obj 246 387 bng 19 250 50 0 empty empty empty 0 -10 0 12 #fcfcfc #000000 #000000;
#X obj 430 404 outlet;
#X obj 413 72 inlet;
#X connect 2 0 23 0;
#X connect 5 0 8 0;
#X connect 7 0 24 0;
#X connect 8 0 6 0;
#X connect 9 0 10 0;
#X connect 10 0 25 0;
#X connect 11 0 13 0;
#X connect 12 0 13 1;
#X connect 13 0 25 0;
#X connect 14 0 9 0;
#X connect 15 0 21 0;
#X connect 16 0 22 0;
#X connect 20 0 11 0;
#X connect 21 0 9 0;
#X connect 22 0 12 0;
#X connect 23 0 1 0;
#X connect 24 0 0 0;
#X connect 25 0 26 0;
#X restore 1010 81 pd cloud-generator;
#X f 20;
#X text 988 23 density;
#X floatatom 1010 59 3 0 0 0 - - - 0;
#X obj 1055 59 tgl 19 0 empty empty empty 0 -10 0 12 #fcfcfc #000000 #000000 0 1;
#X text 1047 22 metro on/off, f 6;
#X text 1099 23 metro (ms), f 5;
#X floatatom 876 430 5 0 11 0 - - - 0;
#X obj 935 430 bng 19 250 50 0 empty empty empty 0 -10 0 12 #fcfcfc #000000 #000000;
#X text 877 399 open 0-11, f 5;
#X text 931 399 close all, f 6;
#N canvas 498 535 450 300 overflow 0;
#X obj 78 50 list split 1;
#X obj 78 77 + 1;
#X obj 78 104 list;
#X text 123 74 upon overflow \, pass play message to next instance, f 30;
#X obj 78 21 inlet;
#X obj 78 131 route 12;
#X obj 130 178 outlet;
#X obj 204 181 outlet;
#X text 77 207 next instance trigger msg, f 15;
#X text 203 207 overflow all instances, f 14;
#X connect 0 0 1 0;
#X connect 0 1 2 1;
#X connect 1 0 2 0;
#X connect 2 0 5 0;
#X connect 4 0 0 0;
#X connect 5 0 7 0;
#X connect 5 1 6 0;
#X restore 948 504 pd overflow;
#X obj 1022 528 bng 19 250 50 0 empty empty empty 0 -10 0 12 #fcfcfc #000000 #000000;
#X text 1044 520 overflow all instances, f 13;
#N canvas 92 129 427 246 alternator 0;
#X obj 35 43 tgl 19 0 empty empty empty 0 -10 0 12 #fcfcfc #000000 #000000 0 1;
#X floatatom 98 48 10 0 0 0 - - - 0;
#X obj 35 67 metro 2500;
#X obj 35 91 tgl 19 0 empty empty empty 0 -10 0 12 #fcfcfc #000000 #000000 0 1;
#X obj 35 115 select 0 1;
#X obj 35 139 bng 19 250 50 0 empty empty empty 0 -10 0 12 #fcfcfc #000000 #000000;
#X obj 68 139 bng 19 250 50 0 empty empty empty 0 -10 0 12 #fcfcfc #000000 #000000;
#X obj 35 19 loadbang;
#X text 131 77 5 sec buffer \, with two recordings starting half a buffer apart, f 33;
#X text 127 145 trigger rec - first half \, second half;
#X obj 35 176 outlet;
#X obj 86 176 outlet;
#X connect 0 0 2 0;
#X connect 1 0 2 1;
#X connect 2 0 3 0;
#X connect 3 0 4 0;
#X connect 4 0 5 0;
#X connect 4 1 6 0;
#X connect 5 0 10 0;
#X connect 6 0 11 0;
#X connect 7 0 0 0;
#X restore 76 175 pd alternator;
#X text 172 227 start second recording half buffer in, f 22;
#X connect 4 0 3 0;
#X connect 12 0 57 4;
#X connect 13 0 57 5;
#X connect 15 0 24 1;
#X connect 16 0 57 6;
#X connect 17 0 57 7;
#X connect 19 0 24 2;
#X connect 21 0 69 0;
#X connect 21 0 73 0;
#X connect 21 0 75 0;
#X connect 22 0 57 2;
#X connect 23 0 57 3;
#X connect 24 0 28 0;
#X connect 25 0 35 0;
#X connect 34 0 35 0;
#X connect 35 0 5 0;
#X connect 35 1 5 1;
#X connect 35 2 90 0;
#X connect 43 0 41 0;
#X connect 44 0 42 0;
#X connect 46 0 41 0;
#X connect 46 0 42 0;
#X connect 46 0 49 0;
#X connect 46 0 49 1;
#X connect 52 0 48 0;
#X connect 54 0 55 0;
#X connect 55 0 52 0;
#X connect 57 0 66 0;
#X connect 57 1 65 0;
#X connect 57 2 22 0;
#X connect 57 3 23 0;
#X connect 57 4 12 0;
#X connect 57 5 13 0;
#X connect 57 6 16 0;
#X connect 57 7 17 0;
#X connect 57 8 60 0;
#X connect 57 9 61 0;
#X connect 60 0 57 8;
#X connect 61 0 57 9;
#X connect 65 0 57 1;
#X connect 66 0 57 0;
#X connect 69 0 70 0;
#X connect 70 0 24 0;
#X connect 73 0 15 0;
#X connect 75 0 19 0;
#X connect 79 0 80 2;
#X connect 80 0 82 0;
#X connect 80 1 83 0;
#X connect 80 2 79 0;
#X connect 80 3 21 0;
#X connect 82 0 80 0;
#X connect 83 0 80 1;
#X connect 86 0 34 0;
#X connect 87 0 34 1;
#X connect 90 0 35 0;
#X connect 90 1 91 0;
#X connect 93 0 43 0;
#X connect 93 1 44 0;
