#N canvas 179 216 823 385 12;
#X obj 433 53 r CV0;
#X obj 466 137 r button1;
#N canvas 3 520 450 396 led3 0;
#X floatatom 43 85 5 0 0 0 - - - 0;
#X obj 43 134 i;
#X floatatom 43 213 5 0 0 0 - - - 0;
#X obj 43 108 - 0.5;
#X obj 43 187 + 1;
#X msg 44 276 1;
#X obj 44 300 tgl 19 0 empty empty empty 0 -10 0 12 #fcfcfc #000000 #000000 0 1;
#X msg 76 276 0;
#X obj 44 251 sel 1;
#X msg 109 275 1;
#X obj 109 299 tgl 19 0 empty empty empty 0 -10 0 12 #fcfcfc #000000 #000000 0 1;
#X msg 141 275 0;
#X msg 175 274 1;
#X obj 175 298 tgl 19 0 empty empty empty 0 -10 0 12 #fcfcfc #000000 #000000 0 1;
#X msg 207 274 0;
#X obj 109 250 sel 2;
#X obj 175 249 sel 3;
#X obj 43 31 inlet;
#X obj 44 329 outlet;
#X obj 109 329 outlet;
#X obj 175 329 outlet;
#X obj 43 61 map 1 3;
#X obj 43 160 change;
#X connect 0 0 3 0;
#X connect 1 0 22 0;
#X connect 2 0 8 0;
#X connect 2 0 15 0;
#X connect 2 0 16 0;
#X connect 3 0 1 0;
#X connect 4 0 2 0;
#X connect 5 0 6 0;
#X connect 6 0 18 0;
#X connect 7 0 6 0;
#X connect 8 0 5 0;
#X connect 8 1 7 0;
#X connect 9 0 10 0;
#X connect 10 0 19 0;
#X connect 11 0 10 0;
#X connect 12 0 13 0;
#X connect 13 0 20 0;
#X connect 14 0 13 0;
#X connect 15 0 9 0;
#X connect 15 1 11 0;
#X connect 16 0 12 0;
#X connect 16 1 14 0;
#X connect 17 0 21 0;
#X connect 21 0 0 0;
#X connect 22 0 4 0;
#X restore 518 239 pd led3;
#X obj 466 185 sel 1;
#N canvas 82 285 471 457 led2 0;
#X floatatom 43 85 5 0 0 0 - - - 0;
#X obj 43 134 i;
#X floatatom 43 216 5 0 0 0 - - - 0;
#X obj 43 108 - 0.5;
#X obj 43 190 + 1;
#X msg 50 303 1;
#X obj 66 342 tgl 19 0 empty empty empty 0 -10 0 12 #fcfcfc #000000 #000000 0 1;
#X msg 82 303 0;
#X msg 115 302 1;
#X obj 131 341 tgl 19 0 empty empty empty 0 -10 0 12 #fcfcfc #000000 #000000 0 1;
#X msg 147 302 0;
#X obj 43 31 inlet;
#X obj 66 371 outlet;
#X obj 131 371 outlet;
#X obj 43 61 map 1 3;
#X obj 44 254 sel 1 2 3, f 17;
#X obj 43 163 change;
#X connect 0 0 3 0;
#X connect 1 0 16 0;
#X connect 2 0 15 0;
#X connect 3 0 1 0;
#X connect 4 0 2 0;
#X connect 5 0 6 0;
#X connect 6 0 12 0;
#X connect 7 0 6 0;
#X connect 8 0 9 0;
#X connect 9 0 13 0;
#X connect 10 0 9 0;
#X connect 11 0 14 0;
#X connect 14 0 0 0;
#X connect 15 0 5 0;
#X connect 15 0 10 0;
#X connect 15 1 5 0;
#X connect 15 1 8 0;
#X connect 15 2 8 0;
#X connect 15 2 7 0;
#X connect 16 0 4 0;
#X restore 537 297 pd led2;
#N canvas 3 520 450 396 led3 0;
#X floatatom 43 85 5 0 0 0 - - - 0;
#X obj 43 134 i;
#X floatatom 43 213 5 0 0 0 - - - 0;
#X obj 43 108 - 0.5;
#X obj 43 187 + 1;
#X msg 44 276 1;
#X obj 44 300 tgl 19 0 empty empty empty 0 -10 0 12 #fcfcfc #000000 #000000 0 1;
#X msg 76 276 0;
#X obj 44 251 sel 1;
#X msg 109 275 1;
#X obj 109 299 tgl 19 0 empty empty empty 0 -10 0 12 #fcfcfc #000000 #000000 0 1;
#X msg 141 275 0;
#X msg 175 274 1;
#X obj 175 298 tgl 19 0 empty empty empty 0 -10 0 12 #fcfcfc #000000 #000000 0 1;
#X msg 207 274 0;
#X obj 109 250 sel 2;
#X obj 175 249 sel 3;
#X obj 43 31 inlet;
#X obj 44 329 outlet;
#X obj 109 329 outlet;
#X obj 175 329 outlet;
#X obj 43 61 map 1 3;
#X obj 43 160 change;
#X connect 0 0 3 0;
#X connect 1 0 22 0;
#X connect 2 0 8 0;
#X connect 2 0 15 0;
#X connect 2 0 16 0;
#X connect 3 0 1 0;
#X connect 4 0 2 0;
#X connect 5 0 6 0;
#X connect 6 0 18 0;
#X connect 7 0 6 0;
#X connect 8 0 5 0;
#X connect 8 1 7 0;
#X connect 9 0 10 0;
#X connect 10 0 19 0;
#X connect 11 0 10 0;
#X connect 12 0 13 0;
#X connect 13 0 20 0;
#X connect 14 0 13 0;
#X connect 15 0 9 0;
#X connect 15 1 11 0;
#X connect 16 0 12 0;
#X connect 16 1 14 0;
#X connect 17 0 21 0;
#X connect 21 0 0 0;
#X connect 22 0 4 0;
#X restore 660 223 pd led3;
#X obj 495 262 led-bargraph, f 30;
#X msg 466 209 0;
#X obj 68 312 r button2;
#X obj 466 161 change;
#X obj 174 309 r button4;
#X obj 600 299 r button3;
#X obj 67 141 initialise_digitals;
#X text 66 103 Initialise LEDs \, buttons and trigger inputs, f 25;
#N canvas 421 209 746 660 CV-inputs 0;
#X obj 187 131 lop~ 1;
#X obj 187 106 adc~ 3;
#X obj 187 155 snapshot~;
#X obj 261 131 lop~ 1;
#X obj 261 154 snapshot~;
#X obj 261 106 adc~ 4;
#X obj 79 250 tgl 19 0 empty empty empty 0 -10 0 12 #fcfcfc #000000 #000000 0 1;
#X obj 79 199 loadbang;
#X msg 79 226 1;
#X text 57 131 avoid zipper noise;
#X obj 185 256 lop~ 1;
#X obj 185 280 snapshot~;
#X obj 259 256 lop~ 1;
#X obj 259 279 snapshot~;
#X obj 185 231 adc~ 5;
#X obj 259 231 adc~ 6;
#X obj 187 385 lop~ 1;
#X obj 187 409 snapshot~;
#X obj 261 385 lop~ 1;
#X obj 261 408 snapshot~;
#X obj 185 516 lop~ 1;
#X obj 185 540 snapshot~;
#X obj 259 516 lop~ 1;
#X obj 259 539 snapshot~;
#X obj 187 360 adc~ 7;
#X obj 261 360 adc~ 8;
#X obj 185 491 adc~ 9;
#X obj 259 491 adc~ 10;
#X text 15 107 analog input (range 0-1);
#X text 184 74 BELA KNOBS and CV;
#X obj 79 274 metro 100;
#X obj 139 56 inlet;
#X obj 187 202 s CV0;
#X obj 261 202 s CV1;
#X obj 186 329 s CV2;
#X obj 260 329 s CV3;
#X obj 188 458 s CV4;
#X obj 262 458 s CV5;
#X obj 186 589 s CV6;
#X obj 260 589 s CV7;
#X obj 408 56 inlet;
#X obj 408 91 tgl 19 0 empty empty empty 0 -10 0 12 #fcfcfc #000000 #000000 0 1;
#X obj 408 139 tgl 19 0 empty empty empty 0 -10 0 12 #fcfcfc #000000 #000000 0 1;
#X obj 408 115 flip 1;
#X text 368 27 debug mode on shuts off CV inputs;
#X obj 187 179 spigot 1;
#X obj 261 179 spigot 1;
#X obj 259 304 spigot 1;
#X obj 185 304 spigot 1;
#X obj 187 433 spigot 1;
#X obj 261 433 spigot 1;
#X obj 185 564 spigot 1;
#X obj 259 564 spigot 1;
#X obj 519 82 loadbang;
#X msg 519 106 0;
#X connect 0 0 2 0;
#X connect 1 0 0 0;
#X connect 2 0 45 0;
#X connect 3 0 4 0;
#X connect 4 0 46 0;
#X connect 5 0 3 0;
#X connect 6 0 30 0;
#X connect 7 0 8 0;
#X connect 8 0 6 0;
#X connect 10 0 11 0;
#X connect 11 0 48 0;
#X connect 12 0 13 0;
#X connect 13 0 47 0;
#X connect 14 0 10 0;
#X connect 15 0 12 0;
#X connect 16 0 17 0;
#X connect 17 0 49 0;
#X connect 18 0 19 0;
#X connect 19 0 50 0;
#X connect 20 0 21 0;
#X connect 21 0 51 0;
#X connect 22 0 23 0;
#X connect 23 0 52 0;
#X connect 24 0 16 0;
#X connect 25 0 18 0;
#X connect 26 0 20 0;
#X connect 27 0 22 0;
#X connect 30 0 2 0;
#X connect 30 0 4 0;
#X connect 30 0 11 0;
#X connect 30 0 13 0;
#X connect 30 0 17 0;
#X connect 30 0 19 0;
#X connect 30 0 21 0;
#X connect 30 0 23 0;
#X connect 31 0 30 1;
#X connect 40 0 41 0;
#X connect 41 0 43 0;
#X connect 42 0 45 1;
#X connect 42 0 46 1;
#X connect 42 0 47 1;
#X connect 42 0 48 1;
#X connect 42 0 49 1;
#X connect 42 0 50 1;
#X connect 42 0 51 1;
#X connect 42 0 52 1;
#X connect 43 0 42 0;
#X connect 45 0 32 0;
#X connect 46 0 33 0;
#X connect 47 0 35 0;
#X connect 48 0 34 0;
#X connect 49 0 36 0;
#X connect 50 0 37 0;
#X connect 51 0 38 0;
#X connect 52 0 39 0;
#X connect 53 0 54 0;
#X connect 54 0 41 0;
#X restore 67 219 pd CV-inputs;
#X obj 67 168 loadbang;
#X text 99 193 ms CV sampling;
#X obj 68 251 buttons, f 15;
#N canvas 411 448 589 172 button-sends 0;
#X obj 49 80 print Button 1:;
#X obj 161 80 print Button 2:;
#X obj 277 80 print Button 3:;
#X obj 389 79 print Button 4:;
#X obj 49 50 inlet;
#X obj 161 49 inlet;
#X obj 277 49 inlet;
#X obj 389 48 inlet;
#X obj 49 108 s button1;
#X obj 161 108 s button2;
#X obj 277 109 s button3;
#X obj 389 109 s button4;
#X connect 4 0 0 0;
#X connect 4 0 8 0;
#X connect 5 0 1 0;
#X connect 5 0 9 0;
#X connect 6 0 2 0;
#X connect 6 0 10 0;
#X connect 7 0 3 0;
#X connect 7 0 11 0;
#X restore 68 279 pd button-sends;
#X obj 258 200 tgl 19 0 empty empty empty 0 -10 0 12 #fcfcfc #000000 #000000 0 1;
#X text 280 200 DEBUG;
#X msg 67 193 20;
#X text 182 220 click to operate patch manually, f 19;
#X obj 259 60 inlet;
#N canvas 3 520 450 396 led3 0;
#X floatatom 43 85 5 0 0 0 - - - 0;
#X obj 43 134 i;
#X floatatom 43 213 5 0 0 0 - - - 0;
#X obj 43 108 - 0.5;
#X obj 43 187 + 1;
#X msg 44 276 1;
#X obj 44 300 tgl 19 0 empty empty empty 0 -10 0 12 #fcfcfc #000000 #000000 0 1;
#X msg 76 276 0;
#X obj 44 251 sel 1;
#X msg 109 275 1;
#X obj 109 299 tgl 19 0 empty empty empty 0 -10 0 12 #fcfcfc #000000 #000000 0 1;
#X msg 141 275 0;
#X msg 175 274 1;
#X obj 175 298 tgl 19 0 empty empty empty 0 -10 0 12 #fcfcfc #000000 #000000 0 1;
#X msg 207 274 0;
#X obj 109 250 sel 2;
#X obj 175 249 sel 3;
#X obj 43 31 inlet;
#X obj 44 329 outlet;
#X obj 109 329 outlet;
#X obj 175 329 outlet;
#X obj 43 61 map 1 3;
#X obj 43 160 change;
#X connect 0 0 3 0;
#X connect 1 0 22 0;
#X connect 2 0 8 0;
#X connect 2 0 15 0;
#X connect 2 0 16 0;
#X connect 3 0 1 0;
#X connect 4 0 2 0;
#X connect 5 0 6 0;
#X connect 6 0 18 0;
#X connect 7 0 6 0;
#X connect 8 0 5 0;
#X connect 8 1 7 0;
#X connect 9 0 10 0;
#X connect 10 0 19 0;
#X connect 11 0 10 0;
#X connect 12 0 13 0;
#X connect 13 0 20 0;
#X connect 14 0 13 0;
#X connect 15 0 9 0;
#X connect 15 1 11 0;
#X connect 16 0 12 0;
#X connect 16 1 14 0;
#X connect 17 0 21 0;
#X connect 21 0 0 0;
#X connect 22 0 4 0;
#X restore 603 222 pd led3;
#X obj 433 107 s cv0;
#N canvas 121 158 783 228 cv-processor 0;
#N canvas 92 129 558 454 smoother 0;
#X obj 156 98 * 1000;
#X obj 156 122 i;
#X obj 156 146 / 1000;
#X msg 73 147 0;
#X obj 28 249 metro 10;
#X obj 28 200 loadbang;
#X msg 28 224 1;
#X obj 138 268 f;
#X msg 138 292 \$1 10;
#X obj 138 316 line;
#X msg 237 144 1;
#X obj 75 37 moses 0.0005;
#X obj 156 61 moses 0.9995;
#X obj 75 12 inlet;
#X text 277 93 make resolution 1-1000, f 16;
#X text 277 136 set threshold to force 0 and 1, f 16;
#X obj 138 340 outlet;
#X connect 0 0 1 0;
#X connect 1 0 2 0;
#X connect 2 0 7 1;
#X connect 3 0 7 1;
#X connect 4 0 7 0;
#X connect 5 0 6 0;
#X connect 6 0 4 0;
#X connect 7 0 8 0;
#X connect 8 0 9 0;
#X connect 9 0 16 0;
#X connect 10 0 7 1;
#X connect 11 0 3 0;
#X connect 11 1 12 0;
#X connect 12 0 0 0;
#X connect 12 1 10 0;
#X connect 13 0 11 0;
#X restore 42 96 pd smoother;
#N canvas 92 129 558 454 smoother 0;
#X obj 156 98 * 1000;
#X obj 156 122 i;
#X obj 156 146 / 1000;
#X msg 73 147 0;
#X obj 28 249 metro 10;
#X obj 28 200 loadbang;
#X msg 28 224 1;
#X obj 138 268 f;
#X msg 138 292 \$1 10;
#X obj 138 316 line;
#X msg 237 144 1;
#X obj 75 37 moses 0.0005;
#X obj 156 61 moses 0.9995;
#X obj 75 12 inlet;
#X text 277 93 make resolution 1-1000, f 16;
#X text 277 136 set threshold to force 0 and 1, f 16;
#X obj 138 340 outlet;
#X connect 0 0 1 0;
#X connect 1 0 2 0;
#X connect 2 0 7 1;
#X connect 3 0 7 1;
#X connect 4 0 7 0;
#X connect 5 0 6 0;
#X connect 6 0 4 0;
#X connect 7 0 8 0;
#X connect 8 0 9 0;
#X connect 9 0 16 0;
#X connect 10 0 7 1;
#X connect 11 0 3 0;
#X connect 11 1 12 0;
#X connect 12 0 0 0;
#X connect 12 1 10 0;
#X connect 13 0 11 0;
#X restore 127 96 pd smoother;
#N canvas 92 129 558 454 smoother 0;
#X obj 156 98 * 1000;
#X obj 156 122 i;
#X obj 156 146 / 1000;
#X msg 73 147 0;
#X obj 28 249 metro 10;
#X obj 28 200 loadbang;
#X msg 28 224 1;
#X obj 138 268 f;
#X msg 138 292 \$1 10;
#X obj 138 316 line;
#X msg 237 144 1;
#X obj 75 37 moses 0.0005;
#X obj 156 61 moses 0.9995;
#X obj 75 12 inlet;
#X text 277 93 make resolution 1-1000, f 16;
#X text 277 136 set threshold to force 0 and 1, f 16;
#X obj 138 340 outlet;
#X connect 0 0 1 0;
#X connect 1 0 2 0;
#X connect 2 0 7 1;
#X connect 3 0 7 1;
#X connect 4 0 7 0;
#X connect 5 0 6 0;
#X connect 6 0 4 0;
#X connect 7 0 8 0;
#X connect 8 0 9 0;
#X connect 9 0 16 0;
#X connect 10 0 7 1;
#X connect 11 0 3 0;
#X connect 11 1 12 0;
#X connect 12 0 0 0;
#X connect 12 1 10 0;
#X connect 13 0 11 0;
#X restore 213 96 pd smoother;
#N canvas 92 129 558 454 smoother 0;
#X obj 156 98 * 1000;
#X obj 156 122 i;
#X obj 156 146 / 1000;
#X msg 73 147 0;
#X obj 28 249 metro 10;
#X obj 28 200 loadbang;
#X msg 28 224 1;
#X obj 138 268 f;
#X msg 138 292 \$1 10;
#X obj 138 316 line;
#X msg 237 144 1;
#X obj 75 37 moses 0.0005;
#X obj 156 61 moses 0.9995;
#X obj 75 12 inlet;
#X text 277 93 make resolution 1-1000, f 16;
#X text 277 136 set threshold to force 0 and 1, f 16;
#X obj 138 340 outlet;
#X connect 0 0 1 0;
#X connect 1 0 2 0;
#X connect 2 0 7 1;
#X connect 3 0 7 1;
#X connect 4 0 7 0;
#X connect 5 0 6 0;
#X connect 6 0 4 0;
#X connect 7 0 8 0;
#X connect 8 0 9 0;
#X connect 9 0 16 0;
#X connect 10 0 7 1;
#X connect 11 0 3 0;
#X connect 11 1 12 0;
#X connect 12 0 0 0;
#X connect 12 1 10 0;
#X connect 13 0 11 0;
#X restore 298 96 pd smoother;
#N canvas 92 129 558 454 smoother 0;
#X obj 156 98 * 1000;
#X obj 156 122 i;
#X obj 156 146 / 1000;
#X msg 73 147 0;
#X obj 28 249 metro 10;
#X obj 28 200 loadbang;
#X msg 28 224 1;
#X obj 138 268 f;
#X msg 138 292 \$1 10;
#X obj 138 316 line;
#X msg 237 144 1;
#X obj 75 37 moses 0.0005;
#X obj 156 61 moses 0.9995;
#X obj 75 12 inlet;
#X text 277 93 make resolution 1-1000, f 16;
#X text 277 136 set threshold to force 0 and 1, f 16;
#X obj 138 340 outlet;
#X connect 0 0 1 0;
#X connect 1 0 2 0;
#X connect 2 0 7 1;
#X connect 3 0 7 1;
#X connect 4 0 7 0;
#X connect 5 0 6 0;
#X connect 6 0 4 0;
#X connect 7 0 8 0;
#X connect 8 0 9 0;
#X connect 9 0 16 0;
#X connect 10 0 7 1;
#X connect 11 0 3 0;
#X connect 11 1 12 0;
#X connect 12 0 0 0;
#X connect 12 1 10 0;
#X connect 13 0 11 0;
#X restore 384 96 pd smoother;
#N canvas 92 129 558 454 smoother 0;
#X obj 156 98 * 1000;
#X obj 156 122 i;
#X obj 156 146 / 1000;
#X msg 73 147 0;
#X obj 28 249 metro 10;
#X obj 28 200 loadbang;
#X msg 28 224 1;
#X obj 138 268 f;
#X msg 138 292 \$1 10;
#X obj 138 316 line;
#X msg 237 144 1;
#X obj 75 37 moses 0.0005;
#X obj 156 61 moses 0.9995;
#X obj 75 12 inlet;
#X text 277 93 make resolution 1-1000, f 16;
#X text 277 136 set threshold to force 0 and 1, f 16;
#X obj 138 340 outlet;
#X connect 0 0 1 0;
#X connect 1 0 2 0;
#X connect 2 0 7 1;
#X connect 3 0 7 1;
#X connect 4 0 7 0;
#X connect 5 0 6 0;
#X connect 6 0 4 0;
#X connect 7 0 8 0;
#X connect 8 0 9 0;
#X connect 9 0 16 0;
#X connect 10 0 7 1;
#X connect 11 0 3 0;
#X connect 11 1 12 0;
#X connect 12 0 0 0;
#X connect 12 1 10 0;
#X connect 13 0 11 0;
#X restore 469 96 pd smoother;
#N canvas 92 129 558 454 smoother 0;
#X obj 156 98 * 1000;
#X obj 156 122 i;
#X obj 156 146 / 1000;
#X msg 73 147 0;
#X obj 28 249 metro 10;
#X obj 28 200 loadbang;
#X msg 28 224 1;
#X obj 138 268 f;
#X msg 138 292 \$1 10;
#X obj 138 316 line;
#X msg 237 144 1;
#X obj 75 37 moses 0.0005;
#X obj 156 61 moses 0.9995;
#X obj 75 12 inlet;
#X text 277 93 make resolution 1-1000, f 16;
#X text 277 136 set threshold to force 0 and 1, f 16;
#X obj 138 340 outlet;
#X connect 0 0 1 0;
#X connect 1 0 2 0;
#X connect 2 0 7 1;
#X connect 3 0 7 1;
#X connect 4 0 7 0;
#X connect 5 0 6 0;
#X connect 6 0 4 0;
#X connect 7 0 8 0;
#X connect 8 0 9 0;
#X connect 9 0 16 0;
#X connect 10 0 7 1;
#X connect 11 0 3 0;
#X connect 11 1 12 0;
#X connect 12 0 0 0;
#X connect 12 1 10 0;
#X connect 13 0 11 0;
#X restore 555 96 pd smoother;
#N canvas 92 129 558 454 smoother 0;
#X obj 156 98 * 1000;
#X obj 156 122 i;
#X obj 156 146 / 1000;
#X msg 73 147 0;
#X obj 28 249 metro 10;
#X obj 28 200 loadbang;
#X msg 28 224 1;
#X obj 138 268 f;
#X msg 138 292 \$1 10;
#X obj 138 316 line;
#X msg 237 144 1;
#X obj 75 37 moses 0.0005;
#X obj 156 61 moses 0.9995;
#X obj 75 12 inlet;
#X text 277 93 make resolution 1-1000, f 16;
#X text 277 136 set threshold to force 0 and 1, f 16;
#X obj 138 340 outlet;
#X connect 0 0 1 0;
#X connect 1 0 2 0;
#X connect 2 0 7 1;
#X connect 3 0 7 1;
#X connect 4 0 7 0;
#X connect 5 0 6 0;
#X connect 6 0 4 0;
#X connect 7 0 8 0;
#X connect 8 0 9 0;
#X connect 9 0 16 0;
#X connect 10 0 7 1;
#X connect 11 0 3 0;
#X connect 11 1 12 0;
#X connect 12 0 0 0;
#X connect 12 1 10 0;
#X connect 13 0 11 0;
#X restore 640 96 pd smoother;
#X obj 42 71 inlet;
#X obj 127 71 inlet;
#X obj 213 71 inlet;
#X obj 298 71 inlet;
#X obj 384 71 inlet;
#X obj 469 71 inlet;
#X obj 555 71 inlet;
#X obj 640 71 inlet;
#X obj 42 125 outlet;
#X obj 127 125 outlet;
#X obj 213 125 outlet;
#X obj 298 125 outlet;
#X obj 384 125 outlet;
#X obj 469 125 outlet;
#X obj 555 125 outlet;
#X obj 640 125 outlet;
#X connect 0 0 16 0;
#X connect 1 0 17 0;
#X connect 2 0 18 0;
#X connect 3 0 19 0;
#X connect 4 0 20 0;
#X connect 5 0 21 0;
#X connect 6 0 22 0;
#X connect 7 0 23 0;
#X connect 8 0 0 0;
#X connect 9 0 1 0;
#X connect 10 0 2 0;
#X connect 11 0 3 0;
#X connect 12 0 4 0;
#X connect 13 0 5 0;
#X connect 14 0 6 0;
#X connect 15 0 7 0;
#X restore 433 81 pd cv-processor;
#X f 43;
#X obj 475 53 r CV1;
#X obj 518 53 r CV2;
#X obj 560 53 r CV3;
#X obj 602 53 r CV4;
#X obj 644 53 r CV5;
#X obj 687 53 r CV6;
#X obj 729 53 r CV7;
#X obj 475 107 s cv1;
#X obj 518 107 s cv2;
#X obj 560 107 s cv3;
#X obj 602 107 s cv4;
#X obj 644 107 s cv5;
#X obj 687 107 s cv6;
#X obj 729 107 s cv7;
#X connect 0 0 26 0;
#X connect 1 0 9 0;
#X connect 2 0 6 1;
#X connect 2 1 6 2;
#X connect 2 2 6 3;
#X connect 3 0 7 0;
#X connect 5 0 6 7;
#X connect 5 1 6 8;
#X connect 5 2 6 9;
#X connect 9 0 3 0;
#X connect 9 0 6 0;
#X connect 15 0 21 0;
#X connect 17 0 18 0;
#X connect 17 1 18 1;
#X connect 17 2 18 2;
#X connect 17 3 18 3;
#X connect 19 0 14 1;
#X connect 21 0 14 0;
#X connect 23 0 19 0;
#X connect 24 0 6 4;
#X connect 24 1 6 5;
#X connect 24 2 6 6;
#X connect 26 0 25 0;
#X connect 26 1 34 0;
#X connect 26 2 35 0;
#X connect 26 3 36 0;
#X connect 26 4 37 0;
#X connect 26 5 38 0;
#X connect 26 6 39 0;
#X connect 26 7 40 0;
#X connect 27 0 26 1;
#X connect 28 0 26 2;
#X connect 29 0 26 3;
#X connect 30 0 26 4;
#X connect 31 0 26 5;
#X connect 32 0 26 6;
#X connect 33 0 26 7;
