#N canvas 4 700 1193 638 12;
#X text 151 204 "set" message permits you to switch between arrays;
#X text 224 356 creation argument initializes array name;
#X msg 93 279 0 44100;
#X msg 87 254 44100;
#X text 104 229 "bang" or 0 plays whole sample;
#X text 134 253 play starting at 44100th sample;
#X text 151 277 play starting at beginning for 44100 samples;
#X msg 98 304 44100 1000;
#X text 176 303 play from 44100 through 45099 (1000 samples);
#X msg 105 329 stop;
#X text 141 330 stop playing (outputs zeros when stopped);
#X obj 190 401 bng 23 250 50 0 empty empty empty 17 7 0 10 #dfdfdf #000000 #000000;
#X msg 66 204 set sample;
#X obj 66 401 output~;
#X obj 80 230 bng 17 250 50 0 empty empty empty 17 7 0 10 #dfdfdf #000000 #000000;
#X obj 66 356 tabplay~ playobject;
#X obj 269 123 unpack;
#X obj 309 158 *;
#X obj 360 60 samplerate~;
#X floatatom 360 84 9 0 0 0 - - - 0;
#X obj 361 30 loadbang;
#X obj 268 183 pack;
#N canvas 0 22 450 300 (subpatch) 0;
#X array doublebuf 220500 float 0;
#X coords 0 1 220499 -1 200 140 1 0 0;
#X restore 955 241 graph;
#X text 962 185 220500 samples = 5 sec @ 44.1Khz;
#X text 961 204 Each half = 2.5 sec;
#X obj 629 83 tgl 19 0 empty empty empty 0 -10 0 12 #fcfcfc #000000 #000000 0 1;
#X floatatom 692 80 10 0 0 0 - - - 0;
#X obj 360 107 / 1000;
#X msg 269 96 0 5000;
#X obj 631 377 tabwrite~ doublebuf;
#X obj 714 531 bng 23 250 50 0 empty empty empty 17 7 0 10 #dfdfdf #000000 #000000;
#X obj 590 531 output~;
#X obj 590 486 tabplay~ doublebuf;
#X obj 590 462 bng 19 250 50 0 empty empty empty 0 -10 0 12 #fcfcfc #000000 #000000;
#X obj 593 410 tgl 19 0 empty empty empty 0 -10 0 12 #fcfcfc #000000 #000000 0 1;
#X obj 590 437 metro 5000;
#X obj 626 111 metro 2500;
#X obj 626 135 t b b;
#X obj 775 378 tabwrite~ doublebuf;
#X msg 658 159 stop, f 5;
#X obj 262 32 tgl 19 0 empty empty empty 0 -10 0 12 #fcfcfc #000000 #000000 0 1;
#X obj 259 59 metro 5000;
#X msg 822 157 2500;
#X obj 846 197 *;
#X obj 897 99 samplerate~;
#X floatatom 897 123 9 0 0 0 - - - 0;
#X obj 898 69 loadbang;
#X obj 897 146 / 1000;
#X floatatom 846 221 7 0 0 0 - - - 0;
#X msg 846 244 start \$1;
#X text 645 334 record in 1st half of buffer, f 15;
#X text 781 335 record offset 2500ms;
#X text 953 394 buffer contains two copies of 2500ms, f 24;
#X connect 2 0 15 0;
#X connect 3 0 15 0;
#X connect 7 0 15 0;
#X connect 9 0 15 0;
#X connect 12 0 15 0;
#X connect 14 0 15 0;
#X connect 15 0 13 0;
#X connect 15 0 29 0;
#X connect 15 0 38 0;
#X connect 15 1 11 0;
#X connect 16 0 21 0;
#X connect 16 1 17 0;
#X connect 17 0 21 1;
#X connect 18 0 19 0;
#X connect 19 0 27 0;
#X connect 20 0 18 0;
#X connect 21 0 15 0;
#X connect 25 0 36 0;
#X connect 26 0 36 1;
#X connect 27 0 17 1;
#X connect 28 0 16 0;
#X connect 32 0 31 0;
#X connect 32 1 30 0;
#X connect 33 0 32 0;
#X connect 34 0 35 0;
#X connect 35 0 33 0;
#X connect 36 0 37 0;
#X connect 37 0 29 0;
#X connect 37 0 42 0;
#X connect 37 1 39 0;
#X connect 39 0 29 0;
#X connect 39 0 38 0;
#X connect 40 0 41 0;
#X connect 41 0 28 0;
#X connect 42 0 43 0;
#X connect 43 0 48 0;
#X connect 44 0 45 0;
#X connect 45 0 47 0;
#X connect 46 0 44 0;
#X connect 47 0 43 1;
#X connect 48 0 49 0;
#X connect 49 0 38 0;
