#N canvas 675 60 572 757 12;
#X obj 25 728 outlet~;
#X obj 25 405 +~, f 6;
#X obj 25 429 *~ 44.1;
#X obj 25 608 *~;
#X obj 43 564 tabread~ wndw;
#X obj 43 520 *~ 1;
#X obj 69 482 r trisize;
#X text 142 564 gain multiplided by tri window;
#X obj 46 275 oneshot~ 20;
#X obj 28 60 unpack 0 0 0;
#X floatatom 177 108 5 0 0 0 - - - 0;
#X floatatom 27 106 5 0 0 0 - - - 0;
#X floatatom 89 106 5 0 0 0 - - - 0;
#X text 85 6 Trigger gain with message: position (ms) \, grandur \, transposition (cts), f 47;
#X obj 150 294 tgl 19 0 empty empty empty 0 -10 0 12 #fcfcfc #000000 #000000 0 1;
#X obj 401 116 spigot;
#X obj 398 663 outlet;
#X text 449 662 overflow;
#X obj 28 11 inlet;
#X obj 25 688 *~ 0.5;
#X text 137 690 set gain for each grain here;
#X text 179 126 linetime;
#X obj 260 363 samplerate~;
#X obj 260 387 / 1000;
#X floatatom 260 411 5 0 0 0 - - - 0;
#X obj 260 338 loadbang;
#X obj 197 514 print triangle;
#X obj 28 36 spigot, f 23;
#X obj 187 312 flip 1;
#X obj 187 336 tgl 19 0 empty empty empty 0 -10 0 12 #fcfcfc #000000 #000000 0 1;
#X obj 419 199 float \$1;
#X obj 419 170 bng 19 250 50 0 empty empty empty 17 7 0 10 #dfdfdf #000000 #000000;
#X text 445 170 instance number;
#X obj 419 141 loadbang;
#X obj 87 729 outlet~;
#X obj 87 689 *~ 0.5;
#X obj 25 651 pan1~;
#X text 85 650 pan -1 - 1;
#X obj 25 455 tabread~ doublebuf;
#X floatatom 419 225 5 0 0 0 - - - 0;
#X floatatom 468 280 5 0 0 0 - - - 0;
#X obj 468 256 % 2;
#X obj 419 256 / 2;
#X floatatom 419 304 5 0 0 0 - - - 0;
#X obj 419 280 i;
#X obj 468 303 sel 1;
#X msg 468 327 -1;
#X msg 503 327 1;
#X obj 419 374 *;
#X floatatom 419 397 5 0 0 0 - - - 0;
#X obj 419 327 * 0.15;
#X obj 419 351 + 0.2;
#X text 404 429 pan wider \, the higher the instange number. Odd to the left \, even to the right, f 23;
#X obj 89 356 samphold~;
#X obj 89 331 sig~;
#X obj 149 331 sig~;
#X obj 64 380 *~, f 4;
#X text 31 126 pos;
#X obj 177 171 samphold~;
#X obj 177 146 sig~;
#X obj 177 248 snapshot~;
#X obj 194 196 loadbang;
#X obj 194 221 metro 0;
#X text 249 145 use s/h to update params only on phasor wrap, f 18;
#N canvas 72 338 532 523 transposer 0;
#N canvas 790 313 680 446 random_pitch 0;
#X obj 354 217 loadbang;
#X floatatom 431 143 0 0 0 0 - - - 0;
#X msg 500 244 2;
#X msg 500 223 bang;
#X msg 431 239 1;
#X obj 431 201 sel 0;
#X floatatom 154 57 0 0 0 0 - - - 0;
#X obj 431 340 * 1;
#X text 76 15 duration;
#X text 197 14 random width;
#X text 470 142 0 ~1.0;
#X text 478 15 pitch quantize;
#N canvas 192 270 548 310 switch 0;
#X obj 41 187 spigot;
#X obj 132 188 spigot;
#X obj 240 187 spigot;
#X obj 361 187 spigot;
#X obj 44 19 inlet;
#X obj 78 106 i 1;
#X obj 400 105 i 1;
#X obj 278 106 i 1;
#X obj 169 105 i 1;
#X obj 247 6 inlet;
#X obj 89 136 i 0;
#X obj 180 135 i 0;
#X obj 289 136 i 0;
#X obj 411 135 i 0;
#X obj 45 236 outlet;
#X obj 133 232 outlet;
#X obj 240 233 outlet;
#X obj 361 236 outlet;
#X obj 247 56 select 1 2 3 4;
#X connect 0 0 14 0;
#X connect 1 0 15 0;
#X connect 2 0 16 0;
#X connect 3 0 17 0;
#X connect 4 0 0 0;
#X connect 4 0 1 0;
#X connect 4 0 2 0;
#X connect 4 0 3 0;
#X connect 5 0 0 1;
#X connect 6 0 3 1;
#X connect 7 0 2 1;
#X connect 8 0 1 1;
#X connect 9 0 18 0;
#X connect 10 0 0 1;
#X connect 11 0 1 1;
#X connect 12 0 2 1;
#X connect 13 0 3 1;
#X connect 18 0 5 0;
#X connect 18 0 11 0;
#X connect 18 0 12 0;
#X connect 18 0 13 0;
#X connect 18 1 8 0;
#X connect 18 1 10 0;
#X connect 18 1 12 0;
#X connect 18 1 13 0;
#X connect 18 2 7 0;
#X connect 18 2 10 0;
#X connect 18 2 11 0;
#X connect 18 2 13 0;
#X connect 18 3 6 0;
#X connect 18 3 10 0;
#X connect 18 3 11 0;
#X connect 18 3 12 0;
#X restore 433 275 pd switch;
#X obj 28 16 inlet;
#X obj 154 14 inlet;
#X obj 431 16 inlet;
#X obj 431 364 outlet;
#X obj 177 138 tgl 15 0 empty empty empty 20 8 0 8 #fcfcfc #000000 #000000 0 1;
#X obj 177 161 metro 0;
#N canvas 92 129 450 300 expr 0;
#X obj 310 132 /;
#X obj 308 194 *;
#X obj 331 164 int;
#X obj 273 94 inlet;
#X obj 351 99 inlet;
#X obj 313 263 outlet;
#X connect 0 0 2 0;
#X connect 1 0 5 0;
#X connect 2 0 1 0;
#X connect 3 0 0 0;
#X connect 4 0 0 1;
#X connect 4 0 1 1;
#X restore 459 311 pd expr;
#X obj 177 189 random 2000;
#X obj 177 213 - 1000;
#X obj 177 239 / 1000;
#X obj 177 271 *, f 4;
#X obj 177 303 t b f;
#X obj 177 367 pow, f 5;
#X msg 177 335 2;
#X obj 177 114 != 0;
#X text 183 56 0 ~ 1;
#X floatatom 197 400 5 0 0 0 - - - 0;
#X obj 154 161 bng 19 250 50 0 empty empty empty 0 -10 0 12 #fcfcfc #000000 #000000;
#X text 63 188 force return to zero random, f 14;
#X obj 28 38 t b f;
#X obj 154 80 t b f f;
#X connect 0 0 4 0;
#X connect 1 0 5 0;
#X connect 2 0 12 1;
#X connect 3 0 2 0;
#X connect 4 0 12 1;
#X connect 5 0 4 0;
#X connect 5 1 3 0;
#X connect 5 1 19 1;
#X connect 6 0 33 0;
#X connect 7 0 16 0;
#X connect 12 0 7 0;
#X connect 12 1 19 0;
#X connect 13 0 32 0;
#X connect 14 0 6 0;
#X connect 15 0 1 0;
#X connect 17 0 18 0;
#X connect 18 0 20 0;
#X connect 19 0 7 0;
#X connect 20 0 21 0;
#X connect 21 0 22 0;
#X connect 22 0 23 0;
#X connect 23 0 24 0;
#X connect 24 0 26 0;
#X connect 24 1 25 1;
#X connect 25 0 12 0;
#X connect 25 0 29 0;
#X connect 26 0 25 0;
#X connect 27 0 17 0;
#X connect 30 0 20 0;
#X connect 32 0 6 0;
#X connect 32 1 7 1;
#X connect 33 0 30 0;
#X connect 33 1 27 0;
#X connect 33 2 23 1;
#X restore 41 310 pd random_pitch;
#X floatatom 288 242 0 0 0 0 - - - 0;
#X floatatom 41 213 5 0 0 0 - - - 0;
#X floatatom 91 213 5 0 0 0 - - - 0;
#X floatatom 288 114 5 0 0 0 - - - 0;
#X obj 288 131 / 1200;
#X obj 288 196 pow;
#X obj 288 152 t b f;
#X msg 288 173 2;
#X floatatom 143 213 0 0 0 0 - - - 0;
#X text 329 114 cents;
#X text 328 197 12th root of 2;
#X text 318 242 frequency multiple;
#X text 38 67 gran dur (ms);
#X obj 259 334 outlet;
#X obj 41 334 outlet;
#X text 291 67 basepitch;
#X obj 288 90 inlet;
#X obj 41 90 inlet;
#X obj 288 265 t b f;
#X obj 91 164 r pitchrand;
#X obj 143 190 r pitchquant;
#X text 31 361 pitch adjusted gran dur. This with ramp time will give transposition with consistent actual grain duration, f 25;
#X text 256 361 use gran dur as ramp time for phasor, f 16;
#X obj 41 286 * 1;
#X connect 0 0 15 0;
#X connect 1 0 19 0;
#X connect 2 0 14 0;
#X connect 2 0 24 0;
#X connect 3 0 0 1;
#X connect 4 0 5 0;
#X connect 5 0 7 0;
#X connect 6 0 1 0;
#X connect 7 0 8 0;
#X connect 7 1 6 1;
#X connect 8 0 6 0;
#X connect 9 0 0 2;
#X connect 17 0 4 0;
#X connect 18 0 2 0;
#X connect 19 0 24 0;
#X connect 19 1 24 1;
#X connect 20 0 3 0;
#X connect 21 0 9 0;
#X connect 24 0 0 0;
#X restore 89 84 pd transposer;
#X text 93 126 dur;
#X floatatom 257 55 5 0 0 0 - - - 0;
#X connect 1 0 2 0;
#X connect 2 0 38 0;
#X connect 3 0 36 0;
#X connect 4 0 3 1;
#X connect 5 0 4 0;
#X connect 6 0 5 1;
#X connect 6 0 26 0;
#X connect 8 0 5 0;
#X connect 8 0 56 0;
#X connect 8 1 14 0;
#X connect 9 0 11 0;
#X connect 9 1 64 0;
#X connect 9 2 64 1;
#X connect 10 0 59 0;
#X connect 10 0 8 0;
#X connect 11 0 1 0;
#X connect 12 0 54 0;
#X connect 14 0 15 1;
#X connect 14 0 28 0;
#X connect 14 0 55 0;
#X connect 15 0 16 0;
#X connect 18 0 15 0;
#X connect 18 0 27 0;
#X connect 19 0 0 0;
#X connect 22 0 23 0;
#X connect 23 0 24 0;
#X connect 24 0 2 1;
#X connect 25 0 22 0;
#X connect 27 0 9 0;
#X connect 28 0 29 0;
#X connect 29 0 27 1;
#X connect 30 0 39 0;
#X connect 31 0 30 0;
#X connect 33 0 31 0;
#X connect 35 0 34 0;
#X connect 36 0 19 0;
#X connect 36 1 35 0;
#X connect 38 0 3 0;
#X connect 39 0 41 0;
#X connect 39 0 42 0;
#X connect 40 0 45 0;
#X connect 41 0 40 0;
#X connect 42 0 44 0;
#X connect 43 0 50 0;
#X connect 44 0 43 0;
#X connect 45 0 46 0;
#X connect 45 1 47 0;
#X connect 46 0 48 1;
#X connect 47 0 48 1;
#X connect 48 0 49 0;
#X connect 49 0 36 1;
#X connect 50 0 51 0;
#X connect 51 0 48 0;
#X connect 53 0 56 1;
#X connect 54 0 53 0;
#X connect 55 0 53 1;
#X connect 55 0 58 1;
#X connect 56 0 1 1;
#X connect 58 0 60 0;
#X connect 59 0 58 0;
#X connect 61 0 62 0;
#X connect 62 0 60 0;
#X connect 64 0 12 0;
#X connect 64 1 10 0;
#X connect 66 0 64 0;
