#N canvas 185 165 942 588 12;
#X floatatom 162 300 5 0 0 0 - - - 0;
#X obj 162 323 / 100;
#X obj 162 350 i;
#X floatatom 162 374 5 0 0 0 - - - 0;
#X obj 162 397 * 100;
#X floatatom 122 436 5 0 0 0 - - - 0;
#X msg 290 524 25;
#X msg 326 524 50;
#X msg 361 524 100;
#X msg 398 524 200;
#X msg 436 524 300;
#X msg 472 524 400;
#X msg 507 524 500;
#X msg 544 524 600;
#X msg 573 525 700;
#X msg 609 525 800;
#X msg 644 525 900;
#X msg 681 525 1000;
#X msg 719 525 1100;
#X msg 758 525 1200;
#X floatatom 223 37 5 0 0 0 - - - 0;
#X obj 270 132 moses 0.5;
#X obj 330 158 moses 1;
#X obj 376 185 moses 2;
#X obj 423 215 moses 3;
#X obj 469 248 moses 4;
#X obj 515 274 moses 5;
#X obj 561 301 moses 6;
#X obj 607 331 moses 7;
#X obj 653 358 moses 8;
#X obj 699 388 moses 9;
#X obj 745 421 moses 10;
#X obj 798 447 moses 11;
#X obj 851 474 moses 12;
#X obj 124 13 inlet;
#X obj 223 13 inlet;
#X text 264 35 quantize amount: 0.25 \, 0.5 \, 1-12;
#X obj 223 60 route 0;
#X obj 46 115 loadbang;
#X msg 192 135 2;
#X msg 192 114 bang;
#X msg 159 135 1;
#X obj 160 89 sel 0;
#N canvas 192 270 548 310 switch 0;
#X obj 41 187 spigot;
#X obj 132 188 spigot;
#X obj 240 187 spigot;
#X obj 361 187 spigot;
#X obj 44 19 inlet;
#X obj 78 106 i 1;
#X obj 400 105 i 1;
#X obj 278 106 i 1;
#X obj 169 105 i 1;
#X obj 247 6 inlet;
#X obj 89 136 i 0;
#X obj 180 135 i 0;
#X obj 289 136 i 0;
#X obj 411 135 i 0;
#X obj 45 236 outlet;
#X obj 133 232 outlet;
#X obj 240 233 outlet;
#X obj 361 236 outlet;
#X obj 247 56 select 1 2 3 4;
#X connect 0 0 14 0;
#X connect 1 0 15 0;
#X connect 2 0 16 0;
#X connect 3 0 17 0;
#X connect 4 0 0 0;
#X connect 4 0 1 0;
#X connect 4 0 2 0;
#X connect 4 0 3 0;
#X connect 5 0 0 1;
#X connect 6 0 3 1;
#X connect 7 0 2 1;
#X connect 8 0 1 1;
#X connect 9 0 18 0;
#X connect 10 0 0 1;
#X connect 11 0 1 1;
#X connect 12 0 2 1;
#X connect 13 0 3 1;
#X connect 18 0 5 0;
#X connect 18 0 11 0;
#X connect 18 0 12 0;
#X connect 18 0 13 0;
#X connect 18 1 8 0;
#X connect 18 1 10 0;
#X connect 18 1 12 0;
#X connect 18 1 13 0;
#X connect 18 2 7 0;
#X connect 18 2 10 0;
#X connect 18 2 11 0;
#X connect 18 2 13 0;
#X connect 18 3 6 0;
#X connect 18 3 10 0;
#X connect 18 3 11 0;
#X connect 18 3 12 0;
#X restore 125 166 pd switch;
#X obj 121 507 outlet;
#X floatatom 124 37 5 0 0 0 - - - 0;
#X text 22 36 transposition;
#X connect 0 0 1 0;
#X connect 1 0 2 0;
#X connect 2 0 3 0;
#X connect 3 0 4 0;
#X connect 4 0 5 0;
#X connect 5 0 44 0;
#X connect 6 0 1 1;
#X connect 6 0 4 1;
#X connect 7 0 1 1;
#X connect 7 0 4 1;
#X connect 8 0 1 1;
#X connect 8 0 4 1;
#X connect 9 0 1 1;
#X connect 9 0 4 1;
#X connect 10 0 1 1;
#X connect 10 0 4 1;
#X connect 11 0 1 1;
#X connect 11 0 4 1;
#X connect 12 0 1 1;
#X connect 12 0 4 1;
#X connect 13 0 1 1;
#X connect 13 0 4 1;
#X connect 14 0 1 1;
#X connect 14 0 4 1;
#X connect 15 0 1 1;
#X connect 15 0 4 1;
#X connect 16 0 1 1;
#X connect 16 0 4 1;
#X connect 17 0 1 1;
#X connect 17 0 4 1;
#X connect 18 0 1 1;
#X connect 18 0 4 1;
#X connect 19 0 1 1;
#X connect 19 0 4 1;
#X connect 20 0 37 0;
#X connect 20 0 42 0;
#X connect 21 0 6 0;
#X connect 21 1 22 0;
#X connect 22 0 7 0;
#X connect 22 1 23 0;
#X connect 23 0 8 0;
#X connect 23 1 24 0;
#X connect 24 0 9 0;
#X connect 24 1 25 0;
#X connect 25 0 10 0;
#X connect 25 1 26 0;
#X connect 26 0 11 0;
#X connect 26 1 27 0;
#X connect 27 0 12 0;
#X connect 27 1 28 0;
#X connect 28 0 13 0;
#X connect 28 1 29 0;
#X connect 29 0 14 0;
#X connect 29 1 30 0;
#X connect 30 0 15 0;
#X connect 30 1 31 0;
#X connect 31 0 16 0;
#X connect 31 1 32 0;
#X connect 32 0 17 0;
#X connect 32 1 33 0;
#X connect 33 0 18 0;
#X connect 33 1 19 0;
#X connect 34 0 45 0;
#X connect 35 0 20 0;
#X connect 37 1 21 0;
#X connect 38 0 41 0;
#X connect 39 0 43 1;
#X connect 40 0 39 0;
#X connect 41 0 43 1;
#X connect 42 0 41 0;
#X connect 42 1 40 0;
#X connect 43 0 5 0;
#X connect 43 1 0 0;
#X connect 45 0 43 0;
