#N canvas 0 582 450 300 12;
#N canvas 72 338 532 523 transposer 0;
#N canvas 790 313 680 446 random_pitch 0;
#X obj 354 217 loadbang;
#X floatatom 431 143 0 0 0 0 - - - 0;
#X msg 500 244 2;
#X msg 500 223 bang;
#X msg 431 239 1;
#X obj 431 201 sel 0;
#X floatatom 154 57 0 0 0 0 - - - 0;
#X obj 431 340 * 1;
#X text 76 15 duration;
#X text 197 14 random width;
#X text 470 142 0 ~1.0;
#X text 478 15 pitch quantize;
#N canvas 192 270 548 310 switch 0;
#X obj 41 187 spigot;
#X obj 132 188 spigot;
#X obj 240 187 spigot;
#X obj 361 187 spigot;
#X obj 44 19 inlet;
#X obj 78 106 i 1;
#X obj 400 105 i 1;
#X obj 278 106 i 1;
#X obj 169 105 i 1;
#X obj 247 6 inlet;
#X obj 89 136 i 0;
#X obj 180 135 i 0;
#X obj 289 136 i 0;
#X obj 411 135 i 0;
#X obj 45 236 outlet;
#X obj 133 232 outlet;
#X obj 240 233 outlet;
#X obj 361 236 outlet;
#X obj 247 56 select 1 2 3 4;
#X connect 0 0 14 0;
#X connect 1 0 15 0;
#X connect 2 0 16 0;
#X connect 3 0 17 0;
#X connect 4 0 0 0;
#X connect 4 0 1 0;
#X connect 4 0 2 0;
#X connect 4 0 3 0;
#X connect 5 0 0 1;
#X connect 6 0 3 1;
#X connect 7 0 2 1;
#X connect 8 0 1 1;
#X connect 9 0 18 0;
#X connect 10 0 0 1;
#X connect 11 0 1 1;
#X connect 12 0 2 1;
#X connect 13 0 3 1;
#X connect 18 0 5 0;
#X connect 18 0 11 0;
#X connect 18 0 12 0;
#X connect 18 0 13 0;
#X connect 18 1 8 0;
#X connect 18 1 10 0;
#X connect 18 1 12 0;
#X connect 18 1 13 0;
#X connect 18 2 7 0;
#X connect 18 2 10 0;
#X connect 18 2 11 0;
#X connect 18 2 13 0;
#X connect 18 3 6 0;
#X connect 18 3 10 0;
#X connect 18 3 11 0;
#X connect 18 3 12 0;
#X restore 433 275 pd switch;
#X obj 28 16 inlet;
#X obj 154 14 inlet;
#X obj 431 16 inlet;
#X obj 431 364 outlet;
#X obj 177 138 tgl 15 0 empty empty empty 20 8 0 8 #fcfcfc #000000 #000000 0 1;
#X obj 177 161 metro 0;
#N canvas 92 129 450 300 expr 0;
#X obj 310 132 /;
#X obj 308 194 *;
#X obj 331 164 int;
#X obj 273 94 inlet;
#X obj 351 99 inlet;
#X obj 313 263 outlet;
#X connect 0 0 2 0;
#X connect 1 0 5 0;
#X connect 2 0 1 0;
#X connect 3 0 0 0;
#X connect 4 0 0 1;
#X connect 4 0 1 1;
#X restore 459 311 pd expr;
#X obj 177 189 random 2000;
#X obj 177 213 - 1000;
#X obj 177 239 / 1000;
#X obj 177 271 *, f 4;
#X obj 177 303 t b f;
#X obj 177 367 pow, f 5;
#X msg 177 335 2;
#X obj 177 114 != 0;
#X text 183 56 0 ~ 1;
#X floatatom 197 400 5 0 0 0 - - - 0;
#X obj 154 161 bng 19 250 50 0 empty empty empty 0 -10 0 12 #fcfcfc #000000 #000000;
#X text 63 188 force return to zero random, f 14;
#X obj 28 38 t b f;
#X obj 154 80 t b f f;
#X connect 0 0 4 0;
#X connect 1 0 5 0;
#X connect 2 0 12 1;
#X connect 3 0 2 0;
#X connect 4 0 12 1;
#X connect 5 0 4 0;
#X connect 5 1 3 0;
#X connect 5 1 19 1;
#X connect 6 0 33 0;
#X connect 7 0 16 0;
#X connect 12 0 7 0;
#X connect 12 1 19 0;
#X connect 13 0 32 0;
#X connect 14 0 6 0;
#X connect 15 0 1 0;
#X connect 17 0 18 0;
#X connect 18 0 20 0;
#X connect 19 0 7 0;
#X connect 20 0 21 0;
#X connect 21 0 22 0;
#X connect 22 0 23 0;
#X connect 23 0 24 0;
#X connect 24 0 26 0;
#X connect 24 1 25 1;
#X connect 25 0 12 0;
#X connect 25 0 29 0;
#X connect 26 0 25 0;
#X connect 27 0 17 0;
#X connect 30 0 20 0;
#X connect 32 0 6 0;
#X connect 32 1 7 1;
#X connect 33 0 30 0;
#X connect 33 1 27 0;
#X connect 33 2 23 1;
#X restore 41 310 pd random_pitch;
#X floatatom 288 242 0 0 0 0 - - - 0;
#X floatatom 41 213 5 0 0 0 - - - 0;
#X floatatom 91 213 5 0 0 0 - - - 0;
#X floatatom 288 114 5 0 0 0 - - - 0;
#X obj 288 131 / 1200;
#X obj 288 196 pow;
#X obj 288 152 t b f;
#X msg 288 173 2;
#X floatatom 143 213 0 0 0 0 - - - 0;
#X text 329 114 cents;
#X text 328 197 12th root of 2;
#X text 318 242 frequency multiple;
#X text 38 67 gran dur (ms);
#X obj 259 334 outlet;
#X obj 41 334 outlet;
#X text 291 67 basepitch;
#X obj 288 90 inlet;
#X obj 41 90 inlet;
#X obj 288 265 t b f;
#X obj 91 164 r pitchrand;
#X obj 143 190 r pitchquant;
#X text 31 361 pitch adjusted gran dur. This with ramp time will give transposition with consistent actual grain duration, f 25;
#X text 256 361 use gran dur as ramp time for phasor, f 16;
#X obj 41 286 * 1;
#X connect 0 0 15 0;
#X connect 1 0 19 0;
#X connect 2 0 14 0;
#X connect 2 0 24 0;
#X connect 3 0 0 1;
#X connect 4 0 5 0;
#X connect 5 0 7 0;
#X connect 6 0 1 0;
#X connect 7 0 8 0;
#X connect 7 1 6 1;
#X connect 8 0 6 0;
#X connect 9 0 0 2;
#X connect 17 0 4 0;
#X connect 18 0 2 0;
#X connect 19 0 24 0;
#X connect 19 1 24 1;
#X connect 20 0 3 0;
#X connect 21 0 9 0;
#X connect 24 0 0 0;
#X restore 64 36 pd transposer;
#X obj 155 121 spigot;
#X obj 261 155 s-r mode;
#X obj 261 137 tgl 15 0 empty empty empty 17 7 0 10 #fcfcfc #000000 #000000 0 1;
#X text 278 135 Play/Freeze;
#X obj 126 152 r rndm;
#N canvas 58 80 378 254 pos_rndm 0;
#X obj 60 83 +~ 1;
#X obj 60 108 *~ 0;
#X obj 60 60 noise~;
#X obj 110 60 / 2;
#X obj 110 15 inlet;
#X obj 230 70 loadbang;
#X obj 230 94 tgl 19 0 empty empty empty 0 -10 0 12 #fcfcfc #000000 #000000 0 1;
#X obj 230 118 metro 10;
#X obj 230 142 snapshot~;
#X floatatom 230 166 5 0 0 0 - - - 0;
#X floatatom 110 38 5 0 0 0 - - - 0;
#X obj 230 193 outlet;
#X connect 0 0 1 0;
#X connect 1 0 8 0;
#X connect 2 0 0 0;
#X connect 3 0 1 1;
#X connect 4 0 10 0;
#X connect 5 0 6 0;
#X connect 6 0 7 0;
#X connect 7 0 8 0;
#X connect 8 0 9 0;
#X connect 9 0 11 0;
#X connect 10 0 3 0;
#X restore 145 201 pd pos_rndm;
#X connect 2 0 3 0;
#X connect 3 0 2 0;
#X connect 5 0 6 0;
