#N canvas 298 236 1154 523 12;
#X obj 77 38 r button1;
#X obj 666 150 notein;
#X floatatom 666 202 3 0 0 0 - - - 0;
#X floatatom 691 202 3 0 0 0 - - - 0;
#X obj 666 225 pack;
#X obj 666 253 route 49 50;
#X text 723 172 or play keys 49 and 50 (C# and D below middle C) on a MIDI keyboard, f 49;
#X obj 666 277 tgl 19 0 empty empty empty 0 -10 0 12 #fcfcfc #000000 #000000 0 1;
#X obj 703 278 tgl 19 0 empty empty empty 0 -10 0 12 #fcfcfc #000000 #000000 0 1;
#X obj 691 178 > 0;
#X obj 77 87 tgl 19 0 empty empty empty 0 -10 0 12 #fcfcfc #000000 #000000 0 1;
#X obj 151 87 tgl 19 0 empty empty empty 0 -10 0 12 #fcfcfc #000000 #000000 0 1;
#X obj 104 149 &&;
#X obj 702 302 s button2;
#X obj 666 326 s button1;
#X obj 151 38 r button2;
#X obj 77 62 i;
#X obj 151 62 i;
#X text 723 134 run keysender.maxpat and press keys 1 and 2 (Max needs to run in front), f 44;
#X obj 104 177 tgl 19 0 empty empty empty 17 7 0 10 #dfdfdf #000000 #000000 0 1;
#X obj 103 238 sel 1;
#X floatatom 103 318 5 0 0 0 - - - 0;
#X obj 104 204 t f f;
#X obj 103 267 bng 19 250 50 0 empty empty empty 17 7 0 10 #dfdfdf #000000 #000000;
#X obj 148 267 bng 19 250 50 0 empty empty empty 17 7 0 10 #dfdfdf #000000 #000000;
#X obj 148 238 metro 100;
#X obj 103 293 timer;
#X obj 103 341 > 3000;
#X floatatom 258 38 4 0 0 0 - - - 0;
#X obj 258 289 * 1000;
#X floatatom 258 313 5 0 0 0 - - - 0;
#X text 291 37 change threshold (sec);
#X obj 103 367 change;
#X obj 103 391 tgl 19 0 empty empty empty 0 -10 0 12 #fcfcfc #000000 #000000 0 1;
#X obj 102 415 select 1;
#X obj 102 439 bng 19 250 50 0 empty empty empty 0 -10 0 12 #fcfcfc #000000 #000000;
#X text 137 439 Trigger your event;
#X text 662 119 Simulator in absense of Pepper;
#X text 167 337 default threshold 3 sec (hold button 1 and 2 down together for longer than threshold to trigger your event);
#X obj 662 82 bela-knobs-buttons-leds;
#X obj 151 112 t b f;
#X text 660 60 Abstraction handling Pepper knobs/buttons;
#X connect 0 0 16 0;
#X connect 1 0 2 0;
#X connect 1 1 9 0;
#X connect 2 0 4 0;
#X connect 3 0 4 1;
#X connect 4 0 5 0;
#X connect 5 0 7 0;
#X connect 5 1 8 0;
#X connect 7 0 14 0;
#X connect 8 0 13 0;
#X connect 9 0 3 0;
#X connect 10 0 12 0;
#X connect 11 0 40 0;
#X connect 12 0 19 0;
#X connect 15 0 17 0;
#X connect 16 0 10 0;
#X connect 17 0 11 0;
#X connect 19 0 22 0;
#X connect 20 0 23 0;
#X connect 21 0 27 0;
#X connect 22 0 25 0;
#X connect 22 1 20 0;
#X connect 23 0 26 0;
#X connect 24 0 26 1;
#X connect 25 0 24 0;
#X connect 26 0 21 0;
#X connect 27 0 32 0;
#X connect 28 0 29 0;
#X connect 29 0 30 0;
#X connect 30 0 27 1;
#X connect 32 0 33 0;
#X connect 33 0 34 0;
#X connect 34 0 35 0;
#X connect 40 0 12 0;
#X connect 40 1 12 1;
