#N canvas 387 43 1470 891 12;
#X declare -path .;
#X declare -path sounds;
#N canvas 0 23 588 274 LICENSE 0;
#X text 79 84 (c) 2008 Reality Jockey;
#X text 57 36 Released under the GNU General Public License ver. 3 or later. See the file LICENSE.txt for the full text.;
#X restore 1193 842 pd LICENSE;
#X obj 9 227 declare -path .;
#X obj 1182 422 s rndm;
#X floatatom 1182 362 4 0 0 0 - - - 0;
#X text 782 843 msp Granular Synthesis;
#N canvas 0 22 450 300 (subpatch) 0;
#X array playobject 271255 float 0;
#X coords 0 1 271254 -1 200 140 1;
#X restore 182 255 graph;
#X floatatom 1313 392 10 0 0 0 - - - 0;
#N canvas 58 54 957 483 sampleloader 0;
#X obj 803 174 s raw_length;
#X obj 721 168 r rndm;
#X obj 690 258 s sample_length;
#X obj 696 69 soundfiler;
#N canvas 45 436 678 310 windowstuff 0;
#X text 445 103 window shape;
#X obj 20 26 loadbang;
#X obj 20 85 soundfiler;
#N canvas 179 217 450 300 (subpatch) 0;
#X array wndw 512 float 0;
#X coords 0 1 511 -1 200 140 1 0 0;
#X restore 399 126 graph;
#X obj 21 122 s trisize;
#X msg 20 55 read -resize tri wndw;
#X connect 1 0 5 0;
#X connect 2 0 4 0;
#X connect 5 0 2 0;
#X restore 33 215 pd windowstuff;
#X obj 690 226 -;
#X obj 722 190 t b f;
#X obj 663 165 f;
#X msg 696 38 read -resize mouse.wav playobject;
#X obj 627 36 r sfiler;
#X obj 298 46 inlet;
#X obj 636 344 list split 2;
#X obj 676 372 list split 1;
#X msg 676 398 set \$1;
#X obj 676 424 outlet;
#X obj 636 317 r sfiler;
#X obj 297 111 select 0 1 2 3 4 5;
#X obj 291 310 s sfiler;
#X floatatom 297 88 5 0 0 0 - - - 0;
#X text 175 90 load in sample #;
#X text 30 191 TRIANGLE WINDOW HERE;
#X obj 210 45 r loadbang;
#X msg 210 69 1;
#X obj 696 102 sampstoms;
#X msg 296 142 read -resize 01.wav playobject;
#X msg 316 174 read -resize 02.wav playobject;
#X msg 339 208 read -resize 03.wav playobject;
#X msg 358 240 read -resize 04.wav playobject;
#X msg 379 273 read -resize 05.wav playobject;
#X connect 1 0 6 0;
#X connect 3 0 23 0;
#X connect 5 0 2 0;
#X connect 6 0 7 0;
#X connect 6 1 5 1;
#X connect 7 0 5 0;
#X connect 8 0 3 0;
#X connect 9 0 3 0;
#X connect 10 0 18 0;
#X connect 11 1 12 0;
#X connect 12 0 13 0;
#X connect 13 0 14 0;
#X connect 15 0 11 0;
#X connect 16 0 24 0;
#X connect 16 1 25 0;
#X connect 16 2 26 0;
#X connect 16 3 27 0;
#X connect 16 4 28 0;
#X connect 18 0 16 0;
#X connect 21 0 22 0;
#X connect 22 0 18 0;
#X connect 23 0 7 1;
#X connect 23 0 0 0;
#X connect 23 0 5 0;
#X connect 24 0 17 0;
#X connect 25 0 17 0;
#X connect 26 0 17 0;
#X connect 27 0 17 0;
#X connect 28 0 17 0;
#X restore 273 234 pd sampleloader;
#N canvas 3 178 877 441 granular 0;
#X obj 363 30 loadbang;
#X obj 363 62 bng 19 250 50 0 empty empty empty 0 -10 0 12 #fcfcfc #000000 #000000;
#X obj 24 68 r 1-play;
#X obj 808 272 outlet;
#X text 760 297 overflow bang;
#X obj 23 147 grain-cloud-st~;
#X msg 125 120 -0.25;
#X obj 125 173 grain-cloud-st~;
#X msg 227 143 0.25;
#X obj 220 205 grain-cloud-st~;
#X obj 322 231 grain-cloud-st~;
#X msg 322 178 -0.5;
#X msg 424 201 0.5;
#X obj 407 160 grain-cloud-st~;
#X obj 509 186 grain-cloud-st~;
#X obj 604 218 grain-cloud-st~;
#X obj 706 244 grain-cloud-st~;
#X msg 509 133 -0.75;
#X msg 611 156 0.75;
#X msg 706 191 -1;
#X msg 808 214 1;
#X obj 290 396 outlet~;
#X obj 349 394 outlet~;
#X connect 0 0 1 0;
#X connect 1 0 6 0;
#X connect 1 0 8 0;
#X connect 1 0 11 0;
#X connect 1 0 12 0;
#X connect 1 0 17 0;
#X connect 1 0 18 0;
#X connect 1 0 19 0;
#X connect 1 0 20 0;
#X connect 2 0 5 0;
#X connect 5 0 21 0;
#X connect 5 1 22 0;
#X connect 5 2 7 0;
#X connect 6 0 5 1;
#X connect 7 0 21 0;
#X connect 7 1 22 0;
#X connect 7 2 9 0;
#X connect 8 0 7 1;
#X connect 9 0 21 0;
#X connect 9 1 22 0;
#X connect 9 2 10 0;
#X connect 10 0 21 0;
#X connect 10 1 22 0;
#X connect 10 2 13 0;
#X connect 11 0 9 1;
#X connect 12 0 10 1;
#X connect 13 0 21 0;
#X connect 13 1 22 0;
#X connect 13 2 14 0;
#X connect 14 0 21 0;
#X connect 14 1 22 0;
#X connect 14 2 15 0;
#X connect 15 0 21 0;
#X connect 15 1 22 0;
#X connect 15 2 16 0;
#X connect 16 0 21 0;
#X connect 16 1 22 0;
#X connect 16 2 3 0;
#X connect 17 0 13 1;
#X connect 18 0 14 1;
#X connect 19 0 15 1;
#X connect 20 0 16 1;
#X restore 225 469 pd granular;
#N canvas 0 37 545 181 LOADBANGS 0;
#X obj 172 140 s gain;
#X msg 172 119 1;
#X msg 290 121 0;
#X obj 290 142 s mode;
#X text 322 116 start in Play mode;
#X text 322 127 not Freeze mode;
#X obj 154 14 loadbang;
#X obj 154 57 s loadbang;
#X obj 154 36 bng 15 250 50 0 empty empty empty 17 7 0 10 #fcfcfc #000000 #000000;
#X obj 290 100 r loadbang;
#X obj 172 98 r loadbang;
#X obj 108 13 inlet;
#X connect 1 0 0 0;
#X connect 2 0 3 0;
#X connect 6 0 8 0;
#X connect 8 0 7 0;
#X connect 9 0 2 0;
#X connect 10 0 1 0;
#X connect 11 0 8 0;
#X restore 10 203 pd LOADBANGS;
#N canvas 5 38 498 255 time_stretcher 0;
#X obj 270 158 r rndm;
#X obj 158 197 +~;
#X obj 158 218 throw~ control;
#N canvas 37 389 915 461 seq_engine 0;
#X obj 178 184 sel 0;
#X obj 220 422 outlet~;
#X obj 345 66 r sample_length;
#X obj 220 394 *~ 1000;
#X obj 178 162 * 1;
#X obj 218 274 phasor~;
#X obj 178 138 t b f;
#X obj 106 51 sel 0;
#X obj 106 26 inlet;
#X obj 210 209 t b f;
#X obj 218 254 /;
#X obj 138 76 t b f;
#X obj 138 120 /;
#X msg 138 98 1;
#X msg 216 231 1000;
#X obj 327 307 snapshot~;
#X floatatom 327 328 5 0 0 0 - - - 0;
#X obj 309 354 f;
#X obj 327 261 r mode;
#X obj 327 282 sel 1 0;
#X obj 264 122 r bangz;
#X msg 264 166 0;
#X obj 264 144 sel 1;
#X obj 433 249 inlet;
#X obj 451 305 r raw_length;
#X obj 433 338 /;
#X text 430 222 helps make sure sample starts;
#X text 430 232 at right place when switching modes;
#X text 295 166 reset to sample start;
#X text 314 241 Play/Freeze;
#X text 153 27 stretch factor;
#X text 173 98 reciprocal;
#X text 61 265 MASTER CLOCK;
#X text 60 277 FOR SAMPLE PLAYBACK;
#X connect 0 1 9 0;
#X connect 2 0 6 0;
#X connect 2 0 3 1;
#X connect 3 0 1 0;
#X connect 4 0 0 0;
#X connect 5 0 3 0;
#X connect 5 0 15 0;
#X connect 6 0 4 0;
#X connect 6 1 4 1;
#X connect 7 1 11 0;
#X connect 8 0 7 0;
#X connect 9 0 14 0;
#X connect 9 1 10 1;
#X connect 10 0 5 0;
#X connect 11 0 13 0;
#X connect 11 1 12 1;
#X connect 12 0 4 0;
#X connect 13 0 12 0;
#X connect 14 0 10 0;
#X connect 15 0 16 0;
#X connect 16 0 17 1;
#X connect 17 0 5 1;
#X connect 18 0 19 0;
#X connect 19 0 15 0;
#X connect 19 1 17 0;
#X connect 20 0 22 0;
#X connect 21 0 5 1;
#X connect 22 0 21 0;
#X connect 23 0 25 0;
#X connect 24 0 25 1;
#X connect 25 0 17 1;
#X restore 194 123 pd seq_engine;
#X floatatom 123 31 0 0 0 0 - - - 0;
#N canvas 378 62 450 300 switch 0;
#X obj 116 135 *~;
#X obj 121 181 +~;
#X obj 156 137 *~;
#X obj 135 27 inlet;
#X obj 128 78 < 1;
#X obj 123 249 outlet~;
#X obj 241 26 inlet~;
#X obj 180 26 inlet~;
#X connect 0 0 1 0;
#X connect 1 0 5 0;
#X connect 2 0 1 1;
#X connect 3 0 4 0;
#X connect 3 0 2 1;
#X connect 4 0 0 1;
#X connect 6 0 2 0;
#X connect 7 0 0 0;
#X restore 158 169 pd switch;
#X obj 136 145 tgl 15 0 empty empty empty 17 7 0 10 #fcfcfc #000000 #000000 0 1;
#X obj 136 124 r mode;
#X obj 122 4 r stretch;
#N canvas 58 80 262 182 pos_rndm 0;
#X obj 60 83 +~ 1;
#X obj 60 108 *~ 0;
#X obj 60 60 noise~;
#X obj 102 82 / 2;
#X obj 108 31 inlet;
#X obj 60 143 outlet~;
#X connect 0 0 1 0;
#X connect 1 0 5 0;
#X connect 2 0 0 0;
#X connect 3 0 1 1;
#X connect 4 0 3 0;
#X restore 270 178 pd pos_rndm;
#X text 274 219 to Granvoice;
#X obj 314 25 inlet;
#X text 152 31 Stretch factor;
#X text 72 98 PLAY mode;
#X text 358 128 FREEZE position;
#X text 63 137 Play (0);
#X text 60 148 Freeze (1);
#X obj 313 126 line~;
#X msg 314 80 \$1 5;
#X connect 0 0 9 0;
#X connect 1 0 2 0;
#X connect 3 0 5 1;
#X connect 4 0 3 0;
#X connect 5 0 1 0;
#X connect 6 0 5 0;
#X connect 7 0 6 0;
#X connect 8 0 4 0;
#X connect 9 0 1 1;
#X connect 11 0 3 1;
#X connect 11 0 18 0;
#X connect 17 0 5 2;
#X connect 18 0 17 0;
#X restore 1313 423 pd time_stretcher;
#X text 1390 392 freeze position (ms);
#N canvas 789 74 681 481 gran_pitch 1;
#X floatatom 407 302 0 0 0 0 - - - 0;
#N canvas 790 313 680 446 random_pitch 0;
#X obj 47 58 loadbang;
#X floatatom 431 165 0 0 0 0 - - - 0;
#X msg 500 244 2;
#X msg 500 223 bang;
#X msg 431 239 1;
#X obj 431 201 sel 0;
#X floatatom 240 77 0 0 0 0 - - - 0;
#X obj 431 340 * 1;
#X text 78 19 duration;
#X text 257 58 random width;
#X text 240 104 0 ~ 3;
#X text 470 167 0 ~1.0;
#X text 326 182 pitch quantize;
#N canvas 192 270 548 310 switch 0;
#X obj 41 187 spigot;
#X obj 132 188 spigot;
#X obj 240 187 spigot;
#X obj 361 187 spigot;
#X obj 44 19 inlet;
#X obj 78 106 i 1;
#X obj 400 105 i 1;
#X obj 278 106 i 1;
#X obj 169 105 i 1;
#X obj 247 6 inlet;
#X obj 89 136 i 0;
#X obj 180 135 i 0;
#X obj 289 136 i 0;
#X obj 411 135 i 0;
#X obj 45 236 outlet;
#X obj 133 232 outlet;
#X obj 240 233 outlet;
#X obj 361 236 outlet;
#X obj 247 56 select 1 2 3 4;
#X connect 0 0 14 0;
#X connect 1 0 15 0;
#X connect 2 0 16 0;
#X connect 3 0 17 0;
#X connect 4 0 0 0;
#X connect 4 0 1 0;
#X connect 4 0 2 0;
#X connect 4 0 3 0;
#X connect 5 0 0 1;
#X connect 6 0 3 1;
#X connect 7 0 2 1;
#X connect 8 0 1 1;
#X connect 9 0 18 0;
#X connect 10 0 0 1;
#X connect 11 0 1 1;
#X connect 12 0 2 1;
#X connect 13 0 3 1;
#X connect 18 0 5 0;
#X connect 18 0 11 0;
#X connect 18 0 12 0;
#X connect 18 0 13 0;
#X connect 18 1 8 0;
#X connect 18 1 10 0;
#X connect 18 1 12 0;
#X connect 18 1 13 0;
#X connect 18 2 7 0;
#X connect 18 2 10 0;
#X connect 18 2 11 0;
#X connect 18 2 13 0;
#X connect 18 3 6 0;
#X connect 18 3 10 0;
#X connect 18 3 11 0;
#X connect 18 3 12 0;
#X restore 433 275 pd switch;
#X obj 28 16 inlet;
#X obj 240 23 inlet;
#X obj 431 30 inlet;
#X obj 431 364 outlet;
#X obj 52 88 tgl 15 0 empty empty empty 20 8 0 8 #fcfcfc #000000 #000000 0 1;
#X obj 55 111 metro 0;
#N canvas 92 129 450 300 expr 0;
#X obj 310 132 /;
#X obj 308 194 *;
#X obj 331 164 int;
#X obj 273 94 inlet;
#X obj 351 99 inlet;
#X obj 313 263 outlet;
#X connect 0 0 2 0;
#X connect 1 0 5 0;
#X connect 2 0 1 0;
#X connect 3 0 0 0;
#X connect 4 0 0 1;
#X connect 4 0 1 1;
#X restore 459 311 pd expr;
#X obj 105 191 random 2000;
#X obj 105 215 - 1000;
#X obj 105 241 / 1000;
#X obj 116 271 *;
#X obj 99 306 t b f;
#X obj 104 371 pow;
#X msg 90 339 2;
#X connect 0 0 18 0;
#X connect 0 0 4 0;
#X connect 1 0 5 0;
#X connect 2 0 13 1;
#X connect 3 0 2 0;
#X connect 4 0 13 1;
#X connect 5 0 4 0;
#X connect 5 1 3 0;
#X connect 5 1 20 1;
#X connect 6 0 24 1;
#X connect 7 0 17 0;
#X connect 13 0 7 0;
#X connect 13 1 20 0;
#X connect 14 0 7 1;
#X connect 15 0 6 0;
#X connect 16 0 1 0;
#X connect 18 0 19 0;
#X connect 19 0 21 0;
#X connect 20 0 7 0;
#X connect 21 0 22 0;
#X connect 22 0 23 0;
#X connect 23 0 24 0;
#X connect 24 0 25 0;
#X connect 25 0 27 0;
#X connect 25 1 26 1;
#X connect 26 0 13 0;
#X connect 27 0 26 0;
#X restore 352 379 pd random_pitch;
#X obj 352 398 sig~;
#X obj 56 350 s gfreq;
#X floatatom 109 205 0 0 0 0 - - - 0;
#X floatatom 56 255 0 0 0 0 - - - 0;
#X obj 352 419 throw~ gdur;
#X floatatom 403 350 5 0 0 0 - - - 0;
#N canvas 0 38 831 413 exprA 0;
#X floatatom 479 86 5 0 0 0 - - - 0;
#X floatatom 373 50 5 0 0 0 - - - 0;
#X obj 301 120 t b f;
#X msg 304 170 1000;
#X obj 304 210 *;
#X obj 302 266 /;
#X floatatom 302 303 5 0 0 0 - - - 0;
#X obj 248 149 f;
#X obj 249 124 t b;
#X obj 372 7 inlet;
#X obj 475 7 inlet;
#X obj 301 342 outlet;
#X floatatom 244 252 5 0 0 0 - - - 0;
#X connect 0 0 2 0;
#X connect 0 0 7 1;
#X connect 1 0 5 1;
#X connect 1 0 8 0;
#X connect 2 0 3 0;
#X connect 2 1 4 1;
#X connect 3 0 4 0;
#X connect 4 0 5 0;
#X connect 4 0 12 0;
#X connect 5 0 6 0;
#X connect 6 0 11 0;
#X connect 7 0 2 0;
#X connect 8 0 7 0;
#X connect 9 0 1 0;
#X connect 10 0 0 0;
#X restore 56 286 pd exprA;
#X obj 56 234 r duration;
#X obj 109 55 r basepitch;
#X obj 407 261 r pitchrand;
#X obj 455 295 r pitchquant;
#X floatatom 56 317 5 0 0 0 - - - 0;
#X floatatom 109 77 5 0 0 0 - - - 0;
#X obj 109 94 / 1200;
#X obj 109 159 pow;
#X obj 109 115 t b f;
#X msg 109 136 2;
#X floatatom 455 317 0 0 0 0 - - - 0;
#X obj 224 55 r physics-reset;
#X msg 298 165 1;
#X obj 109 181 * 1;
#X msg 328 165 100;
#X obj 298 137 sel 0 1;
#X obj 343 54 r xtrmpitch;
#X obj 355 137 tgl 15 0 empty empty empty 17 7 0 10 #fcfcfc #000000 #000000 0 1;
#X text 150 77 cents;
#X text 149 160 12th root of 2;
#X text 174 208 frequency multiple;
#X text 83 255 gran dur (ms);
#X text 347 36 Extreme pitch button makes freq swing wider;
#X text 53 371 drives phasor~ in granvoice;
#X text 381 180 NEED TO LOOK AT DIVIDER (40) BELOW;
#X text 224 31 from INIT;
#X obj 407 327 * 3;
#X connect 0 0 35 0;
#X connect 1 0 2 0;
#X connect 2 0 6 0;
#X connect 4 0 8 1;
#X connect 5 0 1 0;
#X connect 5 0 8 0;
#X connect 7 0 1 1;
#X connect 8 0 13 0;
#X connect 9 0 5 0;
#X connect 10 0 14 0;
#X connect 11 0 0 0;
#X connect 12 0 19 0;
#X connect 13 0 3 0;
#X connect 14 0 15 0;
#X connect 15 0 17 0;
#X connect 16 0 22 0;
#X connect 17 0 18 0;
#X connect 17 1 16 1;
#X connect 18 0 16 0;
#X connect 19 0 1 2;
#X connect 20 0 21 0;
#X connect 21 0 22 1;
#X connect 22 0 4 0;
#X connect 23 0 22 1;
#X connect 24 0 21 0;
#X connect 24 1 23 0;
#X connect 25 0 24 0;
#X connect 25 0 26 0;
#X connect 35 0 7 0;
#X restore 309 446 pd gran_pitch;
#X obj 1316 364 hsl 190 15 0 1 0 0 empty empty empty 20 8 0 8 #fcfcfc #000000 #000000 0 1;
#N canvas 53 236 693 556 slider_adjuster 0;
#X obj 130 450 * 1, f 6;
#X obj 28 305 inlet;
#X obj 129 503 outlet;
#X floatatom 173 165 6 0 0 0 - - - 0;
#X text 219 164 sample length;
#X obj 455 92 r mode;
#X text 473 32 Play/Freeze (0/1);
#X obj 133 57 r raw_length;
#X obj 454 123 sel 1;
#X text 514 122 Going into Freeze;
#X text 283 32 Sample position in Play;
#X text 514 134 captures position;
#X text 281 50 from "PD Granular";
#X obj 340 73 r trackpoint;
#X obj 341 136 /;
#X floatatom 364 121 5 0 0 0 - - - 0;
#X floatatom 339 99 5 0 0 0 - - - 0;
#X floatatom 346 160 5 0 0 0 - - - 0;
#X msg 435 272 set \$1;
#X obj 434 500 outlet;
#X obj 535 73 s-r mode;
#X obj 535 56 tgl 15 0 empty empty empty 17 7 0 10 #fcfcfc #000000 #000000 0 1;
#X obj 132 130 t b f;
#X obj 330 281 f;
#X text 25 282 slider (pos);
#X text 183 504 update pos (ms);
#X obj 129 377 / 1;
#X text 179 378 divide by 127 if MIDI;
#X obj 347 211 * 1;
#X text 488 501 update slider (0-1);
#X text 410 215 multiply by 127 if MIDI;
#X connect 0 0 2 0;
#X connect 1 0 26 0;
#X connect 3 0 0 1;
#X connect 5 0 8 0;
#X connect 7 0 22 0;
#X connect 7 0 15 0;
#X connect 8 0 23 0;
#X connect 13 0 16 0;
#X connect 14 0 17 0;
#X connect 15 0 14 1;
#X connect 16 0 14 0;
#X connect 17 0 28 0;
#X connect 18 0 19 0;
#X connect 20 0 21 0;
#X connect 21 0 20 0;
#X connect 22 0 26 0;
#X connect 22 1 3 0;
#X connect 23 0 26 0;
#X connect 26 0 0 0;
#X connect 28 0 18 0;
#X connect 28 0 23 1;
#X restore 1313 333 pd slider_adjuster;
#X obj 10 183 bng 15 250 50 0 empty empty empty 17 7 0 10 #fcfcfc #000000 #000000;
#X obj 941 420 s-r mode;
#X obj 941 402 tgl 15 0 empty empty empty 17 7 0 10 #fcfcfc #000000 #000000 0 1;
#X floatatom 1413 565 0 0 0 0 - - - 0;
#X floatatom 1045 401 0 0 0 0 - - - 0;
#X floatatom 949 544 5 0 0 0 - - - 0;
#X floatatom 1412 524 0 0 0 0 - - - 0;
#X obj 1413 609 tgl 15 0 empty empty empty 17 7 0 10 #fcfcfc #000000 #000000 0 1;
#X text 990 547 cents;
#X text 1072 401 gran dur (ms);
#X obj 949 569 s-r basepitch;
#X obj 1045 420 s-r duration;
#X obj 1413 587 s-r pitchrand;
#X obj 1412 543 s-r pitchquant;
#X obj 1412 627 s-r xtrmpitch;
#X floatatom 48 892 8 0 0 0 - filterfreq - 0;
#X obj 51 857 hsl 128 15 0 1 0 1 filtercutoff empty filtercutoff 4 8 0 10 #fcfcfc #000000 #000000 12700 1;
#X floatatom 48 875 5 0 0 0 - - - 0;
#X obj 50 922 hsl 128 15 0 1 0 1 filterres empty filterres 4 8 0 10 #fcfcfc #000000 #000000 0 1;
#X floatatom 47 940 5 0 0 0 - - - 0;
#X text 115 892 Hz;
#X floatatom 1188 548 5 0 0 0 - - - 0;
#X obj 1189 568 s-r stretch;
#X obj 1191 530 hsl 128 15 -2 4 0 0 empty empty empty -2 -8 0 10 #fcfcfc #000000 #000000 0 1;
#X text 1250 513 |;
#X obj 214 877 tgl 15 0 distoonoff empty disto_on/off 17 7 0 12 #fcfcfc #000000 #000000 0 1;
#X text 958 400 Play/Freeze;
#X floatatom 208 942 5 0 0 0 - - distodrive 0;
#X floatatom 208 899 5 0 0 0 - - - 0;
#X text 256 943 DISTORTION;
#X obj 225 492 dac~, f 6;
#X floatatom 273 212 5 0 0 0 - - - 0;
#X text 151 214 load in sample #;
#X obj 10 253 declare -path sounds;
#N canvas 107 392 1333 486 INIT 0;
#X obj 663 368 send basepitch;
#X obj 321 370 send min;
#X obj 321 266 spigot;
#X obj 116 212 r mode;
#X obj 206 265 spigot;
#X obj 388 349 + 0.01;
#X obj 388 371 send maxi;
#X obj 710 55 delay 300;
#X floatatom 445 291 5 0 0 0 - - - 0;
#X obj 427 249 spigot;
#X obj 427 271 + 1;
#X obj 427 310 * 5;
#X msg 631 155 0;
#X obj 321 288 + 1;
#X obj 321 307 * 64;
#X obj 663 338 r ppr;
#X obj 206 371 send stretch;
#X floatatom 206 355 5 0 0 0 - - - 0;
#X obj 206 288 * 2;
#X obj 206 311 + 1;
#X obj 697 4 inlet;
#X obj 697 98 bng 15 250 50 0 empty empty empty 17 7 0 10 #fcfcfc #000000 #000000;
#X obj 245 228 == 0;
#X obj 360 228 tgl 15 0 empty empty empty 17 7 0 10 #fcfcfc #000000 #000000 0 1;
#X obj 245 247 tgl 15 0 empty empty empty 17 7 0 10 #fcfcfc #000000 #000000 0 1;
#X text 207 392 Play mode;
#X text 328 405 Freeze mode;
#X text 329 390 0-127;
#X text 325 419 Position + loop end in Slider_Adjuster;
#X text 100 196 Play/Freeze;
#X obj 466 228 tgl 15 0 empty empty empty 17 7 0 10 #fcfcfc #000000 #000000 0 1;
#X obj 710 33 r loadbang;
#X msg 328 167 1;
#X obj 788 370 send pitchrand;
#X obj 967 282 * 100;
#X obj 967 372 send pitchquant;
#X obj 1174 370 send duration;
#X msg 967 160 0;
#X msg 788 161 0;
#X floatatom 891 239 5 0 0 0 - - - 0;
#X floatatom 1103 243 5 0 0 0 - - - 0;
#X obj 1103 261 / 100;
#X obj 891 258 / 100;
#X obj 735 253 / 100;
#X obj 1174 297 * 250;
#X obj 788 290 * 127;
#X obj 735 230 r rpr;
#X obj 891 217 r qpr;
#X obj 1103 222 r dpr;
#X msg 1174 160 0.36;
#X obj 1094 104 s physics-init;
#X text 1095 79 to gran_pitch;
#X connect 2 0 13 0;
#X connect 3 0 22 0;
#X connect 3 0 23 0;
#X connect 3 0 30 0;
#X connect 4 0 18 0;
#X connect 5 0 6 0;
#X connect 7 0 21 0;
#X connect 8 0 11 1;
#X connect 9 0 10 0;
#X connect 10 0 11 0;
#X connect 11 0 5 1;
#X connect 12 0 0 0;
#X connect 13 0 14 0;
#X connect 14 0 1 0;
#X connect 14 0 5 0;
#X connect 15 0 0 0;
#X connect 17 0 16 0;
#X connect 18 0 19 0;
#X connect 19 0 17 0;
#X connect 20 0 21 0;
#X connect 21 0 12 0;
#X connect 21 0 38 0;
#X connect 21 0 37 0;
#X connect 21 0 32 0;
#X connect 21 0 50 0;
#X connect 21 0 49 0;
#X connect 22 0 24 0;
#X connect 23 0 2 1;
#X connect 24 0 4 1;
#X connect 30 0 9 1;
#X connect 31 0 7 0;
#X connect 32 0 17 0;
#X connect 34 0 35 0;
#X connect 37 0 34 0;
#X connect 38 0 45 0;
#X connect 39 0 42 0;
#X connect 40 0 41 0;
#X connect 41 0 44 0;
#X connect 42 0 34 0;
#X connect 43 0 45 0;
#X connect 44 0 36 0;
#X connect 45 0 33 0;
#X connect 46 0 43 0;
#X connect 47 0 39 0;
#X connect 48 0 40 0;
#X connect 49 0 44 0;
#X restore 102 203 pd INIT;
#N canvas 150 461 450 300 autoscale-init 0;
#X obj 64 47 inlet;
#X obj 64 151 outlet;
#X msg 201 76 input -1 1 \, 0;
#X obj 64 104 m_autoscale 0 100 dB;
#X obj 201 53 r loadbang;
#X connect 0 0 3 0;
#X connect 2 0 3 1;
#X connect 3 0 1 0;
#X connect 4 0 2 0;
#X restore 208 920 pd autoscale-init;
#X text 93 940 Q;
#X obj 211 856 hsl 128 15 -1 1 0 0 empty distortion empty -2 -8 0 10 #fcfcfc #000000 #000000 0 1;
#X text 50 794 ________________ FX SECTION ________________;
#X text 47 820 ________LPF________ ______OVERDRIVE_____;
#X obj 952 527 hsl 128 15 -1200 1200 0 0 empty empty empty -2 -8 0 10 #fcfcfc #000000 #000000 0 1;
#X msg 1083 511 0;
#X text 1011 510 |;
#X msg 1322 514 1;
#X text 1308 288 ______________SCRUB______________;
#X text 944 476 ________TRANSPOSE_________;
#X text 950 861 Adam Parkinson / RJDJ iOS / 2010;
#X text 950 843 nobuyasu sakodna / MaxMSP / 1999;
#X text 1407 479 ______PITCH______;
#X text 1442 523 quantization;
#X text 1442 565 randomness;
#X text 1440 608 extreme range;
#X text 1187 475 _________STRETCH_________;
#X msg 273 190 0;
#X msg 304 190 1;
#X msg 338 190 2;
#X msg 369 190 3;
#X text 150 190 CLICK to select;
#X text 1217 361 pos random;
#X text 1442 424 --SEQ ENGINE HERE--;
#X msg 400 190 4;
#X text 754 880 BBDMI \, Project ANR-21-CE38-0018 \, 2022-2025. Anne Sèdes \, Atau Tanaka \, Francesco Di Maggio (MSH Paris Nord) \, Alain Bonardi \, David Fierro (CICM / MUSIDANSE / Université Paris 8) \, Stephen Whitmarsh (ICM) / OWL & Organelle at 44.1k / 2023;
#X text 949 291 ______________PLAYBACK__________________________;
#X obj 1182 328 loadbang;
#X obj 1182 393 + 5;
#X floatatom 1549 379 5 0 0 0 - - - 0;
#X text 1514 361 pos (0-1);
#X text 1034 936 AT Bela version 2023;
#X obj 239 40 r CV0;
#X obj 366 40 r CV1;
#X obj 188 16 r button1;
#N canvas 3 520 450 396 led3 0;
#X floatatom 43 85 5 0 0 0 - - - 0;
#X obj 43 134 i;
#X floatatom 43 213 5 0 0 0 - - - 0;
#X obj 43 108 - 0.5;
#X obj 43 187 + 1;
#X msg 44 276 1;
#X obj 44 300 tgl 19 0 empty empty empty 0 -10 0 12 #fcfcfc #000000 #000000 0 1;
#X msg 76 276 0;
#X obj 44 251 sel 1;
#X msg 109 275 1;
#X obj 109 299 tgl 19 0 empty empty empty 0 -10 0 12 #fcfcfc #000000 #000000 0 1;
#X msg 141 275 0;
#X msg 175 274 1;
#X obj 175 298 tgl 19 0 empty empty empty 0 -10 0 12 #fcfcfc #000000 #000000 0 1;
#X msg 207 274 0;
#X obj 109 250 sel 2;
#X obj 175 249 sel 3;
#X obj 43 31 inlet;
#X obj 44 329 outlet;
#X obj 109 329 outlet;
#X obj 175 329 outlet;
#X obj 43 61 map 1 3;
#X obj 43 160 change;
#X connect 0 0 3 0;
#X connect 1 0 22 0;
#X connect 2 0 8 0;
#X connect 2 0 15 0;
#X connect 2 0 16 0;
#X connect 3 0 1 0;
#X connect 4 0 2 0;
#X connect 5 0 6 0;
#X connect 6 0 18 0;
#X connect 7 0 6 0;
#X connect 8 0 5 0;
#X connect 8 1 7 0;
#X connect 9 0 10 0;
#X connect 10 0 19 0;
#X connect 11 0 10 0;
#X connect 12 0 13 0;
#X connect 13 0 20 0;
#X connect 14 0 13 0;
#X connect 15 0 9 0;
#X connect 15 1 11 0;
#X connect 16 0 12 0;
#X connect 16 1 14 0;
#X connect 17 0 21 0;
#X connect 21 0 0 0;
#X connect 22 0 4 0;
#X restore 240 120 pd led3;
#X obj 239 65 map -2 4;
#X obj 239 90 s stretch;
#X obj 188 41 sel 1;
#X obj 188 66 tgl 19 0 empty empty empty 0 -10 0 12 #fcfcfc #000000 #000000 0 1;
#X obj 189 91 s mode;
#X obj 366 66 map -1200 1200;
#X obj 366 90 s basepitch;
#X obj 309 40 r CV2;
#X obj 1313 309 r scrub;
#X obj 309 90 s scrub;
#N canvas 65 318 877 536 5-way-knob 0;
#X floatatom 76 85 5 0 0 0 - - - 0;
#X obj 76 134 i;
#X floatatom 76 210 5 0 0 0 - - - 0;
#X obj 76 61 map 1 5;
#X obj 76 108 - 0.5;
#X msg 164 274 1;
#X obj 164 298 tgl 19 0 empty empty empty 0 -10 0 12 #fcfcfc #000000 #000000 0 1;
#X msg 196 274 0;
#X obj 164 249 sel 1;
#X msg 229 273 1;
#X obj 229 297 tgl 19 0 empty empty empty 0 -10 0 12 #fcfcfc #000000 #000000 0 1;
#X msg 261 273 0;
#X msg 295 272 1;
#X obj 295 296 tgl 19 0 empty empty empty 0 -10 0 12 #fcfcfc #000000 #000000 0 1;
#X msg 327 272 0;
#X msg 361 271 1;
#X obj 361 295 tgl 19 0 empty empty empty 0 -10 0 12 #fcfcfc #000000 #000000 0 1;
#X msg 393 271 0;
#X msg 96 270 1;
#X obj 96 294 tgl 19 0 empty empty empty 0 -10 0 12 #fcfcfc #000000 #000000 0 1;
#X msg 128 270 0;
#X obj 229 248 sel 2;
#X obj 295 247 sel 3;
#X obj 361 246 sel 4;
#X obj 76 31 inlet;
#X obj 164 327 outlet;
#X obj 229 327 outlet;
#X obj 295 327 outlet;
#X obj 360 327 outlet;
#X obj 96 327 outlet;
#X obj 23 326 outlet;
#X obj 76 158 change;
#X obj 593 237 i 0;
#X obj 372 24 hsl 162 19 0 127 0 0 empty empty empty -2 -10 0 12 #fcfcfc #000000 #000000 0 1;
#X obj 340 48 / 127;
#X obj 96 245 sel 0;
#X obj 577 274 ==;
#X obj 540 333 spigot;
#X obj 535 166 t f f f b;
#X floatatom 650 239 5 0 0 0 - - - 0;
#X msg 656 120 0;
#X obj 679 180 bng 19 250 50 0 empty empty empty 0 -10 0 12 #fcfcfc #000000 #000000;
#X obj 606 328 tgl 19 0 empty empty empty 0 -10 0 12 #fcfcfc #000000 #000000 0 1;
#X obj 577 298 sel 0;
#X floatatom 646 286 5 0 0 0 - - - 0;
#X obj 540 357 t b f;
#X obj 462 396 del 1000;
#X obj 574 442 t f b;
#X msg 627 467 0;
#X obj 574 418 i 0;
#X floatatom 574 466 5 0 0 0 - - - 0;
#X text 697 118 reset;
#X connect 0 0 4 0;
#X connect 1 0 31 0;
#X connect 2 0 8 0;
#X connect 2 0 21 0;
#X connect 2 0 22 0;
#X connect 2 0 23 0;
#X connect 2 0 30 0;
#X connect 2 0 35 0;
#X connect 3 0 0 0;
#X connect 4 0 1 0;
#X connect 5 0 6 0;
#X connect 6 0 25 0;
#X connect 7 0 6 0;
#X connect 8 0 5 0;
#X connect 8 1 7 0;
#X connect 9 0 10 0;
#X connect 10 0 26 0;
#X connect 11 0 10 0;
#X connect 12 0 13 0;
#X connect 13 0 27 0;
#X connect 14 0 13 0;
#X connect 15 0 16 0;
#X connect 16 0 28 0;
#X connect 17 0 16 0;
#X connect 18 0 19 0;
#X connect 19 0 29 0;
#X connect 20 0 19 0;
#X connect 21 0 9 0;
#X connect 21 1 11 0;
#X connect 22 0 12 0;
#X connect 22 1 14 0;
#X connect 23 0 15 0;
#X connect 23 1 17 0;
#X connect 24 0 3 0;
#X connect 31 0 2 0;
#X connect 32 0 36 1;
#X connect 32 0 39 0;
#X connect 33 0 34 0;
#X connect 34 0 3 0;
#X connect 35 0 18 0;
#X connect 35 1 20 0;
#X connect 36 0 43 0;
#X connect 36 0 44 0;
#X connect 37 0 45 0;
#X connect 38 1 37 0;
#X connect 38 2 36 0;
#X connect 38 3 32 0;
#X connect 40 0 32 1;
#X connect 40 0 42 0;
#X connect 41 0 32 0;
#X connect 42 0 37 1;
#X connect 43 1 42 0;
#X connect 45 0 46 0;
#X connect 45 1 49 1;
#X connect 46 0 49 0;
#X connect 47 0 50 0;
#X connect 47 1 48 0;
#X connect 48 0 42 0;
#X connect 49 0 47 0;
#X connect 50 0 32 1;
#X restore 775 191 pd 5-way-knob;
#X f 14;
#X obj 768 30 r CV3;
#X obj 474 40 sel 1;
#X obj 474 65 tgl 19 0 empty empty empty 0 -10 0 12 #fcfcfc #000000 #000000 0 1;
#X obj 474 15 r button2;
#X obj 475 90 s distoonoff;
#N canvas 82 285 471 457 led2 0;
#X floatatom 43 85 5 0 0 0 - - - 0;
#X obj 43 134 i;
#X floatatom 43 216 5 0 0 0 - - - 0;
#X obj 43 108 - 0.5;
#X obj 43 190 + 1;
#X msg 50 303 1;
#X obj 66 342 tgl 19 0 empty empty empty 0 -10 0 12 #fcfcfc #000000 #000000 0 1;
#X msg 82 303 0;
#X msg 115 302 1;
#X obj 131 341 tgl 19 0 empty empty empty 0 -10 0 12 #fcfcfc #000000 #000000 0 1;
#X msg 147 302 0;
#X obj 43 31 inlet;
#X obj 66 371 outlet;
#X obj 131 371 outlet;
#X obj 43 61 map 1 3;
#X obj 44 254 sel 1 2 3, f 17;
#X obj 43 163 change;
#X connect 0 0 3 0;
#X connect 1 0 16 0;
#X connect 2 0 15 0;
#X connect 3 0 1 0;
#X connect 4 0 2 0;
#X connect 5 0 6 0;
#X connect 6 0 12 0;
#X connect 7 0 6 0;
#X connect 8 0 9 0;
#X connect 9 0 13 0;
#X connect 10 0 9 0;
#X connect 11 0 14 0;
#X connect 14 0 0 0;
#X connect 15 0 5 0;
#X connect 15 0 10 0;
#X connect 15 1 5 0;
#X connect 15 1 8 0;
#X connect 15 2 8 0;
#X connect 15 2 7 0;
#X connect 16 0 4 0;
#X restore 366 120 pd led2;
#X text 651 6 CV0 stretch;
#X text 764 6 CV1 transp;
#X text 652 29 CV2 position;
#N canvas 3 520 450 396 led3 0;
#X floatatom 43 85 5 0 0 0 - - - 0;
#X obj 43 134 i;
#X floatatom 43 213 5 0 0 0 - - - 0;
#X obj 43 108 - 0.5;
#X obj 43 187 + 1;
#X msg 44 276 1;
#X obj 44 300 tgl 19 0 empty empty empty 0 -10 0 12 #fcfcfc #000000 #000000 0 1;
#X msg 76 276 0;
#X obj 44 251 sel 1;
#X msg 109 275 1;
#X obj 109 299 tgl 19 0 empty empty empty 0 -10 0 12 #fcfcfc #000000 #000000 0 1;
#X msg 141 275 0;
#X msg 175 274 1;
#X obj 175 298 tgl 19 0 empty empty empty 0 -10 0 12 #fcfcfc #000000 #000000 0 1;
#X msg 207 274 0;
#X obj 109 250 sel 2;
#X obj 175 249 sel 3;
#X obj 43 31 inlet;
#X obj 44 329 outlet;
#X obj 109 329 outlet;
#X obj 175 329 outlet;
#X obj 43 61 map 1 3;
#X obj 43 160 change;
#X connect 0 0 3 0;
#X connect 1 0 22 0;
#X connect 2 0 8 0;
#X connect 2 0 15 0;
#X connect 2 0 16 0;
#X connect 3 0 1 0;
#X connect 4 0 2 0;
#X connect 5 0 6 0;
#X connect 6 0 18 0;
#X connect 7 0 6 0;
#X connect 8 0 5 0;
#X connect 8 1 7 0;
#X connect 9 0 10 0;
#X connect 10 0 19 0;
#X connect 11 0 10 0;
#X connect 12 0 13 0;
#X connect 13 0 20 0;
#X connect 14 0 13 0;
#X connect 15 0 9 0;
#X connect 15 1 11 0;
#X connect 16 0 12 0;
#X connect 16 1 14 0;
#X connect 17 0 21 0;
#X connect 21 0 0 0;
#X connect 22 0 4 0;
#X restore 309 120 pd led3;
#X obj 9 21 initialise_digitals;
#X text 7 0 Initialise LEDs \, buttons and trigger inputs;
#N canvas 421 209 746 660 CV-inputs 0;
#X obj 187 131 lop~ 1;
#X obj 187 106 adc~ 3;
#X obj 187 155 snapshot~;
#X obj 261 131 lop~ 1;
#X obj 261 154 snapshot~;
#X obj 261 106 adc~ 4;
#X obj 79 250 tgl 19 0 empty empty empty 0 -10 0 12 #fcfcfc #000000 #000000 0 1;
#X obj 79 199 loadbang;
#X msg 79 226 1;
#X text 57 131 avoid zipper noise;
#X obj 185 256 lop~ 1;
#X obj 185 280 snapshot~;
#X obj 259 256 lop~ 1;
#X obj 259 279 snapshot~;
#X obj 185 231 adc~ 5;
#X obj 259 231 adc~ 6;
#X obj 187 385 lop~ 1;
#X obj 187 409 snapshot~;
#X obj 261 385 lop~ 1;
#X obj 261 408 snapshot~;
#X obj 185 516 lop~ 1;
#X obj 185 540 snapshot~;
#X obj 259 516 lop~ 1;
#X obj 259 539 snapshot~;
#X obj 187 360 adc~ 7;
#X obj 261 360 adc~ 8;
#X obj 185 491 adc~ 9;
#X obj 259 491 adc~ 10;
#X text 15 107 analog input (range 0-1);
#X text 184 74 BELA KNOBS and CV;
#X obj 79 274 metro 100;
#X obj 139 56 inlet;
#X obj 187 202 s CV0;
#X obj 261 202 s CV1;
#X obj 186 329 s CV2;
#X obj 260 329 s CV3;
#X obj 188 458 s CV4;
#X obj 262 458 s CV5;
#X obj 186 589 s CV6;
#X obj 260 589 s CV7;
#X obj 408 56 inlet;
#X obj 408 91 tgl 19 0 empty empty empty 0 -10 0 12 #fcfcfc #000000 #000000 0 1;
#X obj 408 139 tgl 19 0 empty empty empty 0 -10 0 12 #fcfcfc #000000 #000000 0 1;
#X obj 408 115 flip 1;
#X text 368 27 debug mode on shuts off CV inputs;
#X obj 187 179 spigot 1;
#X obj 261 179 spigot 1;
#X obj 259 304 spigot 1;
#X obj 185 304 spigot 1;
#X obj 187 433 spigot 1;
#X obj 261 433 spigot 1;
#X obj 185 564 spigot 1;
#X obj 259 564 spigot 1;
#X obj 519 82 loadbang;
#X msg 519 106 0;
#X connect 0 0 2 0;
#X connect 1 0 0 0;
#X connect 2 0 45 0;
#X connect 3 0 4 0;
#X connect 4 0 46 0;
#X connect 5 0 3 0;
#X connect 6 0 30 0;
#X connect 7 0 8 0;
#X connect 8 0 6 0;
#X connect 10 0 11 0;
#X connect 11 0 48 0;
#X connect 12 0 13 0;
#X connect 13 0 47 0;
#X connect 14 0 10 0;
#X connect 15 0 12 0;
#X connect 16 0 17 0;
#X connect 17 0 49 0;
#X connect 18 0 19 0;
#X connect 19 0 50 0;
#X connect 20 0 21 0;
#X connect 21 0 51 0;
#X connect 22 0 23 0;
#X connect 23 0 52 0;
#X connect 24 0 16 0;
#X connect 25 0 18 0;
#X connect 26 0 20 0;
#X connect 27 0 22 0;
#X connect 30 0 2 0;
#X connect 30 0 4 0;
#X connect 30 0 11 0;
#X connect 30 0 13 0;
#X connect 30 0 17 0;
#X connect 30 0 19 0;
#X connect 30 0 21 0;
#X connect 30 0 23 0;
#X connect 31 0 30 1;
#X connect 40 0 41 0;
#X connect 41 0 43 0;
#X connect 42 0 45 1;
#X connect 42 0 46 1;
#X connect 42 0 47 1;
#X connect 42 0 48 1;
#X connect 42 0 49 1;
#X connect 42 0 50 1;
#X connect 42 0 51 1;
#X connect 42 0 52 1;
#X connect 43 0 42 0;
#X connect 45 0 32 0;
#X connect 46 0 33 0;
#X connect 47 0 35 0;
#X connect 48 0 34 0;
#X connect 49 0 36 0;
#X connect 50 0 37 0;
#X connect 51 0 38 0;
#X connect 52 0 39 0;
#X connect 53 0 54 0;
#X connect 54 0 41 0;
#X restore 9 99 pd CV-inputs;
#X obj 9 48 loadbang;
#X text 41 73 ms CV sampling;
#X obj 10 131 buttons, f 15;
#N canvas 411 448 589 172 button-sends 0;
#X obj 49 80 print Button 1:;
#X obj 161 80 print Button 2:;
#X obj 277 80 print Button 3:;
#X obj 389 79 print Button 4:;
#X obj 49 50 inlet;
#X obj 161 49 inlet;
#X obj 277 49 inlet;
#X obj 389 48 inlet;
#X obj 49 108 s button1;
#X obj 161 108 s button2;
#X obj 277 109 s button3;
#X obj 389 109 s button4;
#X connect 4 0 0 0;
#X connect 4 0 8 0;
#X connect 5 0 1 0;
#X connect 5 0 9 0;
#X connect 6 0 2 0;
#X connect 6 0 10 0;
#X connect 7 0 3 0;
#X connect 7 0 11 0;
#X restore 10 159 pd button-sends;
#X obj 217 146 led-bargraph, f 30;
#X text 814 31 sample select;
#X obj 105 99 tgl 19 0 empty empty empty 0 -10 0 12 #fcfcfc #000000 #000000 0 1;
#X text 127 99 DEBUG;
#X text 214 420 _SYNTH ENGINE_;
#X obj 653 109 r CV6;
#X obj 653 161 s rndm;
#X obj 653 134 map 0 500;
#X obj 797 142 s pitchrand;
#X obj 797 112 r CV4;
#X msg 9 73 20;
#X text 5 397 position (ms) \, grandur \, transp;
#X msg 33 419 \; 1-play 1000 500 0;
#X msg 33 457 \; 1-play 1000 500 -400;
#X msg 33 495 \; 1-play 1000 500 700;
#X floatatom 595 235 5 0 0 0 - - - 0;
#X obj 595 259 density-generator;
#X obj 300 493 bng 19 250 50 0 empty empty empty 0 -10 0 12 #fcfcfc #000000 #000000;
#X obj 641 285 tgl 19 0 empty empty empty 0 -10 0 12 #fcfcfc #000000 #000000 0 1;
#X floatatom 669 286 5 0 0 0 - - - 0;
#X obj 641 309 metro 500;
#X msg 640 235 0;
#X floatatom 623 494 5 10 2000 0 - - - 0;
#X floatatom 667 494 5 0 100 0 - - - 0;
#X text 672 464 var %;
#X text 578 465 grandur (ms);
#X obj 591 494 bng 19 250 50 0 empty empty empty 0 -10 0 12 #fcfcfc #000000 #000000;
#X floatatom 597 552 5 0 0 0 - - - 0;
#X floatatom 786 494 5 0 0 0 - - - 0;
#X floatatom 830 494 5 0 1000 0 - - - 0;
#X text 763 463 var %;
#X obj 754 494 bng 19 250 50 0 empty empty empty 0 -10 0 12 #fcfcfc #000000 #000000;
#X floatatom 760 552 5 0 0 0 - - - 0;
#X text 741 465 transp (cts);
#X obj 760 528 variator;
#X obj 597 528 variator;
#X obj 601 410 bng 19 250 50 0 empty empty empty 0 -10 0 12 #fcfcfc #000000 #000000;
#X floatatom 478 497 5 10 2000 0 - - - 0;
#X floatatom 522 497 5 0 100 0 - - - 0;
#X text 527 467 var %;
#X obj 446 497 bng 19 250 50 0 empty empty empty 0 -10 0 12 #fcfcfc #000000 #000000;
#X floatatom 452 555 5 0 0 0 - - - 0;
#X obj 452 531 variator;
#X text 436 469 pos (ms);
#X msg 523 645 \; 1-play \$1 \$2 \$3;
#X obj 523 614 pack 0 0 0;
#X connect 3 0 79 0;
#X connect 6 0 10 0;
#X connect 8 0 45 0;
#X connect 8 1 45 1;
#X connect 8 2 132 0;
#X connect 13 0 14 0;
#X connect 13 0 80 0;
#X connect 14 0 6 0;
#X connect 14 1 13 0;
#X connect 15 0 9 0;
#X connect 16 0 17 0;
#X connect 17 0 16 0;
#X connect 18 0 27 0;
#X connect 19 0 26 0;
#X connect 20 0 25 0;
#X connect 21 0 28 0;
#X connect 22 0 29 0;
#X connect 25 0 55 0;
#X connect 26 0 19 0;
#X connect 27 0 18 0;
#X connect 28 0 21 0;
#X connect 29 0 22 0;
#X connect 31 0 32 0;
#X connect 33 0 34 0;
#X connect 36 0 37 0;
#X connect 37 0 38 0;
#X connect 38 0 36 0;
#X connect 43 0 50 0;
#X connect 46 0 7 0;
#X connect 50 0 42 0;
#X connect 52 0 43 0;
#X connect 55 0 20 0;
#X connect 56 0 55 0;
#X connect 58 0 38 0;
#X connect 68 0 46 0;
#X connect 69 0 46 0;
#X connect 70 0 46 0;
#X connect 71 0 46 0;
#X connect 75 0 46 0;
#X connect 78 0 3 0;
#X connect 79 0 2 0;
#X connect 83 0 87 0;
#X connect 83 0 86 0;
#X connect 84 0 92 0;
#X connect 84 0 103 0;
#X connect 85 0 89 0;
#X connect 86 0 115 1;
#X connect 86 1 115 2;
#X connect 86 2 115 3;
#X connect 87 0 88 0;
#X connect 89 0 90 0;
#X connect 90 0 91 0;
#X connect 90 0 115 0;
#X connect 92 0 93 0;
#X connect 94 0 96 0;
#X connect 94 0 107 0;
#X connect 95 0 14 0;
#X connect 97 0 46 0;
#X connect 98 0 97 0;
#X connect 99 0 100 0;
#X connect 100 0 102 0;
#X connect 100 0 115 9;
#X connect 101 0 99 0;
#X connect 103 0 115 7;
#X connect 103 1 115 8;
#X connect 107 0 115 4;
#X connect 107 1 115 5;
#X connect 107 2 115 6;
#X connect 111 0 125 0;
#X connect 113 0 114 0;
#X connect 113 1 114 1;
#X connect 113 2 114 2;
#X connect 113 3 114 3;
#X connect 117 0 110 1;
#X connect 120 0 122 0;
#X connect 122 0 121 0;
#X connect 124 0 123 0;
#X connect 125 0 110 0;
#X connect 130 0 131 0;
#X connect 131 0 151 0;
#X connect 133 0 135 0;
#X connect 134 0 135 1;
#X connect 135 0 151 0;
#X connect 136 0 130 0;
#X connect 137 0 150 1;
#X connect 138 0 150 2;
#X connect 141 0 150 0;
#X connect 142 0 160 1;
#X connect 143 0 149 1;
#X connect 144 0 149 2;
#X connect 146 0 149 0;
#X connect 147 0 160 2;
#X connect 149 0 147 0;
#X connect 150 0 142 0;
#X connect 151 0 146 0;
#X connect 151 0 141 0;
#X connect 151 0 155 0;
#X connect 152 0 157 1;
#X connect 153 0 157 2;
#X connect 155 0 157 0;
#X connect 156 0 160 0;
#X connect 157 0 156 0;
#X connect 160 0 159 0;
