#N canvas 532 390 921 474 12;
#X obj 352 96 samplerate~;
#X obj 547 13 loadbang;
#X floatatom 352 120 5 0 0 0 - - - 0;
#X floatatom 352 191 10 0 0 0 - - - 0;
#X obj 547 37 bng 19 250 50 0 empty empty empty 0 -10 0 12 #fcfcfc #000000 #000000;
#X obj 249 36 inlet;
#X text 247 12 Density;
#X floatatom 249 60 5 0 0 0 - - - 0;
#X obj 252 225 *;
#X floatatom 252 277 10 0 0 0 - - - 0;
#X obj 352 143 * 0.5;
#X obj 352 167 expr 1/$f1;
#X obj 252 253 expr 1 - $f1;
#X obj 138 266 noise~;
#X obj 137 318 fexpr~ $x1 > $x1[$f2];
#X obj 137 342 snapshot~;
#X obj 37 295 metro 10;
#X obj 35 255 tgl 19 0 empty empty empty 0 -10 0 12 #fcfcfc #000000 #000000 0 1;
#X floatatom 137 366 5 0 0 0 - - - 0;
#X msg 96 171 start;
#X msg 50 171 stop;
#X obj 50 138 loadbang;
#X obj 684 125 * 0.5;
#X floatatom 818 46 5 0 0 0 - - - 0;
#X msg 683 96 1000;
#X floatatom 683 176 10 0 0 0 - - - 0;
#X obj 683 152 expr 1/$f1;
#X obj 632 30 inlet;
#X text 630 6 Density;
#X floatatom 632 54 5 0 0 0 - - - 0;
#X obj 635 219 *;
#X floatatom 635 271 10 0 0 0 - - - 0;
#X obj 635 247 expr 1 - $f1;
#X obj 483 225 random 1000;
#X obj 479 137 tgl 19 0 empty empty empty 0 -10 0 12 #fcfcfc #000000 #000000 0 1;
#X obj 479 161 metro 1;
#X obj 579 344 select 1;
#X obj 579 368 bng 19 250 50 0 empty empty empty 0 -10 0 12 #fcfcfc #000000 #000000;
#X obj 483 249 / 1000;
#X floatatom 454 304 5 0 0 0 - - - 0;
#X obj 579 320 >;
#X connect 0 0 2 0;
#X connect 1 0 4 0;
#X connect 2 0 10 0;
#X connect 3 0 8 1;
#X connect 4 0 0 0;
#X connect 4 0 24 0;
#X connect 4 0 34 0;
#X connect 5 0 7 0;
#X connect 7 0 8 0;
#X connect 8 0 12 0;
#X connect 9 0 14 1;
#X connect 10 0 11 0;
#X connect 11 0 3 0;
#X connect 12 0 9 0;
#X connect 13 0 14 0;
#X connect 14 0 15 0;
#X connect 15 0 18 0;
#X connect 16 0 15 0;
#X connect 17 0 16 0;
#X connect 19 0 14 0;
#X connect 20 0 14 0;
#X connect 21 0 20 0;
#X connect 22 0 26 0;
#X connect 24 0 22 0;
#X connect 25 0 30 1;
#X connect 26 0 25 0;
#X connect 27 0 29 0;
#X connect 29 0 30 0;
#X connect 30 0 32 0;
#X connect 31 0 40 1;
#X connect 32 0 31 0;
#X connect 33 0 38 0;
#X connect 34 0 35 0;
#X connect 35 0 33 0;
#X connect 36 0 37 0;
#X connect 38 0 39 0;
#X connect 38 0 40 0;
#X connect 40 0 36 0;
