#N canvas 141 180 1046 762 12;
#X obj 27 726 outlet~;
#X obj 25 354 +~, f 6;
#X text 119 716 sample and hold (change value only when wave~ outputs signal 0 __for avoiding noises when play position is changed );
#X obj 26 426 tabread~ playobject;
#X text 261 228 play position in sample (ms);
#X text 261 255 sync envelope of grain with phasor~;
#X obj 26 387 *~ 44.1;
#X obj 64 316 *~ 50, f 8;
#X obj 26 608 *~;
#X obj 45 564 tabread~ wndw;
#X obj 44 520 *~ 1;
#X obj 70 482 r trisize;
#X text 150 564 gain multiplided by tri window;
#X text 158 647 SIMPLIFIED VERSION FOR BELA: NO GAIN 2023 AT;
#X obj 47 263 oneshot~ 20;
#X obj 28 101 unpack 0 0 0;
#X floatatom 205 156 5 0 0 0 - - - 0;
#X floatatom 27 156 5 0 0 0 - - - 0;
#X floatatom 117 156 5 0 0 0 - - - 0;
#X text 121 178 gdur;
#X text 205 178 gfreq;
#N canvas 898 132 909 523 pitch-calc 0;
#X floatatom 95 236 0 0 0 0 - - - 0;
#N canvas 790 313 680 446 random_pitch 0;
#X obj 47 58 loadbang;
#X floatatom 431 165 0 0 0 0 - - - 0;
#X msg 500 244 2;
#X msg 500 223 bang;
#X msg 431 239 1;
#X obj 431 201 sel 0;
#X floatatom 240 77 0 0 0 0 - - - 0;
#X obj 431 340 * 1;
#X text 78 19 duration;
#X text 257 58 random width;
#X text 240 104 0 ~ 3;
#X text 470 167 0 ~1.0;
#X text 326 182 pitch quantize;
#N canvas 192 270 548 310 switch 0;
#X obj 41 187 spigot;
#X obj 132 188 spigot;
#X obj 240 187 spigot;
#X obj 361 187 spigot;
#X obj 44 19 inlet;
#X obj 78 106 i 1;
#X obj 400 105 i 1;
#X obj 278 106 i 1;
#X obj 169 105 i 1;
#X obj 247 6 inlet;
#X obj 89 136 i 0;
#X obj 180 135 i 0;
#X obj 289 136 i 0;
#X obj 411 135 i 0;
#X obj 45 236 outlet;
#X obj 133 232 outlet;
#X obj 240 233 outlet;
#X obj 361 236 outlet;
#X obj 247 56 select 1 2 3 4;
#X connect 0 0 14 0;
#X connect 1 0 15 0;
#X connect 2 0 16 0;
#X connect 3 0 17 0;
#X connect 4 0 0 0;
#X connect 4 0 1 0;
#X connect 4 0 2 0;
#X connect 4 0 3 0;
#X connect 5 0 0 1;
#X connect 6 0 3 1;
#X connect 7 0 2 1;
#X connect 8 0 1 1;
#X connect 9 0 18 0;
#X connect 10 0 0 1;
#X connect 11 0 1 1;
#X connect 12 0 2 1;
#X connect 13 0 3 1;
#X connect 18 0 5 0;
#X connect 18 0 11 0;
#X connect 18 0 12 0;
#X connect 18 0 13 0;
#X connect 18 1 8 0;
#X connect 18 1 10 0;
#X connect 18 1 12 0;
#X connect 18 1 13 0;
#X connect 18 2 7 0;
#X connect 18 2 10 0;
#X connect 18 2 11 0;
#X connect 18 2 13 0;
#X connect 18 3 6 0;
#X connect 18 3 10 0;
#X connect 18 3 11 0;
#X connect 18 3 12 0;
#X restore 433 275 pd switch;
#X obj 28 16 inlet;
#X obj 240 23 inlet;
#X obj 431 30 inlet;
#X obj 431 364 outlet;
#X obj 52 88 tgl 15 0 empty empty empty 20 8 0 8 #fcfcfc #000000 #000000 0 1;
#X obj 55 111 metro 0;
#N canvas 92 129 450 300 expr 0;
#X obj 310 132 /;
#X obj 308 194 *;
#X obj 331 164 int;
#X obj 273 94 inlet;
#X obj 351 99 inlet;
#X obj 313 263 outlet;
#X connect 0 0 2 0;
#X connect 1 0 5 0;
#X connect 2 0 1 0;
#X connect 3 0 0 0;
#X connect 4 0 0 1;
#X connect 4 0 1 1;
#X restore 459 311 pd expr;
#X obj 105 191 random 2000;
#X obj 105 215 - 1000;
#X obj 105 241 / 1000;
#X obj 116 271 *;
#X obj 99 306 t b f;
#X obj 104 371 pow;
#X msg 90 339 2;
#X connect 0 0 18 0;
#X connect 0 0 4 0;
#X connect 1 0 5 0;
#X connect 2 0 13 1;
#X connect 3 0 2 0;
#X connect 4 0 13 1;
#X connect 5 0 4 0;
#X connect 5 1 3 0;
#X connect 5 1 20 1;
#X connect 6 0 24 1;
#X connect 7 0 17 0;
#X connect 13 0 7 0;
#X connect 13 1 20 0;
#X connect 14 0 7 1;
#X connect 15 0 6 0;
#X connect 16 0 1 0;
#X connect 18 0 19 0;
#X connect 19 0 21 0;
#X connect 20 0 7 0;
#X connect 21 0 22 0;
#X connect 22 0 23 0;
#X connect 23 0 24 0;
#X connect 24 0 25 0;
#X connect 25 0 27 0;
#X connect 25 1 26 1;
#X connect 26 0 13 0;
#X connect 27 0 26 0;
#X restore 40 313 pd random_pitch;
#X obj 35 374 sig~;
#X floatatom 322 211 0 0 0 0 - - - 0;
#X floatatom 268 262 0 0 0 0 - - - 0;
#X obj 35 395 throw~ gdur;
#X floatatom 91 284 5 0 0 0 - - - 0;
#N canvas 0 38 831 413 exprA 0;
#X floatatom 479 86 5 0 0 0 - - - 0;
#X floatatom 373 50 5 0 0 0 - - - 0;
#X obj 301 120 t b f;
#X msg 304 170 1000;
#X obj 304 210 *;
#X obj 302 266 /;
#X floatatom 302 303 5 0 0 0 - - - 0;
#X obj 248 149 f;
#X obj 249 124 t b;
#X obj 372 7 inlet;
#X obj 475 7 inlet;
#X obj 301 342 outlet;
#X floatatom 244 252 5 0 0 0 - - - 0;
#X connect 0 0 2 0;
#X connect 0 0 7 1;
#X connect 1 0 5 1;
#X connect 1 0 8 0;
#X connect 2 0 3 0;
#X connect 2 1 4 1;
#X connect 3 0 4 0;
#X connect 4 0 5 0;
#X connect 4 0 12 0;
#X connect 5 0 6 0;
#X connect 6 0 11 0;
#X connect 7 0 2 0;
#X connect 8 0 7 0;
#X connect 9 0 1 0;
#X connect 10 0 0 0;
#X restore 269 292 pd exprA;
#X floatatom 269 323 5 0 0 0 - - - 0;
#X floatatom 322 83 5 0 0 0 - - - 0;
#X obj 322 100 / 1200;
#X obj 322 165 pow;
#X obj 322 121 t b f;
#X msg 322 142 2;
#X floatatom 143 251 0 0 0 0 - - - 0;
#X msg 504 169 1;
#X obj 322 187 * 1;
#X msg 534 169 100;
#X obj 504 141 sel 0 1;
#X obj 561 141 tgl 15 0 empty empty empty 17 7 0 10 #fcfcfc #000000 #000000 0 1;
#X text 363 83 cents;
#X text 362 166 12th root of 2;
#X text 352 211 frequency multiple;
#X text 221 38 gran dur (ms);
#X text 612 114 Extreme pitch button makes freq swing wider;
#X text 587 184 NEED TO LOOK AT DIVIDER (40) BELOW;
#X text 499 35 from INIT;
#X obj 95 261 * 3;
#X obj 499 59 r \$1-physics-reset;
#X obj 504 113 r \$1-xtrmpitch;
#X obj 95 195 r \$1-pitchrand;
#X obj 143 229 r \$1-pitchquant;
#X obj 269 356 outlet;
#X obj 40 337 outlet;
#X text 266 378 gfreq drives phasor~ in granvoice;
#X text 325 38 basepitch;
#X obj 322 61 inlet;
#X obj 266 59 inlet;
#X connect 0 0 27 0;
#X connect 1 0 33 0;
#X connect 2 0 5 0;
#X connect 3 0 7 1;
#X connect 4 0 1 0;
#X connect 4 0 7 0;
#X connect 6 0 1 1;
#X connect 7 0 8 0;
#X connect 8 0 32 0;
#X connect 9 0 10 0;
#X connect 10 0 12 0;
#X connect 11 0 16 0;
#X connect 12 0 13 0;
#X connect 12 1 11 1;
#X connect 13 0 11 0;
#X connect 14 0 1 2;
#X connect 15 0 16 1;
#X connect 16 0 3 0;
#X connect 17 0 16 1;
#X connect 18 0 15 0;
#X connect 18 1 17 0;
#X connect 27 0 6 0;
#X connect 28 0 15 0;
#X connect 29 0 18 0;
#X connect 29 0 19 0;
#X connect 30 0 0 0;
#X connect 31 0 14 0;
#X connect 36 0 9 0;
#X connect 37 0 4 0;
#X restore 117 130 pd pitch-calc;
#X text 31 178 position;
#X text 31 46 Trigger gain with message: position (ms) \, grandur \, transposition (cts), f 71;
#X obj 28 76 r \$1-play;
#X connect 1 0 6 0;
#X connect 3 0 8 0;
#X connect 6 0 3 0;
#X connect 7 0 1 1;
#X connect 8 0 0 0;
#X connect 9 0 8 1;
#X connect 10 0 9 0;
#X connect 11 0 10 1;
#X connect 14 0 10 0;
#X connect 14 0 7 0;
#X connect 15 0 17 0;
#X connect 15 1 21 0;
#X connect 15 2 21 1;
#X connect 16 0 14 0;
#X connect 17 0 1 0;
#X connect 18 0 7 1;
#X connect 21 0 18 0;
#X connect 21 1 16 0;
#X connect 24 0 15 0;
