#N canvas 225 96 559 427 12;
#X msg 116 175 0;
#X msg 148 175 0;
#X obj 116 123 bng 19 250 50 0 empty empty empty 0 -10 0 12 #fcfcfc #000000 #000000;
#X obj 116 147 t b b;
#X text 297 102 when phasor reaches top;
#X text 193 160 set freq to 0;
#X text 193 179 and reset phase;
#X obj 51 47 inlet;
#X text 105 47 freq in;
#X obj 45 358 outlet~;
#X text 49 15 ONE SHOT PHASOR - start with frequency value;
#X text 418 18 Atau Tanaka 2024;
#X obj 48 217 phasor~ \$1;
#X obj 147 330 tgl 19 0 empty empty empty 0 -10 0 12 #fcfcfc #000000 #000000 0 1;
#X obj 147 356 outlet;
#X text 221 331 phasor~ busy flag;
#X obj 116 99 threshold~ 0.999 0 0.1 0;
#X obj 158 276 bng 19 250 50 0 empty empty empty 0 -10 0 12 #fcfcfc #000000 #000000;
#X obj 158 252 threshold~ 0.001 0 0.1 0;
#X msg 158 300 1;
#X connect 0 0 12 1;
#X connect 1 0 12 0;
#X connect 1 0 13 0;
#X connect 2 0 3 0;
#X connect 3 0 0 0;
#X connect 3 1 1 0;
#X connect 7 0 12 0;
#X connect 12 0 9 0;
#X connect 12 0 16 0;
#X connect 12 0 18 0;
#X connect 13 0 14 0;
#X connect 16 0 2 0;
#X connect 17 0 19 0;
#X connect 18 0 17 0;
#X connect 19 0 13 0;
