#N canvas 237 262 429 460 12;
#X msg 95 300 0;
#X msg 127 300 0;
#X obj 95 200 > 0.99;
#X obj 95 224 select 1;
#X obj 95 248 bng 19 250 50 0 empty empty empty 0 -10 0 12 #fcfcfc #000000 #000000;
#X obj 95 272 t b b;
#X text 149 200 when phasor reaches top;
#X text 172 285 set freq to 0;
#X text 172 304 and reset phase;
#X obj 96 142 snapshot~;
#X obj 236 93 tgl 19 0 empty empty empty 0 -10 0 12 #fcfcfc #000000 #000000 0 1;
#X obj 236 60 loadbang;
#X obj 236 126 metro 1;
#X obj 57 96 inlet;
#X text 111 96 freq in;
#X obj 52 374 outlet~;
#X text 49 15 ONE SHOT PHASOR - start with frequency value;
#X text 277 402 Atau Tanaka 2024;
#X obj 52 343 phasor~ \$1;
#X connect 0 0 18 1;
#X connect 1 0 18 0;
#X connect 2 0 3 0;
#X connect 3 0 4 0;
#X connect 4 0 5 0;
#X connect 5 0 0 0;
#X connect 5 1 1 0;
#X connect 9 0 2 0;
#X connect 10 0 12 0;
#X connect 11 0 10 0;
#X connect 12 0 9 0;
#X connect 13 0 18 0;
#X connect 18 0 9 0;
#X connect 18 0 15 0;
