#N canvas 875 527 485 454 12;
#X obj 178 120 phasor~ 1;
#X obj 178 168 * 127;
#X obj 183 205 vsl 19 162 0 127 0 0 empty empty empty 0 -9 0 12 #fcfcfc #000000 #000000 0 1;
#X obj 178 144 snapshot~;
#X obj 326 107 metro 10;
#X obj 327 73 tgl 19 0 empty empty empty 0 -10 0 12 #fcfcfc #000000 #000000 0 1;
#X obj 332 40 loadbang;
#X msg 207 50 0;
#X msg 162 45 0;
#X msg 116 42 1;
#X connect 0 0 3 0;
#X connect 1 0 2 0;
#X connect 3 0 1 0;
#X connect 4 0 3 0;
#X connect 5 0 4 0;
#X connect 6 0 5 0;
#X connect 7 0 0 1;
#X connect 8 0 0 0;
#X connect 9 0 0 0;
