#N canvas 87 289 591 539 12;
#X obj 162 223 clone clonetest 4;
#X listbox 161 266 20 0 0 0 - - - 0;
#X listbox 331 235 20 0 0 0 - - - 0;
#X msg 163 191 0 \$1 \$2;
#X msg 24 192 vis 2 0;
#X msg 87 192 vis 2 1;
#X msg 24 218 vis 3 0;
#X msg 87 218 vis 3 1;
#X msg 25 135 vis 0 0;
#X msg 88 135 vis 0 1;
#X msg 25 161 vis 1 0;
#X msg 88 161 vis 1 1;
#X obj 183 24 tgl 19 0 empty empty empty 0 -10 0 12 #fcfcfc #000000 #000000 0 1;
#X obj 183 48 metro 200;
#X obj 239 89 random 100;
#X msg 183 72 1;
#X obj 183 96 +;
#X obj 183 120 t f f;
#X floatatom 240 138 5 0 0 0 - - - 0;
#X floatatom 283 137 5 0 0 0 - - - 0;
#X obj 240 161 pack;
#X obj 281 300 list split 1;
#X obj 281 324 + 1;
#X obj 281 382 list;
#X listbox 330 263 20 0 0 0 - - - 0;
#X obj 341 399 route 4;
#X listbox 352 468 20 0 0 0 - - - 0;
#X msg 372 347 4 50 50;
#X connect 0 0 1 0;
#X connect 0 1 2 0;
#X connect 0 1 21 0;
#X connect 3 0 0 0;
#X connect 4 0 0 0;
#X connect 5 0 0 0;
#X connect 6 0 0 0;
#X connect 7 0 0 0;
#X connect 8 0 0 0;
#X connect 9 0 0 0;
#X connect 10 0 0 0;
#X connect 11 0 0 0;
#X connect 12 0 13 0;
#X connect 13 0 14 0;
#X connect 13 0 15 0;
#X connect 14 0 19 0;
#X connect 15 0 16 0;
#X connect 16 0 17 0;
#X connect 17 0 16 1;
#X connect 17 1 18 0;
#X connect 18 0 20 0;
#X connect 19 0 20 1;
#X connect 20 0 3 0;
#X connect 21 0 22 0;
#X connect 21 1 23 1;
#X connect 22 0 23 0;
#X connect 23 0 24 0;
#X connect 23 0 25 0;
#X connect 25 1 26 0;
#X connect 25 1 0 0;
#X connect 27 0 25 0;
