#N canvas 675 60 572 757 12;
#X obj 25 728 outlet~;
#X obj 25 405 +~, f 6;
#X obj 25 429 *~ 44.1;
#X obj 25 608 *~;
#X obj 43 564 tabread~ wndw;
#X obj 43 520 *~ 1;
#X obj 69 482 r trisize;
#X text 142 564 gain multiplided by tri window;
#X obj 28 60 unpack 0 0 0, f 18;
#X floatatom 177 108 5 0 0 0 - - - 0;
#X floatatom 27 106 5 0 0 0 - - - 0;
#X floatatom 89 106 5 0 0 0 - - - 0;
#X obj 119 251 tgl 19 0 empty empty empty 0 -10 0 12 #fcfcfc #000000 #000000 0 1;
#X obj 401 116 spigot;
#X obj 398 663 outlet;
#X text 449 662 overflow;
#X obj 28 11 inlet;
#X obj 25 688 *~ 0.5;
#X text 137 690 set gain for each grain here;
#X text 179 126 linetime;
#X obj 260 363 samplerate~;
#X obj 260 387 / 1000;
#X floatatom 260 411 5 0 0 0 - - - 0;
#X obj 260 338 loadbang;
#X obj 83 508 print triangle;
#X obj 28 36 spigot, f 23;
#X obj 139 269 flip 1;
#X obj 186 287 tgl 19 0 empty empty empty 0 -10 0 12 #fcfcfc #000000 #000000 0 1;
#X obj 419 199 float \$1;
#X obj 419 170 bng 19 250 50 0 empty empty empty 17 7 0 10 #dfdfdf #000000 #000000;
#X text 445 170 instance number;
#X obj 419 141 loadbang;
#X obj 87 729 outlet~;
#X obj 87 689 *~ 0.5;
#X obj 25 651 pan1~;
#X text 85 650 pan -1 - 1;
#X obj 25 455 tabread~ doublebuf;
#X floatatom 419 225 5 0 0 0 - - - 0;
#X floatatom 468 280 5 0 0 0 - - - 0;
#X obj 468 256 % 2;
#X obj 419 256 / 2;
#X floatatom 419 304 5 0 0 0 - - - 0;
#X obj 419 280 i;
#X obj 468 303 sel 1;
#X msg 468 327 -1;
#X msg 503 327 1;
#X obj 419 374 *;
#X floatatom 419 397 5 0 0 0 - - - 0;
#X obj 419 327 * 0.15;
#X obj 419 351 + 0.2;
#X text 404 429 pan wider \, the higher the instange number. Odd to the left \, even to the right, f 23;
#X obj 64 380 *~, f 4;
#X text 31 126 pos;
#X text 93 126 dur;
#X obj 46 232 oneshot~;
#X text 85 6 Trigger grain with message: position (ms) \, grandur \, transposition (cts), f 47;
#X connect 1 0 2 0;
#X connect 2 0 36 0;
#X connect 3 0 34 0;
#X connect 4 0 3 1;
#X connect 5 0 4 0;
#X connect 6 0 5 1;
#X connect 6 0 24 0;
#X connect 8 0 10 0;
#X connect 8 1 11 0;
#X connect 8 2 9 0;
#X connect 9 0 54 0;
#X connect 10 0 1 0;
#X connect 11 0 51 1;
#X connect 12 0 13 1;
#X connect 12 0 26 0;
#X connect 13 0 14 0;
#X connect 16 0 13 0;
#X connect 16 0 25 0;
#X connect 17 0 0 0;
#X connect 20 0 21 0;
#X connect 21 0 22 0;
#X connect 22 0 2 1;
#X connect 23 0 20 0;
#X connect 25 0 8 0;
#X connect 26 0 27 0;
#X connect 27 0 25 1;
#X connect 28 0 37 0;
#X connect 29 0 28 0;
#X connect 31 0 29 0;
#X connect 33 0 32 0;
#X connect 34 0 17 0;
#X connect 34 1 33 0;
#X connect 36 0 3 0;
#X connect 37 0 39 0;
#X connect 37 0 40 0;
#X connect 38 0 43 0;
#X connect 39 0 38 0;
#X connect 40 0 42 0;
#X connect 41 0 48 0;
#X connect 42 0 41 0;
#X connect 43 0 44 0;
#X connect 43 1 45 0;
#X connect 44 0 46 1;
#X connect 45 0 46 1;
#X connect 46 0 47 0;
#X connect 47 0 34 1;
#X connect 48 0 49 0;
#X connect 49 0 46 0;
#X connect 51 0 1 1;
#X connect 54 0 5 0;
#X connect 54 0 51 0;
#X connect 54 1 12 0;
