#N canvas 593 243 1381 891 10;
#X obj 192 810 dac~ 1 2;
#X obj 192 767 *~ 0.1;
#X obj 192 366 mtof;
#X obj 192 404 phasor~ 440;
#X obj 348 407 * 20;
#X obj 348 430 + 200;
#X obj 348 550 * 10;
#X obj 192 634 hip~;
#X obj 192 656 hip~;
#X obj 192 678 hip~;
#X obj 192 699 hip~;
#X obj 348 477 lop~ 4;
#X obj 348 617 line;
#X obj 348 572 + 50;
#X msg 348 594 \$1 200;
#X obj 192 508 vcf~ 4;
#X obj 192 306 mono;
#X obj 192 262 notein 0;
#X obj 348 384 ctlin 5 0;
#X obj 348 528 ctlin 6 0;
#X obj 348 454 sig~ 1000;
#X obj 192 426 *~ 2;
#X obj 192 448 -~ 1;
#X obj 225 745 * 0.1;
#X text 421 527 <<< cc 6 controls high pass centre frequency;
#X text 421 384 <<< cc 5 controls resonant low pass centre frequency;
#X text 186 75 Hello midi!;
#X text 184 85 ===========;
#X text 255 307 <<< abstraction for monophonic voice stealing;
#X obj 213 337 s gate;
#X obj 225 723 r gate;
#X text 190 117 Here's a simple monophonic synthesiser that is controllable;
#X text 190 130 with a midi controller. Note and control messages can be;
#X text 190 144 obtained using the;
#X obj 326 143 notein;
#X text 380 144 and;
#X obj 417 144 ctlin;
#X text 462 144 objects.;
#X text 190 168 Most midi devices should be compatible when plugged into;
#X text 190 181 the BeagleBone's USB port.;
#X text 592 69 ............................;
#X text 592 79 . ____ ._____ _ .......___ .;
#X text 592 89 .| __ )| ____| |....../ _ |.;
#X text 592 109 .| |_) | |___| |___ / ___ |.;
#X text 592 119 .|____/|_____|_____/_/..._|.io;
#X text 592 129 ............................;
#X text 592 99 .| __ || __|.| |...../ _| |.;
#X obj 665 242 loadbang;
#X msg 665 268 hw 0 0 0;
#X text 654 166 By default \, port hw:1 \, 0 \, 0 is open;
#X obj 665 295 send bela_setMidi;
#X text 654 176 (if it exists). This normally is;
#X text 654 186 the first USB MIDI device plugged in.;
#X text 654 196 You can open moreports by sending a;
#X text 654 206 message to bela_setMidi. For instance \,;
#X text 786 239 On v0.3 (or above) images \,;
#X text 786 249 hw:0 \, 0 \, 0 is the virtual port;
#X text 786 259 that shows up on the host computer.;
#X text 654 216 in order to open hw:0 \, 0 \, 0 \, do:;
#X text 190 211 https://learn.bela.io/tutorials/pure-data/communication/midi-send-and-receive/;
#X obj 124 53 ctlin;
#X floatatom 90 100 5 0 0 0 - - - 0;
#X floatatom 131 100 5 0 0 0 - - - 0;
#X floatatom 172 101 5 0 0 0 - - - 0;
#X obj 110 139 swap;
#X floatatom 110 163 5 0 0 0 - - - 0;
#X floatatom 150 164 5 0 0 0 - - - 0;
#X obj 110 186 pack;
#X obj 110 210 route 2 3 4 5 6 7 8 9;
#X obj 254 240 unpack;
#X floatatom 254 264 5 0 0 0 - - - 0;
#X floatatom 295 264 5 0 0 0 - - - 0;
#X obj 840 422 initialise_digitals;
#X text 1001 422 Initialise LEDs \, buttons and trigger inputs;
#X obj 841 722 led-bargraph, f 60;
#X obj 806 470 buttons, f 58;
#X obj 806 497 print Button 1:;
#X obj 919 497 print Button 2:;
#X text 1183 469 Read from all buttons;
#X obj 1036 497 print Button 3:;
#X obj 1152 496 print Button 4:;
#X obj 660 634 metro 1000;
#X obj 661 608 tgl 16 0 empty empty empty 0 -8 0 10 #fcfcfc #000000 #000000 0 1;
#X obj 661 584 loadbang;
#X obj 660 655 tgl 16 0 empty empty empty 0 -8 0 10 #fcfcfc #000000 #000000 0 1;
#X floatatom 660 676 5 0 0 0 - - - 0;
#X obj 864 570 route 47 48 49 46 44;
#X obj 817 609 sel 127;
#X msg 817 630 1;
#X floatatom 833 655 5 0 0 0 - - - 0;
#X obj 873 608 sel 127;
#X msg 873 629 1;
#X floatatom 889 654 5 0 0 0 - - - 0;
#X obj 927 609 sel 127;
#X msg 927 630 1;
#X floatatom 943 655 5 0 0 0 - - - 0;
#X obj 983 608 sel 127;
#X msg 983 629 1;
#X floatatom 999 654 5 0 0 0 - - - 0;
#X obj 1046 610 sel 127;
#X msg 1046 631 1;
#X floatatom 1062 656 5 0 0 0 - - - 0;
#X obj 254 284 + 12;
#X floatatom 1204 561 5 0 0 0 - - - 0;
#X floatatom 1204 602 5 0 0 0 - - - 0;
#X obj 1204 581 / 30;
#X obj 1204 622 > 1;
#X floatatom 1204 643 5 0 0 0 - - - 0;
#X floatatom 1240 643 5 0 0 0 - - - 0;
#X floatatom 1276 643 5 0 0 0 - - - 0;
#X floatatom 1312 643 5 0 0 0 - - - 0;
#X obj 1240 622 > 2;
#X obj 1276 622 > 3;
#X obj 1312 622 > 4;
#X connect 1 0 0 1;
#X connect 1 0 0 0;
#X connect 2 0 3 0;
#X connect 3 0 21 0;
#X connect 4 0 5 0;
#X connect 5 0 20 0;
#X connect 6 0 13 0;
#X connect 7 0 8 0;
#X connect 8 0 9 0;
#X connect 9 0 10 0;
#X connect 10 0 1 0;
#X connect 11 0 15 1;
#X connect 12 0 7 1;
#X connect 12 0 8 1;
#X connect 12 0 9 1;
#X connect 12 0 10 1;
#X connect 13 0 14 0;
#X connect 14 0 12 0;
#X connect 15 0 7 0;
#X connect 16 0 2 0;
#X connect 16 1 29 0;
#X connect 18 0 4 0;
#X connect 18 0 103 0;
#X connect 19 0 6 0;
#X connect 20 0 11 0;
#X connect 21 0 22 0;
#X connect 22 0 15 0;
#X connect 23 0 1 1;
#X connect 30 0 23 0;
#X connect 47 0 48 0;
#X connect 48 0 50 0;
#X connect 60 0 61 0;
#X connect 60 1 62 0;
#X connect 60 2 63 0;
#X connect 61 0 64 0;
#X connect 62 0 64 1;
#X connect 64 0 65 0;
#X connect 64 1 66 0;
#X connect 65 0 67 0;
#X connect 66 0 67 1;
#X connect 67 0 68 0;
#X connect 67 0 86 0;
#X connect 68 8 69 0;
#X connect 69 0 70 0;
#X connect 69 1 71 0;
#X connect 70 0 102 0;
#X connect 71 0 16 1;
#X connect 75 0 76 0;
#X connect 75 1 77 0;
#X connect 75 2 79 0;
#X connect 75 3 80 0;
#X connect 81 0 84 0;
#X connect 82 0 81 0;
#X connect 83 0 82 0;
#X connect 84 0 85 0;
#X connect 85 0 74 0;
#X connect 86 0 87 0;
#X connect 86 1 90 0;
#X connect 86 2 93 0;
#X connect 86 3 96 0;
#X connect 86 4 99 0;
#X connect 87 0 88 0;
#X connect 87 1 89 0;
#X connect 88 0 89 0;
#X connect 89 0 74 1;
#X connect 90 0 91 0;
#X connect 90 1 92 0;
#X connect 91 0 92 0;
#X connect 92 0 74 2;
#X connect 93 0 94 0;
#X connect 93 1 95 0;
#X connect 94 0 95 0;
#X connect 95 0 74 3;
#X connect 96 0 97 0;
#X connect 96 1 98 0;
#X connect 97 0 98 0;
#X connect 98 0 74 4;
#X connect 99 0 100 0;
#X connect 99 1 101 0;
#X connect 100 0 101 0;
#X connect 101 0 74 5;
#X connect 102 0 16 0;
#X connect 103 0 105 0;
#X connect 104 0 106 0;
#X connect 104 0 111 0;
#X connect 104 0 112 0;
#X connect 104 0 113 0;
#X connect 105 0 104 0;
#X connect 106 0 107 0;
#X connect 107 0 74 6;
#X connect 108 0 74 7;
#X connect 109 0 74 8;
#X connect 110 0 74 9;
#X connect 111 0 108 0;
#X connect 112 0 109 0;
#X connect 113 0 110 0;
