#N canvas 104 293 736 428 12;
#X obj 65 55 inlet;
#X obj 438 89 float \$1;
#X obj 438 45 bng 19 250 50 0 empty empty empty 17 7 0 10 #dfdfdf #000000 #000000;
#X floatatom 438 118 5 0 0 0 - - - 0;
#X text 468 45 instance number;
#X obj 214 139 metro;
#X obj 214 71 tgl 19 0 empty empty empty 0 -10 0 12 #fcfcfc #000000 #000000 0 1;
#X obj 264 18 loadbang;
#X obj 264 42 random 250;
#X obj 264 69 + 500;
#X obj 214 163 tgl 19 0 empty empty empty 0 -10 0 12 #fcfcfc #000000 #000000 0 1;
#X floatatom 264 93 5 0 0 0 - - - 0;
#X text 260 163 busy flag;
#X obj 214 187 flip 1;
#X obj 214 211 tgl 19 0 empty empty empty 0 -10 0 12 #fcfcfc #000000 #000000 0 1;
#X obj 85 207 spigot;
#X obj 293 216 spigot;
#X obj 480 280 list;
#X msg 509 178 100 200;
#X obj 443 6 loadbang;
#X obj 455 240 i;
#X obj 509 202 t b l;
#X obj 465 169 + 1;
#X obj 292 246 outlet;
#X text 343 245 overflow;
#X obj 85 231 outlet;
#X listbox 24 154 20 0 0 0 - - - 0;
#X connect 0 0 15 0;
#X connect 0 0 16 0;
#X connect 0 0 26 0;
#X connect 1 0 3 0;
#X connect 2 0 1 0;
#X connect 3 0 22 0;
#X connect 5 0 10 0;
#X connect 6 0 5 0;
#X connect 7 0 6 0;
#X connect 7 0 8 0;
#X connect 8 0 9 0;
#X connect 9 0 11 0;
#X connect 10 0 13 0;
#X connect 10 0 16 1;
#X connect 11 0 5 1;
#X connect 13 0 14 0;
#X connect 14 0 15 1;
#X connect 15 0 25 0;
#X connect 16 0 23 0;
#X connect 18 0 21 0;
#X connect 19 0 2 0;
#X connect 20 0 17 0;
#X connect 21 0 20 0;
#X connect 21 1 17 1;
#X connect 22 0 20 1;
