#N canvas 695 884 807 460 12;
#X obj 67 84 phasor~ 1;
#X obj 178 168 * 127;
#X obj 183 205 vsl 19 162 0 127 0 0 empty empty empty 0 -9 0 12 #fcfcfc #000000 #000000 0 1;
#X obj 178 144 snapshot~;
#X obj 327 73 tgl 19 0 empty empty empty 0 -10 0 12 #fcfcfc #000000 #000000 0 1;
#X obj 332 40 loadbang;
#X msg 723 348 0;
#X msg 753 350 0;
#X msg 166 19 1;
#X msg 126 18 2;
#X obj 326 107 metro 1;
#X obj 721 250 > 0.99;
#X obj 721 274 select 1;
#X obj 721 298 bng 19 250 50 0 empty empty empty 0 -10 0 12 #fcfcfc #000000 #000000;
#X obj 721 322 t b b;
#N canvas 207 233 445 449 oneshot-phasor 1;
#X msg 95 265 0;
#X msg 127 265 0;
#X obj 95 165 > 0.99;
#X obj 95 189 select 1;
#X obj 95 213 bng 19 250 50 0 empty empty empty 0 -10 0 12 #fcfcfc #000000 #000000;
#X obj 95 237 t b b;
#X text 149 165 when phasor reaches top;
#X text 172 250 set freq to 0;
#X text 172 269 and reset phase;
#X obj 96 107 snapshot~;
#X obj 236 58 tgl 19 0 empty empty empty 0 -10 0 12 #fcfcfc #000000 #000000 0 1;
#X obj 236 25 loadbang;
#X obj 236 91 metro 1;
#X obj 57 61 inlet;
#X obj 53 308 phasor~ 1;
#X text 111 61 freq in;
#X obj 52 339 outlet~;
#X connect 0 0 14 1;
#X connect 1 0 14 0;
#X connect 2 0 3 0;
#X connect 3 0 4 0;
#X connect 4 0 5 0;
#X connect 5 0 0 0;
#X connect 5 1 1 0;
#X connect 9 0 2 0;
#X connect 10 0 12 0;
#X connect 11 0 10 0;
#X connect 12 0 9 0;
#X connect 13 0 14 0;
#X connect 14 0 9 0;
#X connect 14 0 16 0;
#X restore 141 84 pd oneshot-phasor;
#X connect 1 0 2 0;
#X connect 3 0 1 0;
#X connect 4 0 10 0;
#X connect 5 0 4 0;
#X connect 8 0 15 0;
#X connect 9 0 15 0;
#X connect 10 0 3 0;
#X connect 11 0 12 0;
#X connect 12 0 13 0;
#X connect 13 0 14 0;
#X connect 14 0 6 0;
#X connect 14 1 7 0;
#X connect 15 0 3 0;
